700 0 1 0           
30 Autodesk Translation Framework 21 ASM 223.22.0.65535 NT 24 Thu Nov 30 09:47:14 2017 
1 9.999999999999999547e-07 1.000000000000000036e-10 
body $1 -1 $-1 $2 $-1 $3 #
rgb_color-st-attrib $-1 -1 $4 $-1 $0 0.9568627450980392579 0.9568627450980392579 0.9568627450980392579 #
lump $-1 -1 $-1 $-1 $5 $0 #
transform $-1 -1 1 0 0 0 1 0 0 0 1 0 0 0 1 no_rotate no_reflect no_shear #
DXID-attrib $-1 -1 $-1 $1 $0 @10 ASM ENTITY @102 HE1.75-HB-V3.IPT|:|1911DCC71EFE8AD44FF6DC84ED8CBD1BB4097E2D|:|DA4B9237BACCCDF19C0760CAB7AEC4A8359010B0 #
shell $6 -1 $-1 $-1 $-1 $7 $-1 $2 #
string_attrib-name_attrib-gen-attrib $-1 -1 $-1 $-1 $5 keep keep_kept ignore copy @17 ATF_ExternalShell @4 true #
face $8 -1 $-1 $9 $10 $5 $-1 $11 forward single #
DXID-attrib $-1 -1 $-1 $-1 $7 @10 ASM ENTITY @36 e8e337da-ecbf-494c-9ba0-8a8eb46b62c3 #
face $12 -1 $-1 $13 $14 $5 $-1 $15 forward single #
loop $-1 -1 $-1 $-1 $16 $7 #
plane-surface $-1 -1 $-1 7.749999999999998224 10 5.5 0.5773502691896249539 0.5773502691896275074 0.5773502691896249539 7.071067811865475505 0 -7.071067811865475505 forward_v I I I I #
DXID-attrib $-1 -1 $-1 $-1 $9 @10 ASM ENTITY @36 3e6778c4-4203-409e-ad21-05039a523841 #
face $17 -1 $-1 $18 $19 $5 $-1 $20 forward single #
loop $-1 -1 $-1 $-1 $21 $9 #
plane-surface $-1 -1 $-1 7.999999999999999112 -9.75 5.5 0.5773502691896257311 -0.5773502691896257311 0.5773502691896257311 7.071067811865474617 0 -7.071067811865474617 forward_v I I I I #
coedge $-1 -1 $-1 $22 $23 $24 $25 reversed $10 $-1 #
DXID-attrib $-1 -1 $-1 $-1 $13 @10 ASM ENTITY @36 edd47b82-17b8-47f1-a65f-e5c25d33f5b7 #
face $26 -1 $-1 $27 $28 $5 $-1 $29 forward single #
loop $-1 -1 $-1 $-1 $30 $13 #
plane-surface $-1 -1 $-1 7.874999999999998224 -9.875 0 0.7071067811865475727 -0.7071067811865475727 0 0 0 -10 forward_v I I I I #
coedge $-1 -1 $-1 $31 $32 $33 $34 reversed $14 $-1 #
coedge $-1 -1 $-1 $23 $16 $35 $36 reversed $10 $-1 #
coedge $-1 -1 $-1 $16 $22 $37 $38 reversed $10 $-1 #
coedge $-1 -1 $-1 $39 $40 $16 $25 forward $28 $-1 #
edge $-1 -1 $-1 $41 0 $42 0.03535533905932740362 $24 $43 forward @7 unknown #
DXID-attrib $-1 -1 $-1 $-1 $18 @10 ASM ENTITY @36 49a9acf8-be4e-4d4b-ba23-64143b7eb7c5 #
face $44 -1 $-1 $45 $46 $5 $-1 $47 forward single #
loop $-1 -1 $-1 $-1 $24 $18 #
plane-surface $-1 -1 $-1 7.874999999999998224 -5 5.625 0.7071067811865475727 3.925231146709437917e-17 0.7071067811865475727 7.071067811865475505 0 -7.071067811865475505 forward_v I I I I #
coedge $-1 -1 $-1 $48 $49 $50 $51 forward $19 $-1 #
coedge $-1 -1 $-1 $32 $21 $52 $53 reversed $14 $-1 #
coedge $-1 -1 $-1 $21 $31 $54 $55 reversed $14 $-1 #
coedge $-1 -1 $-1 $56 $57 $21 $34 forward $58 $-1 #
edge $-1 -1 $-1 $59 0 $60 0.03535533905932740362 $33 $61 forward @7 unknown #
coedge $-1 -1 $-1 $62 $63 $22 $36 forward $64 $-1 #
edge $-1 -1 $-1 $65 0 $41 0.03535533905932733423 $35 $66 forward @7 unknown #
coedge $-1 -1 $-1 $67 $68 $23 $38 forward $69 $-1 #
edge $-1 -1 $-1 $42 7.850462293418909114e-17 $65 0.03535533905932740362 $37 $70 forward @7 unknown #
coedge $-1 -1 $-1 $54 $24 $71 $72 forward $28 $-1 #
coedge $-1 -1 $-1 $24 $54 $73 $74 forward $28 $-1 #
vertex $-1 -1 $-1 $25 $75 #
vertex $-1 -1 $-1 $25 $76 #
straight-curve $-1 -1 $-1 7.999999999999998224 9.75 5.5 -7.071067811865474617 0 7.071067811865474617 F 0 F 0.03535533905932740362 #
DXID-attrib $-1 -1 $-1 $-1 $27 @10 ASM ENTITY @36 04ccda92-b867-4721-bb83-eac00e92132d #
face $77 -1 $-1 $78 $64 $5 $-1 $79 forward single #
loop $-1 -1 $-1 $-1 $80 $27 #
plane-surface $-1 -1 $-1 7.999999999999998224 9.75 -5.5 0.5773502691896249539 0.5773502691896275074 -0.5773502691896249539 -7.071067811865475505 0 -7.071067811865475505 forward_v I I I I #
coedge $-1 -1 $-1 $52 $30 $81 $82 forward $19 $-1 #
coedge $-1 -1 $-1 $30 $52 $83 $84 forward $19 $-1 #
coedge $-1 -1 $-1 $85 $86 $30 $51 reversed $87 $-1 #
edge $-1 -1 $-1 $88 0.2457196064623251575 $89 0.2810749455216526305 $50 $90 forward @7 unknown #
coedge $-1 -1 $-1 $49 $48 $31 $53 forward $19 $-1 #
edge $-1 -1 $-1 $91 0 $59 0.03535533905932740362 $52 $92 forward @7 unknown #
coedge $-1 -1 $-1 $40 $39 $32 $55 forward $28 $-1 #
edge $-1 -1 $-1 $60 0 $91 0.03535533905932740362 $54 $93 forward @7 unknown #
coedge $-1 -1 $-1 $94 $33 $95 $96 forward $58 $-1 #
coedge $-1 -1 $-1 $33 $94 $97 $98 forward $58 $-1 #
loop $-1 -1 $-1 $-1 $33 $99 #
vertex $-1 -1 $-1 $34 $100 #
vertex $-1 -1 $-1 $34 $101 #
straight-curve $-1 -1 $-1 7.749999999999998224 -10 5.5 0 7.071067811865474617 7.071067811865474617 F 0 F 0.03535533905932740362 #
coedge $-1 -1 $-1 $102 $35 $103 $104 forward $64 $-1 #
coedge $-1 -1 $-1 $35 $102 $105 $106 forward $64 $-1 #
loop $-1 -1 $-1 $-1 $102 $45 #
vertex $-1 -1 $-1 $36 $107 #
straight-curve $-1 -1 $-1 7.749999999999998224 10 5.5 7.071067811865491493 -7.071067811865460406 0 F 0 F 0.03535533905932733423 #
coedge $-1 -1 $-1 $108 $37 $109 $110 forward $69 $-1 #
coedge $-1 -1 $-1 $37 $108 $111 $112 forward $69 $-1 #
loop $-1 -1 $-1 $-1 $108 $113 #
straight-curve $-1 -1 $-1 7.749999999999999112 9.75 5.750000000000000888 -3.140184917367547079e-14 7.071067811865474617 -7.071067811865474617 F 0 F 0.03535533905932740362 #
coedge $-1 -1 $-1 $111 $95 $39 $72 reversed $114 $-1 #
edge $-1 -1 $-1 $42 -1.475000000000000089 $60 0.4749999999999999778 $71 $115 forward @7 unknown #
coedge $-1 -1 $-1 $81 $103 $40 $74 reversed $116 $-1 #
edge $-1 -1 $-1 $91 -0.4749999999999999778 $41 1.475000000000000089 $73 $117 forward @7 unknown #
point $-1 -1 $-1 7.999999999999998224 9.75 5.5 #
point $-1 -1 $-1 7.749999999999998224 9.75 5.750000000000000888 #
DXID-attrib $-1 -1 $-1 $-1 $45 @10 ASM ENTITY @36 dbfbeac6-9c26-4bf8-8ac7-caf9fab6dc16 #
face $118 -1 $-1 $119 $120 $5 $-1 $121 forward single #
plane-surface $-1 -1 $-1 7.874999999999998224 9.875 0 0.7071067811865460184 0.707106781186549127 0 0 0 -10 forward_v I I I I #
coedge $-1 -1 $-1 $122 $123 $124 $125 reversed $46 $-1 #
coedge $-1 -1 $-1 $126 $73 $48 $82 reversed $116 $-1 #
edge $-1 -1 $-1 $89 -0.09999999999999965861 $91 0.5500000000000000444 $81 $127 forward @7 unknown #
coedge $-1 -1 $-1 $97 $128 $49 $84 reversed $129 $-1 #
edge $-1 -1 $-1 $59 -0.5500000000000000444 $88 0.09999999999999964473 $83 $130 forward @7 unknown #
coedge $-1 -1 $-1 $131 $50 $128 $132 reversed $87 $-1 #
coedge $-1 -1 $-1 $50 $133 $126 $134 reversed $87 $-1 #
loop $-1 -1 $-1 $135 $50 $136 #
vertex $-1 -1 $-1 $51 $137 #
vertex $-1 -1 $-1 $51 $138 #
straight-curve $-1 -1 $-1 6.012499999999998401 -11.73749999999999893 -0.9999999999999957812 7.071067811865475505 7.071067811865475505 -2.754548173129429844e-15 I I #
vertex $-1 -1 $-1 $53 $139 #
straight-curve $-1 -1 $-1 7.999999999999999112 -9.75 5.5 -7.071067811865474617 -7.071067811865474617 0 F 0 F 0.03535533905932740362 #
straight-curve $-1 -1 $-1 7.749999999999999112 -9.75 5.750000000000000888 7.071067811865474617 0 -7.071067811865474617 F 0 F 0.03535533905932740362 #
coedge $-1 -1 $-1 $57 $56 $140 $141 forward $58 $-1 #
coedge $-1 -1 $-1 $71 $142 $56 $96 reversed $114 $-1 #
edge $-1 -1 $-1 $60 -1.174999999999999822 $143 0.374999999999999889 $95 $144 forward @7 unknown #
coedge $-1 -1 $-1 $145 $83 $57 $98 reversed $129 $-1 #
edge $-1 -1 $-1 $146 -0.374999999999999889 $59 1.174999999999999822 $97 $147 forward @7 unknown #
face $148 -1 $-1 $149 $58 $5 $-1 $150 forward single #
point $-1 -1 $-1 7.749999999999999112 -10 5.5 #
point $-1 -1 $-1 7.749999999999998224 -9.75 5.750000000000000888 #
coedge $-1 -1 $-1 $63 $62 $122 $151 forward $64 $-1 #
coedge $-1 -1 $-1 $73 $152 $62 $104 reversed $116 $-1 #
edge $-1 -1 $-1 $41 -0.5500000000000000444 $153 0.5500000000000000444 $103 $154 forward @7 unknown #
coedge $-1 -1 $-1 $155 $109 $63 $106 reversed $156 $-1 #
edge $-1 -1 $-1 $157 -0.5500000000000000444 $65 0.5500000000000000444 $105 $158 forward @7 unknown #
point $-1 -1 $-1 7.749999999999998224 10 5.5 #
coedge $-1 -1 $-1 $68 $67 $159 $160 forward $69 $-1 #
coedge $-1 -1 $-1 $105 $161 $67 $110 reversed $156 $-1 #
edge $-1 -1 $-1 $65 -0.3749999999999999445 $162 -0.01999999999999985123 $109 $163 forward @7 unknown #
coedge $-1 -1 $-1 $164 $71 $68 $112 reversed $114 $-1 #
edge $-1 -1 $-1 $165 0.01999999999999990674 $42 0.3749999999999999445 $111 $166 forward @7 unknown #
face $167 -1 $-1 $168 $69 $5 $-1 $169 forward single #
loop $-1 -1 $-1 $170 $171 $172 #
straight-curve $-1 -1 $-1 7.749999999999999112 -5 5.750000000000000888 5.551115123125782702e-16 -10 0 F -1.527500999999999998 F 0.5275009999999999977 #
loop $-1 -1 $-1 $-1 $81 $173 #
straight-curve $-1 -1 $-1 7.999999999999999112 -5 5.5 -5.551115123125782702e-16 10 0 F -0.5275009999999999977 F 1.527500999999999998 #
DXID-attrib $-1 -1 $-1 $-1 $78 @10 ASM ENTITY @36 0def75d0-b362-423a-9c10-1cc618cfeb13 #
face $174 -1 $-1 $99 $175 $5 $-1 $176 forward single #
loop $-1 -1 $-1 $-1 $177 $78 #
plane-surface $-1 -1 $-1 -7.749999999999999112 -10 5.5 -0.5773502691896240657 -0.5773502691896266192 0.5773502691896266192 7.071067811865491493 0 7.071067811865460406 forward_v I I I I #
coedge $-1 -1 $-1 $123 $80 $102 $151 reversed $46 $-1 #
coedge $-1 -1 $-1 $80 $122 $178 $179 reversed $46 $-1 #
coedge $-1 -1 $-1 $180 $181 $80 $125 forward $182 $-1 #
edge $-1 -1 $-1 $157 0 $183 0.03535533905932740362 $124 $184 forward @7 unknown #
coedge $-1 -1 $-1 $185 $81 $86 $134 forward $116 $-1 #
straight-curve $-1 -1 $-1 7.999999999999999112 -9.75 0 0 0 10 F -0.6025010000000001753 F 0.6025010000000001753 #
coedge $-1 -1 $-1 $83 $145 $85 $132 forward $129 $-1 #
loop $-1 -1 $-1 $-1 $83 $168 #
straight-curve $-1 -1 $-1 7.749999999999999112 -10 0 0 0 -10 F -0.6025010000000001753 F 0.6025010000000001753 #
coedge $-1 -1 $-1 $186 $85 $187 $188 reversed $87 $-1 #
edge $-1 -1 $-1 $189 0.0250000000000000222 $88 1.574999999999999734 $128 $190 forward @7 unknown #
coedge $-1 -1 $-1 $86 $186 $191 $192 reversed $87 $-1 #
edge $-1 -1 $-1 $89 -0.4024999999999999689 $193 0.1370262490344439921 $126 $194 forward @7 unknown #
loop $-1 -1 $-1 $-1 $195 $136 #
face $196 -1 $-1 $197 $87 $5 $-1 $198 reversed single #
point $-1 -1 $-1 7.749999999999998224 -10 -0.9999999999999964473 #
point $-1 -1 $-1 7.999999999999999112 -9.75 -0.9999999999999965583 #
point $-1 -1 $-1 7.999999999999999112 -9.75 5.5 #
coedge $-1 -1 $-1 $177 $199 $94 $141 reversed $120 $-1 #
edge $-1 -1 $-1 $143 0 $146 0.03535533905932740362 $94 $200 forward @7 unknown #
coedge $-1 -1 $-1 $95 $171 $201 $202 reversed $114 $-1 #
vertex $-1 -1 $-1 $203 $204 #
straight-curve $-1 -1 $-1 -4 -9.75 5.750000000000000888 -10 0 0 F -1.227501000000000175 F 0.4275010000000003529 #
coedge $-1 -1 $-1 $128 $97 $205 $206 reversed $129 $-1 #
vertex $-1 -1 $-1 $207 $208 #
straight-curve $-1 -1 $-1 -4 -10 5.5 10 0 0 F -0.4275010000000003529 F 1.227501000000000175 #
DXID-attrib $-1 -1 $-1 $-1 $99 @10 ASM ENTITY @36 886e422a-3a1b-4e96-b6e3-af460cee4ccc #
face $209 -1 $-1 $210 $211 $5 $-1 $212 forward single #
plane-surface $-1 -1 $-1 -4 -9.875 5.625 0 -0.7071067811865475727 0.7071067811865475727 10 0 0 forward_v I I I I #
edge $-1 -1 $-1 $153 0 $157 0.03535533905932733423 $102 $213 forward @7 unknown #
coedge $-1 -1 $-1 $103 $214 $215 $216 reversed $116 $-1 #
vertex $-1 -1 $-1 $151 $217 #
straight-curve $-1 -1 $-1 7.999999999999998224 9.75 0 0 0 -10 F -0.6025010000000001753 F 0.6025010000000001753 #
coedge $-1 -1 $-1 $161 $105 $181 $218 reversed $156 $-1 #
loop $-1 -1 $-1 $219 $155 $220 #
vertex $-1 -1 $-1 $125 $221 #
straight-curve $-1 -1 $-1 7.749999999999998224 10 0 0 0 10 F -0.6025010000000001753 F 0.6025010000000001753 #
coedge $-1 -1 $-1 $222 $223 $108 $160 reversed $224 $-1 #
edge $-1 -1 $-1 $162 -0.01767766952966370528 $165 0.01767766952966370528 $159 $225 forward @7 unknown #
coedge $-1 -1 $-1 $109 $155 $222 $226 forward $156 $-1 #
vertex $-1 -1 $-1 $160 $227 #
straight-curve $-1 -1 $-1 3.999999999999998668 10 5.5 -10 0 0 F -0.4275010000000001864 F 1.227501000000000175 #
coedge $-1 -1 $-1 $228 $111 $223 $229 forward $114 $-1 #
vertex $-1 -1 $-1 $160 $230 #
straight-curve $-1 -1 $-1 3.999999999999998668 9.75 5.750000000000000888 10 0 0 F -1.227501000000000175 F 0.4275010000000001864 #
DXID-attrib $-1 -1 $-1 $-1 $113 @10 ASM ENTITY @36 ca6f37ef-4a17-4413-a895-deba227f69f1 #
face $231 -1 $-1 $136 $129 $5 $-1 $232 forward single #
plane-surface $-1 -1 $-1 3.999999999999998668 9.875 5.625 0 0.7071067811865475727 0.7071067811865475727 10 0 0 forward_v I I I I #
loop $-1 -1 $-1 $233 $234 $172 #
coedge $-1 -1 $-1 $142 $235 $236 $237 reversed $114 $-1 #
face $238 -1 $-1 $239 $240 $5 $-1 $241 forward single #
face $242 -1 $-1 $243 $116 $5 $-1 $244 forward single #
DXID-attrib $-1 -1 $-1 $-1 $119 @10 ASM ENTITY @36 c53b3740-714e-4c43-a490-ccfa2b084312 #
loop $-1 -1 $-1 $-1 $187 $119 #
plane-surface $-1 -1 $-1 -7.874999999999998224 -9.875 0 -0.7071067811865460184 -0.707106781186549127 -0 0 0 10 forward_v I I I I #
coedge $-1 -1 $-1 $199 $140 $245 $203 reversed $120 $-1 #
coedge $-1 -1 $-1 $215 $246 $123 $179 forward $247 $-1 #
edge $-1 -1 $-1 $183 0 $153 0.03535533905932740362 $178 $248 forward @7 unknown #
coedge $-1 -1 $-1 $249 $124 $250 $251 forward $182 $-1 #
coedge $-1 -1 $-1 $124 $249 $155 $218 forward $182 $-1 #
loop $-1 -1 $-1 $-1 $249 $252 #
vertex $-1 -1 $-1 $125 $253 #
straight-curve $-1 -1 $-1 7.749999999999998224 10 -5.5 0 -7.071067811865474617 -7.071067811865474617 F 0 F 0.03535533905932740362 #
coedge $-1 -1 $-1 $254 $126 $255 $256 forward $116 $-1 #
coedge $-1 -1 $-1 $133 $131 $257 $258 reversed $87 $-1 #
coedge $-1 -1 $-1 $205 $259 $131 $188 forward $175 $-1 #
edge $-1 -1 $-1 $260 0.2846104794275847727 $189 0.3199658184869120792 $131 $261 forward @7 unknown #
vertex $-1 -1 $-1 $188 $262 #
straight-curve $-1 -1 $-1 -7.999999999999999112 -10 -0.9999999999999964473 10 0 6.30713899916287649e-31 I I #
coedge $-1 -1 $-1 $263 $255 $133 $192 forward $264 $-1 #
edge $-1 -1 $-1 $193 -1.599999999999999645 $265 -8.987673073807098823e-33 $191 $266 forward @7 unknown #
vertex $-1 -1 $-1 $192 $267 #
straight-curve $-1 -1 $-1 7.999999999999999112 -5.724999999999999645 -0.9999999999999981126 -5.551115123125782702e-16 10 -3.895519384649672348e-15 I I #
coedge $-1 -1 $-1 $195 $195 $268 $269 forward $135 $-1 #
DXID-attrib $-1 -1 $-1 $-1 $136 @10 ASM ENTITY @36 8d083b81-088f-458c-a8b1-0d03b35c5a40 #
face $270 -1 $-1 $271 $272 $5 $-1 $273 forward single #
plane-surface $-1 -1 $-1 -7.999999999999999112 -1.450000000000000178 -0.999999999999999778 -6.307138999162876271e-32 3.895519384649672348e-16 1 1.665334536937734811e-15 -10 3.895519384649672348e-15 forward_v I I I I #
coedge $-1 -1 $-1 $140 $177 $274 $207 reversed $120 $-1 #
straight-curve $-1 -1 $-1 -7.749999999999999112 -9.75 5.750000000000000888 0 -7.071067811865474617 -7.071067811865474617 F 0 F 0.03535533905932740362 #
coedge $-1 -1 $-1 $275 $245 $142 $202 forward $276 $-1 #
edge $-1 -1 $-1 $143 -1.474999999999999867 $277 0.4750000000000000333 $142 $278 forward @7 unknown #
edge $-1 -1 $-1 $279 0 $143 0.03535533905932740362 $245 $280 forward @7 unknown #
point $-1 -1 $-1 -7.749999999999999112 -9.749999999999998224 5.750000000000000888 #
coedge $-1 -1 $-1 $274 $187 $145 $206 forward $175 $-1 #
edge $-1 -1 $-1 $189 -0.09999999999999964473 $146 0.5500000000000000444 $145 $281 forward @7 unknown #
edge $-1 -1 $-1 $146 0 $279 0.03535533905932733423 $274 $282 forward @7 unknown #
point $-1 -1 $-1 -7.749999999999999112 -10 5.5 #
DXID-attrib $-1 -1 $-1 $-1 $149 @10 ASM ENTITY @36 3ade7876-23b9-4828-8a73-3eb2ea5bab9b #
face $283 -1 $-1 $284 $285 $5 $-1 $286 forward single #
loop $-1 -1 $-1 $-1 $287 $149 #
plane-surface $-1 -1 $-1 7.749999999999999112 -10 -5.5 0.5773502691896257311 -0.5773502691896257311 -0.5773502691896257311 -7.071067811865474617 0 -7.071067811865474617 forward_v I I I I #
straight-curve $-1 -1 $-1 7.999999999999998224 9.75 -5.5 -7.071067811865491493 7.071067811865460406 0 F 0 F 0.03535533905932733423 #
coedge $-1 -1 $-1 $152 $254 $288 $289 reversed $116 $-1 #
coedge $-1 -1 $-1 $290 $178 $152 $216 forward $247 $-1 #
edge $-1 -1 $-1 $153 -1.475000000000000089 $291 0.4749999999999999778 $152 $292 forward @7 unknown #
point $-1 -1 $-1 7.999999999999998224 9.75 -5.5 #
edge $-1 -1 $-1 $293 0.01999999999999985123 $157 0.3749999999999999445 $155 $294 forward @7 unknown #
loop $-1 -1 $-1 $-1 $295 $220 #
face $296 -1 $-1 $297 $156 $5 $-1 $298 forward single #
point $-1 -1 $-1 7.749999999999998224 10 -5.5 #
coedge $-1 -1 $-1 $299 $159 $161 $226 reversed $224 $-1 #
coedge $-1 -1 $-1 $159 $300 $164 $229 reversed $224 $-1 #
loop $-1 -1 $-1 $-1 $299 $301 #
straight-curve $-1 -1 $-1 4.199999999999997513 9.875 5.625000000000000888 0 -7.071067811865475505 7.071067811865475505 I I #
edge $-1 -1 $-1 $293 -0.8375000000000001332 $162 0.2625000000000000111 $161 $302 forward @7 unknown #
point $-1 -1 $-1 4.199999999999997513 10 5.5 #
coedge $-1 -1 $-1 $235 $164 $303 $304 forward $114 $-1 #
edge $-1 -1 $-1 $165 -0.4749999999999999778 $305 -0.3900000000000000133 $164 $306 forward @7 unknown #
point $-1 -1 $-1 4.199999999999997513 9.75 5.750000000000000888 #
DXID-attrib $-1 -1 $-1 $-1 $168 @10 ASM ENTITY @36 d71c88c3-4b78-43d7-acb0-2614e7a1a27b #
plane-surface $-1 -1 $-1 -7.999999999999999112 -10 0 0 -1 0 10 0 0 forward_v I I I I #
loop $-1 -1 $-1 $-1 $307 $172 #
coedge $-1 -1 $-1 $234 $234 $308 $309 forward $170 $-1 #
coedge $-1 -1 $-1 $171 $228 $310 $311 forward $114 $-1 #
coedge $-1 -1 $-1 $312 $313 $171 $237 forward $314 $-1 #
edge $-1 -1 $-1 $277 -1.175000000000000044 $315 -0.2300000000000002598 $171 $316 forward @7 unknown #
DXID-attrib $-1 -1 $-1 $-1 $172 @10 ASM ENTITY @36 a60167e4-ac1d-4211-80ae-8fa4963a4d44 #
face $317 -1 $-1 $318 $319 $5 $-1 $320 reversed single #
loop $-1 -1 $-1 $114 $321 $172 #
plane-surface $-1 -1 $-1 -1.11022302462515654e-15 0 5.750000000000000888 0 0 1 10 0 0 forward_v I I I I #
DXID-attrib $-1 -1 $-1 $-1 $173 @10 ASM ENTITY @36 4467455c-7f56-4312-b272-4889fb19741c #
face $322 -1 $-1 $323 $264 $5 $-1 $324 reversed single #
plane-surface $-1 -1 $-1 7.999999999999999112 -10 0 1 5.551115123125782702e-17 0 -5.551115123125782702e-16 10 0 forward_v I I I I #
coedge $-1 -1 $-1 $201 $325 $177 $203 forward $276 $-1 #
coedge $-1 -1 $-1 $178 $290 $326 $327 forward $247 $-1 #
loop $-1 -1 $-1 $-1 $290 $328 #
straight-curve $-1 -1 $-1 7.749999999999998224 9.75 -5.750000000000000888 7.071067811865474617 0 7.071067811865474617 F 0 F 0.03535533905932740362 #
coedge $-1 -1 $-1 $181 $180 $299 $329 forward $182 $-1 #
coedge $-1 -1 $-1 $326 $330 $180 $251 reversed $331 $-1 #
edge $-1 -1 $-1 $183 -0.3749999999999999445 $332 -0.01999999999999990674 $250 $333 forward @7 unknown #
face $334 -1 $-1 $113 $182 $5 $-1 $335 forward single #
point $-1 -1 $-1 7.749999999999998224 9.75 -5.750000000000000888 #
coedge $-1 -1 $-1 $214 $185 $336 $337 forward $116 $-1 #
coedge $-1 -1 $-1 $191 $338 $185 $256 reversed $264 $-1 #
edge $-1 -1 $-1 $193 -4.459708725242609972 $339 1.318116071652818855 $185 $340 forward @7 unknown #
coedge $-1 -1 $-1 $341 $342 $186 $258 forward $272 $-1 #
edge $-1 -1 $-1 $265 0.8629737509655561745 $260 1.40250000000000008 $257 $343 forward @7 unknown #
coedge $-1 -1 $-1 $187 $274 $341 $344 forward $175 $-1 #
vertex $-1 -1 $-1 $188 $345 #
straight-curve $-1 -1 $-1 -10.01249999999999929 -7.737500000000010481 -0.9999999999999974465 7.071067811865491493 -7.071067811865460406 2.754548173129424716e-15 I I #
point $-1 -1 $-1 -7.749999999999999112 -10 -0.9999999999999964473 #
coedge $-1 -1 $-1 $338 $191 $342 $346 reversed $264 $-1 #
loop $-1 -1 $-1 $-1 $338 $243 #
vertex $-1 -1 $-1 $258 $347 #
straight-curve $-1 -1 $-1 -7.999999999999999112 -4.354737509655563166 -0.9999999999999986677 -10 -1.619075244245019626e-15 -0 I I #
point $-1 -1 $-1 7.999999999999997335 -4.354737509655560501 -0.9999999999999986677 #
coedge $-1 -1 $-1 $268 $268 $195 $269 reversed $348 $-1 #
edge $-1 -1 $-1 $349 -6.283185307179586232 $349 0 $195 $350 forward @7 unknown #
DXID-attrib $-1 -1 $-1 $-1 $197 @10 ASM ENTITY @36 dd465747-9a89-4f9a-9929-2451887124cb #
face $351 -1 $-1 $172 $352 $5 $-1 $298 forward single #
loop $-1 -1 $-1 $-1 $341 $197 #
plane-surface $-1 -1 $-1 -8.000000000000003553 10 0 -1 -1.665334536937734811e-16 0 1.665334536937734811e-15 -10 0 forward_v I I I I #
coedge $-1 -1 $-1 $259 $205 $199 $207 forward $175 $-1 #
coedge $-1 -1 $-1 $325 $201 $353 $354 forward $276 $-1 #
loop $-1 -1 $-1 $-1 $245 $355 #
vertex $-1 -1 $-1 $356 $357 #
straight-curve $-1 -1 $-1 -7.750000000000001776 4.999999999999999112 5.750000000000000888 -1.665334536937734811e-15 10 0 F -1.527500999999999998 F 0.5275009999999999977 #
vertex $-1 -1 $-1 $203 $358 #
straight-curve $-1 -1 $-1 -7.999999999999999112 -9.75 5.5 7.071067811865474617 6.280369834735094159e-14 7.071067811865474617 F 0 F 0.03535533905932740362 #
straight-curve $-1 -1 $-1 -7.749999999999999112 -10 0 0 0 10 F -0.6025010000000001753 F 0.6025010000000001753 #
straight-curve $-1 -1 $-1 -7.749999999999999112 -10 5.5 -7.071067811865491493 7.071067811865460406 0 F 0 F 0.03535533905932733423 #
DXID-attrib $-1 -1 $-1 $-1 $210 @10 ASM ENTITY @36 aa553fcf-9f2b-432d-9e91-f8e0bcdb7a31 #
face $359 -1 $-1 $360 $361 $5 $-1 $362 forward single #
loop $-1 -1 $-1 $-1 $363 $210 #
plane-surface $-1 -1 $-1 7.874999999999998224 -9.875 0 0.7071067811865475727 -0.7071067811865475727 0 0 0 -10 forward_v I I I I #
coedge $-1 -1 $-1 $364 $365 $290 $366 reversed $211 $-1 #
coedge $-1 -1 $-1 $363 $367 $214 $289 forward $285 $-1 #
edge $-1 -1 $-1 $291 -0.5500000000000000444 $368 -0.2499999999999996669 $214 $369 forward @7 unknown #
coedge $-1 -1 $-1 $246 $215 $287 $366 forward $247 $-1 #
vertex $-1 -1 $-1 $366 $370 #
straight-curve $-1 -1 $-1 7.999999999999999112 -5 -5.5 5.551115123125782702e-16 -10 0 F -1.527500999999999998 F 0.5275009999999999977 #
vertex $-1 -1 $-1 $329 $371 #
straight-curve $-1 -1 $-1 3.999999999999998668 10 -5.5 10 0 0 F -1.227501000000000175 F 0.4275010000000001864 #
coedge $-1 -1 $-1 $295 $295 $372 $373 forward $219 $-1 #
DXID-attrib $-1 -1 $-1 $-1 $220 @10 ASM ENTITY @36 ea8eb737-ed39-48fa-aae9-086c5317e8ef #
face $374 -1 $-1 $375 $376 $5 $-1 $377 reversed single #
plane-surface $-1 -1 $-1 7.999999999999998224 10 0 0 1 0 -10 -0 -0 forward_v I I I I #
coedge $-1 -1 $-1 $378 $222 $249 $329 reversed $224 $-1 #
coedge $-1 -1 $-1 $223 $378 $379 $380 forward $224 $-1 #
face $381 -1 $-1 $382 $224 $5 $-1 $383 reversed single #
straight-curve $-1 -1 $-1 4.199999999999997513 10 2.875000000000000444 0 0 10 I I #
coedge $-1 -1 $-1 $379 $384 $228 $304 reversed $385 $-1 #
edge $-1 -1 $-1 $305 -3.141592653589793116 $386 0 $228 $387 forward @7 unknown #
vertex $-1 -1 $-1 $229 $388 #
straight-curve $-1 -1 $-1 4.199999999999997513 5 5.750000000000000888 0 -10 0 I I #
coedge $-1 -1 $-1 $307 $307 $389 $390 forward $233 $-1 #
coedge $-1 -1 $-1 $308 $308 $234 $309 reversed $391 $-1 #
edge $-1 -1 $-1 $392 -3.141592653589793116 $392 3.141592653589793116 $234 $393 forward @7 unknown #
coedge $-1 -1 $-1 $394 $395 $235 $311 reversed $396 $-1 #
edge $-1 -1 $-1 $386 0.4450000000000000067 $315 0.5300000000000000266 $235 $397 forward @7 unknown #
coedge $-1 -1 $-1 $398 $236 $395 $399 forward $314 $-1 #
coedge $-1 -1 $-1 $236 $398 $400 $356 forward $314 $-1 #
loop $-1 -1 $-1 $-1 $312 $401 #
vertex $-1 -1 $-1 $399 $402 #
straight-curve $-1 -1 $-1 3.999999999999998668 9.75 5.750000000000000888 10 0 0 F -1.227501000000000175 F 0.4275010000000001864 #
DXID-attrib $-1 -1 $-1 $-1 $239 @10 ASM ENTITY @36 11f422cc-df2d-41eb-912c-77e4f637b8f3 #
face $403 -1 $-1 $404 $348 $5 $-1 $405 reversed single #
loop $-1 -1 $-1 $406 $407 $239 #
cone-surface $-1 -1 $-1 0 -7.25 -5.750000000000000888 0 0 1 1.600000000000000311 0 0 1 I I 0 1 1.600000000000000311 forward I I I I #
coedge $-1 -1 $-1 $321 $321 $408 $409 forward $240 $-1 #
DXID-attrib $-1 -1 $-1 $-1 $243 @10 ASM ENTITY @36 fafb5642-96b8-4209-b316-8a466f5aad55 #
face $410 -1 $-1 $411 $396 $5 $-1 $412 reversed single #
cone-surface $-1 -1 $-1 -7.999999999999999112 -1.450000000000000178 -1.750000000000000444 1 1.619075244245019626e-16 0 0 0 -3.000000000000000444 1 I I 0 1 3.000000000000000444 forward I I I I #
coedge $-1 -1 $-1 $245 $275 $413 $414 forward $276 $-1 #
coedge $-1 -1 $-1 $415 $250 $246 $327 reversed $331 $-1 #
edge $-1 -1 $-1 $416 -0.4749999999999999778 $183 1.475000000000000089 $326 $417 forward @7 unknown #
face $418 -1 $-1 $252 $247 $5 $-1 $419 forward single #
edge $-1 -1 $-1 $332 -0.4242640687119285658 $293 -0.3889087296526011484 $299 $420 forward @7 unknown #
coedge $-1 -1 $-1 $250 $421 $378 $422 forward $331 $-1 #
loop $-1 -1 $-1 $423 $424 $382 #
vertex $-1 -1 $-1 $329 $425 #
straight-curve $-1 -1 $-1 3.999999999999998668 9.75 -5.750000000000000888 -10 0 0 F -0.4275010000000001864 F 1.227501000000000175 #
DXID-attrib $-1 -1 $-1 $-1 $252 @10 ASM ENTITY @36 d3d665fc-6beb-4bf6-beb6-b93d800f2a33 #
plane-surface $-1 -1 $-1 3.999999999999998668 9.875 -5.625 0 0.7071067811865475727 -0.7071067811865475727 -10 0 0 forward_v I I I I #
coedge $-1 -1 $-1 $426 $427 $254 $337 reversed $428 $-1 #
edge $-1 -1 $-1 $339 -0.5645262490344439277 $368 -0.0250000000000000222 $254 $429 forward @7 unknown #
coedge $-1 -1 $-1 $255 $263 $426 $430 forward $264 $-1 #
vertex $-1 -1 $-1 $337 $431 #
ellipse-curve $-1 -1 $-1 7.999999999999997335 -1.449999999999997735 -1.750000000000000444 -1 -5.551115123125782702e-17 0 0 0 -3.000000000000000444 1 I I #
coedge $-1 -1 $-1 $413 $257 $259 $344 reversed $272 $-1 #
coedge $-1 -1 $-1 $257 $432 $263 $346 forward $272 $-1 #
straight-curve $-1 -1 $-1 -8.000000000000001776 4.275000000000000355 -1.000000000000001998 1.665334536937734811e-15 -10 3.895519384649672348e-15 I I #
edge $-1 -1 $-1 $279 -0.5500000000000000444 $260 0.09999999999999965861 $341 $433 forward @7 unknown #
point $-1 -1 $-1 -7.999999999999999112 -9.75 -0.9999999999999965583 #
edge $-1 -1 $-1 $434 -7.601301378832404865 $265 -1.823476581936975816 $342 $435 forward @7 unknown #
point $-1 -1 $-1 -7.999999999999999112 -4.354737509655562278 -0.9999999999999986677 #
loop $-1 -1 $-1 $436 $268 $318 #
vertex $-1 -1 $-1 $269 $437 #
ellipse-curve $-1 -1 $-1 0 -7.25 -1.000000000000000888 -6.307138999162876271e-32 3.895519384649672348e-16 1 -1.229500000000000037 0 0 1 I I #
DXID-attrib $-1 -1 $-1 $-1 $271 @10 ASM ENTITY @36 8ff8f281-2619-48bf-a069-398d95050120 #
loop $-1 -1 $-1 $-1 $438 $271 #
coedge $-1 -1 $-1 $400 $439 $275 $354 reversed $361 $-1 #
edge $-1 -1 $-1 $277 0 $440 0.03535533905932740362 $275 $441 forward @7 unknown #
face $442 -1 $-1 $401 $276 $5 $-1 $443 forward single #
edge $-1 -1 $-1 $444 0 $277 0.03535533905932740362 $313 $445 forward @7 unknown #
point $-1 -1 $-1 -7.750000000000001776 9.75 5.750000000000000888 #
point $-1 -1 $-1 -7.999999999999999112 -9.75 5.5 #
DXID-attrib $-1 -1 $-1 $-1 $284 @10 ASM ENTITY @36 24a1123a-31ad-4409-ac0f-fc673f282d28 #
face $446 -1 $-1 $447 $448 $5 $-1 $449 forward single #
loop $-1 -1 $-1 $-1 $400 $284 #
plane-surface $-1 -1 $-1 -8.000000000000003553 9.75 5.5 -0.5773502691896249539 0.5773502691896249539 0.5773502691896275074 7.071067811865491493 0 7.071067811865459518 forward_v I I I I #
coedge $-1 -1 $-1 $450 $288 $427 $451 forward $285 $-1 #
coedge $-1 -1 $-1 $365 $287 $367 $452 reversed $211 $-1 #
coedge $-1 -1 $-1 $287 $364 $453 $454 reversed $211 $-1 #
edge $-1 -1 $-1 $291 0 $416 0.03535533905932740362 $290 $455 forward @7 unknown #
coedge $-1 -1 $-1 $288 $450 $364 $452 forward $285 $-1 #
vertex $-1 -1 $-1 $451 $456 #
straight-curve $-1 -1 $-1 7.999999999999999112 -9.75 0 0 0 10 F -0.6025010000000001753 F 0.6025010000000001753 #
point $-1 -1 $-1 7.999999999999999112 -9.75 -5.5 #
point $-1 -1 $-1 4.199999999999997513 10 -5.5 #
coedge $-1 -1 $-1 $372 $372 $295 $373 reversed $457 $-1 #
edge $-1 -1 $-1 $458 0 $458 6.283185307179586232 $295 $459 forward @7 unknown #
DXID-attrib $-1 -1 $-1 $-1 $297 @10 ASM ENTITY @36 d4f7c2be-551d-4b96-a71b-60755dcb49e2 #
face $460 -1 $-1 $-1 $461 $5 $-1 $232 forward single #
loop $-1 -1 $-1 $462 $463 $297 #
cone-surface $-1 -1 $-1 0 5.75 -22.32579028273291755 0 0 1 2.458499999999999908 0 0 1 I I -0 1 2.458499999999999908 reversed I I I I #
coedge $-1 -1 $-1 $300 $299 $330 $422 reversed $224 $-1 #
coedge $-1 -1 $-1 $464 $303 $300 $380 reversed $385 $-1 #
edge $-1 -1 $-1 $465 -1.150000000000000133 $305 0 $300 $466 forward @7 unknown #
DXID-attrib $-1 -1 $-1 $-1 $301 @10 ASM ENTITY @36 c527223f-1b3a-4e98-89d6-e0e589dddea8 #
face $467 -1 $-1 $220 $331 $5 $-1 $468 forward single #
plane-surface $-1 -1 $-1 4.199999999999997513 10 5.750000000000000888 1 0 0 0 -10 0 forward_v I I I I #
coedge $-1 -1 $-1 $303 $464 $394 $469 reversed $385 $-1 #
loop $-1 -1 $-1 $-1 $464 $411 #
vertex $-1 -1 $-1 $304 $470 #
ellipse-curve $-1 -1 $-1 2.949999999999997069 8.900000000000000355 5.750000000000000888 -0 -0 -1 -1.25 0 0 1 I I #
point $-1 -1 $-1 4.199999999999997513 8.900000000000000355 5.750000000000000888 #
coedge $-1 -1 $-1 $389 $389 $307 $390 reversed $436 $-1 #
edge $-1 -1 $-1 $471 -3.141592653589793116 $471 3.141592653589793116 $307 $472 forward @7 unknown #
loop $-1 -1 $-1 $-1 $308 $404 #
vertex $-1 -1 $-1 $309 $473 #
ellipse-curve $-1 -1 $-1 5.499999999999998224 5.75 5.750000000000000888 -0 -0 -1 -1.249999999999999778 0 0 1 I I #
coedge $-1 -1 $-1 $474 $310 $384 $469 forward $396 $-1 #
coedge $-1 -1 $-1 $310 $475 $312 $399 reversed $396 $-1 #
loop $-1 -1 $-1 $-1 $476 $323 #
straight-curve $-1 -1 $-1 1.699999999999997291 4.450000000000000178 5.750000000000000888 -2.523234146875356096e-15 10 0 I I #
coedge $-1 -1 $-1 $313 $312 $477 $478 forward $314 $-1 #
edge $-1 -1 $-1 $315 0.02121320343559652405 $479 0.05656854249492385828 $395 $480 forward @7 unknown #
coedge $-1 -1 $-1 $439 $353 $313 $356 reversed $361 $-1 #
face $481 -1 $-1 $328 $314 $5 $-1 $482 forward single #
point $-1 -1 $-1 1.699999999999995959 9.75 5.750000000000000888 #
DXID-attrib $-1 -1 $-1 $-1 $318 @10 ASM ENTITY @36 dfc756eb-d103-4c51-86e3-07bf178d4482 #
face $483 -1 $-1 $484 $485 $5 $-1 $486 reversed single #
cone-surface $-1 -1 $-1 0 -7.25 22.32579028273291755 -0 -0 -1 -1.229500000000000037 0 0 1 I I -0 1 1.229500000000000037 reversed I I I I #
loop $-1 -1 $-1 $-1 $487 $239 #
coedge $-1 -1 $-1 $407 $407 $488 $489 reversed $319 $-1 #
coedge $-1 -1 $-1 $408 $408 $321 $409 reversed $462 $-1 #
edge $-1 -1 $-1 $490 0 $490 6.283185307179586232 $321 $491 forward @7 unknown #
DXID-attrib $-1 -1 $-1 $-1 $323 @10 ASM ENTITY @36 9c42b3ff-f37d-48ba-b0cf-053d1541137a #
face $492 -1 $-1 $301 $385 $5 $-1 $493 reversed single #
plane-surface $-1 -1 $-1 1.699999999999996181 8.900000000000000355 5.750000000000000888 -1 -2.523234146875355998e-16 -0 -2.523234146875356096e-15 10 0 forward_v I I I I #
coedge $-1 -1 $-1 $494 $341 $325 $414 reversed $272 $-1 #
edge $-1 -1 $-1 $440 -0.4750000000000001443 $279 1.475000000000000089 $413 $495 forward @7 unknown #
coedge $-1 -1 $-1 $496 $326 $497 $498 reversed $331 $-1 #
vertex $-1 -1 $-1 $366 $499 #
straight-curve $-1 -1 $-1 7.749999999999999112 -5 -5.750000000000000888 -5.551115123125782702e-16 10 0 F -0.5275009999999999977 F 1.527500999999999998 #
DXID-attrib $-1 -1 $-1 $-1 $328 @10 ASM ENTITY @36 9884c54e-44c4-4b20-951c-a83ae3199175 #
plane-surface $-1 -1 $-1 7.874999999999998224 -5 -5.625 0.7071067811865475727 3.925231146709437917e-17 -0.7071067811865475727 -7.071067811865475505 0 -7.071067811865475505 forward_v I I I I #
straight-curve $-1 -1 $-1 4.199999999999997513 12.75 -2.749999999999999556 0 7.071067811865475505 7.071067811865475505 I I #
coedge $-1 -1 $-1 $330 $500 $464 $501 forward $331 $-1 #
edge $-1 -1 $-1 $465 0.3900000000000000133 $332 0.4749999999999999778 $330 $502 forward @7 unknown #
loop $-1 -1 $-1 $503 $504 $382 #
coedge $-1 -1 $-1 $500 $496 $505 $506 reversed $331 $-1 #
point $-1 -1 $-1 4.199999999999997513 9.75 -5.750000000000000888 #
coedge $-1 -1 $-1 $507 $336 $338 $430 reversed $428 $-1 #
coedge $-1 -1 $-1 $336 $508 $363 $451 reversed $428 $-1 #
loop $-1 -1 $-1 $509 $427 $510 #
straight-curve $-1 -1 $-1 7.999999999999998224 -10 -2.499999999999996447 5.551115123125782702e-16 -10 2.597012923099781829e-15 I I #
edge $-1 -1 $-1 $434 -8.987673073807098823e-33 $339 1.599999999999999645 $338 $511 forward @7 unknown #
point $-1 -1 $-1 7.999999999999998224 -4.354737509655560501 -2.499999999999998224 #
coedge $-1 -1 $-1 $342 $512 $507 $513 forward $272 $-1 #
straight-curve $-1 -1 $-1 -7.999999999999999112 -9.75 0 0 0 -10 F -0.6025010000000001753 F 0.6025010000000001753 #
vertex $-1 -1 $-1 $513 $514 #
ellipse-curve $-1 -1 $-1 -8 -1.450000000000000178 -1.750000000000000444 1 1.665334536937734811e-16 0 0 0 -3.000000000000000444 1 I I #
loop $-1 -1 $-1 $-1 $389 $318 #
point $-1 -1 $-1 -1.229500000000000037 -7.25 -0.9999999999999975575 #
coedge $-1 -1 $-1 $515 $516 $517 $518 reversed $352 $-1 #
coedge $-1 -1 $-1 $353 $400 $519 $520 reversed $361 $-1 #
vertex $-1 -1 $-1 $520 $521 #
straight-curve $-1 -1 $-1 -7.750000000000002665 9.75 5.750000000000000888 -7.071067811865474617 3.140184917367547079e-14 -7.071067811865474617 F 0 F 0.03535533905932740362 #
DXID-attrib $-1 -1 $-1 $-1 $355 @10 ASM ENTITY @36 251292e1-d7d9-486c-a14e-f590b4985520 #
plane-surface $-1 -1 $-1 -7.875000000000000888 4.999999999999999112 5.625 -0.7071067811865475727 -1.177569344012831437e-16 0.7071067811865475727 7.071067811865475505 0 7.071067811865475505 forward_v I I I I #
vertex $-1 -1 $-1 $356 $522 #
straight-curve $-1 -1 $-1 -7.750000000000003553 10 5.5 6.280369834735094159e-14 -7.071067811865474617 7.071067811865474617 F 0 F 0.03535533905932740362 #
DXID-attrib $-1 -1 $-1 $-1 $360 @10 ASM ENTITY @36 2199974d-0bda-48f6-b4ee-cd3185ee54eb #
face $523 -1 $-1 $524 $525 $5 $-1 $526 forward single #
loop $-1 -1 $-1 $-1 $527 $360 #
plane-surface $-1 -1 $-1 -7.999999999999999112 -9.75 -5.5 -0.5773502691896232886 -0.5773502691896258421 -0.5773502691896283956 -7.071067811865505703 0 7.071067811865443531 forward_v I I I I #
coedge $-1 -1 $-1 $367 $363 $528 $529 forward $285 $-1 #
edge $-1 -1 $-1 $368 -0.583363094478901667 $530 -0.5480077554195743605 $427 $531 forward @7 unknown #
edge $-1 -1 $-1 $532 0 $291 0.03535533905932740362 $367 $533 forward @7 unknown #
coedge $-1 -1 $-1 $534 $497 $365 $454 forward $535 $-1 #
edge $-1 -1 $-1 $416 0 $532 0.03535533905932740362 $453 $536 forward @7 unknown #
straight-curve $-1 -1 $-1 7.999999999999999112 -9.75 -5.5 -7.071067811865474617 0 -7.071067811865474617 F 0 F 0.03535533905932740362 #
point $-1 -1 $-1 7.999999999999998224 -9.75 -2.499999999999996447 #
loop $-1 -1 $-1 $537 $372 $538 #
vertex $-1 -1 $-1 $373 $539 #
ellipse-curve $-1 -1 $-1 6.099999999999997868 10 0 -0 -1 -0 1.00649999999999995 0 0 1 I I #
DXID-attrib $-1 -1 $-1 $-1 $375 @10 ASM ENTITY @36 88ff1a36-405f-4ac3-8d9f-4ee2ca777013 #
loop $-1 -1 $-1 $-1 $528 $375 #
loop $-1 -1 $-1 $-1 $408 $297 #
coedge $-1 -1 $-1 $463 $463 $540 $541 reversed $376 $-1 #
coedge $-1 -1 $-1 $384 $379 $421 $501 reversed $385 $-1 #
vertex $-1 -1 $-1 $501 $542 #
straight-curve $-1 -1 $-1 4.199999999999997513 8.900000000000000355 5.750000000000000888 0 0 10 I I #
DXID-attrib $-1 -1 $-1 $-1 $382 @10 ASM ENTITY @36 553cce16-0cfc-4292-8c7e-b215f666a1ce #
plane-surface $-1 -1 $-1 -1.11022302462515654e-15 0 -5.750000000000000888 0 0 -1 -10 0 0 forward_v I I I I #
edge $-1 -1 $-1 $386 0 $543 1.150000000000000133 $394 $544 forward @7 unknown #
point $-1 -1 $-1 1.699999999999996181 8.900000000000000355 5.750000000000000888 #
vertex $-1 -1 $-1 $390 $545 #
ellipse-curve $-1 -1 $-1 0 -7.25 5.750000000000001776 -0 -0 -1 -1.229500000000000037 0 0 1 I I #
point $-1 -1 $-1 6.749999999999998224 5.75 5.750000000000000888 #
coedge $-1 -1 $-1 $476 $394 $500 $546 reversed $396 $-1 #
coedge $-1 -1 $-1 $395 $476 $516 $547 reversed $396 $-1 #
coedge $-1 -1 $-1 $475 $474 $548 $549 reversed $396 $-1 #
coedge $-1 -1 $-1 $516 $515 $398 $478 reversed $352 $-1 #
edge $-1 -1 $-1 $479 0.2300000000000002875 $444 1.175000000000000266 $477 $550 forward @7 unknown #
vertex $-1 -1 $-1 $399 $551 #
straight-curve $-1 -1 $-1 1.699999999999995959 9.599999999999999645 5.900000000000000355 -1.784195975777017358e-15 7.071067811865475505 -7.071067811865475505 I I #
DXID-attrib $-1 -1 $-1 $-1 $401 @10 ASM ENTITY @36 bc0d7753-4fe9-40a6-bc03-46eb08fd9468 #
plane-surface $-1 -1 $-1 3.999999999999998668 9.875 5.625 0 0.7071067811865475727 0.7071067811865475727 10 0 0 forward_v I I I I #
DXID-attrib $-1 -1 $-1 $-1 $404 @10 ASM ENTITY @36 5d693471-38f7-49c7-92b3-d9fa0d0af046 #
face $552 -1 $-1 $538 $553 $5 $-1 $554 reversed single #
loop $-1 -1 $-1 $555 $556 $404 #
cone-surface $-1 -1 $-1 5.499999999999998224 5.75 5.750000000000000888 0 0 -1 -1.249999999999999778 0 0 1 I I 0 1 1.249999999999999778 forward I I I I #
coedge $-1 -1 $-1 $487 $487 $504 $557 reversed $406 $-1 #
coedge $-1 -1 $-1 $488 $488 $407 $489 forward $509 $-1 #
edge $-1 -1 $-1 $558 -3.141592653589793116 $558 3.141592653589793116 $488 $559 forward @7 unknown #
vertex $-1 -1 $-1 $409 $560 #
ellipse-curve $-1 -1 $-1 0 5.75 5.750000000000001776 -0 -0 -1 2.458499999999999908 0 0 1 I I #
DXID-attrib $-1 -1 $-1 $-1 $411 @10 ASM ENTITY @36 5b8bef89-f6fe-41fb-8102-f6df6a71ebb8 #
cone-surface $-1 -1 $-1 2.949999999999997069 8.900000000000000355 5.750000000000000888 0 0 -1 -1.25 0 0 1 I I 0 1 1.25 forward I I I I #
coedge $-1 -1 $-1 $561 $413 $562 $563 reversed $272 $-1 #
straight-curve $-1 -1 $-1 -8.000000000000001776 4.999999999999999112 5.5 1.665334536937734811e-15 -10 0 F -0.5275009999999999977 F 1.527500999999999998 #
coedge $-1 -1 $-1 $424 $415 $564 $565 reversed $331 $-1 #
coedge $-1 -1 $-1 $453 $566 $415 $498 forward $535 $-1 #
edge $-1 -1 $-1 $567 -0.374999999999999889 $416 1.174999999999999822 $415 $568 forward @7 unknown #
point $-1 -1 $-1 7.749999999999999112 -9.75 -5.750000000000000888 #
coedge $-1 -1 $-1 $421 $424 $474 $546 forward $331 $-1 #
edge $-1 -1 $-1 $543 0 $465 3.141592653589793116 $421 $569 forward @7 unknown #
straight-curve $-1 -1 $-1 4.199999999999997513 5 -5.750000000000000888 0 10 0 I I #
loop $-1 -1 $-1 $570 $571 $382 #
coedge $-1 -1 $-1 $504 $504 $487 $557 forward $423 $-1 #
coedge $-1 -1 $-1 $572 $548 $424 $506 forward $573 $-1 #
edge $-1 -1 $-1 $574 0.2300000000000002598 $575 1.175000000000000044 $424 $576 forward @7 unknown #
coedge $-1 -1 $-1 $577 $426 $432 $513 reversed $428 $-1 #
coedge $-1 -1 $-1 $427 $577 $578 $579 reversed $428 $-1 #
loop $-1 -1 $-1 $-1 $488 $510 #
face $580 -1 $-1 $173 $428 $5 $-1 $581 reversed single #
straight-curve $-1 -1 $-1 -7.999999999999999112 -4.354737509655563166 -2.499999999999998224 10 1.619075244245019626e-15 0 I I #
coedge $-1 -1 $-1 $432 $561 $582 $583 reversed $272 $-1 #
edge $-1 -1 $-1 $584 -0.9750000000000000888 $434 -0.4354737509655563499 $432 $585 forward @7 unknown #
point $-1 -1 $-1 -7.999999999999999112 -4.354737509655564054 -2.499999999999998224 #
coedge $-1 -1 $-1 $477 $438 $586 $587 reversed $352 $-1 #
coedge $-1 -1 $-1 $438 $477 $475 $547 forward $352 $-1 #
coedge $-1 -1 $-1 $548 $572 $438 $518 forward $573 $-1 #
edge $-1 -1 $-1 $588 -1.175000000000000266 $589 -0.2300000000000002875 $438 $590 forward @7 unknown #
coedge $-1 -1 $-1 $586 $562 $439 $520 forward $591 $-1 #
edge $-1 -1 $-1 $440 0 $444 0.03535533905932725096 $519 $592 forward @7 unknown #
point $-1 -1 $-1 -8.000000000000003553 9.75 5.5 #
point $-1 -1 $-1 -7.750000000000003553 10 5.5 #
DXID-attrib $-1 -1 $-1 $-1 $447 @10 ASM ENTITY @36 30b8b7b4-cefc-47b6-8a00-e601a057e5b4 #
face $593 -1 $-1 $594 $595 $5 $-1 $596 forward single #
loop $-1 -1 $-1 $-1 $597 $447 #
plane-surface $-1 -1 $-1 -7.874999999999998224 -9.875 0 -0.7071067811865460184 -0.707106781186549127 -0 0 0 10 forward_v I I I I #
coedge $-1 -1 $-1 $598 $599 $566 $600 reversed $448 $-1 #
coedge $-1 -1 $-1 $578 $601 $450 $529 reversed $461 $-1 #
edge $-1 -1 $-1 $530 0.2499999999999996669 $532 0.5500000000000000444 $528 $602 forward @7 unknown #
vertex $-1 -1 $-1 $451 $603 #
straight-curve $-1 -1 $-1 3.874999999999999112 -13.875 -2.499999999999996003 -7.071067811865475505 -7.071067811865475505 1.836365448752953229e-15 I I #
vertex $-1 -1 $-1 $452 $604 #
straight-curve $-1 -1 $-1 7.749999999999999112 -10 -5.5 7.071067811865474617 7.071067811865474617 0 F 0 F 0.03535533905932740362 #
coedge $-1 -1 $-1 $566 $453 $601 $605 forward $535 $-1 #
loop $-1 -1 $-1 $-1 $566 $606 #
straight-curve $-1 -1 $-1 7.749999999999998224 -9.75 -5.750000000000000888 0 -7.071067811865474617 7.071067811865474617 F 0 F 0.03535533905932740362 #
loop $-1 -1 $-1 $-1 $607 $538 #
face $608 -1 $-1 $510 $609 $5 $-1 $610 reversed single #
point $-1 -1 $-1 7.106499999999997819 10 0 #
coedge $-1 -1 $-1 $540 $540 $463 $541 forward $570 $-1 #
edge $-1 -1 $-1 $611 -3.141592653589793116 $611 3.141592653589793116 $540 $612 forward @7 unknown #
point $-1 -1 $-1 4.199999999999997513 8.900000000000000355 -5.750000000000000888 #
vertex $-1 -1 $-1 $469 $613 #
straight-curve $-1 -1 $-1 1.699999999999997069 8.900000000000000355 5.750000000000000888 0 0 -10 I I #
point $-1 -1 $-1 1.229500000000000037 -7.25 5.750000000000001776 #
edge $-1 -1 $-1 $574 -0.5300000000000000266 $543 -0.4450000000000000067 $500 $614 forward @7 unknown #
edge $-1 -1 $-1 $479 -0.2625000000000000111 $589 0.8375000000000001332 $516 $615 forward @7 unknown #
coedge $-1 -1 $-1 $505 $517 $476 $549 forward $573 $-1 #
edge $-1 -1 $-1 $589 0.3500178566873411445 $574 0.385373195746668451 $476 $616 forward @7 unknown #
straight-curve $-1 -1 $-1 3.999999999999998668 10 5.5 -10 0 0 F -0.4275010000000001864 F 1.227501000000000175 #
point $-1 -1 $-1 1.699999999999995737 10 5.5 #
DXID-attrib $-1 -1 $-1 $-1 $484 @10 ASM ENTITY @36 8cbafc07-440f-45b3-86f4-7962f92b8074 #
loop $-1 -1 $-1 $617 $618 $484 #
cone-surface $-1 -1 $-1 6.099999999999997868 1.697616893474379607 0 0 1 0 0.5032499999999999751 0 0 1 I I 0.8571673007021122226 0.5150380749100541555 0.5032499999999999751 reversed I I I I #
loop $-1 -1 $-1 $391 $619 $404 #
coedge $-1 -1 $-1 $556 $556 $620 $621 reversed $485 $-1 #
edge $-1 -1 $-1 $622 -3.141592653589793116 $622 3.141592653589793116 $504 $623 forward @7 unknown #
vertex $-1 -1 $-1 $489 $624 #
ellipse-curve $-1 -1 $-1 0 -7.25 -2.499999999999996447 4.204759332775251395e-32 -2.59701292309978173e-16 -1 1.600000000000000311 0 0 1 I I #
point $-1 -1 $-1 2.458499999999999908 5.75 5.750000000000000888 #
coedge $-1 -1 $-1 $512 $494 $625 $626 reversed $272 $-1 #
coedge $-1 -1 $-1 $519 $627 $494 $563 forward $591 $-1 #
edge $-1 -1 $-1 $628 -0.5500000000000000444 $440 0.5500000000000000444 $494 $629 forward @7 unknown #
coedge $-1 -1 $-1 $630 $631 $496 $565 forward $632 $-1 #
edge $-1 -1 $-1 $575 -0.4750000000000000333 $567 1.474999999999999867 $496 $633 forward @7 unknown #
coedge $-1 -1 $-1 $497 $534 $527 $600 forward $535 $-1 #
vertex $-1 -1 $-1 $600 $634 #
straight-curve $-1 -1 $-1 -4 -9.75 -5.750000000000000888 10 0 0 F -0.4275010000000003529 F 1.227501000000000175 #
ellipse-curve $-1 -1 $-1 2.949999999999997069 8.900000000000000355 -5.750000000000000888 0 0 1 -1.25 0 0 1 I I #
loop $-1 -1 $-1 $-1 $540 $382 #
coedge $-1 -1 $-1 $571 $571 $619 $635 forward $503 $-1 #
coedge $-1 -1 $-1 $517 $505 $636 $637 forward $573 $-1 #
loop $-1 -1 $-1 $-1 $548 $638 #
vertex $-1 -1 $-1 $549 $639 #
vertex $-1 -1 $-1 $640 $641 #
straight-curve $-1 -1 $-1 3.999999999999998668 9.75 -5.750000000000000888 -10 0 0 F -0.4275010000000001864 F 1.227501000000000175 #
coedge $-1 -1 $-1 $508 $507 $597 $642 reversed $428 $-1 #
coedge $-1 -1 $-1 $643 $528 $508 $579 forward $461 $-1 #
edge $-1 -1 $-1 $530 -1.574999999999999734 $644 -0.02499999999999991118 $578 $645 forward @7 unknown #
DXID-attrib $-1 -1 $-1 $-1 $510 @10 ASM ENTITY @36 491d9553-aee1-44df-b5cb-4cbe7bb7bab3 #
plane-surface $-1 -1 $-1 -7.999999999999998224 -10 -2.499999999999996447 4.204759332775251395e-32 -2.59701292309978173e-16 -1 -1.665334536937734811e-15 10 -2.597012923099781829e-15 forward_v I I I I #
coedge $-1 -1 $-1 $646 $597 $512 $583 forward $525 $-1 #
edge $-1 -1 $-1 $584 0.2499999999999996669 $647 0.5500000000000000444 $512 $648 forward @7 unknown #
vertex $-1 -1 $-1 $642 $649 #
straight-curve $-1 -1 $-1 -8 -3.246266153874730244e-16 -2.499999999999999112 -1.665334536937734811e-15 10 -2.597012923099781829e-15 I I #
coedge $-1 -1 $-1 $627 $519 $515 $587 forward $591 $-1 #
edge $-1 -1 $-1 $444 -0.5500000000000000444 $588 0.5500000000000000444 $515 $650 forward @7 unknown #
vertex $-1 -1 $-1 $651 $652 #
vertex $-1 -1 $-1 $549 $653 #
straight-curve $-1 -1 $-1 3.999999999999998668 10 -5.5 10 0 0 F -1.227501000000000175 F 0.4275010000000001864 #
loop $-1 -1 $-1 $-1 $519 $594 #
straight-curve $-1 -1 $-1 -8.000000000000003553 9.75 5.5 7.071067811865475505 7.071067811865475505 0 F 0 F 0.03535533905932725096 #
DXID-attrib $-1 -1 $-1 $-1 $524 @10 ASM ENTITY @36 bd6e15cb-e8ae-4548-b767-92a23e8551bc #
face $654 -1 $-1 $638 $591 $5 $-1 $655 forward single #
loop $-1 -1 $-1 $-1 $656 $524 #
plane-surface $-1 -1 $-1 -7.750000000000003553 10 -5.5 -0.5773502691896240657 0.5773502691896240657 -0.5773502691896291728 -7.071067811865506592 0 7.071067811865443531 forward_v I I I I #
coedge $-1 -1 $-1 $582 $657 $577 $642 forward $525 $-1 #
coedge $-1 -1 $-1 $599 $527 $646 $658 reversed $448 $-1 #
coedge $-1 -1 $-1 $527 $598 $630 $659 reversed $448 $-1 #
edge $-1 -1 $-1 $660 0 $567 0.03535533905932740362 $566 $661 forward @7 unknown #
coedge $-1 -1 $-1 $528 $643 $534 $605 reversed $461 $-1 #
straight-curve $-1 -1 $-1 7.749999999999999112 -10 0 0 0 -10 F -0.6025010000000001753 F 0.6025010000000001753 #
point $-1 -1 $-1 7.749999999999999112 -10 -2.499999999999996447 #
point $-1 -1 $-1 7.749999999999998224 -10 -5.5 #
edge $-1 -1 $-1 $532 -1.174999999999999822 $660 0.374999999999999889 $601 $662 forward @7 unknown #
face $663 -1 $-1 $355 $535 $5 $-1 $664 forward single #
coedge $-1 -1 $-1 $607 $607 $618 $665 reversed $537 $-1 #
DXID-attrib $-1 -1 $-1 $-1 $538 @10 ASM ENTITY @36 e629f42e-7dad-45da-95b2-cb68ed5596fd #
loop $-1 -1 $-1 $457 $620 $538 #
cone-surface $-1 -1 $-1 6.099999999999997868 6 0 0 1 0 1.00649999999999995 0 0 1 I I -0 1 1.00649999999999995 reversed I I I I #
vertex $-1 -1 $-1 $541 $666 #
ellipse-curve $-1 -1 $-1 0 5.75 -5.750000000000001776 0 0 1 2.458499999999999908 0 0 1 I I #
point $-1 -1 $-1 1.699999999999997069 8.900000000000000355 -5.750000000000000888 #
straight-curve $-1 -1 $-1 1.699999999999997291 4.450000000000000178 -5.750000000000000888 2.523234146875356096e-15 -10 0 I I #
straight-curve $-1 -1 $-1 1.699999999999995737 10 2.875000000000000444 0 0 -10 I I #
straight-curve $-1 -1 $-1 1.699999999999995071 12.47500000000000142 -3.024999999999999911 1.784195975777017358e-15 -7.071067811865475505 -7.071067811865475505 I I #
loop $-1 -1 $-1 $-1 $667 $484 #
coedge $-1 -1 $-1 $618 $618 $607 $665 forward $553 $-1 #
coedge $-1 -1 $-1 $619 $619 $571 $635 reversed $555 $-1 #
coedge $-1 -1 $-1 $620 $620 $556 $621 forward $609 $-1 #
edge $-1 -1 $-1 $668 0 $668 1.149510301816303315 $620 $669 forward @7 unknown #
vertex $-1 -1 $-1 $557 $670 #
ellipse-curve $-1 -1 $-1 0 -7.25 -5.750000000000000888 0 0 1 1.600000000000000311 0 0 1 I I #
point $-1 -1 $-1 -1.600000000000000311 -7.25 -2.499999999999996447 #
coedge $-1 -1 $-1 $631 $630 $561 $626 forward $632 $-1 #
edge $-1 -1 $-1 $647 -1.475000000000000089 $628 0.4750000000000001443 $561 $671 forward @7 unknown #
coedge $-1 -1 $-1 $562 $586 $672 $651 forward $591 $-1 #
vertex $-1 -1 $-1 $640 $673 #
straight-curve $-1 -1 $-1 -8.000000000000003553 9.75 0 0 0 10 F -0.6025010000000001753 F 0.6025010000000001753 #
coedge $-1 -1 $-1 $625 $564 $599 $659 forward $632 $-1 #
coedge $-1 -1 $-1 $564 $625 $656 $640 forward $632 $-1 #
loop $-1 -1 $-1 $-1 $631 $674 #
straight-curve $-1 -1 $-1 -7.750000000000001776 4.999999999999999112 -5.750000000000000888 1.665334536937734811e-15 -10 0 F -0.5275009999999999977 F 1.527500999999999998 #
point $-1 -1 $-1 -7.749999999999999112 -9.75 -5.750000000000000888 #
edge $-1 -1 $-1 $675 -3.141592653589793116 $675 3.141592653589793116 $571 $676 forward @7 unknown #
coedge $-1 -1 $-1 $656 $672 $572 $637 reversed $595 $-1 #
edge $-1 -1 $-1 $575 6.972611193684190754e-31 $588 0.03535533905932740362 $572 $677 forward @7 unknown #
face $678 -1 $-1 $674 $573 $5 $-1 $679 forward single #
point $-1 -1 $-1 1.699999999999995959 9.75 -5.750000000000000888 #
edge $-1 -1 $-1 $628 0 $575 0.03535533905932740362 $631 $680 forward @7 unknown #
point $-1 -1 $-1 -7.750000000000002665 9.75 -5.750000000000000888 #
edge $-1 -1 $-1 $644 -0.01767766952966362548 $584 0.01767766952966370528 $577 $681 forward @7 unknown #
coedge $-1 -1 $-1 $601 $578 $657 $682 reversed $461 $-1 #
vertex $-1 -1 $-1 $642 $683 #
straight-curve $-1 -1 $-1 -7.999999999999998224 -10 -2.499999999999996447 -10 -0 -4.204759332775251285e-31 I I #
coedge $-1 -1 $-1 $657 $582 $598 $658 forward $525 $-1 #
vertex $-1 -1 $-1 $658 $684 #
straight-curve $-1 -1 $-1 -7.999999999999999112 -9.75 0 0 0 -10 F -0.6025010000000001753 F 0.6025010000000001753 #
point $-1 -1 $-1 -7.999999999999999112 -9.75 -2.499999999999996447 #
straight-curve $-1 -1 $-1 -7.750000000000003553 10 0 0 0 -10 F -0.6025010000000001753 F 0.6025010000000001753 #
edge $-1 -1 $-1 $588 0 $628 0.03535533905932725096 $627 $685 forward @7 unknown #
point $-1 -1 $-1 -7.750000000000003553 10 -5.5 #
point $-1 -1 $-1 1.699999999999995737 10 -5.5 #
DXID-attrib $-1 -1 $-1 $-1 $594 @10 ASM ENTITY @36 4949cef7-7dcb-42a1-9e17-628b539632ab #
plane-surface $-1 -1 $-1 -7.875000000000003553 9.875 0 -0.7071067811865475727 0.7071067811865475727 0 0 0 10 forward_v I I I I #
coedge $-1 -1 $-1 $672 $636 $631 $640 reversed $595 $-1 #
coedge $-1 -1 $-1 $597 $646 $643 $682 forward $525 $-1 #
edge $-1 -1 $-1 $647 0 $660 0.03535533905932733423 $646 $686 forward @7 unknown #
edge $-1 -1 $-1 $567 6.972611193684190754e-31 $647 0.03535533905932740362 $630 $687 forward @7 unknown #
vertex $-1 -1 $-1 $600 $688 #
straight-curve $-1 -1 $-1 -7.749999999999999112 -10 -5.5 0 7.071067811865474617 -7.071067811865474617 F 0 F 0.03535533905932740362 #
straight-curve $-1 -1 $-1 -4 -10 -5.5 -10 0 0 F -1.227501000000000175 F 0.4275010000000003529 #
DXID-attrib $-1 -1 $-1 $-1 $606 @10 ASM ENTITY @36 9cd0a491-1bc4-4419-8e76-576dea28cf8a #
plane-surface $-1 -1 $-1 -4 -9.875 -5.625 0 -0.7071067811865475727 -0.7071067811865475727 -10 0 0 forward_v I I I I #
edge $689 -1 $-1 $690 0 $690 6.283185307179586232 $607 $691 forward @7 unknown #
point $-1 -1 $-1 -2.458499999999999908 5.75 -5.750000000000001776 #
coedge $-1 -1 $-1 $667 $667 $-1 $692 reversed $617 $-1 #
vertex $-1 -1 $-1 $621 $693 #
intcurve-curve $-1 -1 $-1 forward { surfintcur full nubs 3 periodic 33 
	0 3 0.03836200258541731106 2 0.07672400517083462212 2 0.111095949561366425 2 0.139527288630549362 2 
	0.1679586276997323269 2 0.2276681015769040917 2 0.2575228385154899602 2 0.2873775754540758842 2 0.3172323123926616972 2 
	0.3470870493312475658 2 0.4067965232084193028 2 0.4352278622776022399 2 0.4636592013467852325 2 0.4980311457373168826 2 
	0.5363931483227342145 2 0.5747551509081516574 2 0.6131171534935691003 2 0.6514791560789864322 2 0.6858511004695181379 2 
	0.714282439538701075 2 0.742713778607884012 2 0.8024232524850557491 2 0.8322779894236416176 2 0.8621327263622274861 2 
	0.8919874633008133546 2 0.9218422002393993342 2 0.9815516741165710712 2 1.009983013185753897 2 1.038414352254936945 2 
	1.072786296645468651 2 1.111148299230885872 2 1.149510301816303315 3 
	5.09349999999999703 4.567943423519838397 0 
	5.09349999999999703 4.567943423519838397 0.1278733419513910508 
	5.119285217946982769 4.558173543885499335 0.2634211686770775995 
	5.223086228231579753 4.529871919808853065 0.5120690994944788743 
	5.301062980024402904 4.512579421896910858 0.625324985121558985 
	5.472997772083082246 4.497633219311392594 0.7956051624249006471 
	5.586563029746224984 4.498600858150388682 0.8730963548660692908 
	5.775906217379125351 4.527749122444244989 0.9575034801597843703 
	5.872110839722108899 4.552436790247583964 0.9848794323944103368 
	6.058874254772716128 4.627376416878084875 1.010064170972874376 
	6.149337066905048665 4.677736475802211302 1.008261356864962766 
	6.387240081614945275 4.847500932851586342 0.9782244293765712806 
	6.520271730659576548 5.00126741907191974 0.9205826212481066362 
	6.656181619555143314 5.264708777516064586 0.8405171206455391841 
	6.691117205123481071 5.358061097772659487 0.815147571866733367 
	6.738020726196714882 5.550932149438962959 0.7790262695530101311 
	6.749999999999998224 5.650484210204712809 0.7684674684070884609 
	6.749999999999998224 5.849515789795285414 0.7684674684070884609 
	6.738020726196714882 5.949067850561035264 0.7790262695530101311 
	6.691117205123481071 6.141938902227338737 0.8151475718667331449 
	6.656181619555143314 6.235291222483932749 0.840517120645538629 
	6.520271730659579212 6.498732580928077596 0.92058262124810597 
	6.387240081614946163 6.652499067148411882 0.9782244293765712806 
	6.149337066905048665 6.822263524197786921 1.008261356864962544 
	6.058874254772716128 6.872623583121914237 1.01006417097287482 
	5.872110839722108899 6.947563209752415148 0.9848794323944108919 
	5.775906217379125351 6.972250877555755011 0.9575034801597842593 
	5.586563029746224984 7.00139914184961043 0.8730963548660695128 
	5.472997772083083134 7.00236678068860563 0.7956051624249014242 
	5.301062980024402904 6.987420578103087365 0.6253249851215600952 
	5.223086228231579753 6.970128080191146047 0.5120690994944794294 
	5.119285217946982769 6.941826456114500665 0.2634211686770782102 
	5.09349999999999703 6.932056576480160714 0.1278733419513914393 
	5.09349999999999703 6.932056576480160714 -0.1278733419513914393 
	5.119285217946982769 6.941826456114500665 -0.2634211686770775995 
	5.223086228231579753 6.970128080191146047 -0.5120690994944789853 
	5.301062980024403792 6.987420578103087365 -0.6253249851215600952 
	5.472997772083083134 7.00236678068860563 -0.7956051624249014242 
	5.586563029746224984 7.00139914184961043 -0.8730963548660695128 
	5.775906217379125351 6.972250877555755011 -0.9575034801597843703 
	5.872110839722109787 6.947563209752415148 -0.9848794323944103368 
	6.058874254772717016 6.872623583121914237 -1.010064170972874376 
	6.149337066905048665 6.82226352419778781 -1.008261356864962766 
	6.387240081614945275 6.652499067148411882 -0.9782244293765712806 
	6.520271730659578324 6.498732580928078484 -0.9205826212481063031 
	6.656181619555143314 6.235291222483933637 -0.8405171206455391841 
	6.691117205123481071 6.141938902227339625 -0.815147571866733478 
	6.738020726196714882 5.949067850561035264 -0.7790262695530101311 
	6.749999999999998224 5.849515789795285414 -0.7684674684070884609 
	6.749999999999998224 5.650484210204712809 -0.7684674684070884609 
	6.738020726196714882 5.550932149438962071 -0.7790262695530103532 
	6.691117205123481071 5.358061097772658599 -0.8151475718667338111 
	6.656181619555143314 5.264708777516063698 -0.8405171206455391841 
	6.520271730659576548 5.00126741907191974 -0.9205826212481066362 
	6.387240081614945275 4.847500932851586342 -0.9782244293765712806 
	6.149337066905049554 4.677736475802211302 -1.008261356864962766 
	6.058874254772717904 4.627376416878085763 -1.010064170972874598 
	5.872110839722109787 4.552436790247584852 -0.9848794323944108919 
	5.775906217379125351 4.527749122444244989 -0.9575034801597845924 
	5.586563029746224984 4.498600858150388682 -0.8730963548660692908 
	5.472997772083082246 4.497633219311392594 -0.7956051624249006471 
	5.301062980024402904 4.512579421896910858 -0.625324985121559207 
	5.223086228231580641 4.529871919808853065 -0.5120690994944797625 
	5.119285217946983657 4.558173543885499335 -0.2634211686770782657 
	5.09349999999999703 4.567943423519838397 -0.1278733419513914116 
	5.09349999999999703 4.567943423519838397 0 
	0.00223927758716760579 
	
	cone 5.499999999999998224 5.75 5.750000000000000888 0 0 -1 -1.249999999999999778 0 0 1 I I 0 1 1.249999999999999778 forward I I I I 
	cone 6.099999999999997868 6 0 0 1 0 1.00649999999999995 0 0 1 I I 0 -1 1.00649999999999995 reversed I I I I 
	nullbs 
	nullbs 
	I I 
	0 
	0 
	0 
	} I I #
point $-1 -1 $-1 -1.600000000000000311 -7.25 -5.750000000000000888 #
straight-curve $-1 -1 $-1 -8.000000000000001776 4.999999999999999112 -5.5 -1.665334536937734811e-15 10 0 F -1.527500999999999998 F 0.5275009999999999977 #
coedge $-1 -1 $-1 $636 $656 $627 $651 reversed $595 $-1 #
point $-1 -1 $-1 -8.000000000000003553 9.75 -5.5 #
face $694 -1 $-1 $606 $632 $5 $-1 $695 forward single #
vertex $-1 -1 $-1 $635 $696 #
ellipse-curve $-1 -1 $-1 5.499999999999998224 5.75 -5.750000000000000888 0 0 1 -1.249999999999999778 0 0 1 I I #
straight-curve $-1 -1 $-1 -7.750000000000001776 9.75 -5.750000000000000888 -6.280369834735094159e-14 7.071067811865474617 7.071067811865474617 F 0 F 0.03535533905932740362 #
DXID-attrib $-1 -1 $-1 $-1 $638 @10 ASM ENTITY @36 984b6dc2-0801-4c6a-9b62-86c31d18c040 #
plane-surface $-1 -1 $-1 3.999999999999998668 9.875 -5.625 0 0.7071067811865475727 -0.7071067811865475727 -10 0 0 forward_v I I I I #
straight-curve $-1 -1 $-1 -8.000000000000003553 9.75 -5.5 7.071067811865474617 -3.140184917367547079e-14 -7.071067811865474617 F 0 F 0.03535533905932740362 #
straight-curve $-1 -1 $-1 -7.874999999999998224 -9.875 -2.499999999999996891 -7.071067811865491493 7.071067811865460406 -1.836365448752950074e-15 I I #
edge $-1 -1 $-1 $660 -0.5500000000000000444 $644 -0.2499999999999996669 $643 $697 forward @7 unknown #
point $-1 -1 $-1 -7.749999999999999112 -10 -2.499999999999996447 #
point $-1 -1 $-1 -7.999999999999999112 -9.75 -5.5 #
straight-curve $-1 -1 $-1 -7.750000000000003553 10 -5.5 -7.071067811865475505 -7.071067811865475505 0 F 0 F 0.03535533905932725096 #
straight-curve $-1 -1 $-1 -7.999999999999999112 -9.75 -5.5 7.071067811865491493 -7.071067811865460406 0 F 0 F 0.03535533905932733423 #
straight-curve $-1 -1 $-1 -7.749999999999999112 -9.749999999999998224 -5.750000000000000888 -7.071067811865474617 -6.280369834735094159e-14 7.071067811865474617 F 0 F 0.03535533905932740362 #
point $-1 -1 $-1 -7.749999999999999112 -10 -5.5 #
DXID-attrib $-1 -1 $-1 $-1 $665 @10 ASM ENTITY @36 2d9c4819-67ce-4f97-a693-979eb9c19103 #
vertex $-1 -1 $-1 $665 $698 #
ellipse-curve $-1 -1 $-1 6.099999999999997868 1.999999999999999556 0 0 1 0 1.00649999999999995 0 0 1 I I #
edge $-1 -1 $-1 $699 1 $699 0 $667 $-1 forward @7 unknown #
point $-1 -1 $-1 5.09349999999999703 4.567943423519838397 6.938893903907228378e-17 #
DXID-attrib $-1 -1 $-1 $-1 $674 @10 ASM ENTITY @36 adb1e852-9571-4e56-934e-c719b28a0c50 #
plane-surface $-1 -1 $-1 -7.875000000000000888 4.999999999999999112 -5.625 -0.7071067811865475727 -1.177569344012831437e-16 -0.7071067811865475727 -7.071067811865475505 0 7.071067811865475505 forward_v I I I I #
point $-1 -1 $-1 6.749999999999998224 5.75 -5.750000000000000888 #
straight-curve $-1 -1 $-1 -7.749999999999999112 -10 0 0 0 10 F -0.6025010000000001753 F 0.6025010000000001753 #
point $-1 -1 $-1 7.106499999999997819 1.999999999999999556 0 #
vertex $-1 -1 $-1 $692 $700 #
point $-1 -1 $-1 6.099999999999997868 1.395233786948759658 0 #
End-of-ACIS-data 