700 0 1 0           
30 Autodesk Translation Framework 21 ASM 223.22.0.65535 NT 24 Thu Nov 30 10:02:55 2017 
1 9.999999999999999547e-07 1.000000000000000036e-10 
body $1 -1 $-1 $2 $-1 $3 #
rgb_color-st-attrib $-1 -1 $4 $-1 $0 0.9568627450980392579 0.9568627450980392579 0.9568627450980392579 #
lump $-1 -1 $-1 $-1 $5 $0 #
transform $-1 -1 1 0 0 0 1 0 0 0 1 0 0 0 1 no_rotate no_reflect no_shear #
DXID-attrib $-1 -1 $-1 $1 $0 @10 ASM ENTITY @99 ALU LEVER.IPT|:|782B661AA491F2820D6274DC0E9E28020589336A|:|DA4B9237BACCCDF19C0760CAB7AEC4A8359010B0 #
shell $6 -1 $-1 $-1 $-1 $7 $-1 $2 #
string_attrib-name_attrib-gen-attrib $-1 -1 $-1 $-1 $5 keep keep_kept ignore copy @17 ATF_ExternalShell @4 true #
face $8 -1 $-1 $9 $10 $5 $-1 $11 forward single #
DXID-attrib $-1 -1 $-1 $-1 $7 @10 ASM ENTITY @36 614a6c12-03fa-46d3-af7e-e8f6e3f07ca0 #
face $12 -1 $-1 $13 $14 $5 $-1 $15 forward single #
loop $-1 -1 $-1 $-1 $16 $7 #
cone-surface $-1 -1 $-1 39.32339903577423001 -5.871511551869370571 0 -0 -0 -1 1.375105793773345741 -4.807190869513188858 0 1 I I 0 -1 4.999999999999999112 forward I I I I #
DXID-attrib $-1 -1 $-1 $-1 $9 @10 ASM ENTITY @36 b4eb0f36-691b-48f1-b2c2-f7b068571e6b #
face $17 -1 $-1 $18 $19 $5 $-1 $20 forward single #
loop $-1 -1 $-1 $-1 $21 $9 #
cone-surface $-1 -1 $-1 44.68646004085564982 -15.18816742486237992 0 0 0 1 5.750000000000000888 0 0 1 I I 0 1 5.750000000000000888 forward I I I I #
coedge $-1 -1 $-1 $22 $23 $24 $25 forward $10 $-1 #
DXID-attrib $-1 -1 $-1 $-1 $13 @10 ASM ENTITY @36 2647b951-f87e-425a-b3a4-9ae7c13ce404 #
face $26 -1 $-1 $27 $28 $5 $-1 $29 forward single #
loop $-1 -1 $-1 $-1 $30 $13 #
cone-surface $-1 -1 $-1 39.98636024362360786 -24.8562366165913744 0 0 0 1 1.036423421500089148 4.891403325362369436 0 1 I I 0 -1 5 forward I I I I #
coedge $-1 -1 $-1 $31 $32 $22 $33 reversed $14 $-1 #
coedge $-1 -1 $-1 $34 $16 $21 $33 forward $10 $-1 #
coedge $-1 -1 $-1 $16 $34 $35 $36 forward $10 $-1 #
coedge $-1 -1 $-1 $37 $38 $16 $25 reversed $39 $-1 #
edge $-1 -1 $-1 $40 -0.2437051246827042217 $41 0.2437051246827023898 $16 $42 forward @7 unknown #
DXID-attrib $-1 -1 $-1 $-1 $18 @10 ASM ENTITY @36 a29b39ab-8e5c-4de7-bea9-973d45027f76 #
face $43 -1 $-1 $44 $45 $5 $-1 $46 reversed single #
loop $-1 -1 $-1 $-1 $35 $18 #
plane-surface $-1 -1 $-1 33.44480306437679928 -11.07984436821576324 0 -0.03489949670250076796 0.9993908270190958731 0 0 0 10 forward_v I I I I #
coedge $-1 -1 $-1 $47 $48 $49 $50 forward $19 $-1 #
coedge $-1 -1 $-1 $51 $21 $38 $52 forward $14 $-1 #
coedge $-1 -1 $-1 $21 $51 $53 $54 forward $14 $-1 #
edge $-1 -1 $-1 $41 -0.3000000000000000444 $55 -0 $21 $56 forward @7 tangent #
coedge $-1 -1 $-1 $23 $22 $57 $58 forward $10 $-1 #
coedge $-1 -1 $-1 $59 $60 $23 $36 reversed $28 $-1 #
edge $-1 -1 $-1 $61 0 $40 0.3000000000000000444 $35 $62 forward @7 tangent #
coedge $-1 -1 $-1 $63 $24 $60 $64 reversed $39 $-1 #
coedge $-1 -1 $-1 $24 $65 $31 $52 reversed $39 $-1 #
loop $-1 -1 $-1 $66 $65 $67 #
vertex $-1 -1 $-1 $25 $68 #
vertex $-1 -1 $-1 $25 $69 #
ellipse-curve $-1 -1 $-1 39.32339903577423001 -5.871511551869370571 3.000000000000000444 0 0 1 1.375105793773345741 -4.807190869513188858 0 1 I I #
DXID-attrib $-1 -1 $-1 $-1 $27 @10 ASM ENTITY @36 bc330e9d-bd7e-4f05-b215-7be63f20bc1b #
face $70 -1 $-1 $71 $72 $5 $-1 $73 forward single #
loop $-1 -1 $-1 $74 $75 $27 #
plane-surface $-1 -1 $-1 1.492900728466291232e-16 -8.39650613747726382 0 0 0 1 10 0 0 forward_v I I I I #
coedge $-1 -1 $-1 $76 $30 $51 $77 forward $19 $-1 #
coedge $-1 -1 $-1 $30 $76 $78 $79 forward $19 $-1 #
coedge $-1 -1 $-1 $80 $53 $30 $50 reversed $81 $-1 #
edge $-1 -1 $-1 $82 -0.2437051246827018347 $83 0.2437051246827015016 $30 $84 forward @7 unknown #
coedge $-1 -1 $-1 $32 $31 $47 $77 reversed $14 $-1 #
edge $-1 -1 $-1 $41 -2.093113161200190309 $85 2.023299991120416585 $31 $86 forward @7 unknown #
coedge $-1 -1 $-1 $49 $57 $32 $54 reversed $81 $-1 #
edge $87 -1 $-1 $83 -2.023299991120416585 $55 2.093113161200190309 $32 $88 forward @7 unknown #
vertex $-1 -1 $-1 $33 $89 #
straight-curve $-1 -1 $-1 41.81784601488186581 -10.20483986488937411 0 -0 -0 -10 F -1.850001000000000007 F 1.550000999999999962 #
coedge $-1 -1 $-1 $53 $90 $34 $58 reversed $81 $-1 #
edge $-1 -1 $-1 $55 -0.2437051246827023898 $61 0.2437051246827042217 $34 $91 forward @7 unknown #
coedge $-1 -1 $-1 $92 $35 $90 $93 reversed $28 $-1 #
coedge $-1 -1 $-1 $35 $92 $37 $64 forward $28 $-1 #
vertex $-1 -1 $-1 $58 $94 #
straight-curve $-1 -1 $-1 39.49789651928674061 -10.86846568696484994 0 0 0 10 F -1.550000999999999962 F 1.850001000000000007 #
coedge $-1 -1 $-1 $95 $37 $96 $97 reversed $39 $-1 #
edge $-1 -1 $-1 $98 -0.4173637326052873631 $40 0.188314575746274443 $60 $99 forward @7 unknown #
coedge $-1 -1 $-1 $38 $100 $76 $101 reversed $39 $-1 #
loop $-1 -1 $-1 $102 $103 $67 #
face $104 -1 $-1 $105 $39 $5 $-1 $106 forward single #
point $-1 -1 $-1 39.49789651928674061 -10.86846568696484816 3.000000000000000444 #
point $-1 -1 $-1 41.81784601488186581 -10.20483986488937411 3.000000000000000444 #
DXID-attrib $-1 -1 $-1 $-1 $44 @10 ASM ENTITY @36 ccf0e925-619b-4730-bc2b-d1676e34d316 #
face $107 -1 $-1 $108 $109 $5 $-1 $110 forward single #
loop $-1 -1 $-1 $-1 $78 $44 #
plane-surface $-1 -1 $-1 2.817348722518489446 -21.15115937866188744 3.000000000000000444 0.03489949670250072633 -0.9993908270190957621 0 0 0 -10 forward_v I I I I #
loop $-1 -1 $-1 $81 $111 $27 #
coedge $-1 -1 $-1 $75 $75 $112 $113 forward $45 $-1 #
coedge $-1 -1 $-1 $48 $47 $65 $101 forward $19 $-1 #
edge $-1 -1 $-1 $83 0 $85 0.3000000000000000444 $51 $114 forward @7 tangent #
coedge $-1 -1 $-1 $115 $116 $48 $79 reversed $72 $-1 #
edge $-1 -1 $-1 $117 -0.3000000000000000444 $82 -0 $78 $118 forward @7 tangent #
coedge $-1 -1 $-1 $119 $49 $116 $120 reversed $81 $-1 #
loop $-1 -1 $-1 $-1 $80 $27 #
vertex $-1 -1 $-1 $50 $121 #
vertex $-1 -1 $-1 $77 $122 #
ellipse-curve $-1 -1 $-1 39.98636024362360786 -24.8562366165913744 0 -0 -0 -1 1.036423421500089148 4.891403325362369436 0 1 I I #
vertex $-1 -1 $-1 $52 $123 #
ellipse-curve $-1 -1 $-1 44.68646004085564982 -15.18816742486237992 3.000000000000000444 -0 -0 -1 5.750000000000000888 0 0 1 I I #
DXID-attrib $-1 -1 $-1 $-1 $54 @10 ASM ENTITY @36 54414fa5-43ed-4611-9cf0-4c6ddc413009 #
ellipse-curve $-1 -1 $-1 44.68646004085564982 -15.18816742486237992 0 0 0 1 5.750000000000000888 0 0 1 I I #
point $-1 -1 $-1 41.81784601488186581 -10.20483986488937411 0 #
coedge $-1 -1 $-1 $57 $124 $59 $93 forward $81 $-1 #
ellipse-curve $-1 -1 $-1 39.32339903577423001 -5.871511551869370571 0 -0 -0 -1 1.375105793773345741 -4.807190869513188858 0 1 I I #
coedge $-1 -1 $-1 $60 $59 $125 $126 forward $28 $-1 #
edge $127 -1 $-1 $128 0 $61 0.6056783083515617783 $90 $129 forward @7 unknown #
point $-1 -1 $-1 39.49789651928674061 -10.86846568696484816 0 #
coedge $-1 -1 $-1 $130 $63 $131 $132 forward $39 $-1 #
coedge $-1 -1 $-1 $125 $133 $63 $97 forward $134 $-1 #
edge $-1 -1 $-1 $135 -3.141592653589793116 $98 -1.691109224385976662 $63 $136 forward @7 unknown #
vertex $-1 -1 $-1 $126 $137 #
straight-curve $-1 -1 $-1 37.61589792333854376 -10.93418652611774533 3.000000000000000444 9.993908270190958731 0.3489949670250076519 0 I I #
coedge $-1 -1 $-1 $65 $138 $115 $139 reversed $39 $-1 #
edge $-1 -1 $-1 $85 -0.2437051246827015016 $117 0.2437051246827026674 $76 $140 forward @7 unknown #
loop $-1 -1 $-1 $-1 $141 $67 #
coedge $-1 -1 $-1 $103 $103 $142 $143 forward $66 $-1 #
DXID-attrib $-1 -1 $-1 $-1 $67 @10 ASM ENTITY @36 af4225de-6077-4500-b0fd-afc3a0dc24b2 #
face $144 -1 $-1 $145 $146 $5 $-1 $147 forward single #
plane-surface $-1 -1 $-1 1.008898415600201442e-16 -8.39650613747726382 3.000000000000000444 0 0 1 10 0 0 forward_v I I I I #
DXID-attrib $-1 -1 $-1 $-1 $71 @10 ASM ENTITY @36 da36192c-fcfe-409b-a413-12e36750b7de #
face $148 -1 $-1 $149 $150 $5 $-1 $151 forward single #
loop $-1 -1 $-1 $-1 $152 $71 #
cone-surface $-1 -1 $-1 0 -16.24649564248471378 1.125000000000000222 -0 -0 -1 -3.473291852294986271 -3.596699001693255404 0 1 I I 0 1 4.999999999999999112 forward I I I I #
coedge $-1 -1 $-1 $111 $111 $153 $154 forward $74 $-1 #
coedge $-1 -1 $-1 $112 $112 $75 $113 reversed $155 $-1 #
edge $-1 -1 $-1 $156 -3.141592653589793116 $156 3.141592653589793116 $75 $157 forward @7 unknown #
straight-curve $-1 -1 $-1 42.17245317256874415 -20.35946024834533219 0 0 0 10 F -1.550000999999999962 F 1.850001000000000007 #
coedge $-1 -1 $-1 $158 $78 $100 $139 forward $72 $-1 #
coedge $-1 -1 $-1 $78 $158 $80 $120 forward $72 $-1 #
vertex $-1 -1 $-1 $101 $159 #
straight-curve $-1 -1 $-1 39.81186276011110436 -19.85928248149589592 0 -0 -0 -10 F -1.850001000000000007 F 1.550000999999999962 #
coedge $-1 -1 $-1 $160 $80 $152 $161 reversed $81 $-1 #
edge $-1 -1 $-1 $162 -0.2644462173911356073 $82 3.701706383271191836 $80 $163 forward @7 unknown #
point $-1 -1 $-1 39.81186276011111147 -19.85928248149589592 0 #
point $-1 -1 $-1 42.17245317256874415 -20.35946024834532864 0 #
point $-1 -1 $-1 42.17245317256874415 -20.35946024834532864 3.000000000000000444 #
coedge $-1 -1 $-1 $90 $164 $165 $166 forward $81 $-1 #
coedge $-1 -1 $-1 $165 $96 $92 $126 reversed $134 $-1 #
edge $-1 -1 $-1 $128 -1.999999999999998224 $98 0 $125 $167 forward @7 unknown #
DXID-attrib $-1 -1 $-1 $-1 $93 @10 ASM ENTITY @36 f8fc30a0-30e0-47b5-8ea6-b1a8fdd7db16 #
vertex $-1 -1 $-1 $93 $168 #
straight-curve $-1 -1 $-1 33.44480306437679928 -11.07984436821576324 0 9.993908270190958731 0.3489949670250076519 0 F 0 F 1.109143045581993947 #
coedge $-1 -1 $-1 $169 $95 $170 $171 reversed $39 $-1 #
coedge $-1 -1 $-1 $172 $173 $95 $132 reversed $174 $-1 #
edge $-1 -1 $-1 $135 0.1489565185775349743 $175 0.3499999999999998113 $131 $176 forward @7 unknown #
coedge $-1 -1 $-1 $96 $165 $172 $177 forward $134 $-1 #
loop $-1 -1 $-1 $-1 $125 $178 #
vertex $-1 -1 $-1 $97 $179 #
ellipse-curve $-1 -1 $-1 33.57275684649784608 -9.585311722322432004 3.000000000000000444 0 0 1 1.499086240528644254 0.05234924505375104786 0 1 F -3.141592653589793116 F -1.691109224385976662 #
point $-1 -1 $-1 33.44480306437679928 -11.07984436821576324 3.000000000000000444 #
coedge $-1 -1 $-1 $100 $180 $181 $182 reversed $39 $-1 #
edge $-1 -1 $-1 $117 0.3662569470447203379 $183 4.332409547707047004 $115 $184 forward @7 unknown #
ellipse-curve $-1 -1 $-1 39.98636024362360786 -24.8562366165913744 3.000000000000000444 0 0 1 1.036423421500089148 4.891403325362369436 0 1 I I #
coedge $-1 -1 $-1 $141 $141 $185 $186 forward $102 $-1 #
coedge $-1 -1 $-1 $142 $142 $103 $143 reversed $187 $-1 #
edge $-1 -1 $-1 $188 -3.141592653589793116 $188 3.141592653589793116 $103 $189 forward @7 unknown #
DXID-attrib $-1 -1 $-1 $-1 $105 @10 ASM ENTITY @36 a30ffe00-27a8-427a-a7c5-601ac5927568 #
face $190 -1 $-1 $191 $192 $5 $-1 $193 forward single #
loop $-1 -1 $-1 $-1 $194 $105 #
cone-surface $-1 -1 $-1 27.57604771461864601 -9.784280244919672853 3.000000000000000444 0 0 -1 1.097030552428756245 -1.022997540093747215 0 1 I I 0 -1 1.500000000000000222 forward I I I I #
DXID-attrib $-1 -1 $-1 $-1 $108 @10 ASM ENTITY @36 9657f2b4-b4a5-4635-bda7-545d9db345ef #
face $195 -1 $-1 $67 $196 $5 $-1 $197 forward single #
loop $-1 -1 $-1 $-1 $198 $108 #
plane-surface $-1 -1 $-1 -5 -12.79732289120643074 -0.750000000000000111 -1 0 0 0 0 10 forward_v I I I I #
coedge $-1 -1 $-1 $199 $200 $119 $161 forward $109 $-1 #
coedge $-1 -1 $-1 $153 $153 $111 $154 reversed $201 $-1 #
edge $-1 -1 $-1 $202 -3.141592653589793116 $202 3.141592653589793116 $111 $203 forward @7 unknown #
loop $-1 -1 $-1 $-1 $112 $204 #
vertex $-1 -1 $-1 $113 $205 #
ellipse-curve $-1 -1 $-1 0 0 0 0 0 1 -2.75 0 0 1 I I #
coedge $-1 -1 $-1 $116 $115 $199 $206 reversed $72 $-1 #
point $-1 -1 $-1 39.81186276011110436 -19.85928248149588882 3.000000000000000444 #
coedge $-1 -1 $-1 $207 $119 $208 $209 reversed $81 $-1 #
edge $-1 -1 $-1 $210 -0.8028514559173915988 $162 0.8028514559173913767 $119 $211 forward @7 unknown #
vertex $-1 -1 $-1 $120 $212 #
straight-curve $-1 -1 $-1 2.817348722518489446 -21.15115937866188744 0 9.993908270190956955 0.3489949670250072633 0 F -0.2644462173911356073 F 3.846992957547760383 #
coedge $-1 -1 $-1 $124 $213 $214 $215 reversed $81 $-1 #
coedge $-1 -1 $-1 $133 $125 $124 $166 reversed $134 $-1 #
edge $-1 -1 $-1 $216 -3.141592653589793116 $128 -1.691109224385976662 $165 $217 reversed @7 unknown #
straight-curve $-1 -1 $-1 33.44480306437679928 -11.07984436821576324 3.000000000000000444 0 0 1.500000000000001554 F -1.999999999999998224 F 0 #
point $-1 -1 $-1 33.44480306437679928 -11.07984436821576324 0 #
coedge $-1 -1 $-1 $218 $130 $219 $220 forward $39 $-1 #
coedge $-1 -1 $-1 $221 $222 $130 $171 forward $223 $-1 #
edge $-1 -1 $-1 $224 -0.7853981633974489451 $175 2.356194490192344837 $130 $225 forward @7 unknown #
coedge $-1 -1 $-1 $214 $131 $133 $177 reversed $174 $-1 #
coedge $-1 -1 $-1 $131 $214 $221 $226 reversed $174 $-1 #
loop $-1 -1 $-1 $-1 $173 $227 #
vertex $-1 -1 $-1 $132 $228 #
straight-curve $-1 -1 $-1 32.12565568125832982 -11.12631875028706219 3.000000000000000444 -0.3489949670250070968 9.993908270190958731 0 F 0.1489565185775349743 F 0.3499999999999998113 #
edge $-1 -1 $-1 $216 -1.999999999999999334 $135 0 $172 $229 forward @7 tangent #
face $230 -1 $-1 $231 $134 $5 $-1 $232 forward single #
point $-1 -1 $-1 32.07367060596919828 -9.637660967376183052 3.000000000000000444 #
coedge $-1 -1 $-1 $138 $233 $234 $235 reversed $39 $-1 #
coedge $-1 -1 $-1 $200 $199 $138 $182 forward $109 $-1 #
edge $-1 -1 $-1 $183 -0.8028514559173913767 $236 0.8028514559173915988 $138 $237 forward @7 unknown #
vertex $-1 -1 $-1 $139 $238 #
straight-curve $-1 -1 $-1 43.47220109219622941 -19.73146065033933638 3.000000000000000444 -9.993908270190956955 -0.3489949670250081515 0 I I #
coedge $-1 -1 $-1 $185 $185 $141 $186 reversed $239 $-1 #
edge $-1 -1 $-1 $240 -3.141592653589793116 $240 3.141592653589793116 $141 $241 forward @7 unknown #
loop $-1 -1 $-1 $155 $142 $204 #
vertex $-1 -1 $-1 $143 $242 #
ellipse-curve $-1 -1 $-1 0 0 3.000000000000000444 -0 -0 -1 -2.75 0 0 1 I I #
DXID-attrib $-1 -1 $-1 $-1 $145 @10 ASM ENTITY @36 a16c6daa-cf3e-4c31-8077-7de247d57cca #
face $243 -1 $-1 $227 $223 $5 $-1 $244 forward single #
loop $-1 -1 $-1 $-1 $245 $145 #
plane-surface $-1 -1 $-1 28.95298571668853427 -6.234063105299087582 3.000000000000000444 -0.9993908270190957621 -0.03489949670250160063 -0 0 0 10 forward_v I I I I #
coedge $-1 -1 $-1 $246 $247 $218 $248 forward $146 $-1 #
DXID-attrib $-1 -1 $-1 $-1 $149 @10 ASM ENTITY @36 abf779aa-61db-446f-b831-39957e4f8c78 #
loop $-1 -1 $-1 $-1 $249 $149 #
cone-surface $-1 -1 $-1 0 0 0 0 0 1 5 0 0 1 I I 0 1 5 forward I I I I #
coedge $-1 -1 $-1 $234 $208 $200 $250 reversed $150 $-1 #
coedge $-1 -1 $-1 $181 $152 $158 $206 forward $109 $-1 #
coedge $-1 -1 $-1 $152 $181 $198 $250 forward $109 $-1 #
loop $-1 -1 $-1 $-1 $153 $251 #
vertex $-1 -1 $-1 $154 $252 #
ellipse-curve $-1 -1 $-1 0 -15.25000000000000178 0 0 0 1 -1.625 0 0 1 I I #
face $253 -1 $-1 $251 $187 $5 $-1 $254 reversed single #
point $-1 -1 $-1 2.75 3.367778697655221998e-16 0 #
edge $-1 -1 $-1 $162 -0.1125000000000000167 $183 0.1875000000000000278 $158 $255 forward @7 tangent #
coedge $-1 -1 $-1 $256 $160 $249 $257 reversed $81 $-1 #
coedge $-1 -1 $-1 $198 $258 $160 $209 forward $150 $-1 #
edge $-1 -1 $-1 $259 -1.059691451434184639 $210 0.5649581128142866504 $160 $260 reversed @7 unknown #
vertex $-1 -1 $-1 $161 $261 #
ellipse-curve $-1 -1 $-1 0 -16.24649564248471378 0 0 0 1 -3.473291852294986271 -3.596699001693255404 0 1 I I #
point $-1 -1 $-1 0.1744974835125034929 -21.24344977758019226 0 #
coedge $-1 -1 $-1 $164 $262 $263 $264 reversed $81 $-1 #
coedge $-1 -1 $-1 $173 $172 $164 $215 forward $174 $-1 #
edge $-1 -1 $-1 $216 0.1489565185775349743 $265 0.3499999999999998113 $164 $266 forward @7 unknown #
vertex $-1 -1 $-1 $215 $267 #
ellipse-curve $-1 -1 $-1 33.57275684649784608 -9.585311722322432004 0 -0 -0 -1 1.499086240528644254 0.05234924505375104786 0 1 F 1.691109224385976662 F 3.141592653589793116 #
coedge $-1 -1 $-1 $268 $169 $194 $248 reversed $39 $-1 #
coedge $-1 -1 $-1 $269 $245 $169 $220 reversed $192 $-1 #
edge $-1 -1 $-1 $224 0.150000000000000161 $270 0.3499999999999997558 $219 $271 forward @7 unknown #
coedge $-1 -1 $-1 $263 $170 $173 $226 forward $223 $-1 #
coedge $-1 -1 $-1 $170 $263 $269 $272 forward $223 $-1 #
loop $-1 -1 $-1 $-1 $263 $191 #
vertex $-1 -1 $-1 $171 $273 #
ellipse-curve $-1 -1 $-1 30.50442120227092957 -7.680800100773980787 3.000000000000000444 -0 -0 -1 -1.097030552428755801 1.022997540093748103 0 1 F -0.7853981633974489451 F 2.356194490192344837 #
edge $-1 -1 $-1 $175 0 $265 0.3000000000000000444 $173 $274 forward @7 tangent #
face $275 -1 $-1 $178 $174 $5 $-1 $276 forward single #
point $-1 -1 $-1 32.00350744279957382 -7.62845085572022974 3.000000000000000444 #
straight-curve $-1 -1 $-1 32.07367060596919828 -9.637660967376183052 3.000000000000000444 0 0 1.500000000000000888 F -1.999999999999999334 F 0 #
DXID-attrib $-1 -1 $-1 $-1 $178 @10 ASM ENTITY @36 82d2bc15-ed92-4c2f-a83e-4b8f64c5d93b #
face $277 -1 $-1 $278 $279 $5 $-1 $280 forward single #
cone-surface $-1 -1 $-1 33.57275684649784608 -9.585311722322432004 3.000000000000000444 0 0 1 1.499086240528644254 0.05234924505375104786 0 1 I I -0 -1 1.500000000000000888 forward I I I I #
coedge $-1 -1 $-1 $180 $281 $282 $283 reversed $39 $-1 #
coedge $-1 -1 $-1 $258 $198 $180 $235 forward $150 $-1 #
edge $-1 -1 $-1 $236 -0.5649581128142866504 $284 1.059691451434184639 $180 $285 forward @7 unknown #
vertex $-1 -1 $-1 $182 $286 #
ellipse-curve $-1 -1 $-1 0 -16.24649564248471378 3.000000000000000444 -0 -0 -1 -3.473291852294986271 -3.596699001693255404 0 1 I I #
point $-1 -1 $-1 0.1744974835125034929 -21.24344977758019226 3.000000000000000444 #
loop $-1 -1 $-1 $201 $185 $251 #
vertex $-1 -1 $-1 $186 $287 #
ellipse-curve $-1 -1 $-1 0 -15.25000000000000178 3.000000000000000444 -0 -0 -1 -1.625 0 0 1 I I #
point $-1 -1 $-1 2.75 3.367778697655221998e-16 3.000000000000000444 #
DXID-attrib $-1 -1 $-1 $-1 $191 @10 ASM ENTITY @36 a4b370c6-a73f-44a2-ae9d-3506ea80dab2 #
cone-surface $-1 -1 $-1 30.50442120227092957 -7.680800100773980787 3.000000000000000444 0 0 -1 1.022997540093748103 1.097030552428755801 0 1 I I 0 1 1.500000000000000222 forward I I I I #
coedge $-1 -1 $-1 $219 $288 $246 $289 reversed $192 $-1 #
coedge $-1 -1 $-1 $290 $194 $245 $289 forward $146 $-1 #
coedge $-1 -1 $-1 $194 $290 $291 $292 forward $146 $-1 #
edge $-1 -1 $-1 $293 -0.7853981633974489451 $270 0.785398163397448168 $218 $294 forward @7 unknown #
coedge $-1 -1 $-1 $295 $296 $207 $257 forward $196 $-1 #
edge $-1 -1 $-1 $236 -0.1875000000000000278 $210 0.1125000000000000167 $198 $297 forward @7 tangent #
face $298 -1 $-1 $-1 $239 $5 $-1 $299 reversed single #
point $-1 -1 $-1 1.625 -15.25000000000000178 0 #
DXID-attrib $-1 -1 $-1 $-1 $204 @10 ASM ENTITY @36 a415de95-72fc-4bec-acd7-2ed854668640 #
cone-surface $-1 -1 $-1 0 0 0 0 0 1 -2.75 0 0 1 I I 0 1 2.75 forward I I I I #
straight-curve $-1 -1 $-1 0.1744974835125036594 -21.24344977758019226 1.125000000000000222 0 0 10 F -1.662501000000000007 F 1.737500999999999962 #
coedge $-1 -1 $-1 $300 $207 $301 $302 reversed $81 $-1 #
edge $-1 -1 $-1 $303 -0.5620698030056269223 $259 3.141592653589793116 $207 $304 forward @7 unknown #
coedge $-1 -1 $-1 $208 $234 $295 $305 reversed $150 $-1 #
vertex $-1 -1 $-1 $209 $306 #
straight-curve $-1 -1 $-1 -5 -10.59691451434184728 0 0 10 0 I I #
point $-1 -1 $-1 -5 -16.24649564248471378 0 #
coedge $-1 -1 $-1 $213 $307 $288 $308 reversed $81 $-1 #
coedge $-1 -1 $-1 $222 $221 $213 $264 forward $223 $-1 #
edge $-1 -1 $-1 $265 -2.356194490192344837 $309 0.7853981633974489451 $213 $310 forward @7 unknown #
vertex $-1 -1 $-1 $264 $311 #
straight-curve $-1 -1 $-1 32.12565568125832982 -11.12631875028706219 0 -0.3489949670250070968 9.993908270190958731 0 F 0.1489565185775349743 F 0.3499999999999998113 #
point $-1 -1 $-1 32.07367060596919828 -9.637660967376183052 0 #
coedge $-1 -1 $-1 $312 $218 $313 $314 forward $39 $-1 #
coedge $-1 -1 $-1 $288 $219 $222 $272 reversed $192 $-1 #
vertex $-1 -1 $-1 $220 $315 #
straight-curve $-1 -1 $-1 28.95298571668853427 -6.234063105299087582 3.000000000000000444 0.348994967025015923 -9.993908270190956955 0 F 0.150000000000000161 F 0.3499999999999997558 #
edge $-1 -1 $-1 $309 -0.3000000000000000444 $224 0 $269 $316 forward @7 tangent #
point $-1 -1 $-1 29.00533496174228532 -7.733149345827733612 3.000000000000000444 #
straight-curve $-1 -1 $-1 32.00350744279957382 -7.62845085572022974 3.000000000000000444 0 0 -10 F -0.4650010000000001087 F 0.7650010000000001531 #
DXID-attrib $-1 -1 $-1 $-1 $227 @10 ASM ENTITY @36 cedbf817-b446-44b5-a622-447048927127 #
plane-surface $-1 -1 $-1 32.12565568125832982 -11.12631875028706219 3.000000000000000444 0.9993908270190958731 0.03489949670250071245 0 0 0 -10 forward_v I I I I #
DXID-attrib $-1 -1 $-1 $-1 $231 @10 ASM ENTITY @36 f8d30a3c-cc9f-4cea-b90e-8eb5a1f41164 #
face $317 -1 $-1 $318 $319 $5 $-1 $320 forward single #
loop $-1 -1 $-1 $-1 $291 $231 #
plane-surface $-1 -1 $-1 34.87398045556084014 -11.03034513435518704 3.000000000000000444 -0.03489949670250083735 0.9993908270190957621 0 0 0 10 forward_v I I I I #
coedge $-1 -1 $-1 $233 $312 $321 $322 reversed $39 $-1 #
coedge $-1 -1 $-1 $296 $295 $233 $283 forward $196 $-1 #
edge $-1 -1 $-1 $284 -3.141592653589793116 $323 0.5620698030056269223 $233 $324 forward @7 unknown #
vertex $-1 -1 $-1 $235 $325 #
straight-curve $-1 -1 $-1 -5 -10.59691451434184728 3.000000000000000444 0 10 0 I I #
point $-1 -1 $-1 -5 -16.24649564248471378 3.000000000000000444 #
point $-1 -1 $-1 1.625 -15.25000000000000178 3.000000000000000444 #
coedge $-1 -1 $-1 $245 $269 $262 $308 forward $192 $-1 #
edge $-1 -1 $-1 $270 0 $326 0.3000000000000000444 $245 $327 forward @7 tangent #
coedge $-1 -1 $-1 $247 $246 $307 $328 forward $146 $-1 #
coedge $-1 -1 $-1 $329 $313 $247 $292 reversed $279 $-1 #
edge $-1 -1 $-1 $330 -0.3000000000000000444 $293 0 $291 $331 forward @7 tangent #
vertex $-1 -1 $-1 $248 $332 #
ellipse-curve $-1 -1 $-1 27.57604771461864601 -9.784280244919672853 3.000000000000000444 0 0 1 1.097030552428756245 -1.022997540093747215 0 1 F -0.7853981633974489451 F 0.785398163397448168 #
coedge $-1 -1 $-1 $282 $249 $258 $305 forward $196 $-1 #
coedge $-1 -1 $-1 $249 $282 $333 $334 reversed $196 $-1 #
straight-curve $-1 -1 $-1 -5 -16.24649564248471378 1.125000000000000222 0 0 -10 F -1.737500999999999962 F 1.662501000000000007 #
DXID-attrib $-1 -1 $-1 $-1 $251 @10 ASM ENTITY @36 6dc4dd02-7d92-49e8-9c1e-5945937683d9 #
cone-surface $-1 -1 $-1 0 -15.25000000000000178 0 0 0 1 -1.625 0 0 1 I I 0 1 1.625 forward I I I I #
coedge $-1 -1 $-1 $335 $256 $336 $337 reversed $81 $-1 #
coedge $-1 -1 $-1 $333 $338 $256 $302 forward $339 $-1 #
edge $-1 -1 $-1 $340 0.2468905877118911796 $303 0.2810349015028135167 $256 $341 forward @7 unknown #
vertex $-1 -1 $-1 $257 $342 #
ellipse-curve $-1 -1 $-1 0 0 0 0 0 1 5 0 0 1 I I #
edge $-1 -1 $-1 $259 0 $284 0.3000000000000000444 $295 $343 forward @7 unknown #
point $-1 -1 $-1 -5 0 0 #
coedge $-1 -1 $-1 $262 $335 $290 $328 reversed $81 $-1 #
edge $-1 -1 $-1 $309 0.1500000000000001887 $326 0.3499999999999999223 $262 $344 forward @7 unknown #
vertex $-1 -1 $-1 $308 $345 #
ellipse-curve $-1 -1 $-1 30.50442120227092957 -7.680800100773980787 0 0 0 1 -1.097030552428755801 1.022997540093748103 0 1 F -2.356194490192344837 F 0.7853981633974489451 #
point $-1 -1 $-1 32.00350744279957382 -7.62845085572022974 0 #
coedge $-1 -1 $-1 $281 $268 $346 $347 forward $39 $-1 #
coedge $-1 -1 $-1 $291 $348 $268 $314 reversed $279 $-1 #
edge $-1 -1 $-1 $293 0.7249999999999997558 $349 2.540776909687623153 $313 $350 forward @7 unknown #
point $-1 -1 $-1 29.07513395514729382 -9.731930999865920029 3.000000000000000444 #
straight-curve $-1 -1 $-1 29.00533496174228532 -7.733149345827733612 3.000000000000000444 0 0 10 F -0.7650010000000001531 F 0.4650010000000001087 #
DXID-attrib $-1 -1 $-1 $-1 $278 @10 ASM ENTITY @36 15614e3f-3e26-4e15-8670-3142302dda37 #
face $351 -1 $-1 $204 $339 $5 $-1 $352 forward single #
loop $-1 -1 $-1 $-1 $336 $278 #
cone-surface $-1 -1 $-1 9.27229210490847322 -5.920718526054944419 0 0 0 -1 -0.2093969802150053017 5.996344962114577015 0 1 I I -0 -1 6.000000000000003553 forward I I I I #
coedge $-1 -1 $-1 $338 $333 $281 $322 forward $339 $-1 #
edge $-1 -1 $-1 $323 -0.2810349015028135167 $353 -0.2468905877118911796 $281 $354 forward @7 unknown #
vertex $-1 -1 $-1 $283 $355 #
ellipse-curve $-1 -1 $-1 0 0 3.000000000000000444 -0 -0 -1 5 0 0 1 I I #
point $-1 -1 $-1 -5 0 3.000000000000000444 #
vertex $-1 -1 $-1 $328 $356 #
straight-curve $-1 -1 $-1 29.07513395514729382 -9.731930999865920029 3.000000000000000444 0 0 -10 F -0.4650010000000001087 F 0.7650010000000001531 #
edge $-1 -1 $-1 $326 -0.785398163397448168 $330 0.7853981633974489451 $307 $357 forward @7 unknown #
coedge $-1 -1 $-1 $348 $291 $335 $358 forward $279 $-1 #
vertex $-1 -1 $-1 $358 $359 #
straight-curve $-1 -1 $-1 27.62839695967240061 -11.28336648544831533 3.000000000000000444 0 0 10 F -0.7650010000000001531 F 0.4650010000000001087 #
point $-1 -1 $-1 27.62839695967240061 -11.28336648544831533 3.000000000000000444 #
coedge $-1 -1 $-1 $321 $301 $296 $334 forward $339 $-1 #
edge $-1 -1 $-1 $303 0 $323 0.3000000000000000444 $296 $360 forward @7 tangent #
coedge $-1 -1 $-1 $307 $300 $329 $358 reversed $81 $-1 #
coedge $-1 -1 $-1 $361 $362 $300 $337 forward $319 $-1 #
edge $-1 -1 $-1 $363 -3.141592653589793116 $340 -1.007964252540305417 $300 $364 forward @7 unknown #
coedge $-1 -1 $-1 $301 $321 $361 $365 reversed $339 $-1 #
loop $-1 -1 $-1 $-1 $338 $318 #
vertex $-1 -1 $-1 $302 $366 #
ellipse-curve $-1 -1 $-1 11 -6.928203230275506108 0 -0 -0 -1 -7.686151382644181851 2.218800784900914813 0 1 F 0.2468905877118911796 F 0.2810349015028135167 #
point $-1 -1 $-1 4.230769230769231726 -2.664693550105963649 0 #
straight-curve $-1 -1 $-1 -5 0 0 0 0 10 F -0.6750010000000000732 F 0.9750010000000001176 #
straight-curve $-1 -1 $-1 28.95298571668853427 -6.234063105299087582 0 0.348994967025015923 -9.993908270190956955 0 F 0.1500000000000001887 F 0.3499999999999999223 #
point $-1 -1 $-1 29.00533496174228532 -7.733149345827733612 0 #
coedge $-1 -1 $-1 $362 $361 $312 $347 reversed $319 $-1 #
edge $-1 -1 $-1 $349 -3.141592653589793116 $353 -1.007964252540305417 $346 $367 reversed @7 unknown #
coedge $-1 -1 $-1 $313 $329 $362 $368 reversed $279 $-1 #
vertex $-1 -1 $-1 $314 $369 #
straight-curve $-1 -1 $-1 34.87398045556084014 -11.03034513435518704 3.000000000000000444 -9.993908270190956955 -0.3489949670250083735 0 F 0.7249999999999997558 F 2.540776909687623153 #
DXID-attrib $-1 -1 $-1 $-1 $318 @10 ASM ENTITY @36 08aa2980-f5a0-4eb4-ae84-1ee462272717 #
cone-surface $-1 -1 $-1 11 -6.928203230275506108 0 0 0 1 -7.686151382644181851 2.218800784900914813 0 1 I I 0 -1 7.999999999999999112 forward I I I I #
vertex $-1 -1 $-1 $347 $370 #
ellipse-curve $-1 -1 $-1 11 -6.928203230275506108 3.000000000000000444 0 0 1 -7.686151382644181851 2.218800784900914813 0 1 F -0.2810349015028135167 F -0.2468905877118911796 #
point $-1 -1 $-1 4.230769230769231726 -2.664693550105963649 3.000000000000000444 #
point $-1 -1 $-1 29.07513395514729382 -9.731930999865920029 0 #
ellipse-curve $-1 -1 $-1 27.57604771461864601 -9.784280244919672853 0 -0 -0 -1 1.097030552428756245 -1.022997540093747215 0 1 F -0.785398163397448168 F 0.7853981633974489451 #
edge $-1 -1 $-1 $330 0.7249999999999997558 $363 2.540776909687623153 $335 $371 forward @7 unknown #
point $-1 -1 $-1 27.62839695967240061 -11.28336648544831533 0 #
straight-curve $-1 -1 $-1 4.230769230769231726 -2.664693550105963649 0 0 0 10 F 0 F 0.3000000000000000444 #
coedge $-1 -1 $-1 $346 $336 $338 $365 forward $319 $-1 #
coedge $-1 -1 $-1 $336 $346 $348 $368 forward $319 $-1 #
vertex $-1 -1 $-1 $337 $372 #
ellipse-curve $-1 -1 $-1 9.27229210490847322 -5.920718526054944419 0 -0 -0 -1 -0.2093969802150053017 5.996344962114577015 0 1 F -3.141592653589793116 F -1.007964252540305417 #
edge $-1 -1 $-1 $340 0 $353 0.4999999999999998335 $338 $373 forward @7 tangent #
point $-1 -1 $-1 4.089168419633882223 -2.898264413393254468 0 #
ellipse-curve $-1 -1 $-1 9.27229210490847322 -5.920718526054944419 3.000000000000000444 0 0 1 -0.2093969802150053017 5.996344962114577015 0 1 F 1.007964252540305417 F 3.141592653589793116 #
edge $-1 -1 $-1 $349 -0.4999999999999998335 $363 0 $348 $374 forward @7 tangent #
point $-1 -1 $-1 9.481689085123479188 -11.91706348816952143 3.000000000000000444 #
point $-1 -1 $-1 4.089168419633882223 -2.898264413393254468 3.000000000000000444 #
straight-curve $-1 -1 $-1 34.87398045556084014 -11.03034513435518704 0 -9.993908270190956955 -0.3489949670250083735 0 F 0.7249999999999997558 F 2.540776909687623153 #
point $-1 -1 $-1 9.481689085123479188 -11.91706348816952143 0 #
straight-curve $-1 -1 $-1 4.089168419633882223 -2.898264413393253136 0 0 0 6.000000000000003553 F 0 F 0.4999999999999998335 #
straight-curve $-1 -1 $-1 9.481689085123477412 -11.91706348816952143 0 0 0 -6.000000000000003553 F -0.4999999999999998335 F 0 #
End-of-ACIS-data 