                                                                        S      1
,,,10HK8800-LB10,22HAutodesk Inventor 2018,7Hunknown,32,38,7,99,15,,1., G      1
2,2HMM,1,0.08,15H20171130.095516,0.01,10000.,3HJGE,,11,0,15H20161208.102G      2
747;                                                                    G      3
     186       1                                                00000000D      1
     186            -173       1       0                               0D      2
     514       2                                                00010000D      3
     514                       2       1                               0D      4
     510       4                                                00010000D      5
     510            -173       1       1                               0D      6
     510       5                                                00010000D      7
     510            -173       1       1                               0D      8
     510       6                                                00010000D      9
     510            -173       1       1                               0D     10
     510       7                                                00010000D     11
     510            -173       1       1                               0D     12
     510       8                                                00010000D     13
     510            -173       1       1                               0D     14
     510       9                                                00010000D     15
     510            -173       1       1                               0D     16
     510      10                                                00010000D     17
     510            -173       1       1                               0D     18
     510      11                                                00010000D     19
     510            -173       1       1                               0D     20
     510      12                                                00010000D     21
     510            -173       1       1                               0D     22
     510      13                                                00010000D     23
     510            -173       1       1                               0D     24
     510      14                                                00010000D     25
     510            -173       1       1                               0D     26
     510      15                                                00010000D     27
     510            -173       1       1                               0D     28
     510      16                                                00010000D     29
     510            -173       1       1                               0D     30
     510      17                                                00010000D     31
     510            -173       1       1                               0D     32
     510      18                                                00010000D     33
     510            -173       1       1                               0D     34
     510      19                                                00010000D     35
     510            -173       1       1                               0D     36
     508      20                                                00010000D     37
     508                       2       1                               0D     38
     508      22                                                00010000D     39
     508                       2       1                               0D     40
     508      24                                                00010000D     41
     508                       1       1                               0D     42
     508      25                                                00010000D     43
     508                       1       1                               0D     44
     508      26                                                00010000D     45
     508                       1       1                               0D     46
     508      27                                                00010000D     47
     508                       1       1                               0D     48
     508      28                                                00010000D     49
     508                       1       1                               0D     50
     508      29                                                00010000D     51
     508                       1       1                               0D     52
     508      30                                                00010000D     53
     508                       1       1                               0D     54
     508      31                                                00010000D     55
     508                       1       1                               0D     56
     508      32                                                00010000D     57
     508                       1       1                               0D     58
     508      33                                                00010000D     59
     508                       1       1                               0D     60
     508      34                                                00010000D     61
     508                       1       1                               0D     62
     508      35                                                00010000D     63
     508                       1       1                               0D     64
     508      36                                                00010000D     65
     508                       1       1                               0D     66
     508      37                                                00010000D     67
     508                       1       1                               0D     68
     508      38                                                00010000D     69
     508                       1       1                               0D     70
     508      39                                                00010000D     71
     508                       1       1                               0D     72
     126      40                                                00010000D     73
     126       0              10       0                               0D     74
     126      50                                                00010000D     75
     126       0               3       0                               0D     76
     126      53                                                00010000D     77
     126       0               6       0                               0D     78
     126      59                                                00010000D     79
     126       0               5       0                               0D     80
     126      64                                                00010000D     81
     126       0               3       0                               0D     82
     126      67                                                00010000D     83
     126       0              10       0                               0D     84
     126      77                                                00010000D     85
     126       0              10       0                               0D     86
     126      87                                                00010000D     87
     126       0              10       0                               0D     88
     126      97                                                00010000D     89
     126       0               3       0                               0D     90
     126     100                                                00010000D     91
     126       0              10       0                               0D     92
     126     110                                                00010000D     93
     126       0               3       0                               0D     94
     126     113                                                00010000D     95
     126       0              10       0                               0D     96
     126     123                                                00010000D     97
     126       0              10       0                               0D     98
     126     133                                                00010000D     99
     126       0               3       0                               0D    100
     126     136                                                00010000D    101
     126       0              10       0                               0D    102
     126     146                                                00010000D    103
     126       0               3       0                               0D    104
     126     149                                                00010000D    105
     126       0              10       0                               0D    106
     126     159                                                00010000D    107
     126       0              10       0                               0D    108
     126     169                                                00010000D    109
     126       0               2       0                               0D    110
     126     171                                                00010000D    111
     126       0               3       0                               0D    112
     126     174                                                00010000D    113
     126       0              10       0                               0D    114
     126     184                                                00010000D    115
     126       0               3       0                               0D    116
     126     187                                                00010000D    117
     126       0              10       0                               0D    118
     126     197                                                00010000D    119
     126       0              10       0                               0D    120
     126     207                                                00010000D    121
     126       0               3       0                               0D    122
     126     210                                                00010000D    123
     126       0              10       0                               0D    124
     126     220                                                00010000D    125
     126       0              10       0                               0D    126
     126     230                                                00010000D    127
     126       0               3       0                               0D    128
     126     233                                                00010000D    129
     126       0               3       0                               0D    130
     126     236                                                00010000D    131
     126       0               2       0                               0D    132
     126     238                                                00010000D    133
     126       0               2       0                               0D    134
     128     240                                                00010000D    135
     128       0    -173      13       0                               0D    136
     128     253                                                00010000D    137
     128       0    -173      13       0                               0D    138
     128     266                                                00010000D    139
     128       0    -173       3       0                               0D    140
     128     269                                                00010000D    141
     128       0    -173      14       0                               0D    142
     128     283                                                00010000D    143
     128       0    -173       3       0                               0D    144
     128     286                                                00010000D    145
     128       0    -173      15       0                               0D    146
     128     301                                                00010000D    147
     128       0    -173      13       0                               0D    148
     128     314                                                00010000D    149
     128       0    -173      13       0                               0D    150
     128     327                                                00010000D    151
     128       0    -173      12       0                               0D    152
     128     339                                                00010000D    153
     128       0    -173      15       0                               0D    154
     128     354                                                00010000D    155
     128       0    -173      13       0                               0D    156
     128     367                                                00010000D    157
     128       0    -173      15       0                               0D    158
     128     382                                                00010000D    159
     128       0    -173      13       0                               0D    160
     128     395                                                00010000D    161
     128       0    -173      15       0                               0D    162
     128     410                                                00010000D    163
     128       0    -173      16       0                               0D    164
     128     426                                                00010000D    165
     128       0    -173      16       0                               0D    166
     502     442                                                00010000D    167
     502                       9       1                               0D    168
     504     451                                                00010001D    169
     504                       9       1                               0D    170
     406     460                                                00000000D    171
     406                       1      15                               0D    172
     314     461                                                00000200D    173
     314                       1       0                               0D    174
186,3,1,0,0,1,171;                                                     1P      1
514,16,5,1,7,1,9,1,11,1,13,1,15,1,17,1,19,1,21,1,23,1,25,1,27,1,       3P      2
29,1,31,1,33,1,35,1;                                                   3P      3
510,135,1,1,37;                                                        5P      4
510,137,1,1,39;                                                        7P      5
510,139,2,1,41,43;                                                     9P      6
510,141,1,1,45;                                                       11P      7
510,143,2,1,47,49;                                                    13P      8
510,145,1,1,51;                                                       15P      9
510,147,1,1,53;                                                       17P     10
510,149,1,1,55;                                                       19P     11
510,151,1,1,57;                                                       21P     12
510,153,1,1,59;                                                       23P     13
510,155,1,1,61;                                                       25P     14
510,157,1,1,63;                                                       27P     15
510,159,1,1,65;                                                       29P     16
510,161,1,1,67;                                                       31P     17
510,163,1,1,69;                                                       33P     18
510,165,1,1,71;                                                       35P     19
508,5,0,169,1,1,0,0,169,2,1,0,0,169,3,1,0,0,169,4,1,0,0,169,2,0,      37P     20
0;                                                                    37P     21
508,5,0,169,3,0,0,0,169,4,0,0,0,169,5,1,0,0,169,6,0,0,0,169,5,0,      39P     22
0;                                                                    39P     23
508,1,0,169,7,0,0;                                                    41P     24
508,1,0,169,1,0,0;                                                    43P     25
508,4,0,169,8,1,0,0,169,9,1,0,0,169,6,1,0,0,169,9,0,0;                45P     26
508,1,0,169,10,0,0;                                                   47P     27
508,1,0,169,8,0,0;                                                    49P     28
508,4,0,169,10,1,0,0,169,11,1,0,0,169,12,1,0,0,169,11,0,0;            51P     29
508,4,0,169,13,0,0,0,169,14,1,0,0,169,12,0,0,0,169,14,0,0;            53P     30
508,4,0,169,15,1,0,0,169,16,1,0,0,169,17,0,0,0,169,16,0,0;            55P     31
508,4,0,169,18,0,0,0,169,19,1,0,0,169,15,0,0,0,169,19,0,0;            57P     32
508,4,0,169,13,1,0,0,169,20,1,0,0,169,21,0,0,0,169,20,0,0;            59P     33
508,4,0,169,18,1,0,0,169,22,1,0,0,169,23,0,0,0,169,22,0,0;            61P     34
508,4,0,169,24,1,0,0,169,25,1,0,0,169,26,0,0,0,169,25,0,0;            63P     35
508,4,0,169,27,0,0,0,169,28,1,0,0,169,24,0,0,0,169,28,0,0;            65P     36
508,4,0,169,7,1,0,0,169,29,1,0,0,169,27,1,0,0,169,29,0,0;             67P     37
508,4,0,169,21,1,0,0,169,30,1,0,0,169,17,1,0,0,169,30,0,0;            69P     38
508,4,0,169,23,1,0,0,169,31,1,0,0,169,26,1,0,0,169,31,0,0;            71P     39
126,8,2,0,1,0,0,-3.14159265358979,-3.14159265358979,                  73P     40
-3.14159265358979,-1.5707963267949,-1.5707963267949,0.,0.,            73P     41
1.5707963267949,1.5707963267949,3.14159265358979,                     73P     42
3.14159265358979,3.14159265358979,1.,0.707106781186548,1.,            73P     43
0.707106781186548,1.,0.707106781186548,1.,0.707106781186548,1.,       73P     44
5.25,6.42939569552361D-16,18.,5.25,5.25,18.,                          73P     45
-3.2146978477618D-16,5.25,18.,-5.25,5.25,18.,-5.25,0.,18.,-5.25,      73P     46
-5.25,18.,-3.2146978477618D-16,-5.25,18.,5.25,-5.25,18.,5.25,         73P     47
-6.42939569552361D-16,18.,-3.14159265358979,3.14159265358979,0.,      73P     48
0.,0.;                                                                73P     49
126,1,1,0,0,1,0,-0.034493013716417,-0.034493013716417,                75P     50
0.0344930137164171,0.0344930137164171,1.,1.,5.25,0.,18.,5.,0.,        75P     51
17.75,-0.034493013716417,0.0344930137164171,0.,0.,0.;                 75P     52
126,4,2,0,0,0,0,-3.14159265358979,-3.14159265358979,                  77P     53
-3.14159265358979,-1.5707963267949,-1.5707963267949,0.,0.,0.,1.,      77P     54
0.707106781186548,1.,0.707106781186548,1.,5.,                         77P     55
-6.12323399573677D-16,17.75,5.,-5.,17.75,-3.06161699786838D-16,       77P     56
-5.,17.75,-5.,-5.,17.75,-5.,0.,17.75,-3.14159265358979,0.,0.,0.,      77P     57
0.;                                                                   77P     58
126,4,2,0,0,0,0,0.,0.,0.,1.5707963267949,1.5707963267949,             79P     59
3.14159265358979,3.14159265358979,3.14159265358979,1.,                79P     60
0.707106781186548,1.,0.707106781186548,1.,-5.,0.,17.75,-5.,5.,        79P     61
17.75,-3.06161699786838D-16,5.,17.75,5.,5.,17.75,5.,                  79P     62
6.12323399573677D-16,17.75,0.,3.14159265358979,0.,0.,0.;              79P     63
126,1,1,0,0,1,0,-7.90989949685296,-7.90989949685296,                  81P     64
-0.809899496852959,-0.809899496852959,1.,1.,-5.,0.,17.75,-5.,0.,      81P     65
-17.75,-7.90989949685296,-0.809899496852959,0.,0.,0.;                 81P     66
126,8,2,0,1,0,0,-3.14159265358979,-3.14159265358979,                  83P     67
-3.14159265358979,-1.5707963267949,-1.5707963267949,0.,0.,            83P     68
1.5707963267949,1.5707963267949,3.14159265358979,                     83P     69
3.14159265358979,3.14159265358979,1.,0.707106781186548,1.,            83P     70
0.707106781186548,1.,0.707106781186548,1.,0.707106781186548,1.,       83P     71
-5.,-6.12323399573677D-16,-17.75,-5.,-5.,-17.75,                      83P     72
3.06161699786838D-16,-5.,-17.75,5.,-5.,-17.75,5.,0.,-17.75,5.,        83P     73
5.,-17.75,3.06161699786838D-16,5.,-17.75,-5.,5.,-17.75,-5.,           83P     74
6.12323399573677D-16,-17.75,-3.14159265358979,3.14159265358979,       83P     75
0.,0.,0.;                                                             83P     76
126,8,2,0,1,0,0,-3.14159265358979,-3.14159265358979,                  85P     77
-3.14159265358979,-1.5707963267949,-1.5707963267949,0.,0.,            85P     78
1.5707963267949,1.5707963267949,3.14159265358979,                     85P     79
3.14159265358979,3.14159265358979,1.,0.707106781186548,1.,            85P     80
0.707106781186548,1.,0.707106781186548,1.,0.707106781186548,1.,       85P     81
5.75,-7.04171909509728D-16,18.,5.74999999999999,-5.75,18.,            85P     82
-3.52085954754864D-16,-5.75,18.,-5.75,-5.75,18.,-5.75,0.,18.,         85P     83
-5.75,5.75,18.,-3.52085954754864D-16,5.75,18.,5.74999999999999,       85P     84
5.75,18.,5.75,7.04171909509728D-16,18.,-3.14159265358979,             85P     85
3.14159265358979,0.,0.,0.;                                            85P     86
126,8,2,0,1,0,0,-3.14159265358979,-3.14159265358979,                  87P     87
-3.14159265358979,-1.5707963267949,-1.5707963267949,0.,0.,            87P     88
1.5707963267949,1.5707963267949,3.14159265358979,                     87P     89
3.14159265358979,3.14159265358979,1.,0.707106781186548,1.,            87P     90
0.707106781186548,1.,0.707106781186548,1.,0.707106781186548,1.,       87P     91
-5.25,6.42939569552361D-16,-18.,-5.25,5.25,-18.,                      87P     92
3.2146978477618D-16,5.25,-18.,5.25,5.25,-18.,5.25,0.,-18.,5.25,       87P     93
-5.25,-18.,3.2146978477618D-16,-5.25,-18.,-5.25,-5.25,-18.,           87P     94
-5.25,-6.42939569552361D-16,-18.,-3.14159265358979,                   87P     95
3.14159265358979,0.,0.,0.;                                            87P     96
126,1,1,0,0,1,0,-0.034493013716417,-0.034493013716417,                89P     97
0.0344930137164168,0.0344930137164168,1.,1.,-5.25,0.,-18.,-5.,        89P     98
0.,-17.75,-0.034493013716417,0.0344930137164168,0.,0.,0.;             89P     99
126,8,2,0,1,0,0,-3.14159265358979,-3.14159265358979,                  91P    100
-3.14159265358979,-1.5707963267949,-1.5707963267949,0.,0.,            91P    101
1.5707963267949,1.5707963267949,3.14159265358979,                     91P    102
3.14159265358979,3.14159265358979,1.,0.707106781186548,1.,            91P    103
0.707106781186548,1.,0.707106781186548,1.,0.707106781186548,1.,       91P    104
5.75,7.04171909509728D-16,-18.,5.74999999999999,5.75,-18.,            91P    105
-3.52085954754864D-16,5.75,-18.,-5.75,5.75,-18.,-5.75,0.,-18.,        91P    106
-5.75,-5.75,-18.,-3.52085954754864D-16,-5.75,-18.,                    91P    107
5.74999999999999,-5.75,-18.,5.75,-7.04171909509728D-16,-18.,          91P    108
-3.14159265358979,3.14159265358979,0.,0.,0.;                          91P    109
126,1,1,0,0,1,0,-0.0300896502632574,-0.0300896502632574,              93P    110
0.0300896502632573,0.0300896502632573,1.,1.,5.75,0.,-18.,6.,0.,       93P    111
-17.75,-0.0300896502632574,0.0300896502632573,0.,0.,0.;               93P    112
126,8,2,0,1,0,0,-3.14159265358979,-3.14159265358979,                  95P    113
-3.14159265358979,-1.5707963267949,-1.5707963267949,0.,0.,            95P    114
1.5707963267949,1.5707963267949,3.14159265358979,                     95P    115
3.14159265358979,3.14159265358979,1.,0.707106781186548,1.,            95P    116
0.707106781186548,1.,0.707106781186548,1.,0.707106781186548,1.,       95P    117
6.,-7.34788079488411D-16,-17.75,6.,-6.,-17.75,                        95P    118
-3.67394039744206D-16,-6.,-17.75,-6.,-6.,-17.75,-6.,0.,-17.75,        95P    119
-6.,6.,-17.75,-3.67394039744206D-16,6.,-17.75,6.,6.,-17.75,6.,        95P    120
7.34788079488411D-16,-17.75,-3.14159265358979,3.14159265358979,       95P    121
0.,0.,0.;                                                             95P    122
126,8,2,0,1,0,0,-3.14159265358979,-3.14159265358979,                  97P    123
-3.14159265358979,-1.5707963267949,-1.5707963267949,0.,0.,            97P    124
1.5707963267949,1.5707963267949,3.14159265358979,                     97P    125
3.14159265358979,3.14159265358979,1.,0.707106781186548,1.,            97P    126
0.707106781186548,1.,0.707106781186548,1.,0.707106781186548,1.,       97P    127
6.,7.34788079488411D-16,-13.25,6.,6.,-13.25,                          97P    128
-3.67394039744206D-16,6.,-13.25,-6.,6.,-13.25,-6.,0.,-13.25,-6.,      97P    129
-6.,-13.25,-3.67394039744206D-16,-6.,-13.25,6.,-6.,-13.25,6.,         97P    130
-7.34788079488411D-16,-13.25,-3.14159265358979,3.14159265358979,      97P    131
0.,0.,0.;                                                             97P    132
126,1,1,0,0,1,0,2.20833333333333,2.20833333333333,                    99P    133
2.95833333333334,2.95833333333334,1.,1.,6.,0.,-13.25,6.,0.,           99P    134
-17.75,2.20833333333333,2.95833333333334,0.,0.,0.;                    99P    135
126,8,2,0,1,0,0,-3.14159265358979,-3.14159265358979,                 101P    136
-3.14159265358979,-1.5707963267949,-1.5707963267949,0.,0.,           101P    137
1.5707963267949,1.5707963267949,3.14159265358979,                    101P    138
3.14159265358979,3.14159265358979,1.,0.707106781186548,1.,           101P    139
0.707106781186548,1.,0.707106781186548,1.,0.707106781186548,1.,      101P    140
6.,-7.34788079488411D-16,-9.75,6.,-6.,-9.75,                         101P    141
-3.67394039744206D-16,-6.,-9.75,-6.,-6.,-9.75,-6.,0.,-9.75,-6.,      101P    142
6.,-9.75,-3.67394039744206D-16,6.,-9.75,6.,6.,-9.75,6.,              101P    143
7.34788079488411D-16,-9.75,-3.14159265358979,3.14159265358979,       101P    144
0.,0.,0.;                                                            101P    145
126,1,1,0,0,1,0,-0.0300896502632574,-0.0300896502632574,             103P    146
0.0300896502632574,0.0300896502632574,1.,1.,6.,0.,-9.75,5.75,0.,     103P    147
-10.,-0.0300896502632574,0.0300896502632574,0.,0.,0.;                103P    148
126,8,2,0,1,0,0,-3.14159265358979,-3.14159265358979,                 105P    149
-3.14159265358979,-1.5707963267949,-1.5707963267949,0.,0.,           105P    150
1.5707963267949,1.5707963267949,3.14159265358979,                    105P    151
3.14159265358979,3.14159265358979,1.,0.707106781186548,1.,           105P    152
0.707106781186548,1.,0.707106781186548,1.,0.707106781186548,1.,      105P    153
5.75,-7.04171909509728D-16,-10.,5.74999999999999,-5.75,-10.,         105P    154
-3.52085954754864D-16,-5.75,-10.,-5.75,-5.75,-10.,-5.75,0.,-10.,     105P    155
-5.75,5.75,-10.,-3.52085954754864D-16,5.75,-10.,                     105P    156
5.74999999999999,5.75,-10.,5.75,7.04171909509728D-16,-10.,           105P    157
-3.14159265358979,3.14159265358979,0.,0.,0.;                         105P    158
126,8,2,0,1,0,0,-3.14159265358979,-3.14159265358979,                 107P    159
-3.14159265358979,-1.5707963267949,-1.5707963267949,0.,0.,           107P    160
1.5707963267949,1.5707963267949,3.14159265358979,                    107P    161
3.14159265358979,3.14159265358979,1.,0.707106781186548,1.,           107P    162
0.707106781186548,1.,0.707106781186548,1.,0.707106781186548,1.,      107P    163
6.,7.34788079488411D-16,9.75,6.,6.,9.75,-3.67394039744206D-16,       107P    164
6.,9.75,-6.,6.,9.75,-6.,0.,9.75,-6.,-6.,9.75,                        107P    165
-3.67394039744206D-16,-6.,9.75,6.,-6.,9.75,6.,                       107P    166
-7.34788079488411D-16,9.75,-3.14159265358979,3.14159265358979,       107P    167
0.,0.,0.;                                                            107P    168
126,1,1,0,0,1,0,-1.625,-1.625,1.625,1.625,1.,1.,6.,0.,9.75,6.,       109P    169
0.,-9.75,-1.625,1.625,0.,0.,0.;                                      109P    170
126,1,1,0,0,1,0,-0.0300896502632573,-0.0300896502632573,             111P    171
0.0300896502632574,0.0300896502632574,1.,1.,6.,0.,-13.25,5.75,       111P    172
0.,-13.,-0.0300896502632573,0.0300896502632574,0.,0.,0.;             111P    173
126,8,2,0,1,0,0,-3.14159265358979,-3.14159265358979,                 113P    174
-3.14159265358979,-1.5707963267949,-1.5707963267949,0.,0.,           113P    175
1.5707963267949,1.5707963267949,3.14159265358979,                    113P    176
3.14159265358979,3.14159265358979,1.,0.707106781186548,1.,           113P    177
0.707106781186548,1.,0.707106781186548,1.,0.707106781186548,1.,      113P    178
5.75,7.04171909509728D-16,-13.,5.74999999999999,5.75,-13.,           113P    179
-3.52085954754864D-16,5.75,-13.,-5.75,5.75,-13.,-5.75,0.,-13.,       113P    180
-5.75,-5.75,-13.,-3.52085954754864D-16,-5.75,-13.,                   113P    181
5.74999999999999,-5.75,-13.,5.75,-7.04171909509728D-16,-13.,         113P    182
-3.14159265358979,3.14159265358979,0.,0.,0.;                         113P    183
126,1,1,0,0,1,0,-0.0300896502632574,-0.0300896502632574,             115P    184
0.0300896502632574,0.0300896502632574,1.,1.,6.,0.,9.75,5.75,0.,      115P    185
10.,-0.0300896502632574,0.0300896502632574,0.,0.,0.;                 115P    186
126,8,2,0,1,0,0,-3.14159265358979,-3.14159265358979,                 117P    187
-3.14159265358979,-1.5707963267949,-1.5707963267949,0.,0.,           117P    188
1.5707963267949,1.5707963267949,3.14159265358979,                    117P    189
3.14159265358979,3.14159265358979,1.,0.707106781186548,1.,           117P    190
0.707106781186548,1.,0.707106781186548,1.,0.707106781186548,1.,      117P    191
5.75,7.04171909509728D-16,10.,5.74999999999999,5.75,10.,             117P    192
-3.52085954754864D-16,5.75,10.,-5.75,5.75,10.,-5.75,0.,10.,          117P    193
-5.75,-5.75,10.,-3.52085954754864D-16,-5.75,10.,                     117P    194
5.74999999999999,-5.75,10.,5.75,-7.04171909509728D-16,10.,           117P    195
-3.14159265358979,3.14159265358979,0.,0.,0.;                         117P    196
126,8,2,0,1,0,0,-3.14159265358979,-3.14159265358979,                 119P    197
-3.14159265358979,-1.5707963267949,-1.5707963267949,0.,0.,           119P    198
1.5707963267949,1.5707963267949,3.14159265358979,                    119P    199
3.14159265358979,3.14159265358979,1.,0.707106781186548,1.,           119P    200
0.707106781186548,1.,0.707106781186548,1.,0.707106781186548,1.,      119P    201
6.,-7.34788079488411D-16,13.25,6.,-6.,13.25,                         119P    202
-3.67394039744206D-16,-6.,13.25,-6.,-6.,13.25,-6.,0.,13.25,-6.,      119P    203
6.,13.25,-3.67394039744206D-16,6.,13.25,6.,6.,13.25,6.,              119P    204
7.34788079488411D-16,13.25,-3.14159265358979,3.14159265358979,       119P    205
0.,0.,0.;                                                            119P    206
126,1,1,0,0,1,0,-0.0300896502632573,-0.0300896502632573,             121P    207
0.0300896502632574,0.0300896502632574,1.,1.,6.,0.,13.25,5.75,0.,     121P    208
13.,-0.0300896502632573,0.0300896502632574,0.,0.,0.;                 121P    209
126,8,2,0,1,0,0,-3.14159265358979,-3.14159265358979,                 123P    210
-3.14159265358979,-1.5707963267949,-1.5707963267949,0.,0.,           123P    211
1.5707963267949,1.5707963267949,3.14159265358979,                    123P    212
3.14159265358979,3.14159265358979,1.,0.707106781186548,1.,           123P    213
0.707106781186548,1.,0.707106781186548,1.,0.707106781186548,1.,      123P    214
5.75,-7.04171909509728D-16,13.,5.74999999999999,-5.75,13.,           123P    215
-3.52085954754864D-16,-5.75,13.,-5.75,-5.75,13.,-5.75,0.,13.,        123P    216
-5.75,5.75,13.,-3.52085954754864D-16,5.75,13.,5.74999999999999,      123P    217
5.75,13.,5.75,7.04171909509728D-16,13.,-3.14159265358979,            123P    218
3.14159265358979,0.,0.,0.;                                           123P    219
126,8,2,0,1,0,0,-3.14159265358979,-3.14159265358979,                 125P    220
-3.14159265358979,-1.5707963267949,-1.5707963267949,0.,0.,           125P    221
1.5707963267949,1.5707963267949,3.14159265358979,                    125P    222
3.14159265358979,3.14159265358979,1.,0.707106781186548,1.,           125P    223
0.707106781186548,1.,0.707106781186548,1.,0.707106781186548,1.,      125P    224
6.,7.34788079488411D-16,17.75,6.,6.,17.75,-3.67394039744206D-16,     125P    225
6.,17.75,-6.,6.,17.75,-6.,0.,17.75,-6.,-6.,17.75,                    125P    226
-3.67394039744206D-16,-6.,17.75,6.,-6.,17.75,6.,                     125P    227
-7.34788079488411D-16,17.75,-3.14159265358979,3.14159265358979,      125P    228
0.,0.,0.;                                                            125P    229
126,1,1,0,0,1,0,-2.95833333333334,-2.95833333333334,                 127P    230
-2.20833333333333,-2.20833333333333,1.,1.,6.,0.,17.75,6.,0.,         127P    231
13.25,-2.95833333333334,-2.20833333333333,0.,0.,0.;                  127P    232
126,1,1,0,0,1,0,-0.0300896502632574,-0.0300896502632574,             129P    233
0.0300896502632573,0.0300896502632573,1.,1.,5.75,0.,18.,6.,0.,       129P    234
17.75,-0.0300896502632574,0.0300896502632573,0.,0.,0.;               129P    235
126,1,1,0,0,1,0,-0.521739130434783,-0.521739130434783,0.,0.,1.,      131P    236
1.,5.75,0.,-13.,5.75,0.,-10.,-0.521739130434783,0.,0.,0.,0.;         131P    237
126,1,1,0,0,1,0,-0.521739130434783,-0.521739130434783,0.,0.,1.,      133P    238
1.,5.75,0.,10.,5.75,0.,13.,-0.521739130434783,0.,0.,0.,0.;           133P    239
128,1,8,1,2,0,1,0,0,1,-0.0344930137164171,-0.0344930137164171,       135P    240
0.034493013716417,0.034493013716417,-3.14159265358979,               135P    241
-3.14159265358979,-3.14159265358979,-1.5707963267949,                135P    242
-1.5707963267949,0.,0.,1.5707963267949,1.5707963267949,              135P    243
3.14159265358979,3.14159265358979,3.14159265358979,1.,1.,            135P    244
0.707106781186548,0.707106781186548,1.,1.,0.707106781186548,         135P    245
0.707106781186548,1.,1.,0.707106781186548,0.707106781186548,1.,      135P    246
1.,0.707106781186548,0.707106781186548,1.,1.,5.,0.,17.75,5.25,       135P    247
0.,18.,5.,5.,17.75,5.25,5.25,18.,0.,5.,17.75,0.,5.25,18.,-5.,5.,     135P    248
17.75,-5.25,5.25,18.,-5.,0.,17.75,-5.25,0.,18.,-5.,-5.,17.75,        135P    249
-5.25,-5.25,18.,0.,-5.,17.75,0.,-5.25,18.,5.,-5.,17.75,5.25,         135P    250
-5.25,18.,5.,0.,17.75,5.25,0.,18.,-0.0344930137164171,               135P    251
0.034493013716417,-3.14159265358979,3.14159265358979;                135P    252
128,1,8,1,2,0,1,0,0,1,-7.90989949685296,-7.90989949685296,           137P    253
-0.809899496852959,-0.809899496852959,-3.14159265358979,             137P    254
-3.14159265358979,-3.14159265358979,-1.5707963267949,                137P    255
-1.5707963267949,0.,0.,1.5707963267949,1.5707963267949,              137P    256
3.14159265358979,3.14159265358979,3.14159265358979,1.,1.,            137P    257
0.707106781186548,0.707106781186548,1.,1.,0.707106781186548,         137P    258
0.707106781186548,1.,1.,0.707106781186548,0.707106781186548,1.,      137P    259
1.,0.707106781186548,0.707106781186548,1.,1.,-5.,0.,-17.75,-5.,      137P    260
0.,17.75,-5.,-5.,-17.75,-5.,-5.,17.75,0.,-5.,-17.75,0.,-5.,          137P    261
17.75,5.,-5.,-17.75,5.,-5.,17.75,5.,0.,-17.75,5.,0.,17.75,5.,5.,     137P    262
-17.75,5.,5.,17.75,0.,5.,-17.75,0.,5.,17.75,-5.,5.,-17.75,-5.,       137P    263
5.,17.75,-5.,0.,-17.75,-5.,0.,17.75,-7.90989949685296,               137P    264
-0.809899496852959,-3.14159265358979,3.14159265358979;               137P    265
128,1,1,1,1,0,0,1,0,0,-0.576,-0.576,0.576,0.576,-0.576,-0.576,       139P    266
0.576,0.576,1.,1.,1.,1.,-5.76,-5.76,18.,5.76,-5.76,18.,-5.76,        139P    267
5.76,18.,5.76,5.76,18.,-0.576,0.576,-0.576,0.576;                    139P    268
128,1,8,1,2,0,1,0,0,1,-0.0344930137164168,-0.0344930137164168,       141P    269
0.034493013716417,0.034493013716417,-3.14159265358979,               141P    270
-3.14159265358979,-3.14159265358979,-1.5707963267949,                141P    271
-1.5707963267949,0.,0.,1.5707963267949,1.5707963267949,              141P    272
3.14159265358979,3.14159265358979,3.14159265358979,1.,1.,            141P    273
0.707106781186548,0.707106781186548,1.,1.,0.707106781186548,         141P    274
0.707106781186548,1.,1.,0.707106781186548,0.707106781186548,1.,      141P    275
1.,0.707106781186548,0.707106781186548,1.,1.,-5.,0.,-17.75,          141P    276
-5.25,0.,-18.,-5.,5.,-17.75,-5.25,5.25,-18.,0.,5.,-17.75,0.,         141P    277
5.25,-18.,5.,5.,-17.75,5.25,5.25,-18.,5.,0.,-17.75,5.25,0.,-18.,     141P    278
5.,-5.,-17.75,5.25,-5.25,-18.,0.,-5.,-17.75,0.,-5.25,-18.,-5.,       141P    279
-5.,-17.75,-5.25,-5.25,-18.,-5.,0.,-17.75,-5.25,0.,-18.,             141P    280
-0.0344930137164168,0.034493013716417,-3.14159265358979,             141P    281
3.14159265358979;                                                    141P    282
128,1,1,1,1,0,0,1,0,0,-0.576,-0.576,0.576,0.576,-0.576,-0.576,       143P    283
0.576,0.576,1.,1.,1.,1.,5.76,-5.76,-18.,-5.76,-5.76,-18.,5.76,       143P    284
5.76,-18.,-5.76,5.76,-18.,-0.576,0.576,-0.576,0.576;                 143P    285
128,1,8,1,2,0,1,0,0,1,-0.0300896502632573,-0.0300896502632573,       145P    286
0.0300896502632574,0.0300896502632574,-3.14159265358979,             145P    287
-3.14159265358979,-3.14159265358979,-1.5707963267949,                145P    288
-1.5707963267949,0.,0.,1.5707963267949,1.5707963267949,              145P    289
3.14159265358979,3.14159265358979,3.14159265358979,1.,1.,            145P    290
0.707106781186548,0.707106781186548,1.,1.,0.707106781186548,         145P    291
0.707106781186548,1.,1.,0.707106781186548,0.707106781186548,1.,      145P    292
1.,0.707106781186548,0.707106781186548,1.,1.,5.75,0.,-18.,6.,0.,     145P    293
-17.75,5.74999999999999,-5.74999999999999,-18.,6.,-6.,-17.75,0.,     145P    294
-5.75,-18.,0.,-6.,-17.75,-5.74999999999999,-5.74999999999999,        145P    295
-18.,-6.,-6.,-17.75,-5.75,0.,-18.,-6.,0.,-17.75,                     145P    296
-5.74999999999999,5.74999999999999,-18.,-6.,6.,-17.75,0.,5.75,       145P    297
-18.,0.,6.,-17.75,5.74999999999999,5.74999999999999,-18.,6.,6.,      145P    298
-17.75,5.75,0.,-18.,6.,0.,-17.75,-0.0300896502632573,                145P    299
0.0300896502632574,-3.14159265358979,3.14159265358979;               145P    300
128,1,8,1,2,0,1,0,0,1,-2.95833333333334,-2.95833333333334,           147P    301
-2.20833333333333,-2.20833333333333,-3.14159265358979,               147P    302
-3.14159265358979,-3.14159265358979,-1.5707963267949,                147P    303
-1.5707963267949,0.,0.,1.5707963267949,1.5707963267949,              147P    304
3.14159265358979,3.14159265358979,3.14159265358979,1.,1.,            147P    305
0.707106781186548,0.707106781186548,1.,1.,0.707106781186548,         147P    306
0.707106781186548,1.,1.,0.707106781186548,0.707106781186548,1.,      147P    307
1.,0.707106781186548,0.707106781186548,1.,1.,6.,0.,-13.25,6.,0.,     147P    308
-17.75,6.,6.,-13.25,6.,6.,-17.75,0.,6.,-13.25,0.,6.,-17.75,-6.,      147P    309
6.,-13.25,-6.,6.,-17.75,-6.,0.,-13.25,-6.,0.,-17.75,-6.,-6.,         147P    310
-13.25,-6.,-6.,-17.75,0.,-6.,-13.25,0.,-6.,-17.75,6.,-6.,-13.25,     147P    311
6.,-6.,-17.75,6.,0.,-13.25,6.,0.,-17.75,-2.95833333333334,           147P    312
-2.20833333333333,-3.14159265358979,3.14159265358979;                147P    313
128,1,8,1,2,0,1,0,0,1,-0.0300896502632574,-0.0300896502632574,       149P    314
0.0300896502632574,0.0300896502632574,-3.14159265358979,             149P    315
-3.14159265358979,-3.14159265358979,-1.5707963267949,                149P    316
-1.5707963267949,0.,0.,1.5707963267949,1.5707963267949,              149P    317
3.14159265358979,3.14159265358979,3.14159265358979,1.,1.,            149P    318
0.707106781186548,0.707106781186548,1.,1.,0.707106781186548,         149P    319
0.707106781186548,1.,1.,0.707106781186548,0.707106781186548,1.,      149P    320
1.,0.707106781186548,0.707106781186548,1.,1.,6.,0.,-9.75,5.75,       149P    321
0.,-10.,6.,6.,-9.75,5.75,5.75,-10.,0.,6.,-9.75,0.,5.75,-10.,-6.,     149P    322
6.,-9.75,-5.75,5.75,-10.,-6.,0.,-9.75,-5.75,0.,-10.,-6.,-6.,         149P    323
-9.75,-5.75,-5.75,-10.,0.,-6.,-9.75,0.,-5.75,-10.,6.,-6.,-9.75,      149P    324
5.75,-5.75,-10.,6.,0.,-9.75,5.75,0.,-10.,-0.0300896502632574,        149P    325
0.0300896502632574,-3.14159265358979,3.14159265358979;               149P    326
128,1,8,1,2,0,1,0,0,1,-1.625,-1.625,1.625,1.625,                     151P    327
-3.14159265358979,-3.14159265358979,-3.14159265358979,               151P    328
-1.5707963267949,-1.5707963267949,0.,0.,1.5707963267949,             151P    329
1.5707963267949,3.14159265358979,3.14159265358979,                   151P    330
3.14159265358979,1.,1.,0.707106781186548,0.707106781186548,1.,       151P    331
1.,0.707106781186548,0.707106781186548,1.,1.,0.707106781186548,      151P    332
0.707106781186548,1.,1.,0.707106781186548,0.707106781186548,1.,      151P    333
1.,6.,0.,9.75,6.,0.,-9.75,6.,6.,9.75,6.,6.,-9.75,0.,6.,9.75,0.,      151P    334
6.,-9.75,-6.,6.,9.75,-6.,6.,-9.75,-6.,0.,9.75,-6.,0.,-9.75,-6.,      151P    335
-6.,9.75,-6.,-6.,-9.75,0.,-6.,9.75,0.,-6.,-9.75,6.,-6.,9.75,6.,      151P    336
-6.,-9.75,6.,0.,9.75,6.,0.,-9.75,-1.625,1.625,-3.14159265358979,     151P    337
3.14159265358979;                                                    151P    338
128,1,8,1,2,0,1,0,0,1,-0.0300896502632574,-0.0300896502632574,       153P    339
0.0300896502632573,0.0300896502632573,-3.14159265358979,             153P    340
-3.14159265358979,-3.14159265358979,-1.5707963267949,                153P    341
-1.5707963267949,0.,0.,1.5707963267949,1.5707963267949,              153P    342
3.14159265358979,3.14159265358979,3.14159265358979,1.,1.,            153P    343
0.707106781186548,0.707106781186548,1.,1.,0.707106781186548,         153P    344
0.707106781186548,1.,1.,0.707106781186548,0.707106781186548,1.,      153P    345
1.,0.707106781186548,0.707106781186548,1.,1.,6.,0.,-13.25,5.75,      153P    346
0.,-13.,6.,-6.,-13.25,5.74999999999999,-5.74999999999999,-13.,       153P    347
0.,-6.,-13.25,0.,-5.75,-13.,-6.,-6.,-13.25,-5.74999999999999,        153P    348
-5.74999999999999,-13.,-6.,0.,-13.25,-5.75,0.,-13.,-6.,6.,           153P    349
-13.25,-5.74999999999999,5.74999999999999,-13.,0.,6.,-13.25,0.,      153P    350
5.75,-13.,6.,6.,-13.25,5.74999999999999,5.74999999999999,-13.,       153P    351
6.,0.,-13.25,5.75,0.,-13.,-0.0300896502632574,                       153P    352
0.0300896502632573,-3.14159265358979,3.14159265358979;               153P    353
128,1,8,1,2,0,1,0,0,1,-0.0300896502632574,-0.0300896502632574,       155P    354
0.0300896502632574,0.0300896502632574,-3.14159265358979,             155P    355
-3.14159265358979,-3.14159265358979,-1.5707963267949,                155P    356
-1.5707963267949,0.,0.,1.5707963267949,1.5707963267949,              155P    357
3.14159265358979,3.14159265358979,3.14159265358979,1.,1.,            155P    358
0.707106781186548,0.707106781186548,1.,1.,0.707106781186548,         155P    359
0.707106781186548,1.,1.,0.707106781186548,0.707106781186548,1.,      155P    360
1.,0.707106781186548,0.707106781186548,1.,1.,6.,0.,9.75,5.75,0.,     155P    361
10.,6.,-6.,9.75,5.75,-5.75,10.,0.,-6.,9.75,0.,-5.75,10.,-6.,-6.,     155P    362
9.75,-5.75,-5.75,10.,-6.,0.,9.75,-5.75,0.,10.,-6.,6.,9.75,-5.75,     155P    363
5.75,10.,0.,6.,9.75,0.,5.75,10.,6.,6.,9.75,5.75,5.75,10.,6.,0.,      155P    364
9.75,5.75,0.,10.,-0.0300896502632574,0.0300896502632574,             155P    365
-3.14159265358979,3.14159265358979;                                  155P    366
128,1,8,1,2,0,1,0,0,1,-0.0300896502632574,-0.0300896502632574,       157P    367
0.0300896502632573,0.0300896502632573,-3.14159265358979,             157P    368
-3.14159265358979,-3.14159265358979,-1.5707963267949,                157P    369
-1.5707963267949,0.,0.,1.5707963267949,1.5707963267949,              157P    370
3.14159265358979,3.14159265358979,3.14159265358979,1.,1.,            157P    371
0.707106781186548,0.707106781186548,1.,1.,0.707106781186548,         157P    372
0.707106781186548,1.,1.,0.707106781186548,0.707106781186548,1.,      157P    373
1.,0.707106781186548,0.707106781186548,1.,1.,6.,0.,13.25,5.75,       157P    374
0.,13.,6.,6.,13.25,5.74999999999999,5.74999999999999,13.,0.,6.,      157P    375
13.25,0.,5.75,13.,-6.,6.,13.25,-5.74999999999999,                    157P    376
5.74999999999999,13.,-6.,0.,13.25,-5.75,0.,13.,-6.,-6.,13.25,        157P    377
-5.74999999999999,-5.74999999999999,13.,0.,-6.,13.25,0.,-5.75,       157P    378
13.,6.,-6.,13.25,5.74999999999999,-5.74999999999999,13.,6.,0.,       157P    379
13.25,5.75,0.,13.,-0.0300896502632574,0.0300896502632573,            157P    380
-3.14159265358979,3.14159265358979;                                  157P    381
128,1,8,1,2,0,1,0,0,1,2.20833333333333,2.20833333333333,             159P    382
2.95833333333334,2.95833333333334,-3.14159265358979,                 159P    383
-3.14159265358979,-3.14159265358979,-1.5707963267949,                159P    384
-1.5707963267949,0.,0.,1.5707963267949,1.5707963267949,              159P    385
3.14159265358979,3.14159265358979,3.14159265358979,1.,1.,            159P    386
0.707106781186548,0.707106781186548,1.,1.,0.707106781186548,         159P    387
0.707106781186548,1.,1.,0.707106781186548,0.707106781186548,1.,      159P    388
1.,0.707106781186548,0.707106781186548,1.,1.,6.,0.,17.75,6.,0.,      159P    389
13.25,6.,6.,17.75,6.,6.,13.25,0.,6.,17.75,0.,6.,13.25,-6.,6.,        159P    390
17.75,-6.,6.,13.25,-6.,0.,17.75,-6.,0.,13.25,-6.,-6.,17.75,-6.,      159P    391
-6.,13.25,0.,-6.,17.75,0.,-6.,13.25,6.,-6.,17.75,6.,-6.,13.25,       159P    392
6.,0.,17.75,6.,0.,13.25,2.20833333333333,2.95833333333334,           159P    393
-3.14159265358979,3.14159265358979;                                  159P    394
128,1,8,1,2,0,1,0,0,1,-0.0300896502632573,-0.0300896502632573,       161P    395
0.0300896502632574,0.0300896502632574,-3.14159265358979,             161P    396
-3.14159265358979,-3.14159265358979,-1.5707963267949,                161P    397
-1.5707963267949,0.,0.,1.5707963267949,1.5707963267949,              161P    398
3.14159265358979,3.14159265358979,3.14159265358979,1.,1.,            161P    399
0.707106781186548,0.707106781186548,1.,1.,0.707106781186548,         161P    400
0.707106781186548,1.,1.,0.707106781186548,0.707106781186548,1.,      161P    401
1.,0.707106781186548,0.707106781186548,1.,1.,5.75,0.,18.,6.,0.,      161P    402
17.75,5.74999999999999,5.74999999999999,18.,6.,6.,17.75,0.,5.75,     161P    403
18.,0.,6.,17.75,-5.74999999999999,5.74999999999999,18.,-6.,6.,       161P    404
17.75,-5.75,0.,18.,-6.,0.,17.75,-5.74999999999999,                   161P    405
-5.74999999999999,18.,-6.,-6.,17.75,0.,-5.75,18.,0.,-6.,17.75,       161P    406
5.74999999999999,-5.74999999999999,18.,6.,-6.,17.75,5.75,0.,18.,     161P    407
6.,0.,17.75,-0.0300896502632573,0.0300896502632574,                  161P    408
-3.14159265358979,3.14159265358979;                                  161P    409
128,1,8,1,2,0,1,0,0,1,0.,0.,0.521739130434783,0.521739130434783,     163P    410
-3.14159265358979,-3.14159265358979,-3.14159265358979,               163P    411
-1.5707963267949,-1.5707963267949,0.,0.,1.5707963267949,             163P    412
1.5707963267949,3.14159265358979,3.14159265358979,                   163P    413
3.14159265358979,1.,1.,0.707106781186548,0.707106781186548,1.,       163P    414
1.,0.707106781186548,0.707106781186548,1.,1.,0.707106781186548,      163P    415
0.707106781186548,1.,1.,0.707106781186548,0.707106781186548,1.,      163P    416
1.,5.75,0.,-13.,5.75,0.,-10.,5.74999999999999,-5.74999999999999,     163P    417
-13.,5.74999999999999,-5.74999999999999,-10.,0.,-5.75,-13.,0.,       163P    418
-5.75,-10.,-5.74999999999999,-5.74999999999999,-13.,                 163P    419
-5.74999999999999,-5.74999999999999,-10.,-5.75,0.,-13.,-5.75,0.,     163P    420
-10.,-5.74999999999999,5.74999999999999,-13.,-5.74999999999999,      163P    421
5.74999999999999,-10.,0.,5.75,-13.,0.,5.75,-10.,                     163P    422
5.74999999999999,5.74999999999999,-13.,5.74999999999999,             163P    423
5.74999999999999,-10.,5.75,0.,-13.,5.75,0.,-10.,0.,                  163P    424
0.521739130434783,-3.14159265358979,3.14159265358979;                163P    425
128,1,8,1,2,0,1,0,0,1,0.,0.,0.521739130434783,0.521739130434783,     165P    426
-3.14159265358979,-3.14159265358979,-3.14159265358979,               165P    427
-1.5707963267949,-1.5707963267949,0.,0.,1.5707963267949,             165P    428
1.5707963267949,3.14159265358979,3.14159265358979,                   165P    429
3.14159265358979,1.,1.,0.707106781186548,0.707106781186548,1.,       165P    430
1.,0.707106781186548,0.707106781186548,1.,1.,0.707106781186548,      165P    431
0.707106781186548,1.,1.,0.707106781186548,0.707106781186548,1.,      165P    432
1.,5.75,0.,10.,5.75,0.,13.,5.74999999999999,-5.74999999999999,       165P    433
10.,5.74999999999999,-5.74999999999999,13.,0.,-5.75,10.,0.,          165P    434
-5.75,13.,-5.74999999999999,-5.74999999999999,10.,                   165P    435
-5.74999999999999,-5.74999999999999,13.,-5.75,0.,10.,-5.75,0.,       165P    436
13.,-5.74999999999999,5.74999999999999,10.,-5.74999999999999,        165P    437
5.74999999999999,13.,0.,5.75,10.,0.,5.75,13.,5.74999999999999,       165P    438
5.74999999999999,10.,5.74999999999999,5.74999999999999,13.,5.75,     165P    439
0.,10.,5.75,0.,13.,0.,0.521739130434783,-3.14159265358979,           165P    440
3.14159265358979;                                                    165P    441
502,17,5.25,6.42939569552361D-16,18.,5.,-6.12323399573677D-16,       167P    442
17.75,-5.,0.,17.75,-5.,-6.12323399573677D-16,-17.75,5.75,            167P    443
-7.04171909509728D-16,18.,-5.25,6.42939569552361D-16,-18.,5.75,      167P    444
7.04171909509728D-16,-18.,6.,-7.34788079488411D-16,-17.75,6.,        167P    445
7.34788079488411D-16,-13.25,6.,-7.34788079488411D-16,-9.75,5.75,     167P    446
7.04171909509728D-16,-10.,6.,7.34788079488411D-16,9.75,5.75,         167P    447
7.04171909509728D-16,-13.,5.75,7.04171909509728D-16,10.,6.,          167P    448
-7.34788079488411D-16,13.25,5.75,7.04171909509728D-16,13.,6.,        167P    449
7.34788079488411D-16,17.75;                                          167P    450
504,31,73,167,1,167,1,75,167,1,167,2,77,167,2,167,3,79,167,3,        169P    451
167,2,81,167,3,167,4,83,167,4,167,4,85,167,5,167,5,87,167,6,167,     169P    452
6,89,167,6,167,4,91,167,7,167,7,93,167,7,167,8,95,167,8,167,8,       169P    453
97,167,9,167,9,99,167,9,167,8,101,167,10,167,10,103,167,10,167,      169P    454
11,105,167,11,167,11,107,167,12,167,12,109,167,12,167,10,111,        169P    455
167,9,167,13,113,167,13,167,13,115,167,12,167,14,117,167,14,167,     169P    456
14,119,167,15,167,15,121,167,15,167,16,123,167,16,167,16,125,        169P    457
167,17,167,17,127,167,17,167,15,129,167,5,167,17,131,167,13,167,     169P    458
11,133,167,14,167,16;                                                169P    459
406,1,6HSolid1;                                                      171P    460
314,79.6078431372549,60.3921568627451,23.1372549019608,;             173P    461
S      1G      3D    174P    461                                        T      1
