700 0 1 0           
30 Autodesk Translation Framework 21 ASM 223.22.0.65535 NT 24 Thu Nov 30 09:54:44 2017 
1 9.999999999999999547e-07 1.000000000000000036e-10 
body $1 -1 $-1 $2 $-1 $3 #
rgb_color-st-attrib $-1 -1 $4 $-1 $0 0.9568627450980392579 0.9568627450980392579 0.9568627450980392579 #
lump $-1 -1 $-1 $-1 $5 $0 #
transform $-1 -1 1 0 0 0 1 0 0 0 1 0 0 0 1 no_rotate no_reflect no_shear #
DXID-attrib $-1 -1 $-1 $1 $0 @10 ASM ENTITY @98 K8800-MC.IPT|:|A091536689DF5E962363A4A46299B9CF99FFFA00|:|DA4B9237BACCCDF19C0760CAB7AEC4A8359010B0 #
shell $6 -1 $-1 $-1 $-1 $7 $-1 $2 #
string_attrib-name_attrib-gen-attrib $-1 -1 $-1 $-1 $5 keep keep_kept ignore copy @17 ATF_ExternalShell @4 true #
face $8 -1 $-1 $9 $10 $5 $-1 $11 forward single #
DXID-attrib $-1 -1 $-1 $-1 $7 @10 ASM ENTITY @36 4a5c7468-f938-4af3-9d8a-ff87201243ca #
face $12 -1 $-1 $13 $14 $5 $-1 $15 forward single #
loop $-1 -1 $-1 $16 $17 $7 #
torus-surface $-1 -1 $-1 0 0 1.74644660940672658 0 0 1 4.000000000000001776 0.25 1 0 0 forward_v I I I I #
DXID-attrib $-1 -1 $-1 $-1 $9 @10 ASM ENTITY @36 b9957e37-6edc-4a57-99a4-a539dfcfb2b9 #
face $18 -1 $-1 $19 $20 $5 $-1 $21 forward single #
loop $-1 -1 $-1 $22 $23 $9 #
cone-surface $-1 -1 $-1 0 0 2.174999999999999822 0 0 1 -3.925000000000001599 0 0 1 I I -0.7071067811865474617 0.7071067811865474617 3.925000000000001599 forward I I I I #
loop $-1 -1 $-1 $-1 $24 $7 #
coedge $-1 -1 $-1 $17 $17 $25 $26 forward $10 $-1 #
DXID-attrib $-1 -1 $-1 $-1 $13 @10 ASM ENTITY @36 759168ec-a4fd-47ea-9c17-44a9d4731c10 #
face $27 -1 $-1 $28 $29 $5 $-1 $30 forward single #
loop $-1 -1 $-1 $31 $32 $13 #
cone-surface $-1 -1 $-1 0 0 2.5 0 0 -1 -4.250000000000001776 0 0 1 I I 0 1 4.250000000000001776 forward I I I I #
loop $-1 -1 $-1 $-1 $33 $9 #
coedge $-1 -1 $-1 $23 $23 $34 $35 reversed $14 $-1 #
coedge $-1 -1 $-1 $24 $24 $33 $36 forward $16 $-1 #
coedge $-1 -1 $-1 $25 $25 $17 $26 reversed $31 $-1 #
edge $-1 -1 $-1 $37 -3.141592653589793116 $37 3.141592653589793116 $25 $38 forward @7 tangent #
DXID-attrib $-1 -1 $-1 $-1 $19 @10 ASM ENTITY @36 fc07700b-a45f-4f70-a451-944f8f460720 #
face $39 -1 $-1 $40 $41 $5 $-1 $42 reversed single #
loop $-1 -1 $-1 $-1 $43 $19 #
spline-surface $-1 -1 $-1 reversed { rbblnsur @11 blendsupsur sphere 0 0 6.000000000000000888 -5 1 0 0 0 0 1 forward_v I I I I null_curve nullbs 0 0 0 
	@11 blendsupsur cone 0 0 2.174999999999999822 0 0 1 -3.925000000000001599 0 0 1 I I -0.7071067811865474617 0.7071067811865474617 3.925000000000001599 forward I I I I null_curve nullbs 0 0 0 
	intcurve forward { offintcur full nubs 3 periodic 19 
	1.11898710764692022 3 1.247966064688804888 2 1.386628960765338814 2 1.52529185684187274 2 1.663954752918406665 2 
	1.802617648994940591 2 1.941280545071474517 2 2.079943441148008443 2 2.158958828220924442 2 2.237974215293840441 3 
	2.376637111370373923 2 2.515300007446907848 2 2.653962903523442218 2 2.792625799599976144 2 2.93128869567651007 2 
	3.069951591753043552 2 3.208614487829577477 2 3.347277383906111403 2 3.356961322940760439 3 
	-3.583363637664550794 0.005927577406277329333 2.1630780690650524 
	-3.582650754155843664 0.4368828678904855822 2.1630780690650524 
	-3.501635653525693392 0.8740237569091580117 2.1630780690650524 
	-3.184008282041467908 1.707705805949059075 2.1630780690650524 
	-2.929729016531725794 2.114439819307427193 2.1630780690650524 
	-2.297290576846587662 2.788659869061240304 2.1630780690650524 
	-1.907632470222768273 3.068404506960019873 2.1630780690650524 
	-1.066576777784196572 3.452040242649593083 2.1630780690650524 
	-0.5998872014991510904 3.562906567012149583 2.1630780690650524 
	0.3238461364704001699 3.598512406491601645 2.1630780690650524 
	0.797685125306114351 3.523899303420310769 2.1630780690650524 
	1.665776358036195059 3.206143631341000333 2.1630780690650524 
	2.075812149890107872 2.957223660487889205 2.1630780690650524 
	2.758273370674686031 2.333687183923262687 2.1630780690650524 
	3.043107241256015172 1.947733600366330808 2.1630780690650524 
	3.352867301518173804 1.29158136184181016 2.1630780690650524 
	3.439404746442351168 1.039421255313135228 2.1630780690650524 
	3.554419347857043388 0.525361452170233556 2.1630780690650524 
	3.583589134481135918 0.260366032876120701 2.1630780690650524 
	3.583367269006172418 -0.003018497254610235433 2.1630780690650524 
	3.582977920672417937 -0.4652279868567016918 2.1630780690650524 
	3.489772943460257792 -0.9357631446437251199 2.1630780690650524 
	3.138096539945726349 -1.790675282054634554 2.1630780690650524 
	2.873230968452352041 -2.190596188645260067 2.1630780690650524 
	2.223316852578927527 -2.847987014159178543 2.1630780690650524 
	1.826451634754065356 -3.117409547314081042 2.1630780690650524 
	0.9756178904694468024 -3.478841415123248737 2.1630780690650524 
	0.5061795899788169573 -3.57742226784449624 2.1630780690650524 
	-0.4181700108500789881 -3.588774401074330989 2.1630780690650524 
	-0.8898877431692180373 -3.501752084933765552 2.1630780690650524 
	-1.749341170624257868 -3.161324616128455833 2.1630780690650524 
	-2.152703362008222321 -2.901729845278378406 2.1630780690650524 
	-2.81856613360412922 -2.260498354407864063 2.1630780690650524 
	-3.093173364123905422 -1.867202827561908141 2.1630780690650524 
	-3.465739245573502547 -1.021185263050927494 2.1630780690650524 
	-3.570471852092595544 -0.5530810186539167894 2.1630780690650524 
	-3.583032289482501742 -0.05875111672565751925 2.1630780690650524 
	-3.583417162057951355 -0.02642921051807599342 2.1630780690650524 
	-3.583363637664550794 0.005927577406277329333 2.1630780690650524 
	1000 
	
	cone 0 0 2.174999999999999822 0 0 1 -3.925000000000001599 0 0 1 I I -0.7071067811865474617 0.7071067811865474617 3.925000000000001599 forward I I I I 
	sphere 0 0 6.000000000000000888 -5 1 0 0 0 0 1 forward_v I I I I 
	nullbs 
	nullbs 
	I I 
	0 
	0 
	0 
	-0.25 -0.25 } I I -0.25 -0.25 
	no_radius 
	F 0 F 1 
	I I 
	1 0.001000000000000000021 0.007092310584103908577 
	1 
	full nubs 3 3 open periodic none none 3 18 
	0 3 0.5 1 1 3 
	1.11898710764692022 3 1.247966064688804888 2 1.312430539529870765 2 1.486651378689948011 2 1.658828710690799513 2 
	1.831400294350429947 2 1.959177378432914729 2 2.13047315908359014 2 2.237974215293840441 3 2.307308288332107438 2 
	2.418242805193334455 2 2.53984521596023427 2 2.653962903523442218 2 2.829951735860667394 2 2.981693092912609533 2 
	3.148357687200896926 2 3.208614487829577477 2 3.356961322940760439 3 
	-3.412727273966238428 0.005645311815502639455 2.345788637204812233 
	-3.459520584366770457 0.00572271701283725686 2.389489788497107803 
	-3.58807256229095195 0.005935366879534002132 2.438774109390674738 
	-3.714866482359786115 0.006145108578074660877 2.385128435043871509 
	-3.760140091099639648 0.006219999894558944642 2.339854764361689821 
	-3.412048337291279765 0.4160789218004629086 2.345788637204812233 
	-3.458832338511199644 0.4217839514075608087 2.389489788497107803 
	-3.587358741976760523 0.4374569788944152049 2.438774109390674738 
	-3.714127437339491244 0.4529156643731938048 2.385128435043871509 
	-3.759392039232060334 0.4584354123044725449 2.339854764361689821 
	-3.334891098595897496 0.8324035780087213343 2.345788637204812233 
	-3.380617165111376554 0.8438170065886754223 2.389489788497108247 
	-3.506237178804416654 0.8751723179844863587 2.438774109390675182 
	-3.630139231751709605 0.9060988187746850109 2.385128435043871065 
	-3.674380257379397552 0.9171415745764468497 2.339854764361689377 
	-3.116251620630530184 1.406270392885015763 2.345788637204812233 
	-3.158979831139088201 1.425552345915170882 2.389489788497108247 
	-3.276364045400053104 1.478524302356180931 2.438774109390675182 
	-3.392142930491388597 1.530771822147999561 2.385128435043871065 
	-3.433483461181786822 1.549427557118560062 2.339854764361689377 
	-3.02541180149252753 1.592579627543757592 2.345788637204812233 
	-3.066894469796151323 1.614416143288131877 2.389489788497107803 
	-3.180856893363923188 1.674406070606458963 2.438774109390674738 
	-3.293260783665982849 1.733575584542846215 2.385128435043871065 
	-3.333396223501033262 1.754702917949913843 2.339854764361689377 
	-2.628821613758047349 2.246735839997441975 2.345788637204812233 
	-2.664866470520728559 2.277541761217984462 2.389489788497107803 
	-2.76388997604265807 2.362172706769385844 2.438774109390674738 
	-2.861559250734708293 2.445646252014430644 2.385128435043871065 
	-2.896433482290232675 2.475451692413315641 2.339854764361689377 
	-2.222673364248146655 2.648974241736725244 2.345788637204812233 
	-2.253149354944989469 2.685295419488658464 2.389489788497108247 
	-2.336873905521638761 2.785078042273427812 2.438774109390675182 
	-2.419453451515677589 2.883496052652796848 2.385128435043871509 
	-2.448939676511475483 2.918637631148449429 2.339854764361689821 
	-1.270112458019114543 3.215106862423337653 2.345788637204812233 
	-1.287527493479184715 3.2591905179008549 2.389489788497108247 
	-1.335370598291584887 3.380298451006153559 2.438774109390675182 
	-1.38255940787183107 3.499750129913120844 2.385128435043871509 
	-1.399408856967463866 3.542402084921820737 2.339854764361689821 
	-0.726792865525144105 3.379061693485112094 2.345788637204812233 
	-0.7367582220928503567 3.425393401234508417 2.389489788497108247 
	-0.7641353468684431993 3.55267725058837458 2.438774109390675182 
	-0.7911380661308281548 3.678220384825841904 2.385128435043871065 
	-0.8007797788102187786 3.723047382337681288 2.339854764361689377 
	0.3675475813333542452 3.436941656017984847 2.345788637204812233 
	0.3725871777263903839 3.484066979792145968 2.389489788497108247 
	0.386432107241294176 3.613531074758528305 2.438774109390675182 
	0.4000876955458680939 3.741224637891666482 2.385128435043871065 
	0.4049636214710083948 3.786819477240027432 2.339854764361689377 
	0.9265401887439682627 3.330486513539842264 2.345788637204812233 
	0.9392443631974035645 3.376152186974020086 2.389489788497108247 
	0.9741456501528233947 3.501606286992912764 2.438774109390675182 
	1.008569632264828098 3.625344695276948137 2.385128435043871065 
	1.020861214515464077 3.669527289203395437 2.339854764361689377 
	1.798020299678193545 2.92924205441421881 2.345788637204812233 
	1.822673697162111806 2.969406099673890687 2.389489788497108247 
	1.890402246007691467 3.079745962687910676 2.438774109390675182 
	1.957204549226777335 3.188576834039084318 2.385128435043871065 
	1.981057280786934882 3.227436475618866041 2.339854764361689377 
	2.138515994278340049 2.690616647430620567 2.345788637204812233 
	2.16783806858534156 2.727508801372279024 2.389489788497107803 
	2.248392545640720552 2.828860026974597819 2.438774109390674738 
	2.327845371570558708 2.928825188191158446 2.385128435043871065 
	2.356215155803670136 2.964519199339942901 2.339854764361689377 
	2.809332022816250607 2.013105763726214636 2.345788637204812233 
	2.847851932205029968 2.04070828666724724 2.389489788497107803 
	2.953674976118835893 2.116538760925102292 2.438774109390674738 
	3.058050799720409163 2.191332188821659699 2.385128435043871065 
	3.095319701865498097 2.218038267386491125 2.339854764361689377 
	3.099548961950477022 1.528699573829910729 2.345788637204812677 
	3.142048155420933409 1.549660203826063398 2.389489788497108247 
	3.258803207244486799 1.607243871693932125 2.438774109390675626 
	3.373961534230938142 1.664040033828559473 2.385128435043871065 
	3.415080485646670994 1.684319927541226836 2.339854764361689377 
	3.361622672630543818 0.6807043960952857686 2.345788637204812677 
	3.407715266776531138 0.6900378146606886975 2.389489788497108247 
	3.534342216107644763 0.7156788605090538269 2.438774109390675626 
	3.659237433990008004 0.7409692432030984266 2.385128435043871065 
	3.703833083567016349 0.7499995412674674844 2.339854764361689377 
	3.413018208315841129 0.3383983139485783331 2.345788637204812233 
	3.459815507837165072 0.3430382327209945403 2.389489788497107803 
	3.588378444792962085 0.3557851559563048882 2.438774109390675182 
	3.715183174019314194 0.3683577541529250432 2.385128435043871065 
	3.760460642325683001 0.3728469827475464626 2.339854764361689377 
	3.412730732386830557 -0.002874759290104986643 2.345788637204812233 
	3.45952409020719287 -0.002914176299725083821 2.389489788497107803 
	3.588076198404547057 -0.003022463884150023133 2.438774109390675182 
	3.714870246964956824 -0.003129270543570858865 2.385128435043871065 
	3.760143901584591664 -0.003167407410912799134 2.339854764361689377 
	3.412545321398683829 -0.222982849573859554 2.345788637204812233 
	3.459336136972559927 -0.226040259339269356 2.389489788497107803 
	3.587881261034546743 -0.2344396666328312784 2.438774109390675182 
	3.714668420973592067 -0.2427242048733366242 2.385128435043871065 
	3.759939615911025435 -0.2456823194476582817 2.339854764361689377 
	3.390864533340490095 -0.445153602796506731 2.345788637204812233 
	3.437358074692346666 -0.4512572873395038209 2.389489788497107803 
	3.565086518145512695 -0.468025511555985041 2.438774109390674738 
	3.691068166279072305 -0.484564416015741628 2.385128435043870621 
	3.736051741539654802 -0.4904698718064479102 2.339854764361689377 
	3.278591483355930869 -1.011929852787643025 2.345788637204812233 
	3.323545602639806695 -1.025804840122926054 2.389489788497107803 
	3.447044899875168156 -1.063922619146385307 2.438774109390674738 
	3.568855238969701471 -1.101519105056173897 2.385128435043870621 
	3.612349387818801993 -1.114943475815821872 2.339854764361689377 
	3.155942039305397628 -1.346399397614109761 2.345788637204812233 
	3.199214461505040852 -1.364860434748913054 2.389489788497107803 
	3.318093750354653704 -1.415577146558722132 2.438774109390674738 
	3.435347263615473601 -1.465600264111682538 2.385128435043870621 
	3.477214331688308846 -1.48346174399029973 2.339854764361688932 
	2.794694090131923936 -1.996960036882407197 2.345788637204812233 
	2.833013292791822124 -2.024341179107316258 2.389489788497107803 
	2.938284949194048146 -2.099563469659245563 2.438774109390674738 
	3.042116925978178177 -2.173757031280374452 2.385128435043870621 
	3.079191639726741592 -2.200248918888453087 2.339854764361688932 
	2.547704046191816563 -2.303607600006663425 2.345788637204812677 
	2.582636666548436821 -2.335193313371581425 2.389489788497108691 
	2.678604603043628352 -2.421966527159002514 2.438774109390675182 
	2.773260096219461346 -2.507553043296211204 2.385128435043871509 
	2.80705821335941641 -2.538112950608009566 2.339854764361689377 
	1.983233406352249872 -2.8011092244300686 2.345788637204812677 
	2.010426337087758863 -2.839516387640686368 2.389489788497108691 
	2.085131567422674248 -2.945029691891238866 2.438774109390675182 
	2.158815140065917682 -3.049100011783425934 2.385128435043871509 
	2.185124928710307834 -3.086259829396703402 2.339854764361689377 
	1.667759136297037426 -2.99942734518052756 2.345788637204812233 
	1.690626469275383625 -3.040553729892705004 2.389489788497108247 
	1.753448288442592817 -3.153537360552038926 2.438774109390675182 
	1.8154109656933759 -3.264975843772850883 2.385128435043871065 
	1.837535638586231368 -3.304766571003011855 2.339854764361689377 
	0.8200972937229906723 -3.359511797742638528 2.345788637204812233 
	0.8313419857663771895 -3.405575448812922623 2.389489788497108247 
	0.8622337391164289766 -3.532122884863247325 2.438774109390675182 
	0.8927030214122078089 -3.656939676876700851 2.385128435043871065 
	0.9035825207170194995 -3.701507323359379154 2.339854764361689377 
	0.2458780289290625476 -3.450089017677710146 2.345788637204812233 
	0.2492493639361453295 -3.497394610347010602 2.389489788497108247 
	0.2585111960163266609 -3.627353945398569479 2.438774109390675182 
	0.2676463646495007564 -3.755535975786654213 2.385128435043871065 
	0.2709082091468267839 -3.801305229455282486 2.339854764361689377 
	-0.7978609447321263204 -3.353460533706668301 2.345788637204812233 
	-0.8088007450285392697 -3.399441213401386275 2.389489788497108247 
	-0.8388548906780300962 -3.52576070801416952 2.438774109390675182 
	-0.8684980202723963094 -3.650352675883500098 2.385128435043871065 
	-0.8790825297689994766 -3.694840045643676962 2.339854764361689377 
	-1.26926384576826301 -3.204980052289919001 2.345788637204812233 
	-1.286667245555959127 -3.248924854899364334 2.389489788497108247 
	-1.334478384502181481 -3.369651327264262086 2.438774109390675182 
	-1.381635665376714561 -3.488726762231549205 2.385128435043871065 
	-1.398473856690540362 -3.531244373882882481 2.339854764361689377 
	-2.154991301017056493 -2.699570597767090963 2.345788637204812233 
	-2.184539275045975337 -2.736585523012686316 2.389489788497108247 
	-2.265714350554774548 -2.838274029602785298 2.438774109390675182 
	-2.345779287725284767 -2.938571859202174341 2.385128435043871065 
	-2.374367635157643708 -2.974384654423539054 2.339854764361689377 
	-2.552720452334113599 -2.327147310703824967 2.345788637204812677 
	-2.58772185470314442 -2.3590557867453259 2.389489788497108247 
	-2.683878751194225032 -2.446715703784121843 2.438774109390675182 
	-2.778720620176965639 -2.533176796750058468 2.385128435043871509 
	-2.812585285502795074 -2.564048984407281129 2.339854764361689821 
	-2.95364844938969684 -1.720461427305943314 2.345788637204812677 
	-2.994147140791343809 -1.744051383120521548 2.389489788497108247 
	-3.105406353667284236 -1.808858413295364675 2.438774109390675182 
	-3.215144001987511047 -1.872779152101374578 2.385128435043871509 
	-3.25432742143999354 -1.895602979280900158 2.339854764361689821 
	-3.04619611965572723 -1.550490544318596786 2.345788637204812233 
	-3.087963770313111311 -1.571749959293491816 2.389489788497108247 
	-3.202709105902616926 -1.630154458166105158 2.438774109390675182 
	-3.315885201237283475 -1.687760225741940623 2.385128435043871065 
	-3.356296368082700265 -1.708329200823486049 2.339854764361689377 
	-3.313094164935942665 -0.9444220729863497255 2.345788637204812233 
	-3.358521364709179835 -0.9573714333256553299 2.389489788497108247 
	-3.483320322774352551 -0.9929463022593079113 2.438774109390675182 
	-3.606412548729224898 -1.02803465454193943 2.385128435043871065 
	-3.65036441387996069 -1.040563459800958324 2.339854764361689377 
	-3.413508161866722457 -0.4664202751682267611 2.345788637204812233 
	-3.460312179343144834 -0.4728155558223656185 2.389489788497107803 
	-3.588893572065546156 -0.4903848615721137505 2.438774109390674738 
	-3.715716504660166564 -0.5077138920924556542 2.385128435043871509 
	-3.761000472743277534 -0.5139014738565734763 2.339854764361689821 
	-3.412727273966238428 0.005645311815502639455 2.345788637204812233 
	-3.459520584366770457 0.00572271701283725686 2.389489788497107803 
	-3.58807256229095195 0.005935366879534002132 2.438774109390674738 
	-3.714866482359786115 0.006145108578074660877 2.385128435043871509 
	-3.760140091099639648 0.006219999894558944642 2.339854764361689821 
	0.007092310584103908577 
	
	0 
	0 
	0 
	0 
	0 
	0 
	} I I I I #
loop $-1 -1 $-1 $-1 $25 $13 #
coedge $-1 -1 $-1 $32 $32 $44 $45 reversed $20 $-1 #
coedge $-1 -1 $-1 $33 $33 $24 $36 reversed $22 $-1 #
coedge $-1 -1 $-1 $43 $46 $23 $35 forward $29 $47 #
edge $-1 -1 $-1 $48 -3.356961322940760439 $48 -1.118987107646920443 $23 $49 forward @7 tangent #
edge $-1 -1 $-1 $50 -3.141592653589793116 $50 3.141592653589793116 $33 $51 forward @7 tangent #
vertex $-1 -1 $-1 $26 $52 #
ellipse-curve $-1 -1 $-1 0 0 1.74644660940672658 0 0 1 -4.250000000000001776 0 0 1 I I #
DXID-attrib $-1 -1 $-1 $-1 $28 @10 ASM ENTITY @36 fe20131c-12dd-466c-accf-0777cff4230a #
face $53 -1 $-1 $54 $55 $5 $-1 $56 forward single #
loop $-1 -1 $-1 $57 $58 $28 #
sphere-surface $-1 -1 $-1 0 0 6.000000000000000888 5 1 0 0 0 0 1 forward_v I I I I #
coedge $-1 -1 $-1 $59 $34 $46 $60 forward $29 $61 #
coedge $-1 -1 $-1 $44 $44 $32 $45 forward $55 $-1 #
edge $-1 -1 $-1 $62 -3.141592653589793116 $62 3.141592653589793116 $32 $63 forward @7 tangent #
coedge $-1 -1 $-1 $34 $59 $43 $60 reversed $29 $64 #
pcurve $-1 -1 $-1 0 reversed { exppc nubs 1 periodic 2 
	1.11898710764692022 1 3.356961322940760439 1 
	1 1.11898710764692022 
	1 3.356961322940760439 
	0 
	spline reversed { ref 0 } I I I I 
	} 0 0 #
vertex $-1 -1 $-1 $35 $65 #
intcurve-curve $-1 -1 $-1 reversed { bldcur full nubs 3 periodic 18 
	1.11898710764692022 3 1.247966064688804888 2 1.312430539529870765 2 1.486651378689948011 2 1.658828710690799513 2 
	1.831400294350429947 2 1.959177378432914729 2 2.13047315908359014 2 2.237974215293840441 3 2.307308288332107438 2 
	2.418242805193334455 2 2.53984521596023427 2 2.653962903523442218 2 2.829951735860667394 2 2.981693092912609533 2 
	3.148357687200896926 2 3.208614487829577477 2 3.356961322940760439 3 
	-3.760140091099639648 0.006219999894558944642 2.339854764361689821 
	-3.759392039232060334 0.4584354123044725449 2.339854764361689821 
	-3.674380257379397552 0.9171415745764468497 2.339854764361689377 
	-3.433483461181786822 1.549427557118560062 2.339854764361689377 
	-3.333396223501033262 1.754702917949913843 2.339854764361689377 
	-2.896433482290232675 2.475451692413315641 2.339854764361689377 
	-2.448939676511475483 2.918637631148449429 2.339854764361689821 
	-1.399408856967463866 3.542402084921820737 2.339854764361689821 
	-0.8007797788102187786 3.723047382337681288 2.339854764361689377 
	0.4049636214710083948 3.786819477240027432 2.339854764361689377 
	1.020861214515464077 3.669527289203395437 2.339854764361689377 
	1.981057280786934882 3.227436475618866041 2.339854764361689377 
	2.356215155803670136 2.964519199339942901 2.339854764361689377 
	3.095319701865498097 2.218038267386491125 2.339854764361689377 
	3.415080485646670994 1.684319927541226836 2.339854764361689377 
	3.703833083567016349 0.7499995412674674844 2.339854764361689377 
	3.760460642325683001 0.3728469827475464626 2.339854764361689377 
	3.760143901584591664 -0.003167407410912799134 2.339854764361689377 
	3.759939615911025435 -0.2456823194476582817 2.339854764361689377 
	3.736051741539654802 -0.4904698718064479102 2.339854764361689377 
	3.612349387818801993 -1.114943475815821872 2.339854764361689377 
	3.477214331688308846 -1.48346174399029973 2.339854764361688932 
	3.079191639726741592 -2.200248918888453087 2.339854764361688932 
	2.80705821335941641 -2.538112950608009566 2.339854764361689377 
	2.185124928710307834 -3.086259829396703402 2.339854764361689377 
	1.837535638586231368 -3.304766571003011855 2.339854764361689377 
	0.9035825207170194995 -3.701507323359379154 2.339854764361689377 
	0.2709082091468267839 -3.801305229455282486 2.339854764361689377 
	-0.8790825297689994766 -3.694840045643676962 2.339854764361689377 
	-1.398473856690540362 -3.531244373882882481 2.339854764361689377 
	-2.374367635157643708 -2.974384654423539054 2.339854764361689377 
	-2.812585285502795074 -2.564048984407281129 2.339854764361689821 
	-3.25432742143999354 -1.895602979280900158 2.339854764361689821 
	-3.356296368082700265 -1.708329200823486049 2.339854764361689377 
	-3.65036441387996069 -1.040563459800958324 2.339854764361689377 
	-3.761000472743277534 -0.5139014738565734763 2.339854764361689821 
	-3.760140091099639648 0.006219999894558944642 2.339854764361689821 
	0.007092310584103908577 
	
	spline reversed { ref 0 } I I I I 
	null_surface 
	nubs 1 periodic 2 
	1.11898710764692022 1 3.356961322940760439 1 
	1 1.11898710764692022 
	1 3.356961322940760439 
	
	nullbs 
	I I 
	0 
	0 
	0 
	surf1 } I I #
vertex $-1 -1 $-1 $36 $66 #
ellipse-curve $-1 -1 $-1 0 2.557538105324143722e-16 1.923223304703363556 -0 -0 -1 -4.176776695296638309 -2.557538105324143722e-16 0 1 I I #
point $-1 -1 $-1 4.250000000000001776 5.204748896376253657e-16 1.74644660940672658 #
DXID-attrib $-1 -1 $-1 $-1 $40 @10 ASM ENTITY @36 a61ce59e-1944-453e-a391-7373237f5997 #
face $67 -1 $-1 $68 $69 $5 $-1 $70 forward single #
loop $-1 -1 $-1 $71 $44 $40 #
torus-surface $-1 -1 $-1 0 0 -2.25 0 0 -1 4.000000000000001776 0.25 -1 0 0 forward_v I I I I #
loop $-1 -1 $-1 $-1 $72 $28 #
coedge $-1 -1 $-1 $58 $58 $73 $74 reversed $41 $-1 #
coedge $-1 -1 $-1 $46 $43 $72 $75 forward $29 $76 #
edge $-1 -1 $-1 $48 0 $77 1.536639338331702964 $43 $78 forward @7 tangent #
pcurve $-1 -1 $-1 0 forward { exppc nubs 1 open 2 
	0 1 1.536639338331702964 1 
	1 1.11898710764692022 
	0 1.11898710764692022 
	0 
	spline reversed { ref 0 } I I I I 
	} 0 0 #
vertex $-1 -1 $-1 $45 $79 #
ellipse-curve $-1 -1 $-1 0 0 -2.25 0 0 -1 3.514520838906720836e-15 -4.250000000000001776 0 1 I I #
pcurve $-1 -1 $-1 0 reversed { ref 4 } 0 2.237974215293839997 #
point $-1 -1 $-1 -3.760140091099639648 0.006219999894558929029 2.339854764361689377 #
point $-1 -1 $-1 4.176776695296638309 -6.16297582203915473e-32 1.923223304703363556 #
DXID-attrib $-1 -1 $-1 $-1 $54 @10 ASM ENTITY @36 20586217-36da-4707-b85c-3b59ff1c27eb #
face $80 -1 $-1 $81 $82 $5 $-1 $83 reversed single #
loop $-1 -1 $-1 $84 $85 $54 #
plane-surface $-1 -1 $-1 2.775557561562891351e-16 -5.551115123125782702e-16 -2.5 0 0 -1 -10 0 0 forward_v I I I I #
loop $-1 -1 $-1 $-1 $86 $40 #
coedge $-1 -1 $-1 $72 $72 $59 $75 reversed $57 $-1 #
coedge $-1 -1 $-1 $73 $73 $58 $74 forward $87 $-1 #
edge $-1 -1 $-1 $88 -3.141592653589793116 $88 3.141592653589793116 $58 $89 forward @7 tangent #
edge $-1 -1 $-1 $77 1.11898710764692022 $77 3.356961322940760439 $72 $90 forward @7 tangent #
pcurve $-1 -1 $-1 0 forward { exppc nubs 1 periodic 2 
	1.11898710764692022 1 3.356961322940760439 1 
	0 1.11898710764692022 
	0 3.356961322940760439 
	0 
	spline reversed { ref 0 } I I I I 
	} 0 0 #
vertex $-1 -1 $-1 $60 $91 #
ellipse-curve $-1 -1 $-1 -3.583363637664550794 0.005927577406277329333 2.1630780690650524 0.001654191395481712434 0.9999986318244775685 -1.193487949748511703e-15 -0.1767764534350890759 0.0002924224882815996962 0.1767766952966370875 1 F 0 F 1.536639338331702964 #
point $-1 -1 $-1 -2.994045949269095274e-15 4.250000000000001776 -2.25 #
DXID-attrib $-1 -1 $-1 $-1 $68 @10 ASM ENTITY @36 638a3394-bf0a-4ef0-a680-0578d3b34219 #
face $92 -1 $-1 $93 $94 $5 $-1 $95 reversed single #
loop $-1 -1 $-1 $-1 $96 $68 #
plane-surface $-1 -1 $-1 -1.25 -0.7216878364870318308 0.749999999999999778 -1 1.922962686383564063e-16 0 1.922962686383564112e-15 10 0 forward_v I I I I #
loop $-1 -1 $-1 $-1 $97 $54 #
coedge $-1 -1 $-1 $85 $85 $98 $99 forward $69 $-1 #
coedge $-1 -1 $-1 $86 $86 $97 $100 forward $71 $-1 #
loop $-1 -1 $-1 $-1 $73 $101 #
vertex $-1 -1 $-1 $74 $102 #
ellipse-curve $-1 -1 $-1 0 0 1.285954792089684107 0 0 1 -1.666666666666666963 0 0 1 I I #
intcurve-curve $-1 -1 $-1 forward { bldcur full nubs 3 periodic 18 
	1.11898710764692022 3 1.247966064688804888 2 1.312430539529870765 2 1.486651378689948011 2 1.658828710690799513 2 
	1.831400294350429947 2 1.959177378432914729 2 2.13047315908359014 2 2.237974215293840441 3 2.307308288332107438 2 
	2.418242805193334455 2 2.53984521596023427 2 2.653962903523442218 2 2.829951735860667394 2 2.981693092912609533 2 
	3.148357687200896926 2 3.208614487829577477 2 3.356961322940760439 3 
	-3.412727273966238428 0.005645311815502639455 2.345788637204812233 
	-3.412048337291279765 0.4160789218004629086 2.345788637204812233 
	-3.334891098595897496 0.8324035780087213343 2.345788637204812233 
	-3.116251620630530184 1.406270392885015763 2.345788637204812233 
	-3.02541180149252753 1.592579627543757592 2.345788637204812233 
	-2.628821613758047349 2.246735839997441975 2.345788637204812233 
	-2.222673364248146655 2.648974241736725244 2.345788637204812233 
	-1.270112458019114543 3.215106862423337653 2.345788637204812233 
	-0.726792865525144105 3.379061693485112094 2.345788637204812233 
	0.3675475813333542452 3.436941656017984847 2.345788637204812233 
	0.9265401887439682627 3.330486513539842264 2.345788637204812233 
	1.798020299678193545 2.92924205441421881 2.345788637204812233 
	2.138515994278340049 2.690616647430620567 2.345788637204812233 
	2.809332022816250607 2.013105763726214636 2.345788637204812233 
	3.099548961950477022 1.528699573829910729 2.345788637204812677 
	3.361622672630543818 0.6807043960952857686 2.345788637204812677 
	3.413018208315841129 0.3383983139485783331 2.345788637204812233 
	3.412730732386830557 -0.002874759290104986643 2.345788637204812233 
	3.412545321398683829 -0.222982849573859554 2.345788637204812233 
	3.390864533340490095 -0.445153602796506731 2.345788637204812233 
	3.278591483355930869 -1.011929852787643025 2.345788637204812233 
	3.155942039305397628 -1.346399397614109761 2.345788637204812233 
	2.794694090131923936 -1.996960036882407197 2.345788637204812233 
	2.547704046191816563 -2.303607600006663425 2.345788637204812677 
	1.983233406352249872 -2.8011092244300686 2.345788637204812677 
	1.667759136297037426 -2.99942734518052756 2.345788637204812233 
	0.8200972937229906723 -3.359511797742638528 2.345788637204812233 
	0.2458780289290625476 -3.450089017677710146 2.345788637204812233 
	-0.7978609447321263204 -3.353460533706668301 2.345788637204812233 
	-1.26926384576826301 -3.204980052289919001 2.345788637204812233 
	-2.154991301017056493 -2.699570597767090963 2.345788637204812233 
	-2.552720452334113599 -2.327147310703824967 2.345788637204812677 
	-2.95364844938969684 -1.720461427305943314 2.345788637204812677 
	-3.04619611965572723 -1.550490544318596786 2.345788637204812233 
	-3.313094164935942665 -0.9444220729863497255 2.345788637204812233 
	-3.413508161866722457 -0.4664202751682267611 2.345788637204812233 
	-3.412727273966238428 0.005645311815502639455 2.345788637204812233 
	0.007092310584103908577 
	
	spline reversed { ref 0 } I I I I 
	null_surface 
	nubs 1 periodic 2 
	1.11898710764692022 1 3.356961322940760439 1 
	0 1.11898710764692022 
	0 3.356961322940760439 
	
	nullbs 
	I I 
	0 
	0 
	0 
	surf1 } I I #
point $-1 -1 $-1 -3.412727273966238428 0.005645311815502639455 2.345788637204812233 #
DXID-attrib $-1 -1 $-1 $-1 $81 @10 ASM ENTITY @36 577eed3b-3e71-4b57-8320-c7ba29bbf804 #
face $103 -1 $-1 $104 $105 $5 $-1 $106 reversed single #
loop $-1 -1 $-1 $-1 $107 $81 #
plane-surface $-1 -1 $-1 -4.138426833956261249e-16 -1.443375672974064328 0.749999999999999778 -0.5000000000000003331 -0.8660254037844385966 -0 -8.660254037844385522 5.000000000000003553 0 forward_v I I I I #
coedge $-1 -1 $-1 $108 $109 $110 $111 reversed $82 $-1 #
coedge $-1 -1 $-1 $97 $97 $86 $100 reversed $84 $-1 #
coedge $-1 -1 $-1 $98 $98 $85 $99 reversed $112 $-1 #
edge $-1 -1 $-1 $113 -3.141592653589793116 $113 3.141592653589793116 $85 $114 forward @7 unknown #
edge $-1 -1 $-1 $115 -3.141592653589793116 $115 3.141592653589793116 $97 $116 forward @7 tangent #
face $117 -1 $-1 $118 $119 $5 $-1 $120 forward single #
point $-1 -1 $-1 1.666666666666666963 2.041077998578922094e-16 1.285954792089684107 #
DXID-attrib $-1 -1 $-1 $-1 $93 @10 ASM ENTITY @36 6ce2f542-95ac-4888-a757-85b007b154fb #
face $121 -1 $-1 $122 $123 $5 $-1 $124 reversed single #
loop $-1 -1 $-1 $-1 $125 $93 #
plane-surface $-1 -1 $-1 1.249999999999999556 -0.7216878364870327189 0.749999999999999778 0.4999999999999997224 -0.8660254037844388186 0 -8.660254037844389075 -4.999999999999997335 0 forward_v I I I I #
coedge $-1 -1 $-1 $126 $127 $128 $129 reversed $94 $-1 #
coedge $-1 -1 $-1 $130 $96 $127 $131 forward $82 $-1 #
coedge $-1 -1 $-1 $96 $130 $132 $133 reversed $82 $-1 #
coedge $-1 -1 $-1 $134 $128 $96 $111 forward $135 $-1 #
edge $-1 -1 $-1 $136 -0.03608439182435160819 $137 0.1082531754730548107 $110 $138 forward @7 unknown #
loop $-1 -1 $-1 $139 $98 $140 #
vertex $-1 -1 $-1 $99 $141 #
ellipse-curve $-1 -1 $-1 0 0 -2.5 0 0 1 2.5 0 0 1 I I #
vertex $-1 -1 $-1 $100 $142 #
ellipse-curve $-1 -1 $-1 0 0 -2.5 0 0 1 3.307784318971031422e-15 -4.000000000000001776 0 1 I I #
DXID-attrib $-1 -1 $-1 $-1 $101 @10 ASM ENTITY @36 bd60641c-5904-4a77-8143-b3bd3875f08a #
face $143 -1 $-1 $144 $145 $5 $-1 $146 reversed single #
loop $-1 -1 $-1 $87 $147 $101 #
torus-surface $-1 -1 $-1 0 0 1.05025253169416799 0 0 -1 1.750000000000000222 0.25 -1 0 0 forward_v I I I I #
DXID-attrib $-1 -1 $-1 $-1 $104 @10 ASM ENTITY @36 a4de917e-c661-449b-a523-b7219756cde0 #
face $148 -1 $-1 $149 $150 $5 $-1 $151 reversed single #
loop $-1 -1 $-1 $-1 $152 $104 #
plane-surface $-1 -1 $-1 1.250000000000000222 0.7216878364870313867 0.749999999999999778 1 -5.768888059150692928e-16 0 -5.768888059150692731e-15 -10 0 forward_v I I I I #
coedge $-1 -1 $-1 $153 $154 $155 $156 reversed $105 $-1 #
coedge $-1 -1 $-1 $157 $107 $154 $158 forward $94 $-1 #
coedge $-1 -1 $-1 $107 $157 $108 $131 reversed $94 $-1 #
coedge $-1 -1 $-1 $110 $155 $107 $129 forward $135 $-1 #
edge $-1 -1 $-1 $159 -0.03608439182435162901 $136 0.1082531754730547968 $128 $160 forward @7 unknown #
coedge $-1 -1 $-1 $109 $108 $161 $162 forward $82 $-1 #
edge $163 -1 $-1 $136 0 $164 0.2000000000000000111 $127 $165 forward @7 unknown #
coedge $-1 -1 $-1 $166 $167 $109 $133 forward $168 $-1 #
edge $169 -1 $-1 $137 0 $170 0.2000000000000000111 $132 $171 forward @7 unknown #
coedge $-1 -1 $-1 $172 $110 $167 $173 forward $135 $-1 #
loop $-1 -1 $-1 $174 $110 $144 #
vertex $-1 -1 $-1 $111 $175 #
vertex $-1 -1 $-1 $111 $176 #
straight-curve $-1 -1 $-1 -1.249999999999999778 -0.3608439182435158044 0.749999999999999778 1.922962686383564112e-15 10 0 I I #
loop $-1 -1 $-1 $-1 $177 $140 #
face $178 -1 $-1 $179 $112 $5 $-1 $180 forward single #
point $-1 -1 $-1 -2.5 3.061616997868383141e-16 -2.5 #
point $-1 -1 $-1 -3.797643038629972803e-15 4.000000000000001776 -2.5 #
DXID-attrib $-1 -1 $-1 $-1 $118 @10 ASM ENTITY @36 5ca7bfd6-829a-4abe-8e93-72e28f80ed5c #
face $181 -1 $-1 $182 $135 $5 $-1 $183 forward single #
loop $-1 -1 $-1 $184 $185 $118 #
cone-surface $-1 -1 $-1 0 0 2.5 0 0 -1 -1.500000000000000222 0 0 1 I I 0 1 1.500000000000000222 forward I I I I #
coedge $-1 -1 $-1 $147 $147 $186 $187 forward $119 $-1 #
DXID-attrib $-1 -1 $-1 $-1 $122 @10 ASM ENTITY @36 d480d497-6a39-4e31-8f4d-1d44872e360a #
face $188 -1 $-1 $189 $168 $5 $-1 $190 reversed single #
loop $-1 -1 $-1 $-1 $191 $122 #
plane-surface $-1 -1 $-1 -6.978471522853002606e-19 1.443375672974064106 0.749999999999999778 0.500000000000000222 0.8660254037844385966 0 8.660254037844385522 -5.000000000000001776 0 forward_v I I I I #
coedge $-1 -1 $-1 $192 $193 $194 $195 reversed $123 $-1 #
coedge $-1 -1 $-1 $196 $125 $193 $197 forward $105 $-1 #
coedge $-1 -1 $-1 $125 $196 $126 $158 reversed $105 $-1 #
coedge $-1 -1 $-1 $128 $194 $125 $156 forward $135 $-1 #
edge $-1 -1 $-1 $198 -0.03608439182435160125 $159 0.1082531754730547968 $155 $199 forward @7 unknown #
coedge $-1 -1 $-1 $127 $126 $200 $201 forward $94 $-1 #
edge $202 -1 $-1 $159 0 $203 0.2000000000000000111 $154 $204 forward @7 unknown #
vertex $-1 -1 $-1 $129 $205 #
straight-curve $-1 -1 $-1 -0.3125000000000004996 -1.262953713852306148 0.749999999999999778 -8.660254037844385522 5.000000000000003553 0 I I #
coedge $-1 -1 $-1 $200 $206 $130 $162 reversed $207 $-1 #
edge $208 -1 $-1 $164 0 $170 0.1443375672974064328 $130 $209 forward @7 unknown #
DXID-attrib $-1 -1 $-1 $-1 $131 @10 ASM ENTITY @36 33360c55-c8f1-4fc0-875a-98e68581cdbe #
vertex $-1 -1 $-1 $131 $210 #
straight-curve $-1 -1 $-1 -1.25 -0.7216878364870318308 0.749999999999999778 0 0 -10 I I #
coedge $-1 -1 $-1 $211 $132 $206 $212 forward $168 $-1 #
coedge $-1 -1 $-1 $132 $211 $134 $173 reversed $168 $-1 #
loop $-1 -1 $-1 $-1 $167 $149 #
DXID-attrib $-1 -1 $-1 $-1 $133 @10 ASM ENTITY @36 f6aba928-64aa-49fb-95d7-5ae24103ca06 #
vertex $-1 -1 $-1 $162 $213 #
straight-curve $-1 -1 $-1 -1.249999999999999778 0.7216878364870322748 0.749999999999999778 0 0 -10 I I #
coedge $-1 -1 $-1 $194 $134 $191 $214 forward $135 $-1 #
edge $-1 -1 $-1 $137 -0.03608439182435161513 $215 0.1082531754730547968 $134 $216 forward @7 unknown #
loop $-1 -1 $-1 $-1 $217 $144 #
point $-1 -1 $-1 -1.25 -0.7216878364870318308 0.749999999999999778 #
point $-1 -1 $-1 -1.249999999999999778 0.7216878364870322748 0.749999999999999778 #
coedge $-1 -1 $-1 $177 $177 $218 $219 reversed $139 $-1 #
DXID-attrib $-1 -1 $-1 $-1 $140 @10 ASM ENTITY @36 47a27e70-ab40-44d6-8723-f5a67a0e764e #
face $220 -1 $-1 $-1 $221 $5 $-1 $222 reversed single #
cone-surface $-1 -1 $-1 0 0 -2.5 0 0 -1 2.5 0 0 1 I I 0 1 2.5 forward I I I I #
DXID-attrib $-1 -1 $-1 $-1 $144 @10 ASM ENTITY @36 208a2e07-5e88-4946-bffe-8ae831e9ccb3 #
face $223 -1 $-1 $140 $224 $5 $-1 $225 forward single #
plane-surface $-1 -1 $-1 -9.240690614386667518e-17 -3.854941057726237234e-17 0.749999999999999778 0 0 1 10 0 0 forward_v I I I I #
loop $-1 -1 $-1 $-1 $186 $118 #
coedge $-1 -1 $-1 $185 $185 $217 $226 forward $145 $-1 #
coedge $-1 -1 $-1 $186 $186 $147 $187 reversed $184 $-1 #
edge $-1 -1 $-1 $227 -3.141592653589793116 $227 3.141592653589793116 $186 $228 forward @7 tangent #
DXID-attrib $-1 -1 $-1 $-1 $149 @10 ASM ENTITY @36 d95dec8d-d33e-4504-97bd-e0a8619103f4 #
face $229 -1 $-1 $101 $207 $5 $-1 $230 reversed single #
plane-surface $-1 -1 $-1 -1.249999999999999778 0.7216878364870322748 0.749999999999999778 -0.499999999999999889 0.8660254037844388186 0 8.660254037844389075 4.999999999999999112 0 forward_v I I I I #
coedge $-1 -1 $-1 $231 $232 $172 $214 reversed $150 $-1 #
coedge $-1 -1 $-1 $233 $152 $232 $234 forward $123 $-1 #
coedge $-1 -1 $-1 $152 $233 $153 $197 reversed $123 $-1 #
coedge $-1 -1 $-1 $155 $172 $152 $195 forward $135 $-1 #
edge $-1 -1 $-1 $235 -0.03608439182435160125 $198 0.1082531754730547968 $194 $236 forward @7 unknown #
coedge $-1 -1 $-1 $154 $153 $237 $238 forward $105 $-1 #
edge $239 -1 $-1 $198 0 $240 0.2000000000000000111 $193 $241 forward @7 unknown #
vertex $-1 -1 $-1 $156 $242 #
straight-curve $-1 -1 $-1 0.9374999999999994449 -0.9021097956087906766 0.749999999999999778 -8.660254037844389075 -4.999999999999997335 0 I I #
coedge $-1 -1 $-1 $237 $161 $157 $201 reversed $207 $-1 #
edge $243 -1 $-1 $203 0 $164 0.1443375672974064328 $157 $244 forward @7 unknown #
DXID-attrib $-1 -1 $-1 $-1 $158 @10 ASM ENTITY @36 5ac3a24d-f9b5-4567-b31d-f2b295dd39b8 #
vertex $-1 -1 $-1 $158 $245 #
straight-curve $-1 -1 $-1 -4.138426833956261249e-16 -1.443375672974064328 0.749999999999999778 0 0 -10 I I #
point $-1 -1 $-1 -4.138426833956261249e-16 -1.443375672974064328 0.749999999999999778 #
coedge $-1 -1 $-1 $161 $246 $166 $212 reversed $207 $-1 #
loop $-1 -1 $-1 $-1 $206 $189 #
DXID-attrib $-1 -1 $-1 $-1 $162 @10 ASM ENTITY @36 46d73533-f509-4a93-9ec1-90551b9a5c93 #
straight-curve $-1 -1 $-1 -1.25 -0.7216878364870318308 -1.250000000000000222 1.922962686383564112e-15 10 0 I I #
point $-1 -1 $-1 -1.25 -0.7216878364870320528 -1.250000000000000222 #
coedge $-1 -1 $-1 $167 $166 $231 $247 reversed $168 $-1 #
edge $248 -1 $-1 $170 0 $249 0.144337567297406405 $166 $250 forward @7 unknown #
point $-1 -1 $-1 -1.249999999999999778 0.7216878364870322748 -1.250000000000000222 #
edge $-1 -1 $-1 $215 -0.03608439182435161513 $235 0.1082531754730548801 $172 $251 forward @7 unknown #
vertex $-1 -1 $-1 $214 $252 #
straight-curve $-1 -1 $-1 -0.937499999999999778 0.9021097956087903436 0.749999999999999778 8.660254037844389075 4.999999999999999112 0 I I #
coedge $-1 -1 $-1 $217 $217 $185 $226 reversed $174 $-1 #
coedge $-1 -1 $-1 $218 $218 $177 $219 forward $224 $-1 #
edge $-1 -1 $-1 $253 -3.141592653589793116 $253 3.141592653589793116 $177 $254 forward @7 unknown #
DXID-attrib $-1 -1 $-1 $-1 $179 @10 ASM ENTITY @36 72b34449-96d0-4b39-8962-12486afb399d #
loop $-1 -1 $-1 $-1 $255 $179 #
plane-surface $-1 -1 $-1 1.180320603676662173e-16 4.625929269271485174e-17 -10.5 0 0 1 10 0 0 forward_v I I I I #
DXID-attrib $-1 -1 $-1 $-1 $182 @10 ASM ENTITY @36 0856eca4-303a-4b2b-876b-fc03edccff66 #
loop $-1 -1 $-1 $256 $218 $182 #
cone-surface $-1 -1 $-1 0 0 -10.25 0 0 -1 2.25 0 0 1 I I -0.7071067811865472397 0.7071067811865480168 2.25 forward I I I I #
edge $257 -1 $-1 $258 -3.141592653589793116 $258 3.141592653589793116 $185 $259 forward @7 unknown #
vertex $-1 -1 $-1 $187 $260 #
ellipse-curve $-1 -1 $-1 0 0 1.05025253169416799 0 0 -1 -1.500000000000000222 0 0 1 I I #
DXID-attrib $-1 -1 $-1 $-1 $189 @10 ASM ENTITY @36 0caa7073-e106-46ea-a4bb-e81a01ecde8f #
plane-surface $-1 -1 $-1 0 -1.387778780781445676e-16 -1.250000000000000444 0 0 -1 -10 0 0 forward_v I I I I #
coedge $-1 -1 $-1 $261 $191 $211 $247 forward $150 $-1 #
coedge $-1 -1 $-1 $191 $261 $192 $234 reversed $150 $-1 #
coedge $-1 -1 $-1 $193 $192 $262 $263 forward $123 $-1 #
edge $264 -1 $-1 $235 0 $265 0.2000000000000000111 $232 $266 forward @7 unknown #
vertex $-1 -1 $-1 $195 $267 #
straight-curve $-1 -1 $-1 1.25 0.3608439182435153048 0.749999999999999778 -5.768888059150692731e-15 -10 0 I I #
coedge $-1 -1 $-1 $262 $200 $196 $238 reversed $207 $-1 #
edge $268 -1 $-1 $240 0 $203 0.144337567297406405 $196 $269 forward @7 unknown #
DXID-attrib $-1 -1 $-1 $-1 $197 @10 ASM ENTITY @36 3030a32b-781b-4611-a28c-715cf07402bb #
vertex $-1 -1 $-1 $197 $270 #
straight-curve $-1 -1 $-1 1.249999999999999556 -0.7216878364870327189 0.749999999999999778 0 0 -10 I I #
point $-1 -1 $-1 1.249999999999999556 -0.7216878364870327189 0.749999999999999778 #
DXID-attrib $-1 -1 $-1 $-1 $201 @10 ASM ENTITY @36 f1618a2b-cc15-4ce1-8ee1-3b32d78905ef #
straight-curve $-1 -1 $-1 -4.138426833956261249e-16 -1.443375672974064328 -1.250000000000000222 -8.660254037844385522 5.000000000000003553 0 I I #
point $-1 -1 $-1 -4.163336342344337027e-16 -1.443375672974064328 -1.250000000000000222 #
coedge $-1 -1 $-1 $206 $262 $261 $271 reversed $207 $-1 #
edge $272 -1 $-1 $215 0 $249 0.2000000000000000111 $211 $273 forward @7 unknown #
DXID-attrib $-1 -1 $-1 $-1 $212 @10 ASM ENTITY @36 dc8797eb-5949-491e-abc1-b583fd809326 #
vertex $-1 -1 $-1 $247 $274 #
straight-curve $-1 -1 $-1 -1.249999999999999778 0.7216878364870322748 -1.250000000000000222 8.660254037844389075 4.999999999999999112 0 I I #
straight-curve $-1 -1 $-1 0.3124999999999999445 1.262953713852305926 0.749999999999999778 8.660254037844385522 -5.000000000000001776 0 I I #
point $-1 -1 $-1 -6.978471522853002606e-19 1.443375672974064106 0.749999999999999778 #
vertex $-1 -1 $-1 $219 $275 #
ellipse-curve $-1 -1 $-1 0 0 -10 -0 -0 -1 2.5 0 0 1 I I #
coedge $-1 -1 $-1 $255 $255 $276 $277 reversed $221 $-1 #
loop $-1 -1 $-1 $-1 $276 $182 #
DXID-attrib $-1 -1 $-1 $-1 $226 @10 ASM ENTITY @36 e9a8a259-1d45-4da6-b90d-39e96edd238a #
vertex $-1 -1 $-1 $226 $278 #
ellipse-curve $-1 -1 $-1 0 0 0.749999999999999778 0 0 -1 -1.500000000000000222 -0 -0 1 I I #
point $-1 -1 $-1 1.500000000000000222 -1.836970198721030181e-16 1.05025253169416799 #
coedge $-1 -1 $-1 $232 $231 $246 $271 forward $150 $-1 #
coedge $-1 -1 $-1 $246 $237 $233 $263 reversed $207 $-1 #
edge $279 -1 $-1 $265 0 $240 0.144337567297406405 $233 $280 forward @7 unknown #
DXID-attrib $-1 -1 $-1 $-1 $234 @10 ASM ENTITY @36 d96c7b26-5987-4927-a47f-eda998427b7e #
vertex $-1 -1 $-1 $234 $281 #
straight-curve $-1 -1 $-1 1.250000000000000222 0.7216878364870313867 0.749999999999999778 0 0 -10 I I #
point $-1 -1 $-1 1.250000000000000222 0.7216878364870313867 0.749999999999999778 #
DXID-attrib $-1 -1 $-1 $-1 $238 @10 ASM ENTITY @36 fd301168-caa2-4780-a39e-dc12aeeb03c8 #
straight-curve $-1 -1 $-1 1.249999999999999556 -0.7216878364870327189 -1.250000000000000222 -8.660254037844389075 -4.999999999999997335 0 I I #
point $-1 -1 $-1 1.249999999999999556 -0.7216878364870326079 -1.250000000000000222 #
edge $282 -1 $-1 $249 0 $265 0.1443375672974064883 $261 $283 forward @7 unknown #
DXID-attrib $-1 -1 $-1 $-1 $247 @10 ASM ENTITY @36 764192f9-c4e6-4964-b7ca-15be5ce40fdf #
straight-curve $-1 -1 $-1 -6.978471522853002606e-19 1.443375672974064106 0.749999999999999778 0 0 -10 I I #
point $-1 -1 $-1 0 1.443375672974064106 -1.250000000000000222 #
point $-1 -1 $-1 -2.5 3.061616997868383141e-16 -10 #
coedge $-1 -1 $-1 $276 $276 $255 $277 forward $256 $-1 #
edge $-1 -1 $-1 $284 -3.141592653589793116 $284 3.141592653589793116 $255 $285 forward @7 unknown #
point $-1 -1 $-1 1.500000000000000222 1.836970198721030181e-16 0.749999999999999778 #
DXID-attrib $-1 -1 $-1 $-1 $263 @10 ASM ENTITY @36 5a4dbdac-257a-48fd-bbf0-ad3e856c2346 #
straight-curve $-1 -1 $-1 1.250000000000000222 0.7216878364870313867 -1.250000000000000222 -5.768888059150692731e-15 -10 0 I I #
point $-1 -1 $-1 1.250000000000000222 0.7216878364870313867 -1.250000000000000222 #
DXID-attrib $-1 -1 $-1 $-1 $271 @10 ASM ENTITY @36 224371fc-cf39-4f05-a1cc-59f57c736cb1 #
straight-curve $-1 -1 $-1 -6.978471522853002606e-19 1.443375672974064106 -1.250000000000000222 8.660254037844385522 -5.000000000000001776 0 I I #
vertex $-1 -1 $-1 $277 $286 #
ellipse-curve $-1 -1 $-1 0 0 -10.5 0 0 1 2 0 0 1 I I #
point $-1 -1 $-1 -2 -2.449293598294706414e-16 -10.5 #
End-of-ACIS-data 