                                                                        S      1
,,,10HK8800-RD10,22HAutodesk Inventor 2018,7Hunknown,32,38,7,99,15,,1., G      1
2,2HMM,1,0.08,15H20171130.100208,0.01,10000.,3Hjge,,11,0,15H20121123.123G      2
033;                                                                    G      3
     186       1                                                00000000D      1
     186            -107       1       0                               0D      2
     514       2                                                00010000D      3
     514                       1       1                               0D      4
     510       3                                                00010000D      5
     510            -107       1       1                               0D      6
     510       4                                                00010000D      7
     510            -107       1       1                               0D      8
     510       5                                                00010000D      9
     510            -107       1       1                               0D     10
     510       6                                                00010000D     11
     510            -107       1       1                               0D     12
     510       7                                                00010000D     13
     510            -107       1       1                               0D     14
     510       8                                                00010000D     15
     510            -107       1       1                               0D     16
     510       9                                                00010000D     17
     510            -107       1       1                               0D     18
     510      10                                                00010000D     19
     510            -107       1       1                               0D     20
     510      11                                                00010000D     21
     510            -107       1       1                               0D     22
     508      12                                                00010000D     23
     508                       1       1                               0D     24
     508      13                                                00010000D     25
     508                       2       1                               0D     26
     508      15                                                00010000D     27
     508                       1       1                               0D     28
     508      16                                                00010000D     29
     508                       2       1                               0D     30
     508      18                                                00010000D     31
     508                       1       1                               0D     32
     508      19                                                00010000D     33
     508                       1       1                               0D     34
     508      20                                                00010000D     35
     508                       1       1                               0D     36
     508      21                                                00010000D     37
     508                       1       1                               0D     38
     508      22                                                00010000D     39
     508                       1       1                               0D     40
     508      23                                                00010000D     41
     508                       1       1                               0D     42
     508      24                                                00010000D     43
     508                       1       1                               0D     44
     126      25                                                00010000D     45
     126       0               6       0                               0D     46
     126      31                                                00010000D     47
     126       0               8       0                               0D     48
     126      39                                                00010000D     49
     126       0               4       0                               0D     50
     126      43                                                00010000D     51
     126       0               5       0                               0D     52
     126      48                                                00010000D     53
     126       0               8       0                               0D     54
     126      56                                                00010000D     55
     126       0               3       0                               0D     56
     126      59                                                00010000D     57
     126       0               6       0                               0D     58
     126      65                                                00010000D     59
     126       0               4       0                               0D     60
     126      69                                                00010000D     61
     126       0               8       0                               0D     62
     126      77                                                00010000D     63
     126       0               6       0                               0D     64
     126      83                                                00010000D     65
     126       0               8       0                               0D     66
     126      91                                                00010000D     67
     126       0               3       0                               0D     68
     126      94                                                00010000D     69
     126       0              10       0                               0D     70
     126     104                                                00010000D     71
     126       0               3       0                               0D     72
     126     107                                                00010000D     73
     126       0              10       0                               0D     74
     126     117                                                00010000D     75
     126       0              10       0                               0D     76
     126     127                                                00010000D     77
     126       0               2       0                               0D     78
     126     129                                                00010000D     79
     126       0               3       0                               0D     80
     126     132                                                00010000D     81
     126       0              10       0                               0D     82
     128     142                                                00010000D     83
     128       0    -107      19       0                               0D     84
     128     161                                                00010000D     85
     128       0    -107      14       0                               0D     86
     128     175                                                00010000D     87
     128       0    -107      19       0                               0D     88
     128     194                                                00010000D     89
     128       0    -107      15       0                               0D     90
     128     209                                                00010000D     91
     128       0    -107      14       0                               0D     92
     128     223                                                00010000D     93
     128       0    -107      12       0                               0D     94
     128     235                                                00010000D     95
     128       0    -107       3       0                               0D     96
     128     238                                                00010000D     97
     128       0    -107      14       0                               0D     98
     128     252                                                00010000D     99
     128       0    -107       3       0                               0D    100
     502     255                                                00010000D    101
     502                       6       1                               0D    102
     504     261                                                00010001D    103
     504                       5       1                               0D    104
     406     266                                                00000000D    105
     406                       1      15                               0D    106
     314     267                                                00000200D    107
     314                       1       0                               0D    108
186,3,1,0,0,1,105;                                                     1P      1
514,9,5,1,7,1,9,1,11,1,13,1,15,1,17,1,19,1,21,1;                       3P      2
510,83,1,1,23;                                                         5P      3
510,85,1,1,25;                                                         7P      4
510,87,1,1,27;                                                         9P      5
510,89,1,1,29;                                                        11P      6
510,91,1,1,31;                                                        13P      7
510,93,1,1,33;                                                        15P      8
510,95,2,1,35,37;                                                     17P      9
510,97,1,1,39;                                                        19P     10
510,99,2,1,41,43;                                                     21P     11
508,4,0,103,1,0,0,0,103,2,0,0,0,103,3,1,0,0,103,3,0,0;                23P     12
508,6,0,103,4,0,0,0,103,5,0,0,0,103,6,1,0,0,103,2,1,0,0,103,1,1,      25P     13
0,0,103,6,0,0;                                                        25P     14
508,4,0,103,7,1,0,0,103,8,1,0,0,103,8,0,0,0,103,9,1,0;                27P     15
508,6,0,103,10,0,0,0,103,11,0,0,0,103,12,1,0,0,103,7,0,0,0,103,       29P     16
9,0,0,0,103,12,0,0;                                                   29P     17
508,4,0,103,13,1,0,0,103,14,1,0,0,103,15,1,0,0,103,14,0,0;            31P     18
508,4,0,103,16,0,0,0,103,17,1,0,0,103,13,0,0,0,103,17,0,0;            33P     19
508,1,0,103,15,0,0;                                                   35P     20
508,2,0,103,10,1,0,0,103,11,1,0;                                      37P     21
508,4,0,103,16,1,0,0,103,18,1,0,0,103,19,1,0,0,103,18,0,0;            39P     22
508,1,0,103,19,0,0;                                                   41P     23
508,2,0,103,4,1,0,0,103,5,1,0;                                        43P     24
126,4,2,0,0,0,0,0.,0.,0.,1.5707963267949,1.5707963267949,             45P     25
3.14159265358979,3.14159265358979,3.14159265358979,1.,                45P     26
0.707106781186548,1.,0.707106781186548,1.,-1.621,0.,338.2,            45P     27
-1.621,1.621,338.2,-9.9257623070893D-17,1.621,338.2,1.621,1.621,      45P     28
338.2,1.621,1.98515246141786D-16,338.2,0.,3.14159265358979,0.,        45P     29
0.,0.;                                                                45P     30
126,4,2,0,0,0,0,3.14159265358979,3.14159265358979,                    47P     31
3.14159265358979,4.71238898038469,4.71238898038469,                   47P     32
6.28318530717959,6.28318530717959,6.28318530717959,1.,                47P     33
0.707106781186548,1.,0.707106781186547,1.,1.621,                      47P     34
1.98515246141786D-16,338.2,1.621,-1.621,338.2,                        47P     35
2.97772869212679D-16,-1.621,338.2,-1.621,-1.621,338.2,-1.621,         47P     36
-3.97030492283572D-16,338.2,3.14159265358979,6.28318530717959,        47P     37
0.,0.,0.;                                                             47P     38
126,1,1,0,0,1,0,-1.16663339721535,-1.16663339721535,                  49P     39
1.16663339721533,1.16663339721533,1.,1.,1.62100000000001,0.,          49P     40
338.2,0.,0.,337.226004936556,-1.16663339721535,1.16663339721533,      49P     41
0.,0.,0.;                                                             49P     42
126,4,2,0,0,0,0,0.,0.,0.,1.5707963267949,1.5707963267949,             51P     43
3.14159265358979,3.14159265358979,3.14159265358979,1.,                51P     44
0.707106781186548,1.,0.707106781186548,1.,-1.621,0.,350.,-1.621,      51P     45
1.621,350.,-9.9257623070893D-17,1.621,350.,1.621,1.621,350.,          51P     46
1.621,1.98515246141786D-16,350.,0.,3.14159265358979,0.,0.,0.;         51P     47
126,4,2,0,0,0,0,3.14159265358979,3.14159265358979,                    53P     48
3.14159265358979,4.71238898038469,4.71238898038469,                   53P     49
6.28318530717959,6.28318530717959,6.28318530717959,1.,                53P     50
0.707106781186548,1.,0.707106781186547,1.,1.621,                      53P     51
1.98515246141786D-16,350.,1.621,-1.621,350.,                          53P     52
2.97772869212679D-16,-1.621,350.,-1.621,-1.621,350.,-1.621,           53P     53
-3.97030492283572D-16,350.,3.14159265358979,6.28318530717959,0.,      53P     54
0.,0.;                                                                53P     55
126,1,1,0,0,1,0,-3.63972856261569,-3.63972856261569,                  55P     56
3.63972856261565,3.63972856261565,1.,1.,1.621,0.,350.,1.621,0.,       55P     57
338.2,-3.63972856261569,3.63972856261565,0.,0.,0.;                    55P     58
126,4,2,0,0,0,0,0.,0.,0.,1.5707963267949,1.5707963267949,             57P     59
3.14159265358979,3.14159265358979,3.14159265358979,1.,                57P     60
0.707106781186548,1.,0.707106781186548,1.,-1.621,0.,-338.2,           57P     61
-1.621,1.621,-338.2,-9.9257623070893D-17,1.621,-338.2,1.621,          57P     62
1.621,-338.2,1.621,1.98515246141786D-16,-338.2,0.,                    57P     63
3.14159265358979,0.,0.,0.;                                            57P     64
126,1,1,0,0,1,0,-1.16663339721535,-1.16663339721535,                  59P     65
1.16663339721533,1.16663339721533,1.,1.,1.62100000000001,0.,          59P     66
-338.2,0.,0.,-337.226004936556,-1.16663339721535,                     59P     67
1.16663339721533,0.,0.,0.;                                            59P     68
126,4,2,0,0,0,0,3.14159265358979,3.14159265358979,                    61P     69
3.14159265358979,4.71238898038469,4.71238898038469,                   61P     70
6.28318530717959,6.28318530717959,6.28318530717959,1.,                61P     71
0.707106781186548,1.,0.707106781186547,1.,1.621,                      61P     72
1.98515246141786D-16,-338.2,1.621,-1.621,-338.2,                      61P     73
2.97772869212679D-16,-1.621,-338.2,-1.621,-1.621,-338.2,-1.621,       61P     74
-3.97030492283572D-16,-338.2,3.14159265358979,6.28318530717959,       61P     75
0.,0.,0.;                                                             61P     76
126,4,2,0,0,0,0,0.,0.,0.,1.5707963267949,1.5707963267949,             63P     77
3.14159265358979,3.14159265358979,3.14159265358979,1.,                63P     78
0.707106781186548,1.,0.707106781186548,1.,-1.621,0.,-350.,            63P     79
-1.621,-1.621,-350.,-9.9257623070893D-17,-1.621,-350.,1.621,          63P     80
-1.621,-350.,1.621,-1.98515246141786D-16,-350.,0.,                    63P     81
3.14159265358979,0.,0.,0.;                                            63P     82
126,4,2,0,0,0,0,3.14159265358979,3.14159265358979,                    65P     83
3.14159265358979,4.71238898038469,4.71238898038469,                   65P     84
6.28318530717959,6.28318530717959,6.28318530717959,1.,                65P     85
0.707106781186548,1.,0.707106781186547,1.,1.621,                      65P     86
-1.98515246141786D-16,-350.,1.621,1.621,-350.,                        65P     87
2.97772869212679D-16,1.621,-350.,-1.621,1.621,-350.,-1.621,           65P     88
3.97030492283572D-16,-350.,3.14159265358979,6.28318530717959,0.,      65P     89
0.,0.;                                                                65P     90
126,1,1,0,0,1,0,-3.63972856261569,-3.63972856261569,                  67P     91
3.63972856261565,3.63972856261565,1.,1.,1.621,0.,-350.,1.621,0.,      67P     92
-338.2,-3.63972856261569,3.63972856261565,0.,0.,0.;                   67P     93
126,8,2,0,1,0,0,-3.14159265358979,-3.14159265358979,                  69P     94
-3.14159265358979,-1.5707963267949,-1.5707963267949,0.,0.,            69P     95
1.5707963267949,1.5707963267949,3.14159265358979,                     69P     96
3.14159265358979,3.14159265358979,1.,0.707106781186548,1.,            69P     97
0.707106781186548,1.,0.707106781186548,1.,0.707106781186548,1.,       69P     98
5.,-6.12323399573677D-16,-349.25,5.,-5.,-349.25,                      69P     99
-3.06161699786838D-16,-5.,-349.25,-5.,-5.,-349.25,-5.,0.,             69P    100
-349.25,-5.,5.,-349.25,-3.06161699786838D-16,5.,-349.25,5.,5.,        69P    101
-349.25,5.,6.12323399573677D-16,-349.25,-3.14159265358979,            69P    102
3.14159265358979,0.,0.,0.;                                            69P    103
126,1,1,0,0,1,0,-0.11466596451674,-0.11466596451674,                  71P    104
0.11466596451674,0.11466596451674,1.,1.,5.,0.,-349.25,4.25,0.,        71P    105
-350.,-0.11466596451674,0.11466596451674,0.,0.,0.;                    71P    106
126,8,2,0,1,0,0,-3.14159265358979,-3.14159265358979,                  73P    107
-3.14159265358979,-1.5707963267949,-1.5707963267949,0.,0.,            73P    108
1.5707963267949,1.5707963267949,3.14159265358979,                     73P    109
3.14159265358979,3.14159265358979,1.,0.707106781186548,1.,            73P    110
0.707106781186548,1.,0.707106781186548,1.,0.707106781186548,1.,       73P    111
4.25,5.20474889637625D-16,-350.,4.25,4.25,-350.,                      73P    112
-2.60237444818812D-16,4.25,-350.,-4.25,4.25,-350.,-4.25,0.,           73P    113
-350.,-4.25,-4.25,-350.,-2.60237444818812D-16,-4.25,-350.,4.25,       73P    114
-4.25,-350.,4.25,-5.20474889637625D-16,-350.,-3.14159265358979,       73P    115
3.14159265358979,0.,0.,0.;                                            73P    116
126,8,2,0,1,0,0,-3.14159265358979,-3.14159265358979,                  75P    117
-3.14159265358979,-1.5707963267949,-1.5707963267949,0.,0.,            75P    118
1.5707963267949,1.5707963267949,3.14159265358979,                     75P    119
3.14159265358979,3.14159265358979,1.,0.707106781186548,1.,            75P    120
0.707106781186548,1.,0.707106781186548,1.,0.707106781186548,1.,       75P    121
5.,6.12323399573677D-16,349.25,5.,5.,349.25,                          75P    122
-3.06161699786838D-16,5.,349.25,-5.,5.,349.25,-5.,0.,349.25,-5.,      75P    123
-5.,349.25,-3.06161699786838D-16,-5.,349.25,5.,-5.,349.25,5.,         75P    124
-6.12323399573677D-16,349.25,-3.14159265358979,3.14159265358979,      75P    125
0.,0.,0.;                                                             75P    126
126,1,1,0,0,1,0,-69.85,-69.85,69.85,69.85,1.,1.,5.,0.,349.25,5.,      77P    127
0.,-349.25,-69.85,69.85,0.,0.,0.;                                     77P    128
126,1,1,0,0,1,0,-0.11466596451674,-0.11466596451674,                  79P    129
0.11466596451674,0.11466596451674,1.,1.,5.,0.,349.25,4.25,0.,         79P    130
350.,-0.11466596451674,0.11466596451674,0.,0.,0.;                     79P    131
126,8,2,0,1,0,0,-3.14159265358979,-3.14159265358979,                  81P    132
-3.14159265358979,-1.5707963267949,-1.5707963267949,0.,0.,            81P    133
1.5707963267949,1.5707963267949,3.14159265358979,                     81P    134
3.14159265358979,3.14159265358979,1.,0.707106781186548,1.,            81P    135
0.707106781186548,1.,0.707106781186548,1.,0.707106781186548,1.,       81P    136
4.25,-5.20474889637625D-16,350.,4.25,-4.25,350.,                      81P    137
-2.60237444818812D-16,-4.25,350.,-4.25,-4.25,350.,-4.25,0.,350.,      81P    138
-4.25,4.25,350.,-2.60237444818812D-16,4.25,350.,4.25,4.25,350.,       81P    139
4.25,5.20474889637625D-16,350.,-3.14159265358979,                     81P    140
3.14159265358979,0.,0.,0.;                                            81P    141
128,1,8,1,2,0,1,0,0,1,-1.16663339721535,-1.16663339721535,            83P    142
1.16663339721533,1.16663339721533,-3.14159265358979,                  83P    143
-3.14159265358979,-3.14159265358979,-1.5707963267949,                 83P    144
-1.5707963267949,0.,0.,1.5707963267949,1.5707963267949,               83P    145
3.14159265358979,3.14159265358979,3.14159265358979,1.,1.,             83P    146
0.707106781186548,0.707106781186548,1.,1.,0.707106781186548,          83P    147
0.707106781186548,1.,1.,0.707106781186548,0.707106781186548,1.,       83P    148
1.,0.707106781186548,0.707106781186548,1.,1.,1.62100000000001,        83P    149
0.,338.2,0.,0.,337.226004936556,1.62100000000001,                     83P    150
-1.62100000000001,338.2,0.,0.,337.226004936556,0.,                    83P    151
-1.62100000000001,338.2,0.,0.,337.226004936556,                       83P    152
-1.62100000000001,-1.62100000000001,338.2,0.,0.,                      83P    153
337.226004936556,-1.62100000000001,0.,338.2,0.,0.,                    83P    154
337.226004936556,-1.62100000000001,1.62100000000001,338.2,0.,0.,      83P    155
337.226004936556,0.,1.62100000000001,338.2,0.,0.,                     83P    156
337.226004936556,1.62100000000001,1.62100000000001,338.2,0.,0.,       83P    157
337.226004936556,1.62100000000001,0.,338.2,0.,0.,                     83P    158
337.226004936556,-1.16663339721535,1.16663339721533,                  83P    159
-3.14159265358979,3.14159265358979;                                   83P    160
128,1,8,1,2,0,1,0,0,1,-3.63972856261569,-3.63972856261569,            85P    161
3.63972856261565,3.63972856261565,-3.14159265358979,                  85P    162
-3.14159265358979,-3.14159265358979,-1.5707963267949,                 85P    163
-1.5707963267949,0.,0.,1.5707963267949,1.5707963267949,               85P    164
3.14159265358979,3.14159265358979,3.14159265358979,1.,1.,             85P    165
0.707106781186548,0.707106781186548,1.,1.,0.707106781186548,          85P    166
0.707106781186548,1.,1.,0.707106781186548,0.707106781186548,1.,       85P    167
1.,0.707106781186548,0.707106781186548,1.,1.,1.621,0.,350.,           85P    168
1.621,0.,338.2,1.621,-1.621,350.,1.621,-1.621,338.2,0.,-1.621,        85P    169
350.,0.,-1.621,338.2,-1.621,-1.621,350.,-1.621,-1.621,338.2,          85P    170
-1.621,0.,350.,-1.621,0.,338.2,-1.621,1.621,350.,-1.621,1.621,        85P    171
338.2,0.,1.621,350.,0.,1.621,338.2,1.621,1.621,350.,1.621,1.621,      85P    172
338.2,1.621,0.,350.,1.621,0.,338.2,-3.63972856261569,                 85P    173
3.63972856261565,-3.14159265358979,3.14159265358979;                  85P    174
128,1,8,1,2,0,1,0,0,1,-1.16663339721535,-1.16663339721535,            87P    175
1.16663339721533,1.16663339721533,-3.14159265358979,                  87P    176
-3.14159265358979,-3.14159265358979,-1.5707963267949,                 87P    177
-1.5707963267949,0.,0.,1.5707963267949,1.5707963267949,               87P    178
3.14159265358979,3.14159265358979,3.14159265358979,1.,1.,             87P    179
0.707106781186548,0.707106781186548,1.,1.,0.707106781186548,          87P    180
0.707106781186548,1.,1.,0.707106781186548,0.707106781186548,1.,       87P    181
1.,0.707106781186548,0.707106781186548,1.,1.,0.,0.,                   87P    182
-337.226004936556,1.62100000000001,0.,-338.2,0.,0.,                   87P    183
-337.226004936556,1.62100000000001,-1.62100000000001,-338.2,0.,       87P    184
0.,-337.226004936556,0.,-1.62100000000001,-338.2,0.,0.,               87P    185
-337.226004936556,-1.62100000000001,-1.62100000000001,-338.2,0.,      87P    186
0.,-337.226004936556,-1.62100000000001,0.,-338.2,0.,0.,               87P    187
-337.226004936556,-1.62100000000001,1.62100000000001,-338.2,0.,       87P    188
0.,-337.226004936556,0.,1.62100000000001,-338.2,0.,0.,                87P    189
-337.226004936556,1.62100000000001,1.62100000000001,-338.2,0.,        87P    190
0.,-337.226004936556,1.62100000000001,0.,-338.2,                      87P    191
-1.16663339721535,1.16663339721533,-3.14159265358979,                 87P    192
3.14159265358979;                                                     87P    193
128,1,8,1,2,0,1,0,0,1,-3.63972856261569,-3.63972856261569,            89P    194
3.63972856261565,3.63972856261565,-3.14159265358979,                  89P    195
-3.14159265358979,-3.14159265358979,-1.5707963267949,                 89P    196
-1.5707963267949,0.,0.,1.5707963267949,1.5707963267949,               89P    197
3.14159265358979,3.14159265358979,3.14159265358979,1.,1.,             89P    198
0.707106781186548,0.707106781186548,1.,1.,0.707106781186548,          89P    199
0.707106781186548,1.,1.,0.707106781186548,0.707106781186548,1.,       89P    200
1.,0.707106781186548,0.707106781186548,1.,1.,1.621,0.,-338.2,         89P    201
1.621,0.,-350.,1.621,-1.621,-338.2,1.621,-1.621,-350.,0.,-1.621,      89P    202
-338.2,0.,-1.621,-350.,-1.621,-1.621,-338.2,-1.621,-1.621,-350.,      89P    203
-1.621,0.,-338.2,-1.621,0.,-350.,-1.621,1.621,-338.2,-1.621,          89P    204
1.621,-350.,0.,1.621,-338.2,0.,1.621,-350.,1.621,1.621,-338.2,        89P    205
1.621,1.621,-350.,1.621,0.,-338.2,1.621,0.,-350.,                     89P    206
-3.63972856261569,3.63972856261565,-3.14159265358979,                 89P    207
3.14159265358979;                                                     89P    208
128,1,8,1,2,0,1,0,0,1,-0.11466596451674,-0.11466596451674,            91P    209
0.11466596451674,0.11466596451674,-3.14159265358979,                  91P    210
-3.14159265358979,-3.14159265358979,-1.5707963267949,                 91P    211
-1.5707963267949,0.,0.,1.5707963267949,1.5707963267949,               91P    212
3.14159265358979,3.14159265358979,3.14159265358979,1.,1.,             91P    213
0.707106781186548,0.707106781186548,1.,1.,0.707106781186548,          91P    214
0.707106781186548,1.,1.,0.707106781186548,0.707106781186548,1.,       91P    215
1.,0.707106781186548,0.707106781186548,1.,1.,5.,0.,-349.25,4.25,      91P    216
0.,-350.,5.,5.,-349.25,4.25,4.25,-350.,0.,5.,-349.25,0.,4.25,         91P    217
-350.,-5.,5.,-349.25,-4.25,4.25,-350.,-5.,0.,-349.25,-4.25,0.,        91P    218
-350.,-5.,-5.,-349.25,-4.25,-4.25,-350.,0.,-5.,-349.25,0.,-4.25,      91P    219
-350.,5.,-5.,-349.25,4.25,-4.25,-350.,5.,0.,-349.25,4.25,0.,          91P    220
-350.,-0.11466596451674,0.11466596451674,-3.14159265358979,           91P    221
3.14159265358979;                                                     91P    222
128,1,8,1,2,0,1,0,0,1,-69.85,-69.85,69.85,69.85,                      93P    223
-3.14159265358979,-3.14159265358979,-3.14159265358979,                93P    224
-1.5707963267949,-1.5707963267949,0.,0.,1.5707963267949,              93P    225
1.5707963267949,3.14159265358979,3.14159265358979,                    93P    226
3.14159265358979,1.,1.,0.707106781186548,0.707106781186548,1.,        93P    227
1.,0.707106781186548,0.707106781186548,1.,1.,0.707106781186548,       93P    228
0.707106781186548,1.,1.,0.707106781186548,0.707106781186548,1.,       93P    229
1.,5.,0.,349.25,5.,0.,-349.25,5.,5.,349.25,5.,5.,-349.25,0.,5.,       93P    230
349.25,0.,5.,-349.25,-5.,5.,349.25,-5.,5.,-349.25,-5.,0.,349.25,      93P    231
-5.,0.,-349.25,-5.,-5.,349.25,-5.,-5.,-349.25,0.,-5.,349.25,0.,       93P    232
-5.,-349.25,5.,-5.,349.25,5.,-5.,-349.25,5.,0.,349.25,5.,0.,          93P    233
-349.25,-69.85,69.85,-3.14159265358979,3.14159265358979;              93P    234
128,1,1,1,1,0,0,1,0,0,-0.426,-0.426,0.426,0.426,-0.426,-0.426,        95P    235
0.426,0.426,1.,1.,1.,1.,4.26,-4.26,-350.,-4.26,-4.26,-350.,4.26,      95P    236
4.26,-350.,-4.26,4.26,-350.,-0.426,0.426,-0.426,0.426;                95P    237
128,1,8,1,2,0,1,0,0,1,-0.11466596451674,-0.11466596451674,            97P    238
0.11466596451674,0.11466596451674,-3.14159265358979,                  97P    239
-3.14159265358979,-3.14159265358979,-1.5707963267949,                 97P    240
-1.5707963267949,0.,0.,1.5707963267949,1.5707963267949,               97P    241
3.14159265358979,3.14159265358979,3.14159265358979,1.,1.,             97P    242
0.707106781186548,0.707106781186548,1.,1.,0.707106781186548,          97P    243
0.707106781186548,1.,1.,0.707106781186548,0.707106781186548,1.,       97P    244
1.,0.707106781186548,0.707106781186548,1.,1.,5.,0.,349.25,4.25,       97P    245
0.,350.,5.,-5.,349.25,4.25,-4.25,350.,0.,-5.,349.25,0.,-4.25,         97P    246
350.,-5.,-5.,349.25,-4.25,-4.25,350.,-5.,0.,349.25,-4.25,0.,          97P    247
350.,-5.,5.,349.25,-4.25,4.25,350.,0.,5.,349.25,0.,4.25,350.,5.,      97P    248
5.,349.25,4.25,4.25,350.,5.,0.,349.25,4.25,0.,350.,                   97P    249
-0.11466596451674,0.11466596451674,-3.14159265358979,                 97P    250
3.14159265358979;                                                     97P    251
128,1,1,1,1,0,0,1,0,0,-0.426,-0.426,0.426,0.426,-0.426,-0.426,        99P    252
0.426,0.426,1.,1.,1.,1.,-4.26,-4.26,350.,4.26,-4.26,350.,-4.26,       99P    253
4.26,350.,4.26,4.26,350.,-0.426,0.426,-0.426,0.426;                   99P    254
502,14,-1.621,0.,338.2,1.62100000000001,0.,338.2,0.,0.,              101P    255
337.226004936556,-1.621,0.,350.,1.621,0.,350.,-1.621,0.,-338.2,      101P    256
1.62100000000001,0.,-338.2,0.,0.,-337.226004936556,-1.621,0.,        101P    257
-350.,1.621,0.,-350.,5.,-6.12323399573677D-16,-349.25,4.25,          101P    258
5.20474889637625D-16,-350.,5.,6.12323399573677D-16,349.25,4.25,      101P    259
-5.20474889637625D-16,350.;                                          101P    260
504,19,45,101,1,101,2,47,101,2,101,1,49,101,2,101,3,51,101,4,        103P    261
101,5,53,101,5,101,4,55,101,5,101,2,57,101,6,101,7,59,101,7,101,     103P    262
8,61,101,7,101,6,63,101,9,101,10,65,101,10,101,9,67,101,10,101,      103P    263
7,69,101,11,101,11,71,101,11,101,12,73,101,12,101,12,75,101,13,      103P    264
101,13,77,101,13,101,11,79,101,13,101,14,81,101,14,101,14;           103P    265
406,1,6HSolid1;                                                      105P    266
314,95.6862745098039,95.6862745098039,95.6862745098039,;             107P    267
S      1G      3D    108P    267                                        T      1
