700 0 1 0           
30 Autodesk Translation Framework 21 ASM 223.22.0.65535 NT 24 Thu Nov 30 09:37:57 2017 
1 9.999999999999999547e-07 1.000000000000000036e-10 
body $1 -1 $-1 $2 $-1 $3 #
rgb_color-st-attrib $-1 -1 $4 $-1 $0 0.9960784313725490335 0.9960784313725490335 1 #
lump $-1 -1 $-1 $-1 $5 $0 #
transform $-1 -1 1 0 0 0 1 0 0 0 1 0 0 0 1 no_rotate no_reflect no_shear #
DXID-attrib $-1 -1 $-1 $1 $0 @10 ASM ENTITY @98 K8800-BP.IPT|:|D88A6A17A6859CB00A36FD8462CE2293922A3E1E|:|DA4B9237BACCCDF19C0760CAB7AEC4A8359010B0 #
shell $6 -1 $-1 $-1 $-1 $7 $-1 $2 #
string_attrib-name_attrib-gen-attrib $-1 -1 $-1 $-1 $5 keep keep_kept ignore copy @17 ATF_ExternalShell @4 true #
face $8 -1 $-1 $9 $10 $5 $-1 $11 forward single #
DXID-attrib $-1 -1 $-1 $-1 $7 @10 ASM ENTITY @36 b388cee5-f73b-477a-adb8-97983af0e185 #
face $12 -1 $-1 $13 $14 $5 $-1 $15 forward single #
loop $-1 -1 $-1 $-1 $16 $7 #
cone-surface $-1 -1 $-1 -7.834205746771289114 80.62025316455695645 1.500000000000000222 0 0 1 1.336511904965945741 -1.487862872674864168 0 1 I I 0 1 2 forward I I I I #
DXID-attrib $-1 -1 $-1 $-1 $9 @10 ASM ENTITY @36 3eb8fae7-e53d-433d-b4f7-ef1fd9965e1c #
face $17 -1 $-1 $18 $19 $5 $-1 $20 reversed single #
loop $-1 -1 $-1 $21 $22 $9 #
plane-surface $-1 -1 $-1 -1.888512965882659477e-15 0 1.500000000000000222 0 0 1 10 0 0 forward_v I I I I #
coedge $-1 -1 $-1 $23 $24 $25 $26 forward $10 $-1 #
DXID-attrib $-1 -1 $-1 $-1 $13 @10 ASM ENTITY @36 1583241c-a53d-4b1b-a16f-de33015613e8 #
face $27 -1 $-1 $28 $29 $5 $-1 $30 forward single #
loop $-1 -1 $-1 $-1 $31 $13 #
cone-surface $-1 -1 $-1 -6.217248937900876626e-14 79.00000000000002842 1.500000000000000222 0 0 -1 2.999999999999999112 5.1961524227066338 0 1 I I 0 1 6.000000000000000888 forward I I I I #
loop $-1 -1 $-1 $32 $33 $9 #
coedge $-1 -1 $-1 $22 $22 $34 $35 forward $14 $-1 #
coedge $-1 -1 $-1 $36 $16 $37 $38 forward $10 $-1 #
coedge $-1 -1 $-1 $16 $36 $31 $39 forward $10 $-1 #
coedge $-1 -1 $-1 $40 $41 $16 $26 reversed $42 $-1 #
edge $-1 -1 $-1 $43 -0.6349919257691364338 $44 0.6349919257691379881 $25 $45 forward @7 unknown #
DXID-attrib $-1 -1 $-1 $-1 $18 @10 ASM ENTITY @36 415a7bde-26ab-4374-9405-ad438931c9c5 #
face $46 -1 $-1 $47 $48 $5 $-1 $49 forward single #
loop $-1 -1 $-1 $-1 $50 $18 #
cone-surface $-1 -1 $-1 7.834205746771153223 80.62025316455695645 1.500000000000000222 0 0 -1 -1.336511904965946851 -1.487862872674863279 0 1 I I 0 1 2 forward I I I I #
coedge $-1 -1 $-1 $51 $52 $24 $39 reversed $19 $-1 #
loop $-1 -1 $-1 $53 $54 $9 #
coedge $-1 -1 $-1 $33 $33 $55 $56 forward $21 $-1 #
coedge $-1 -1 $-1 $34 $34 $22 $35 reversed $57 $-1 #
edge $58 -1 $-1 $59 -3.141592653589793116 $59 3.141592653589793116 $34 $60 forward @7 unknown #
coedge $-1 -1 $-1 $24 $23 $61 $62 forward $10 $-1 #
coedge $-1 -1 $-1 $63 $64 $23 $38 reversed $65 $-1 #
edge $-1 -1 $-1 $44 0 $66 0.3000000000000000444 $37 $67 forward @7 tangent #
edge $-1 -1 $-1 $68 -0.3000000000000000444 $43 0 $31 $69 forward @7 tangent #
coedge $-1 -1 $-1 $70 $25 $52 $71 forward $42 $-1 #
coedge $-1 -1 $-1 $25 $72 $63 $73 forward $42 $-1 #
loop $-1 -1 $-1 $-1 $25 $9 #
vertex $-1 -1 $-1 $26 $74 #
vertex $-1 -1 $-1 $26 $75 #
ellipse-curve $-1 -1 $-1 -7.834205746771289114 80.62025316455695645 1.500000000000000222 -0 -0 -1 1.336511904965945741 -1.487862872674864168 0 1 I I #
DXID-attrib $-1 -1 $-1 $-1 $28 @10 ASM ENTITY @36 fe66461b-6240-4dfc-824a-00f6bbe97ec5 #
face $76 -1 $-1 $77 $78 $5 $-1 $79 reversed single #
loop $-1 -1 $-1 $-1 $80 $28 #
cone-surface $-1 -1 $-1 73.73629017342476288 -33.52550538710046624 1.500000000000000222 0 0 1 -1.956782997567093396 -0.4135218258234275579 0 1 I I 0 1 2 forward I I I I #
coedge $-1 -1 $-1 $81 $82 $83 $84 forward $29 $-1 #
coedge $-1 -1 $-1 $85 $31 $86 $87 reversed $19 $-1 #
coedge $-1 -1 $-1 $31 $85 $40 $71 reversed $19 $-1 #
loop $-1 -1 $-1 $88 $89 $9 #
coedge $-1 -1 $-1 $54 $54 $90 $91 forward $32 $-1 #
coedge $-1 -1 $-1 $55 $55 $33 $56 reversed $92 $-1 #
edge $-1 -1 $-1 $93 0 $93 6.283185307179586232 $33 $94 forward @7 unknown #
loop $-1 -1 $-1 $-1 $34 $95 #
DXID-attrib $-1 -1 $-1 $-1 $35 @10 ASM ENTITY @36 2f105716-7a9b-4d77-8bba-00aa0a9e118a #
vertex $-1 -1 $-1 $35 $96 #
ellipse-curve $-1 -1 $-1 0 0 1.500000000000000222 0 0 1 -105 -0 -0 1 I I #
coedge $-1 -1 $-1 $97 $86 $36 $62 reversed $98 $-1 #
edge $-1 -1 $-1 $66 -0.6349919257691379881 $68 0.6349919257691364338 $61 $99 forward @7 unknown #
coedge $-1 -1 $-1 $100 $37 $41 $73 reversed $65 $-1 #
coedge $-1 -1 $-1 $37 $100 $97 $101 reversed $65 $-1 #
loop $-1 -1 $-1 $-1 $37 $102 #
vertex $-1 -1 $-1 $38 $103 #
straight-curve $-1 -1 $-1 -7.640768567838664538 78.6296296296296191 1.500000000000000222 0 0 -10 F -0.6200010000000000243 F 0.9200010000000000687 #
vertex $-1 -1 $-1 $62 $104 #
straight-curve $-1 -1 $-1 -5.87565431007847927 80.21518987341771378 1.500000000000000222 0 0 10 F -0.9200010000000000687 F 0.6200010000000000243 #
coedge $-1 -1 $-1 $105 $40 $106 $107 reversed $42 $-1 #
edge $-1 -1 $-1 $43 -1.890452647030067101 $108 0.8432550958334668056 $40 $109 forward @7 unknown #
coedge $-1 -1 $-1 $41 $110 $111 $112 reversed $42 $-1 #
edge $-1 -1 $-1 $113 -6.709914062884397623 $44 -4.80925900027817832 $41 $114 forward @7 unknown #
point $-1 -1 $-1 -5.875654310078481934 80.21518987341771378 1.500000000000000222 #
point $-1 -1 $-1 -7.640768567838664538 78.6296296296296191 1.500000000000000222 #
DXID-attrib $-1 -1 $-1 $-1 $47 @10 ASM ENTITY @36 8e8d0c76-a3bf-4cb1-84cd-a379412aa31a #
face $115 -1 $-1 $116 $117 $5 $-1 $118 forward single #
loop $-1 -1 $-1 $-1 $119 $47 #
cone-surface $-1 -1 $-1 68.41600689897072129 -39.49999999999994316 1.500000000000000222 0 0 -1 3.000000000000003109 -5.196152422706631135 0 1 I I 0 1 6.000000000000000888 forward I I I I #
coedge $-1 -1 $-1 $120 $121 $122 $123 forward $48 $-1 #
coedge $-1 -1 $-1 $106 $50 $124 $125 forward $29 $-1 #
coedge $-1 -1 $-1 $50 $106 $85 $126 forward $29 $-1 #
coedge $-1 -1 $-1 $86 $127 $50 $84 reversed $98 $-1 #
edge $-1 -1 $-1 $128 -0.6349919257691437613 $129 0.6349919257691399865 $83 $130 forward @7 unknown #
coedge $-1 -1 $-1 $52 $51 $82 $126 reversed $19 $-1 #
coedge $-1 -1 $-1 $61 $83 $51 $87 forward $98 $-1 #
edge $-1 -1 $-1 $128 -0.8432550958334668056 $68 1.890452647030067101 $86 $131 forward @7 unknown #
loop $-1 -1 $-1 $132 $133 $9 #
coedge $-1 -1 $-1 $89 $89 $134 $135 forward $53 $-1 #
coedge $-1 -1 $-1 $90 $90 $54 $91 reversed $136 $-1 #
edge $-1 -1 $-1 $137 0 $137 6.283185307179586232 $54 $138 forward @7 unknown #
loop $-1 -1 $-1 $139 $55 $140 #
vertex $-1 -1 $-1 $56 $141 #
ellipse-curve $-1 -1 $-1 88.5986282259610789 -15.82033743249269264 1.500000000000000222 -0 -0 -1 4.700000000000000178 0 0 1 I I #
face $142 -1 $-1 $-1 $143 $5 $-1 $144 forward single #
point $-1 -1 $-1 105 1.285879139104720791e-14 1.500000000000000222 #
coedge $-1 -1 $-1 $145 $61 $64 $101 forward $98 $-1 #
loop $-1 -1 $-1 $146 $61 $147 #
ellipse-curve $-1 -1 $-1 -7.834205746771289114 80.62025316455695645 -1.500000000000000222 0 0 1 1.336511904965945741 -1.487862872674864168 0 1 I I #
coedge $-1 -1 $-1 $64 $63 $148 $149 reversed $65 $-1 #
edge $-1 -1 $-1 $66 -1.473926306901407912 $150 0.4267287557048115576 $97 $151 forward @7 unknown #
face $152 -1 $-1 $147 $65 $5 $-1 $153 reversed single #
point $-1 -1 $-1 -7.640768567838664538 78.6296296296296191 -1.500000000000000222 #
point $-1 -1 $-1 -5.875654310078481934 80.21518987341771378 -1.500000000000000222 #
coedge $-1 -1 $-1 $122 $70 $154 $155 forward $42 $-1 #
coedge $-1 -1 $-1 $82 $81 $70 $107 forward $29 $-1 #
edge $-1 -1 $-1 $156 -0.6349919257691399865 $108 0.6349919257691437613 $70 $157 forward @7 unknown #
vertex $-1 -1 $-1 $71 $158 #
ellipse-curve $-1 -1 $-1 -6.217248937900876626e-14 79.00000000000002842 1.500000000000000222 -0 -0 -1 2.999999999999999112 5.1961524227066338 0 1 I I #
coedge $-1 -1 $-1 $72 $159 $160 $161 forward $42 $-1 #
coedge $-1 -1 $-1 $162 $148 $72 $112 forward $163 $-1 #
edge $-1 -1 $-1 $113 -0.6349919257691382102 $164 0.6349919257691448715 $72 $165 forward @7 unknown #
vertex $-1 -1 $-1 $112 $166 #
ellipse-curve $-1 -1 $-1 0 0 1.500000000000000222 -0 -0 -1 -79 0 0 1 I I #
DXID-attrib $-1 -1 $-1 $-1 $77 @10 ASM ENTITY @36 c75be927-ec2b-4ea6-a890-e68f0d064651 #
face $167 -1 $-1 $168 $163 $5 $-1 $169 forward single #
loop $-1 -1 $-1 $-1 $170 $77 #
cone-surface $-1 -1 $-1 65.90208442665354482 -47.09474777745632679 1.500000000000000222 0 0 -1 -0.6202710926011518744 1.901384698498274295 0 1 I I 0 1 2 forward I I I I #
coedge $-1 -1 $-1 $171 $172 $121 $173 reversed $78 $-1 #
coedge $-1 -1 $-1 $174 $80 $175 $176 forward $48 $-1 #
coedge $-1 -1 $-1 $80 $174 $119 $173 forward $48 $-1 #
coedge $-1 -1 $-1 $177 $105 $80 $123 reversed $42 $-1 #
edge $-1 -1 $-1 $178 -0.6349919257691368779 $179 0.6349919257691463148 $122 $180 forward @7 unknown #
coedge $-1 -1 $-1 $181 $154 $81 $125 reversed $182 $-1 #
edge $-1 -1 $-1 $129 -0.3000000000000000444 $156 0 $124 $183 forward @7 tangent #
edge $-1 -1 $-1 $108 0 $128 0.3000000000000000444 $85 $184 forward @7 tangent #
coedge $-1 -1 $-1 $83 $185 $181 $186 forward $98 $-1 #
vertex $-1 -1 $-1 $87 $187 #
vertex $-1 -1 $-1 $84 $188 #
ellipse-curve $-1 -1 $-1 7.834205746771153223 80.62025316455695645 -1.500000000000000222 0 0 1 -1.336511904965946851 -1.487862872674863279 0 1 I I #
ellipse-curve $-1 -1 $-1 -6.217248937900876626e-14 79.00000000000002842 -1.500000000000000222 0 0 1 2.999999999999999112 5.1961524227066338 0 1 I I #
loop $-1 -1 $-1 $189 $190 $9 #
coedge $-1 -1 $-1 $133 $133 $191 $192 forward $88 $-1 #
coedge $-1 -1 $-1 $134 $134 $89 $135 reversed $193 $-1 #
edge $-1 -1 $-1 $194 0 $194 6.283185307179586232 $89 $195 forward @7 unknown #
loop $-1 -1 $-1 $196 $90 $197 #
vertex $-1 -1 $-1 $91 $198 #
ellipse-curve $-1 -1 $-1 -30.59850000000000847 84.63883150038165581 1.500000000000000222 -0 -0 -1 4.700000000000000178 0 0 1 I I #
loop $-1 -1 $-1 $-1 $199 $140 #
face $200 -1 $-1 $201 $92 $5 $-1 $202 reversed single #
point $-1 -1 $-1 93.29862822596109595 -15.82033743249269264 1.500000000000000222 #
DXID-attrib $-1 -1 $-1 $-1 $95 @10 ASM ENTITY @36 5d88d336-7824-4934-9644-b732d7c4841a #
loop $-1 -1 $-1 $57 $203 $95 #
cone-surface $-1 -1 $-1 0 0 0 0 0 1 -105 0 0 1 I I 0 1 105 forward I I I I #
coedge $-1 -1 $-1 $204 $97 $205 $206 reversed $98 $-1 #
loop $-1 -1 $-1 $207 $208 $147 #
face $209 -1 $-1 $210 $98 $5 $-1 $211 reversed single #
coedge $-1 -1 $-1 $111 $205 $100 $149 forward $163 $-1 #
edge $-1 -1 $-1 $150 -0.3000000000000000444 $113 0 $100 $212 forward @7 tangent #
vertex $-1 -1 $-1 $206 $213 #
ellipse-curve $-1 -1 $-1 0 0 -1.500000000000000222 0 0 1 -79 0 0 1 I I #
DXID-attrib $-1 -1 $-1 $-1 $102 @10 ASM ENTITY @36 54488992-1fb5-49d9-8a2b-28db0a45d900 #
cone-surface $-1 -1 $-1 0 0 1.500000000000000222 0 0 -1 -79 0 0 1 I I 0 1 79 forward I I I I #
coedge $-1 -1 $-1 $124 $175 $105 $155 reversed $182 $-1 #
edge $-1 -1 $-1 $156 -4.615518960491202805 $179 -2.714863897884983501 $105 $114 forward @7 unknown #
vertex $-1 -1 $-1 $107 $214 #
ellipse-curve $-1 -1 $-1 7.834205746771153223 80.62025316455695645 1.500000000000000222 -0 -0 -1 -1.336511904965946851 -1.487862872674863279 0 1 I I #
point $-1 -1 $-1 5.875654310078353149 80.21518987341772799 1.500000000000000222 #
coedge $-1 -1 $-1 $110 $215 $216 $217 reversed $42 $-1 #
coedge $-1 -1 $-1 $218 $219 $110 $161 reversed $220 $-1 #
edge $-1 -1 $-1 $221 -1.890452647030066213 $164 0.8432550958334653624 $110 $222 forward @7 unknown #
coedge $-1 -1 $-1 $205 $111 $219 $223 forward $163 $-1 #
loop $-1 -1 $-1 $-1 $205 $116 #
vertex $-1 -1 $-1 $161 $224 #
ellipse-curve $-1 -1 $-1 -73.73629017342469183 -33.52550538710060835 1.500000000000000222 -0 -0 -1 1.956782997567098281 -0.4135218258234041877 0 1 I I #
point $-1 -1 $-1 -71.91564103334015101 -32.69771513062898549 1.500000000000000222 #
DXID-attrib $-1 -1 $-1 $-1 $116 @10 ASM ENTITY @36 762cfe0b-0cec-44ca-897d-5a65734f0bf0 #
face $225 -1 $-1 $226 $220 $5 $-1 $227 reversed single #
cone-surface $-1 -1 $-1 -73.73629017342469183 -33.52550538710060835 1.500000000000000222 0 0 -1 1.956782997567098281 -0.4135218258234041877 0 1 I I 0 1 2 forward I I I I #
coedge $-1 -1 $-1 $228 $229 $230 $231 forward $117 $-1 #
coedge $-1 -1 $-1 $232 $119 $233 $234 reversed $78 $-1 #
coedge $-1 -1 $-1 $119 $232 $177 $235 reversed $78 $-1 #
edge $-1 -1 $-1 $236 -0.3000000000000000444 $178 0 $119 $237 forward @7 tangent #
coedge $-1 -1 $-1 $121 $120 $185 $238 forward $48 $-1 #
coedge $-1 -1 $-1 $154 $181 $120 $176 reversed $182 $-1 #
edge $-1 -1 $-1 $179 0 $239 0.3000000000000000444 $175 $240 forward @7 tangent #
coedge $-1 -1 $-1 $241 $122 $172 $235 forward $42 $-1 #
vertex $-1 -1 $-1 $123 $242 #
vertex $-1 -1 $-1 $155 $243 #
ellipse-curve $-1 -1 $-1 73.73629017342476288 -33.52550538710046624 1.500000000000000222 -0 -0 -1 -1.956782997567093396 -0.4135218258234275579 0 1 I I #
coedge $-1 -1 $-1 $175 $124 $127 $186 reversed $182 $-1 #
loop $-1 -1 $-1 $-1 $124 $210 #
straight-curve $-1 -1 $-1 7.640768567838533087 78.62962962962963331 1.500000000000000222 0 0 10 F -0.9200010000000000687 F 0.6200010000000000243 #
straight-curve $-1 -1 $-1 5.875654310078354925 80.21518987341772799 1.500000000000000222 -0 -0 -10 F -0.6200010000000000243 F 0.9200010000000000687 #
coedge $-1 -1 $-1 $127 $233 $174 $238 reversed $98 $-1 #
edge $-1 -1 $-1 $239 -3.568321409294602731 $129 -1.66766634668838365 $127 $151 forward @7 unknown #
point $-1 -1 $-1 5.875654310078353149 80.21518987341772799 -1.500000000000000222 #
point $-1 -1 $-1 7.640768567838533976 78.62962962962964752 -1.500000000000000222 #
loop $-1 -1 $-1 $244 $245 $9 #
coedge $-1 -1 $-1 $190 $190 $246 $247 forward $132 $-1 #
coedge $-1 -1 $-1 $191 $191 $133 $192 reversed $248 $-1 #
edge $-1 -1 $-1 $249 0 $249 6.283185307179586232 $133 $250 forward @7 unknown #
loop $-1 -1 $-1 $251 $134 $252 #
vertex $-1 -1 $-1 $135 $253 #
ellipse-curve $-1 -1 $-1 58.00012822596108464 -68.81849406788897738 1.500000000000000222 -0 -0 -1 4.700000000000000178 0 0 1 I I #
loop $-1 -1 $-1 $-1 $254 $197 #
face $255 -1 $-1 $256 $136 $5 $-1 $257 reversed single #
point $-1 -1 $-1 -25.89850000000000563 84.63883150038165581 1.500000000000000222 #
coedge $-1 -1 $-1 $199 $199 $258 $259 reversed $139 $-1 #
DXID-attrib $-1 -1 $-1 $-1 $140 @10 ASM ENTITY @36 5a4257e2-035e-456b-90f1-71dfbb0ddbad #
face $260 -1 $-1 $95 $261 $5 $-1 $262 reversed single #
cone-surface $-1 -1 $-1 88.5986282259610789 -15.82033743249269264 0.2749999999999999667 0 0 1 3.475000000000000533 0 0 1 I I 0.7071067811865474617 0.7071067811865475727 3.475000000000000533 reversed I I I I #
coedge $-1 -1 $-1 $203 $203 $208 $263 reversed $143 $-1 #
coedge $-1 -1 $-1 $264 $145 $265 $266 forward $98 $-1 #
coedge $-1 -1 $-1 $148 $162 $145 $206 forward $163 $-1 #
edge $-1 -1 $-1 $267 -0.6349919257691448715 $150 0.6349919257691382102 $145 $268 forward @7 unknown #
loop $-1 -1 $-1 $269 $270 $147 #
coedge $-1 -1 $-1 $208 $208 $203 $263 forward $146 $-1 #
DXID-attrib $-1 -1 $-1 $-1 $147 @10 ASM ENTITY @36 0e215b70-d23b-4177-b9c5-200eb53a0459 #
face $271 -1 $-1 $272 $182 $5 $-1 $153 reversed single #
plane-surface $-1 -1 $-1 -1.888512965882659477e-15 0 -1.500000000000000222 0 0 1 10 0 0 forward_v I I I I #
straight-curve $-1 -1 $-1 -71.9156410333401368 -32.69771513062898549 1.500000000000000222 0 0 10 F -0.9200010000000000687 F 0.6200010000000000243 #
point $-1 -1 $-1 -71.91564103334015101 -32.69771513062898549 -1.500000000000000222 #
point $-1 -1 $-1 7.640768567838533976 78.62962962962964752 1.500000000000000222 #
coedge $-1 -1 $-1 $159 $241 $273 $274 forward $42 $-1 #
coedge $-1 -1 $-1 $275 $276 $159 $217 forward $277 $-1 #
edge $-1 -1 $-1 $221 -0.6349919257691351016 $278 0.6349919257691408747 $159 $279 forward @7 unknown #
coedge $-1 -1 $-1 $265 $160 $276 $280 reversed $220 $-1 #
coedge $-1 -1 $-1 $160 $265 $162 $223 reversed $220 $-1 #
loop $-1 -1 $-1 $-1 $219 $168 #
vertex $-1 -1 $-1 $217 $281 #
ellipse-curve $-1 -1 $-1 -68.41600689897065024 -39.50000000000004263 1.500000000000000222 -0 -0 -1 -6.000000000000000888 0 0 1 I I #
edge $-1 -1 $-1 $164 0 $267 0.3000000000000000444 $219 $282 forward @7 tangent #
point $-1 -1 $-1 -72.40621935481118499 -35.01912904032546692 1.500000000000000222 #
DXID-attrib $-1 -1 $-1 $-1 $168 @10 ASM ENTITY @36 bd24469f-780b-416f-a097-7fd1978e1d25 #
face $283 -1 $-1 $284 $277 $5 $-1 $285 forward single #
cone-surface $-1 -1 $-1 -68.41600689897065024 -39.50000000000004263 1.500000000000000222 0 0 -1 -6.000000000000000888 0 0 1 I I 0 1 6.000000000000000888 forward I I I I #
coedge $-1 -1 $-1 $286 $170 $287 $288 forward $117 $-1 #
coedge $-1 -1 $-1 $170 $286 $232 $289 forward $117 $-1 #
coedge $-1 -1 $-1 $233 $290 $170 $231 reversed $98 $-1 #
edge $-1 -1 $-1 $291 -0.6349919257691418739 $292 0.6349919257691418739 $230 $293 forward @7 unknown #
coedge $-1 -1 $-1 $172 $171 $229 $289 reversed $78 $-1 #
coedge $-1 -1 $-1 $185 $230 $171 $234 forward $98 $-1 #
edge $-1 -1 $-1 $291 -0.8432550958334672497 $236 1.890452647030066657 $233 $294 forward @7 unknown #
edge $-1 -1 $-1 $178 -1.890452647030066657 $295 0.8432550958334672497 $177 $296 forward @7 unknown #
vertex $-1 -1 $-1 $238 $297 #
straight-curve $-1 -1 $-1 72.40621935481124183 -35.01912904032534612 1.500000000000000222 0 0 10 F -0.9200010000000000687 F 0.6200010000000000243 #
edge $-1 -1 $-1 $239 -0.6349919257691463148 $236 0.6349919257691368779 $185 $298 forward @7 unknown #
vertex $-1 -1 $-1 $176 $299 #
straight-curve $-1 -1 $-1 71.91564103334020785 -32.69771513062885759 1.500000000000000222 0 0 -10 F -0.6200010000000000243 F 0.9200010000000000687 #
coedge $-1 -1 $-1 $215 $177 $286 $300 reversed $42 $-1 #
point $-1 -1 $-1 72.40621935481124183 -35.01912904032535323 1.500000000000000222 #
point $-1 -1 $-1 71.91564103334019364 -32.69771513062885049 1.500000000000000222 #
loop $-1 -1 $-1 $301 $302 $9 #
coedge $-1 -1 $-1 $245 $245 $303 $304 forward $189 $-1 #
coedge $-1 -1 $-1 $246 $246 $190 $247 reversed $305 $-1 #
edge $-1 -1 $-1 $306 0 $306 6.283185307179586232 $190 $307 forward @7 unknown #
loop $-1 -1 $-1 $308 $191 $309 #
vertex $-1 -1 $-1 $192 $310 #
ellipse-curve $-1 -1 $-1 -58.00012822596109174 -68.81849406788899159 1.500000000000000222 -0 -0 -1 4.700000000000000178 0 0 1 I I #
loop $-1 -1 $-1 $-1 $311 $252 #
face $312 -1 $-1 $313 $193 $5 $-1 $314 reversed single #
point $-1 -1 $-1 62.70012822596108037 -68.81849406788897738 1.500000000000000222 #
coedge $-1 -1 $-1 $254 $254 $315 $316 reversed $196 $-1 #
DXID-attrib $-1 -1 $-1 $-1 $197 @10 ASM ENTITY @36 c7172075-d9f6-49f6-a787-f9965466b07b #
face $317 -1 $-1 $140 $318 $5 $-1 $319 reversed single #
cone-surface $-1 -1 $-1 -30.59850000000000847 84.63883150038165581 0.2749999999999999667 0 0 1 3.475000000000000533 0 0 1 I I 0.7071067811865474617 0.7071067811865475727 3.475000000000000533 reversed I I I I #
coedge $-1 -1 $-1 $258 $258 $199 $259 forward $320 $-1 #
edge $321 -1 $-1 $322 0 $322 6.283185307179586232 $258 $323 forward @7 unknown #
DXID-attrib $-1 -1 $-1 $-1 $201 @10 ASM ENTITY @36 b56639de-c596-4a9e-9269-3ffa47524a9e #
loop $-1 -1 $-1 $320 $324 $201 #
cone-surface $-1 -1 $-1 88.5986282259610789 -15.82033743249269264 -2.5 0 0 1 2.25 0 0 1 I I -0 1 2.25 reversed I I I I #
edge $325 -1 $-1 $326 -3.141592653589793116 $326 3.141592653589793116 $203 $327 forward @7 unknown #
coedge $-1 -1 $-1 $290 $204 $328 $329 reversed $98 $-1 #
coedge $-1 -1 $-1 $219 $218 $204 $266 reversed $220 $-1 #
edge $-1 -1 $-1 $267 -0.8432550958334653624 $330 1.890452647030066213 $204 $331 forward @7 unknown #
vertex $-1 -1 $-1 $206 $332 #
ellipse-curve $-1 -1 $-1 -73.73629017342469183 -33.52550538710060835 -1.500000000000000222 0 0 1 1.956782997567098281 -0.4135218258234041877 0 1 I I #
loop $-1 -1 $-1 $333 $334 $147 #
coedge $-1 -1 $-1 $270 $270 $324 $335 forward $207 $-1 #
DXID-attrib $-1 -1 $-1 $-1 $210 @10 ASM ENTITY @36 52666f6b-43dc-43d3-a27f-01efb98127c0 #
face $336 -1 $-1 $337 $338 $5 $-1 $339 reversed single #
coedge $-1 -1 $-1 $287 $340 $215 $274 reversed $341 $-1 #
edge $-1 -1 $-1 $342 -2.521123858098007542 $278 -0.6204687954917872394 $215 $114 forward @7 unknown #
coedge $-1 -1 $-1 $328 $216 $340 $343 forward $277 $-1 #
coedge $-1 -1 $-1 $216 $328 $218 $280 forward $277 $-1 #
loop $-1 -1 $-1 $-1 $216 $226 #
vertex $-1 -1 $-1 $274 $344 #
ellipse-curve $-1 -1 $-1 -65.90208442665345956 -47.09474777745643337 1.500000000000000222 -0 -0 -1 0.6202710926011418824 1.901384698498277404 0 1 I I #
edge $-1 -1 $-1 $330 -0.3000000000000000444 $221 0 $218 $345 forward @7 tangent #
point $-1 -1 $-1 -66.53056504473275368 -45.19606083309233924 1.500000000000000222 #
straight-curve $-1 -1 $-1 -72.40621935481118499 -35.01912904032546692 1.500000000000000222 0 0 -10 F -0.6200010000000000243 F 0.9200010000000000687 #
DXID-attrib $-1 -1 $-1 $-1 $226 @10 ASM ENTITY @36 bdd9a6aa-cf95-4fda-8530-459385e643c7 #
face $346 -1 $-1 $102 $341 $5 $-1 $153 reversed single #
cone-surface $-1 -1 $-1 -65.90208442665345956 -47.09474777745643337 1.500000000000000222 0 0 1 0.6202710926011418824 1.901384698498277404 0 1 I I 0 1 1.999999999999999778 forward I I I I #
coedge $-1 -1 $-1 $229 $228 $241 $300 forward $117 $-1 #
coedge $-1 -1 $-1 $347 $273 $228 $288 reversed $341 $-1 #
edge $-1 -1 $-1 $292 -0.3000000000000000444 $342 0 $287 $348 forward @7 tangent #
edge $-1 -1 $-1 $295 0 $291 0.3000000000000000444 $232 $349 forward @7 tangent #
coedge $-1 -1 $-1 $230 $264 $347 $350 forward $98 $-1 #
vertex $-1 -1 $-1 $234 $351 #
vertex $-1 -1 $-1 $231 $352 #
ellipse-curve $-1 -1 $-1 65.90208442665354482 -47.09474777745632679 -1.500000000000000222 0 0 1 -0.6202710926011518744 1.901384698498274295 0 1 I I #
ellipse-curve $-1 -1 $-1 68.41600689897072129 -39.49999999999994316 -1.500000000000000222 0 0 1 3.000000000000003109 -5.196152422706631135 0 1 I I #
vertex $-1 -1 $-1 $235 $353 #
ellipse-curve $-1 -1 $-1 68.41600689897072129 -39.49999999999994316 1.500000000000000222 -0 -0 -1 3.000000000000003109 -5.196152422706631135 0 1 I I #
point $-1 -1 $-1 72.40621935481124183 -35.01912904032535323 -1.500000000000000222 #
ellipse-curve $-1 -1 $-1 73.73629017342476288 -33.52550538710046624 -1.500000000000000222 0 0 1 -1.956782997567093396 -0.4135218258234275579 0 1 I I #
point $-1 -1 $-1 71.91564103334019364 -32.69771513062885049 -1.500000000000000222 #
edge $-1 -1 $-1 $342 -0.6349919257691418739 $295 0.6349919257691418739 $241 $354 forward @7 unknown #
loop $-1 -1 $-1 $355 $356 $9 #
coedge $-1 -1 $-1 $302 $302 $357 $358 forward $244 $-1 #
coedge $-1 -1 $-1 $303 $303 $245 $304 reversed $359 $-1 #
edge $-1 -1 $-1 $360 0 $360 6.283185307179586232 $245 $361 forward @7 unknown #
loop $-1 -1 $-1 $362 $246 $363 #
vertex $-1 -1 $-1 $247 $364 #
ellipse-curve $-1 -1 $-1 -88.59862822596110732 -15.82033743249268909 1.500000000000000222 -0 -0 -1 4.700000000000000178 0 0 1 I I #
loop $-1 -1 $-1 $-1 $365 $309 #
face $366 -1 $-1 $367 $248 $5 $-1 $368 reversed single #
point $-1 -1 $-1 -53.30012822596109601 -68.81849406788899159 1.500000000000000222 #
coedge $-1 -1 $-1 $311 $311 $369 $370 reversed $251 $-1 #
DXID-attrib $-1 -1 $-1 $-1 $252 @10 ASM ENTITY @36 5c5634e3-fbcb-405e-91aa-77119e35dfc3 #
face $371 -1 $-1 $197 $372 $5 $-1 $373 reversed single #
cone-surface $-1 -1 $-1 58.00012822596108464 -68.81849406788897738 0.2749999999999999667 0 0 1 3.475000000000000533 0 0 1 I I 0.7071067811865474617 0.7071067811865475727 3.475000000000000533 reversed I I I I #
coedge $-1 -1 $-1 $315 $315 $254 $316 forward $374 $-1 #
edge $375 -1 $-1 $376 0 $376 6.283185307179586232 $315 $377 forward @7 unknown #
DXID-attrib $-1 -1 $-1 $-1 $256 @10 ASM ENTITY @36 fafbccae-4d28-4c4f-927c-fe97f5691eed #
loop $-1 -1 $-1 $374 $378 $256 #
cone-surface $-1 -1 $-1 -30.59850000000000847 84.63883150038165581 -2.5 0 0 1 2.25 0 0 1 I I -0 1 2.25 reversed I I I I #
loop $-1 -1 $-1 $-1 $258 $201 #
DXID-attrib $-1 -1 $-1 $-1 $259 @10 ASM ENTITY @36 fd0ebb83-cceb-4e94-aa13-3d66819444ae #
vertex $-1 -1 $-1 $259 $379 #
ellipse-curve $-1 -1 $-1 88.5986282259610789 -15.82033743249269264 -0.9500000000000008438 0 0 1 2.25 0 0 1 I I #
coedge $-1 -1 $-1 $324 $324 $270 $335 reversed $261 $-1 #
DXID-attrib $-1 -1 $-1 $-1 $263 @10 ASM ENTITY @36 b8151404-eca7-4400-bf5b-f68cb355194e #
vertex $-1 -1 $-1 $263 $380 #
ellipse-curve $-1 -1 $-1 0 0 -1.500000000000000222 0 0 -1 -105 -0 -0 1 I I #
coedge $-1 -1 $-1 $276 $275 $264 $329 forward $277 $-1 #
edge $-1 -1 $-1 $381 -0.6349919257691408747 $330 0.6349919257691351016 $264 $382 forward @7 unknown #
vertex $-1 -1 $-1 $280 $383 #
ellipse-curve $-1 -1 $-1 -68.41600689897065024 -39.50000000000004263 -1.500000000000000222 0 0 1 -6.000000000000000888 0 0 1 I I #
point $-1 -1 $-1 -72.40621935481118499 -35.01912904032546692 -1.500000000000000222 #
loop $-1 -1 $-1 $384 $385 $147 #
coedge $-1 -1 $-1 $334 $334 $378 $386 forward $269 $-1 #
edge $-1 -1 $-1 $387 -3.141592653589793116 $387 3.141592653589793116 $270 $388 forward @7 unknown #
DXID-attrib $-1 -1 $-1 $-1 $272 @10 ASM ENTITY @36 087a6c69-d0fc-4a59-bc3a-5f1f0f749b2c #
face $389 -1 $-1 $390 $391 $5 $-1 $392 reversed single #
loop $-1 -1 $-1 $393 $394 $272 #
cone-surface $-1 -1 $-1 -86.60254037844384811 50.00000000000005684 -2.900000000000000355 0 0 1 -0.6147500000000005738 -1.064778233952967224 0 1 I I -0 1 1.229500000000000037 reversed I I I I #
coedge $-1 -1 $-1 $273 $347 $275 $343 reversed $341 $-1 #
loop $-1 -1 $-1 $-1 $287 $284 #
vertex $-1 -1 $-1 $300 $395 #
edge $-1 -1 $-1 $278 0 $381 0.3000000000000000444 $340 $396 forward @7 tangent #
point $-1 -1 $-1 -64.27487246550154509 -45.93191449900071888 1.500000000000000222 #
straight-curve $-1 -1 $-1 -66.53056504473275368 -45.19606083309233924 1.500000000000000222 0 0 10 F -0.9200010000000000687 F 0.6200010000000000243 #
DXID-attrib $-1 -1 $-1 $-1 $284 @10 ASM ENTITY @36 34b32914-f894-4605-ad12-01fa872b2779 #
coedge $-1 -1 $-1 $340 $287 $290 $350 reversed $341 $-1 #
straight-curve $-1 -1 $-1 64.27487246550161615 -45.9319144990006194 1.500000000000000222 0 0 10 F -0.9200010000000000687 F 0.6200010000000000243 #
straight-curve $-1 -1 $-1 66.53056504473283894 -45.19606083309223976 1.500000000000000222 0 0 -10 F -0.6200010000000000243 F 0.9200010000000000687 #
edge $-1 -1 $-1 $381 -5.662716511687799326 $292 -3.76206144908157869 $290 $151 forward @7 unknown #
point $-1 -1 $-1 66.53056504473283894 -45.19606083309223976 -1.500000000000000222 #
point $-1 -1 $-1 64.27487246550160194 -45.9319144990006194 -1.500000000000000222 #
point $-1 -1 $-1 66.53056504473283894 -45.19606083309223976 1.500000000000000222 #
ellipse-curve $-1 -1 $-1 65.90208442665354482 -47.09474777745632679 1.500000000000000222 -0 -0 -1 -0.6202710926011518744 1.901384698498274295 0 1 I I #
loop $-1 -1 $-1 $42 $397 $9 #
coedge $-1 -1 $-1 $356 $356 $398 $399 forward $301 $-1 #
coedge $-1 -1 $-1 $357 $357 $302 $358 reversed $400 $-1 #
edge $-1 -1 $-1 $401 0 $401 6.283185307179586232 $302 $402 forward @7 unknown #
loop $-1 -1 $-1 $403 $303 $404 #
vertex $-1 -1 $-1 $304 $405 #
ellipse-curve $-1 -1 $-1 30.59850000000000136 84.63883150038168424 1.500000000000000222 -0 -0 -1 4.700000000000000178 0 0 1 I I #
loop $-1 -1 $-1 $-1 $406 $363 #
face $407 -1 $-1 $408 $305 $5 $-1 $409 reversed single #
point $-1 -1 $-1 -83.89862822596109027 -15.82033743249268909 1.500000000000000222 #
coedge $-1 -1 $-1 $365 $365 $410 $411 reversed $308 $-1 #
DXID-attrib $-1 -1 $-1 $-1 $309 @10 ASM ENTITY @36 d4582ee3-42fa-4e44-835c-b02abef1e75d #
face $412 -1 $-1 $252 $413 $5 $-1 $414 reversed single #
cone-surface $-1 -1 $-1 -58.00012822596109174 -68.81849406788899159 0.2749999999999999667 0 0 1 3.475000000000000533 0 0 1 I I 0.7071067811865474617 0.7071067811865475727 3.475000000000000533 reversed I I I I #
coedge $-1 -1 $-1 $369 $369 $311 $370 forward $415 $-1 #
edge $416 -1 $-1 $417 0 $417 6.283185307179586232 $369 $418 forward @7 unknown #
DXID-attrib $-1 -1 $-1 $-1 $313 @10 ASM ENTITY @36 98d18b4b-fa15-4dbb-99d5-ca64d99ca648 #
loop $-1 -1 $-1 $415 $419 $313 #
cone-surface $-1 -1 $-1 58.00012822596108464 -68.81849406788897738 -2.5 0 0 1 2.25 0 0 1 I I -0 1 2.25 reversed I I I I #
loop $-1 -1 $-1 $-1 $315 $256 #
DXID-attrib $-1 -1 $-1 $-1 $316 @10 ASM ENTITY @36 adb35faa-14c1-4dac-8e23-ecb3a2951a1e #
vertex $-1 -1 $-1 $316 $420 #
ellipse-curve $-1 -1 $-1 -30.59850000000000847 84.63883150038165581 -0.9500000000000008438 0 0 1 2.25 0 0 1 I I #
coedge $-1 -1 $-1 $378 $378 $334 $386 reversed $318 $-1 #
point $-1 -1 $-1 90.8486282259610789 -15.82033743249269264 -0.9500000000000002887 #
point $-1 -1 $-1 105 1.285879139104720791e-14 -1.500000000000000222 #
vertex $-1 -1 $-1 $343 $421 #
ellipse-curve $-1 -1 $-1 -65.90208442665345956 -47.09474777745643337 -1.500000000000000222 0 0 1 0.6202710926011418824 1.901384698498277404 0 1 I I #
point $-1 -1 $-1 -66.53056504473275368 -45.19606083309233924 -1.500000000000000222 #
loop $-1 -1 $-1 $422 $423 $147 #
coedge $-1 -1 $-1 $385 $385 $419 $424 forward $333 $-1 #
edge $-1 -1 $-1 $425 -3.141592653589793116 $425 3.141592653589793116 $334 $426 forward @7 unknown #
vertex $-1 -1 $-1 $335 $427 #
ellipse-curve $-1 -1 $-1 88.5986282259610789 -15.82033743249269264 -1.500000000000000222 0 0 1 2.25 0 0 1 I I #
DXID-attrib $-1 -1 $-1 $-1 $337 @10 ASM ENTITY @36 3677d87b-2ff7-4dd6-a587-cc033b49924c #
face $428 -1 $-1 $404 $429 $5 $-1 $430 reversed single #
loop $-1 -1 $-1 $431 $432 $337 #
cone-surface $-1 -1 $-1 86.60254037844389075 49.99999999999998579 -2.900000000000000355 0 0 1 -0.6147499999999997966 1.064778233952967446 0 1 I I -0 1 1.229500000000000037 reversed I I I I #
loop $-1 -1 $-1 $-1 $433 $272 #
coedge $-1 -1 $-1 $394 $394 $434 $435 reversed $338 $-1 #
point $-1 -1 $-1 64.27487246550160194 -45.9319144990006194 1.500000000000000222 #
straight-curve $-1 -1 $-1 -64.27487246550154509 -45.93191449900071888 1.500000000000000222 0 0 -10 F -0.6200010000000000243 F 0.9200010000000000687 #
coedge $-1 -1 $-1 $397 $397 $433 $436 forward $355 $-1 #
coedge $-1 -1 $-1 $398 $398 $356 $399 reversed $431 $-1 #
edge $-1 -1 $-1 $437 1.893464355312763441e-15 $437 6.283185307179588008 $356 $438 forward @7 unknown #
loop $-1 -1 $-1 $-1 $357 $390 #
vertex $-1 -1 $-1 $358 $439 #
ellipse-curve $-1 -1 $-1 0 -100 1.500000000000000222 -0 -0 -1 1.229500000000000037 0 0 1 I I #
loop $-1 -1 $-1 $-1 $440 $404 #
face $441 -1 $-1 $442 $359 $5 $-1 $443 reversed single #
point $-1 -1 $-1 35.29850000000000421 84.63883150038168424 1.500000000000000222 #
coedge $-1 -1 $-1 $406 $406 $444 $445 reversed $362 $-1 #
DXID-attrib $-1 -1 $-1 $-1 $363 @10 ASM ENTITY @36 e22471c8-5f62-4514-83dd-7985f6c8ce0a #
face $446 -1 $-1 $309 $447 $5 $-1 $448 reversed single #
cone-surface $-1 -1 $-1 -88.59862822596110732 -15.82033743249268909 0.2749999999999999667 0 0 1 3.475000000000000533 0 0 1 I I 0.7071067811865474617 0.7071067811865475727 3.475000000000000533 reversed I I I I #
coedge $-1 -1 $-1 $410 $410 $365 $411 forward $449 $-1 #
edge $450 -1 $-1 $451 0 $451 6.283185307179586232 $410 $452 forward @7 unknown #
DXID-attrib $-1 -1 $-1 $-1 $367 @10 ASM ENTITY @36 6bb4160f-331f-446c-9656-685439e5c969 #
loop $-1 -1 $-1 $449 $453 $367 #
cone-surface $-1 -1 $-1 -58.00012822596109174 -68.81849406788899159 -2.5 0 0 1 2.25 0 0 1 I I -0 1 2.25 reversed I I I I #
loop $-1 -1 $-1 $-1 $369 $313 #
DXID-attrib $-1 -1 $-1 $-1 $370 @10 ASM ENTITY @36 d1bf1c5b-4adc-4200-a1d4-a74cb1e1860c #
vertex $-1 -1 $-1 $370 $454 #
ellipse-curve $-1 -1 $-1 58.00012822596108464 -68.81849406788897738 -0.9500000000000008438 0 0 1 2.25 0 0 1 I I #
coedge $-1 -1 $-1 $419 $419 $385 $424 reversed $372 $-1 #
point $-1 -1 $-1 -28.34850000000000847 84.63883150038165581 -0.9500000000000002887 #
point $-1 -1 $-1 -64.27487246550154509 -45.93191449900071888 -1.500000000000000222 #
loop $-1 -1 $-1 $455 $456 $147 #
coedge $-1 -1 $-1 $423 $423 $453 $457 forward $384 $-1 #
edge $-1 -1 $-1 $458 -3.141592653589793116 $458 3.141592653589793116 $385 $459 forward @7 unknown #
vertex $-1 -1 $-1 $386 $460 #
ellipse-curve $-1 -1 $-1 -30.59850000000000847 84.63883150038165581 -1.500000000000000222 0 0 1 2.25 0 0 1 I I #
point $-1 -1 $-1 86.3486282259610789 -15.82033743249269264 -1.500000000000000222 #
DXID-attrib $-1 -1 $-1 $-1 $390 @10 ASM ENTITY @36 da9b2335-d075-4206-a5a6-725c87606435 #
loop $-1 -1 $-1 $400 $461 $390 #
cone-surface $-1 -1 $-1 0 -100 -2.900000000000000355 0 0 1 1.229500000000000037 0 0 1 I I -0 1 1.229500000000000037 reversed I I I I #
loop $-1 -1 $-1 $-1 $398 $337 #
coedge $-1 -1 $-1 $432 $432 $462 $463 reversed $391 $-1 #
coedge $-1 -1 $-1 $433 $433 $397 $436 reversed $393 $-1 #
coedge $-1 -1 $-1 $434 $434 $394 $435 forward $464 $-1 #
edge $-1 -1 $-1 $465 -3.141592653589790451 $465 3.141592653589795781 $434 $466 forward @7 unknown #
edge $-1 -1 $-1 $467 -2.5819968481537684e-15 $467 6.283185307179583567 $397 $468 forward @7 unknown #
vertex $-1 -1 $-1 $399 $469 #
ellipse-curve $-1 -1 $-1 86.60254037844389075 49.99999999999998579 1.500000000000000222 -0 -0 -1 -0.6147499999999997966 1.064778233952967446 0 1 I I #
point $-1 -1 $-1 1.229500000000000037 -100 1.500000000000000222 #
coedge $-1 -1 $-1 $440 $440 $470 $471 reversed $403 $-1 #
DXID-attrib $-1 -1 $-1 $-1 $404 @10 ASM ENTITY @36 bdf1112e-9ee4-4339-8315-e2a56b9997ed #
face $472 -1 $-1 $363 $473 $5 $-1 $474 reversed single #
cone-surface $-1 -1 $-1 30.59850000000000136 84.63883150038168424 0.2749999999999999667 0 0 1 3.475000000000000533 0 0 1 I I 0.7071067811865474617 0.7071067811865475727 3.475000000000000533 reversed I I I I #
coedge $-1 -1 $-1 $444 $444 $406 $445 forward $475 $-1 #
edge $476 -1 $-1 $477 0 $477 6.283185307179586232 $444 $478 forward @7 unknown #
DXID-attrib $-1 -1 $-1 $-1 $408 @10 ASM ENTITY @36 5626ed91-7079-478f-ac51-ef4e46666c4e #
loop $-1 -1 $-1 $475 $479 $408 #
cone-surface $-1 -1 $-1 -88.59862822596110732 -15.82033743249268909 -2.5 0 0 1 2.25 0 0 1 I I -0 1 2.25 reversed I I I I #
loop $-1 -1 $-1 $-1 $410 $367 #
DXID-attrib $-1 -1 $-1 $-1 $411 @10 ASM ENTITY @36 c8015a48-693c-4d58-9f15-c1b7e4176ecb #
vertex $-1 -1 $-1 $411 $480 #
ellipse-curve $-1 -1 $-1 -58.00012822596109174 -68.81849406788899159 -0.9500000000000008438 0 0 1 2.25 0 0 1 I I #
coedge $-1 -1 $-1 $453 $453 $423 $457 reversed $413 $-1 #
point $-1 -1 $-1 60.25012822596107753 -68.81849406788897738 -0.9500000000000002887 #
loop $-1 -1 $-1 $481 $482 $147 #
coedge $-1 -1 $-1 $456 $456 $479 $483 forward $422 $-1 #
edge $-1 -1 $-1 $484 -3.141592653589793116 $484 3.141592653589793116 $423 $485 forward @7 unknown #
vertex $-1 -1 $-1 $424 $486 #
ellipse-curve $-1 -1 $-1 58.00012822596108464 -68.81849406788897738 -1.500000000000000222 0 0 1 2.25 0 0 1 I I #
point $-1 -1 $-1 -32.84850000000000847 84.63883150038165581 -1.500000000000000222 #
coedge $-1 -1 $-1 $461 $461 $487 $488 reversed $429 $-1 #
coedge $-1 -1 $-1 $462 $462 $432 $463 forward $489 $-1 #
edge $-1 -1 $-1 $490 -3.141592653589794892 $490 3.14159265358979134 $462 $491 forward @7 unknown #
loop $-1 -1 $-1 $-1 $434 $147 #
vertex $-1 -1 $-1 $435 $492 #
ellipse-curve $-1 -1 $-1 -86.60254037844384811 50.00000000000005684 -1.500000000000000222 0 0 1 -0.6147500000000005738 -1.064778233952967224 0 1 I I #
vertex $-1 -1 $-1 $436 $493 #
ellipse-curve $-1 -1 $-1 -86.60254037844384811 50.00000000000005684 1.500000000000000222 -0 -0 -1 -0.6147500000000005738 -1.064778233952967224 0 1 I I #
point $-1 -1 $-1 85.98779037844388995 51.0647782339529499 1.500000000000000222 #
coedge $-1 -1 $-1 $470 $470 $440 $471 forward $494 $-1 #
edge $495 -1 $-1 $496 0 $496 6.283185307179586232 $470 $497 forward @7 unknown #
DXID-attrib $-1 -1 $-1 $-1 $442 @10 ASM ENTITY @36 cb0353dc-bc6c-4eb2-bb27-4035a3d255c8 #
loop $-1 -1 $-1 $494 $498 $442 #
cone-surface $-1 -1 $-1 30.59850000000000136 84.63883150038168424 -2.5 0 0 1 2.25 0 0 1 I I -0 1 2.25 reversed I I I I #
loop $-1 -1 $-1 $-1 $444 $408 #
DXID-attrib $-1 -1 $-1 $-1 $445 @10 ASM ENTITY @36 a251d8c1-3f4e-497a-b4d2-99d9ba414bf0 #
vertex $-1 -1 $-1 $445 $499 #
ellipse-curve $-1 -1 $-1 -88.59862822596110732 -15.82033743249268909 -0.9500000000000008438 0 0 1 2.25 0 0 1 I I #
coedge $-1 -1 $-1 $479 $479 $456 $483 reversed $447 $-1 #
point $-1 -1 $-1 -55.75012822596109174 -68.81849406788899159 -0.9500000000000002887 #
loop $-1 -1 $-1 $489 $487 $147 #
coedge $-1 -1 $-1 $482 $482 $498 $500 forward $455 $-1 #
edge $-1 -1 $-1 $501 -3.141592653589793116 $501 3.141592653589793116 $456 $502 forward @7 unknown #
vertex $-1 -1 $-1 $457 $503 #
ellipse-curve $-1 -1 $-1 -58.00012822596109174 -68.81849406788899159 -1.500000000000000222 0 0 1 2.25 0 0 1 I I #
point $-1 -1 $-1 55.75012822596108464 -68.81849406788897738 -1.500000000000000222 #
coedge $-1 -1 $-1 $487 $487 $461 $488 forward $481 $-1 #
edge $-1 -1 $-1 $504 -3.141592653589793116 $504 3.141592653589793116 $487 $505 forward @7 unknown #
loop $-1 -1 $-1 $464 $462 $147 #
vertex $-1 -1 $-1 $463 $506 #
ellipse-curve $-1 -1 $-1 86.60254037844389075 49.99999999999998579 -1.500000000000000222 0 0 1 -0.6147499999999997966 1.064778233952967446 0 1 I I #
point $-1 -1 $-1 -85.98779037844386153 51.06477823395302096 -1.500000000000000222 #
point $-1 -1 $-1 -87.21729037844384891 48.93522176604708562 1.500000000000000222 #
loop $-1 -1 $-1 $-1 $470 $442 #
DXID-attrib $-1 -1 $-1 $-1 $471 @10 ASM ENTITY @36 84972490-72a3-4cc3-aca3-595f2cf0c3ff #
vertex $-1 -1 $-1 $471 $507 #
ellipse-curve $-1 -1 $-1 30.59850000000000136 84.63883150038168424 -0.9500000000000008438 0 0 1 2.25 0 0 1 I I #
coedge $-1 -1 $-1 $498 $498 $482 $500 reversed $473 $-1 #
point $-1 -1 $-1 -86.34862822596110732 -15.82033743249268909 -0.9500000000000002887 #
edge $-1 -1 $-1 $508 -3.141592653589793116 $508 3.141592653589793116 $482 $509 forward @7 unknown #
vertex $-1 -1 $-1 $483 $510 #
ellipse-curve $-1 -1 $-1 -88.59862822596110732 -15.82033743249268909 -1.500000000000000222 0 0 1 2.25 0 0 1 I I #
point $-1 -1 $-1 -60.25012822596109174 -68.81849406788899159 -1.500000000000000222 #
vertex $-1 -1 $-1 $488 $511 #
ellipse-curve $-1 -1 $-1 0 -100 -1.500000000000000222 0 0 1 1.229500000000000037 0 0 1 I I #
point $-1 -1 $-1 87.21729037844389154 48.93522176604701457 -1.500000000000000222 #
point $-1 -1 $-1 32.84850000000000136 84.63883150038168424 -0.9500000000000002887 #
vertex $-1 -1 $-1 $500 $512 #
ellipse-curve $-1 -1 $-1 30.59850000000000136 84.63883150038168424 -1.500000000000000222 0 0 1 2.25 0 0 1 I I #
point $-1 -1 $-1 -90.84862822596109311 -15.82033743249268909 -1.500000000000000222 #
point $-1 -1 $-1 -1.229500000000000037 -100 -1.500000000000000222 #
point $-1 -1 $-1 28.34849999999999781 84.63883150038168424 -1.500000000000000222 #
End-of-ACIS-data 