700 0 1 0           
30 Autodesk Translation Framework 21 ASM 223.22.0.65535 NT 24 Thu Nov 30 09:45:00 2017 
1 9.999999999999999547e-07 1.000000000000000036e-10 
body $1 -1 $-1 $2 $-1 $3 #
rgb_color-st-attrib $-1 -1 $4 $-1 $0 0.6784313725490196401 0.6784313725490196401 0.6784313725490196401 #
lump $-1 -1 $-1 $-1 $5 $0 #
transform $-1 -1 1 0 0 0 1 0 0 0 1 0 0 0 1 no_rotate no_reflect no_shear #
DXID-attrib $-1 -1 $-1 $1 $0 @10 ASM ENTITY @100 HE1.75-HBR.IPT|:|A50CF208F8C594924C95FAFEE914FC16F7E20588|:|DA4B9237BACCCDF19C0760CAB7AEC4A8359010B0 #
shell $6 -1 $-1 $-1 $-1 $7 $-1 $2 #
string_attrib-name_attrib-gen-attrib $-1 -1 $-1 $-1 $5 keep keep_kept ignore copy @17 ATF_ExternalShell @4 true #
face $8 -1 $-1 $9 $10 $5 $-1 $11 forward single #
DXID-attrib $-1 -1 $-1 $-1 $7 @10 ASM ENTITY @36 ed97f91c-b3fb-41e3-943a-4c06fa64186f #
face $12 -1 $-1 $13 $14 $5 $-1 $15 forward single #
loop $-1 -1 $-1 $16 $17 $7 #
cone-surface $-1 -1 $-1 1.372079925795230184e-15 -10.92499999999999716 0 1.255908398897234648e-16 -1 0 -2.874999999999999112 -1.726874048483699398e-16 0 1 I I -0.7071067811865432429 0.7071067811865527908 2.874999999999999112 forward I I I I #
DXID-attrib $-1 -1 $-1 $-1 $9 @10 ASM ENTITY @36 f95a7db9-7afa-4be1-9b0a-ec82f400e45b #
face $18 -1 $-1 $19 $20 $5 $-1 $21 forward single #
loop $-1 -1 $-1 $22 $23 $9 #
plane-surface $-1 -1 $-1 1.387778780781445676e-15 -11.05000000000000071 0 1.255908398897235881e-16 -1 0 0 0 -10 forward_v I I I I #
loop $-1 -1 $-1 $-1 $24 $7 #
coedge $-1 -1 $-1 $17 $17 $25 $26 forward $10 $-1 #
DXID-attrib $-1 -1 $-1 $-1 $13 @10 ASM ENTITY @36 81e93324-8647-40ec-b200-c36f4af241d5 #
face $27 -1 $-1 $28 $29 $5 $-1 $30 forward single #
loop $-1 -1 $-1 $31 $32 $13 #
cone-surface $-1 -1 $-1 1.073801681057136631e-15 -8.549999999999997158 0 1.255908398897235881e-16 -1 0 2.999999999999998224 0 0 1 I I 0 1 2.999999999999998224 forward I I I I #
loop $-1 -1 $-1 $-1 $33 $9 #
coedge $-1 -1 $-1 $23 $23 $34 $35 reversed $14 $-1 #
coedge $-1 -1 $-1 $24 $24 $33 $36 forward $16 $-1 #
coedge $-1 -1 $-1 $25 $25 $17 $26 reversed $31 $-1 #
edge $-1 -1 $-1 $37 -3.141592653589793116 $37 3.141592653589793116 $25 $38 forward @7 unknown #
DXID-attrib $-1 -1 $-1 $-1 $19 @10 ASM ENTITY @36 3f6543fe-e40f-4d38-b919-83357c31b424 #
face $39 -1 $-1 $40 $41 $5 $-1 $42 reversed single #
loop $-1 -1 $-1 $43 $44 $19 #
cone-surface $-1 -1 $-1 1.569885498621539304e-17 -10.92500000000000071 0 1.255908398897235881e-16 -1 0 0 0 1.125000000000003553 1 I I -0.707106781186548794 -0.7071067811865464625 1.125000000000003553 forward I I I I #
loop $-1 -1 $-1 $-1 $25 $13 #
coedge $-1 -1 $-1 $32 $32 $45 $46 forward $20 $-1 #
coedge $-1 -1 $-1 $33 $33 $24 $36 reversed $22 $-1 #
coedge $-1 -1 $-1 $34 $34 $23 $35 forward $43 $-1 #
edge $-1 -1 $-1 $47 -3.141592653589793116 $47 3.141592653589793116 $23 $48 forward @7 unknown #
edge $-1 -1 $-1 $49 -3.141592653589793116 $49 3.141592653589793116 $33 $50 forward @7 unknown #
vertex $-1 -1 $-1 $26 $51 #
ellipse-curve $-1 -1 $-1 1.356381070809014889e-15 -10.79999999999999893 0 1.255908398897235881e-16 -1 0 -2.999999999999998224 -0 -0 1 I I #
DXID-attrib $-1 -1 $-1 $-1 $28 @10 ASM ENTITY @36 e6ed35a6-dc62-4e98-b1e2-d9bbdc71dd18 #
face $52 -1 $-1 $53 $54 $5 $-1 $55 forward single #
loop $-1 -1 $-1 $56 $57 $28 #
cone-surface $-1 -1 $-1 0 -3.050000000000000711 0 0 1 0 0 0 -1.000000000000003553 1 I I 0 1 1.000000000000003553 forward I I I I #
loop $-1 -1 $-1 $-1 $34 $19 #
coedge $-1 -1 $-1 $44 $44 $58 $59 forward $29 $-1 #
coedge $-1 -1 $-1 $45 $45 $32 $46 reversed $60 $-1 #
edge $61 -1 $-1 $62 0 $62 6.283185307179586232 $32 $63 forward @7 unknown #
vertex $-1 -1 $-1 $35 $64 #
ellipse-curve $-1 -1 $-1 3.139770997243078609e-17 -11.05000000000000071 0 1.255908398897235881e-16 -1 0 0 0 1.250000000000003553 1 I I #
vertex $-1 -1 $-1 $36 $65 #
ellipse-curve $-1 -1 $-1 1.387778780781445873e-15 -11.05000000000000071 0 -1.255908398897235881e-16 1 0 -2.75 -3.453748096967398796e-16 0 1 I I #
point $-1 -1 $-1 2.999999999999999112 -10.79999999999999893 3.673940397442057403e-16 #
DXID-attrib $-1 -1 $-1 $-1 $40 @10 ASM ENTITY @36 ce9b6caa-6ff5-4c22-a1e1-e5dc919c51e8 #
face $66 -1 $-1 $67 $68 $5 $-1 $69 forward single #
loop $-1 -1 $-1 $70 $71 $40 #
cone-surface $-1 -1 $-1 -1.569885498621536839e-17 10.92500000000000071 0 -1.255908398897233909e-16 1 0 0 0 2.225000000000000533 1 I I -0.707106781186548794 -0.7071067811865464625 2.225000000000000533 forward I I I I #
loop $-1 -1 $-1 $-1 $58 $28 #
coedge $-1 -1 $-1 $57 $57 $72 $73 forward $41 $-1 #
coedge $-1 -1 $-1 $58 $58 $44 $59 reversed $56 $-1 #
edge $-1 -1 $-1 $74 -3.141592653589793116 $74 3.141592653589793116 $58 $75 forward @7 unknown #
loop $-1 -1 $-1 $-1 $45 $76 #
DXID-attrib $-1 -1 $-1 $-1 $46 @10 ASM ENTITY @36 4ca65642-a5a1-4012-86d5-990b8e09c0f5 #
vertex $-1 -1 $-1 $46 $77 #
ellipse-curve $-1 -1 $-1 7.598245813328274886e-16 -6.049999999999997158 0 1.255908398897235881e-16 -1 0 2.999999999999996447 3.767725196691703698e-16 0 1 I I #
point $-1 -1 $-1 1.844785598658503622e-16 -11.05000000000000071 -1.250000000000003553 #
point $-1 -1 $-1 2.750000000000001776 -11.05000000000000071 -3.367778697655221998e-16 #
DXID-attrib $-1 -1 $-1 $-1 $53 @10 ASM ENTITY @36 999c160f-4b58-4982-866e-a4e2d4daa8b1 #
face $78 -1 $-1 $79 $80 $5 $-1 $81 reversed single #
loop $-1 -1 $-1 $82 $83 $53 #
plane-surface $-1 -1 $-1 2.999999999999999112 11.05000000000000071 0 -1.255908398897235881e-16 1 0 0 0 10 forward_v I I I I #
loop $-1 -1 $-1 $-1 $84 $40 #
coedge $-1 -1 $-1 $71 $71 $85 $86 forward $54 $-1 #
coedge $-1 -1 $-1 $72 $72 $57 $73 reversed $87 $-1 #
edge $88 -1 $-1 $89 1.570796326794896558 $89 7.85398163397448279 $72 $90 forward @7 unknown #
vertex $-1 -1 $-1 $59 $91 #
ellipse-curve $-1 -1 $-1 0 -10.80000000000000071 0 -1.255908398897235881e-16 1 0 0 0 1.000000000000003553 1 I I #
face $92 -1 $-1 $-1 $93 $5 $-1 $94 forward single #
point $-1 -1 $-1 2.999999999999997335 -6.049999999999997158 0 #
DXID-attrib $-1 -1 $-1 $-1 $67 @10 ASM ENTITY @36 b00074b1-e748-43ef-b32a-49f9b8f40214 #
face $95 -1 $-1 $96 $97 $5 $-1 $98 forward single #
loop $-1 -1 $-1 $99 $100 $67 #
cone-surface $-1 -1 $-1 0 8.549999999999998934 0 0 1 0 0 0 -2.100000000000000533 1 I I 0 1 2.100000000000000533 forward I I I I #
loop $-1 -1 $-1 $-1 $101 $53 #
coedge $-1 -1 $-1 $83 $83 $102 $103 reversed $68 $-1 #
coedge $-1 -1 $-1 $84 $84 $101 $104 forward $70 $-1 #
coedge $-1 -1 $-1 $85 $85 $71 $86 reversed $99 $-1 #
edge $-1 -1 $-1 $105 -3.141592653589793116 $105 3.141592653589793116 $85 $106 forward @7 unknown #
loop $-1 -1 $-1 $-1 $72 $107 #
DXID-attrib $-1 -1 $-1 $-1 $73 @10 ASM ENTITY @36 8eaf88cd-a593-4143-81e4-319bc4f331eb #
vertex $-1 -1 $-1 $73 $108 #
ellipse-curve $-1 -1 $-1 0 4.949999999999997513 0 0 1 0 1.000000000000000444 0 0 1 I I #
point $-1 -1 $-1 -1.224646799147357645e-16 -10.80000000000000071 -1.000000000000003553 #
DXID-attrib $-1 -1 $-1 $-1 $76 @10 ASM ENTITY @36 3987b7e2-c240-493f-ad89-4eb8244a5a7f #
loop $-1 -1 $-1 $60 $109 $76 #
plane-surface $-1 -1 $-1 2.999999999999997335 -6.049999999999997158 0 -1.255908398897235881e-16 1 0 0 0 10 forward_v I I I I #
DXID-attrib $-1 -1 $-1 $-1 $79 @10 ASM ENTITY @36 7f128f42-2919-4810-bfe2-e4988535d3f0 #
face $110 -1 $-1 $107 $111 $5 $-1 $112 forward single #
loop $-1 -1 $-1 $113 $102 $79 #
cone-surface $-1 -1 $-1 -1.372079925795230184e-15 10.92500000000000071 0 1.255908398897235881e-16 -1 0 -2.875000000000000888 -1.726874048483700384e-16 0 1 I I 0.7071067811865471286 0.7071067811865470176 2.875000000000000888 forward I I I I #
loop $-1 -1 $-1 $-1 $85 $67 #
coedge $-1 -1 $-1 $100 $100 $114 $115 reversed $80 $-1 #
coedge $-1 -1 $-1 $101 $101 $84 $104 reversed $82 $-1 #
coedge $-1 -1 $-1 $102 $102 $83 $103 forward $97 $-1 #
edge $-1 -1 $-1 $116 -3.141592653589793116 $116 3.141592653589793116 $83 $117 forward @7 unknown #
edge $-1 -1 $-1 $118 -3.141592653589793116 $118 3.141592653589793116 $101 $119 forward @7 unknown #
vertex $-1 -1 $-1 $86 $120 #
ellipse-curve $-1 -1 $-1 0 10.80000000000000071 0 1.255908398897235881e-16 -1 0 0 0 2.100000000000000533 1 I I #
face $121 -1 $-1 $122 $123 $5 $-1 $124 reversed single #
point $-1 -1 $-1 0 4.949999999999997513 -1.000000000000000444 #
coedge $-1 -1 $-1 $109 $109 $125 $126 forward $93 $-1 #
DXID-attrib $-1 -1 $-1 $-1 $96 @10 ASM ENTITY @36 8f2ded28-449a-493d-8f22-934b3ed67e82 #
loop $-1 -1 $-1 $127 $128 $96 #
cone-surface $-1 -1 $-1 -1.073801681057136829e-15 8.550000000000000711 0 1.255908398897235881e-16 -1 0 3.000000000000000444 0 0 1 I I 0 1 3.000000000000000444 forward I I I I #
loop $-1 -1 $-1 $-1 $129 $79 #
coedge $-1 -1 $-1 $114 $114 $100 $115 forward $123 $-1 #
edge $130 -1 $-1 $131 1.570796326794896558 $131 7.85398163397448279 $100 $132 forward @7 unknown #
vertex $-1 -1 $-1 $103 $133 #
ellipse-curve $-1 -1 $-1 -1.387778780781445676e-15 11.05000000000000071 0 1.255908398897235881e-16 -1 0 -2.750000000000001332 -3.453748096967400768e-16 0 1 I I #
vertex $-1 -1 $-1 $104 $134 #
ellipse-curve $-1 -1 $-1 -3.139770997243073679e-17 11.05000000000000071 0 -1.255908398897235881e-16 1 0 0 0 2.350000000000000533 1 I I #
point $-1 -1 $-1 2.57175827820944245e-16 10.80000000000000071 -2.100000000000000533 #
DXID-attrib $-1 -1 $-1 $-1 $107 @10 ASM ENTITY @36 e7b8416d-2f31-43e5-a766-056496882f85 #
face $135 -1 $-1 $136 $137 $5 $-1 $138 forward single #
loop $-1 -1 $-1 $87 $114 $107 #
cone-surface $-1 -1 $-1 0 5.499999999999998224 0 0 1 0 0 0 -1.550000000000000488 1 I I 0.7071067811865476838 0.7071067811865472397 1.550000000000000488 forward I I I I #
coedge $-1 -1 $-1 $125 $125 $109 $126 reversed $139 $-1 #
edge $140 -1 $-1 $141 0 $141 6.283185307179586232 $109 $142 forward @7 unknown #
loop $-1 -1 $-1 $-1 $143 $96 #
coedge $-1 -1 $-1 $128 $128 $144 $145 reversed $111 $-1 #
coedge $-1 -1 $-1 $129 $129 $143 $146 forward $113 $-1 #
DXID-attrib $-1 -1 $-1 $-1 $115 @10 ASM ENTITY @36 847c854f-8b26-43a7-807f-8e4776c525d9 #
vertex $-1 -1 $-1 $115 $147 #
ellipse-curve $-1 -1 $-1 0 6.049999999999997158 0 0 1 0 2.100000000000000533 0 0 1 I I #
point $-1 -1 $-1 2.75 11.05000000000000071 3.367778697655222984e-16 #
point $-1 -1 $-1 -3.191897077720587688e-16 11.05000000000000071 -2.350000000000000533 #
DXID-attrib $-1 -1 $-1 $-1 $122 @10 ASM ENTITY @36 56069cca-7ad6-453b-9f9b-3548dede3379 #
face $148 -1 $-1 $149 $150 $5 $-1 $151 forward single #
loop $-1 -1 $-1 $152 $144 $122 #
plane-surface $-1 -1 $-1 3.500000000000000444 6.049999999999997158 0 -1.255908398897235881e-16 1 0 0 0 10 forward_v I I I I #
loop $-1 -1 $-1 $-1 $125 $153 #
DXID-attrib $-1 -1 $-1 $-1 $126 @10 ASM ENTITY @36 30f8d125-f7b8-40ed-a7bb-1893d5e231bc #
vertex $-1 -1 $-1 $126 $154 #
ellipse-curve $-1 -1 $-1 7.598245813328274886e-16 -6.049999999999997158 0 1.255908398897235881e-16 -1 0 1.475000000000000533 1.852464888373423528e-16 0 1 I I #
coedge $-1 -1 $-1 $143 $143 $129 $146 reversed $127 $-1 #
coedge $-1 -1 $-1 $144 $144 $128 $145 forward $137 $-1 #
edge $155 -1 $-1 $156 0 $156 6.283185307179586232 $144 $157 forward @7 unknown #
edge $-1 -1 $-1 $158 -3.141592653589793116 $158 3.141592653589793116 $143 $159 forward @7 unknown #
point $-1 -1 $-1 0 6.049999999999997158 -2.100000000000000533 #
DXID-attrib $-1 -1 $-1 $-1 $136 @10 ASM ENTITY @36 abf09798-ab00-461d-9369-339e49c716f8 #
face $160 -1 $-1 $153 $161 $5 $-1 $162 forward single #
loop $-1 -1 $-1 $163 $164 $136 #
cone-surface $-1 -1 $-1 -1.318703818842093016e-16 1.049999999999997602 0 1.255908398897235881e-16 -1 0 3.500000000000000888 0 0 1 I I 0 1 3.500000000000000888 forward I I I I #
loop $-1 -1 $-1 $-1 $165 $122 #
face $166 -1 $-1 $76 $167 $5 $-1 $168 forward single #
point $-1 -1 $-1 1.475000000000001421 -6.049999999999997158 0 #
DXID-attrib $-1 -1 $-1 $-1 $145 @10 ASM ENTITY @36 89bdb5e2-775e-46b3-b037-0d0e1dc52128 #
vertex $-1 -1 $-1 $145 $169 #
ellipse-curve $-1 -1 $-1 -7.598245813328277844e-16 6.049999999999999822 0 1.255908398897235881e-16 -1 0 3.000000000000000444 3.767725196691708629e-16 0 1 I I #
vertex $-1 -1 $-1 $146 $170 #
ellipse-curve $-1 -1 $-1 -1.356381070809014889e-15 10.80000000000000071 0 -1.255908398897235881e-16 1 0 -3.000000000000000444 -0 -0 1 I I #
DXID-attrib $-1 -1 $-1 $-1 $149 @10 ASM ENTITY @36 294319a0-b361-4e1e-a6c0-ec41c85a85a8 #
loop $-1 -1 $-1 $171 $172 $149 #
plane-surface $-1 -1 $-1 1.475000000000000533 -3.949999999999997513 0 1.255908398897235881e-16 -1 0 0 0 -10 forward_v I I I I #
loop $-1 -1 $-1 $-1 $173 $136 #
coedge $-1 -1 $-1 $164 $164 $165 $174 forward $150 $-1 #
coedge $-1 -1 $-1 $165 $165 $164 $174 reversed $152 $-1 #
DXID-attrib $-1 -1 $-1 $-1 $153 @10 ASM ENTITY @36 e3f7475b-7820-433c-a358-51ed93ef5e1b #
loop $-1 -1 $-1 $139 $175 $153 #
cone-surface $-1 -1 $-1 6.279541994486176939e-16 -4.999999999999998224 0 1.255908398897235881e-16 -1 0 1.475000000000000089 0 0 1 I I 0 1 1.475000000000000089 forward I I I I #
point $-1 -1 $-1 2.999999999999999112 6.050000000000000711 0 #
point $-1 -1 $-1 2.999999999999999112 10.80000000000000071 -3.673940397442060361e-16 #
loop $-1 -1 $-1 $-1 $176 $149 #
coedge $-1 -1 $-1 $172 $172 $173 $177 forward $161 $-1 #
coedge $-1 -1 $-1 $173 $173 $172 $177 reversed $163 $-1 #
edge $178 -1 $-1 $179 0 $179 6.283185307179586232 $164 $180 forward @7 unknown #
coedge $-1 -1 $-1 $175 $175 $176 $181 forward $167 $-1 #
coedge $-1 -1 $-1 $176 $176 $175 $181 reversed $171 $-1 #
edge $182 -1 $-1 $183 0 $183 6.283185307179586232 $172 $184 forward @7 unknown #
DXID-attrib $-1 -1 $-1 $-1 $174 @10 ASM ENTITY @36 ac5ce2e1-648e-4b78-ab51-ea8538750469 #
vertex $-1 -1 $-1 $174 $185 #
ellipse-curve $-1 -1 $-1 -7.598245813328271927e-16 6.049999999999997158 0 1.255908398897235881e-16 -1 0 3.500000000000000888 4.395679396140326816e-16 0 1 I I #
edge $186 -1 $-1 $187 0 $187 6.283185307179586232 $175 $188 forward @7 unknown #
DXID-attrib $-1 -1 $-1 $-1 $177 @10 ASM ENTITY @36 e13eecd2-863f-4aaa-8723-866eb16f3198 #
vertex $-1 -1 $-1 $177 $189 #
ellipse-curve $-1 -1 $-1 4.96083817564408491e-16 -3.950000000000002398 0 1.255908398897235881e-16 -1 0 3.500000000000000888 4.395679396140326816e-16 0 1 I I #
point $-1 -1 $-1 3.500000000000000444 6.049999999999997158 0 #
DXID-attrib $-1 -1 $-1 $-1 $181 @10 ASM ENTITY @36 254323b1-5cfb-499f-b315-5b9e132caa11 #
vertex $-1 -1 $-1 $181 $190 #
ellipse-curve $-1 -1 $-1 4.960838175644079979e-16 -3.949999999999997957 0 1.255908398897235881e-16 -1 0 1.474999999999999867 1.852464888373422789e-16 0 1 I I #
point $-1 -1 $-1 3.500000000000000888 -3.950000000000001954 0 #
point $-1 -1 $-1 1.475000000000000533 -3.949999999999997513 0 #
End-of-ACIS-data 