                                                                        S      1
,,,10HHE1.75-HBR,22HAutodesk Inventor 2018,7Hunknown,32,38,7,99,15,,1., G      1
2,2HMM,1,0.08,15H20171130.094447,0.01,10000.,3HJGE,,11,0,15H20170711.074G      2
113;                                                                    G      3
     186       1                                                00000000D      1
     186            -195       1       0                               0D      2
     514       2                                                00010000D      3
     514                       2       1                               0D      4
     510       4                                                00010000D      5
     510            -195       1       1                               0D      6
     510       5                                                00010000D      7
     510            -195       1       1                               0D      8
     510       6                                                00010000D      9
     510            -195       1       1                               0D     10
     510       7                                                00010000D     11
     510            -195       1       1                               0D     12
     510       8                                                00010000D     13
     510            -195       1       1                               0D     14
     510       9                                                00010000D     15
     510            -195       1       1                               0D     16
     510      10                                                00010000D     17
     510            -195       1       1                               0D     18
     510      11                                                00010000D     19
     510            -195       1       1                               0D     20
     510      12                                                00010000D     21
     510            -195       1       1                               0D     22
     510      13                                                00010000D     23
     510            -195       1       1                               0D     24
     510      14                                                00010000D     25
     510            -195       1       1                               0D     26
     510      15                                                00010000D     27
     510            -195       1       1                               0D     28
     510      16                                                00010000D     29
     510            -195       1       1                               0D     30
     510      17                                                00010000D     31
     510            -195       1       1                               0D     32
     510      18                                                00010000D     33
     510            -195       1       1                               0D     34
     510      19                                                00010000D     35
     510            -195       1       1                               0D     36
     508      20                                                00010000D     37
     508                       2       1                               0D     38
     508      22                                                00010000D     39
     508                       1       1                               0D     40
     508      23                                                00010000D     41
     508                       1       1                               0D     42
     508      24                                                00010000D     43
     508                       2       1                               0D     44
     508      26                                                00010000D     45
     508                       2       1                               0D     46
     508      28                                                00010000D     47
     508                       2       1                               0D     48
     508      30                                                00010000D     49
     508                       2       1                               0D     50
     508      32                                                00010000D     51
     508                       1       1                               0D     52
     508      33                                                00010000D     53
     508                       1       1                               0D     54
     508      34                                                00010000D     55
     508                       2       1                               0D     56
     508      36                                                00010000D     57
     508                       2       1                               0D     58
     508      38                                                00010000D     59
     508                       2       1                               0D     60
     508      40                                                00010000D     61
     508                       2       1                               0D     62
     508      42                                                00010000D     63
     508                       1       1                               0D     64
     508      43                                                00010000D     65
     508                       1       1                               0D     66
     508      44                                                00010000D     67
     508                       2       1                               0D     68
     508      46                                                00010000D     69
     508                       1       1                               0D     70
     508      47                                                00010000D     71
     508                       1       1                               0D     72
     508      48                                                00010000D     73
     508                       2       1                               0D     74
     508      50                                                00010000D     75
     508                       1       1                               0D     76
     508      51                                                00010000D     77
     508                       1       1                               0D     78
     126      52                                                00010000D     79
     126       0              10       0                               0D     80
     126      62                                                00010000D     81
     126       0               3       0                               0D     82
     126      65                                                00010000D     83
     126       0               5       0                               0D     84
     126      70                                                00010000D     85
     126       0               5       0                               0D     86
     126      75                                                00010000D     87
     126       0              10       0                               0D     88
     126      85                                                00010000D     89
     126       0               3       0                               0D     90
     126      88                                                00010000D     91
     126       0               7       0                               0D     92
     126      95                                                00010000D     93
     126       0               5       0                               0D     94
     126     100                                                00010000D     95
     126       0               4       0                               0D     96
     126     104                                                00010000D     97
     126       0               5       0                               0D     98
     126     109                                                00010000D     99
     126       0               5       0                               0D    100
     126     114                                                00010000D    101
     126       0               3       0                               0D    102
     126     117                                                00010000D    103
     126       0               7       0                               0D    104
     126     124                                                00010000D    105
     126       0               7       0                               0D    106
     126     131                                                00010000D    107
     126       0              10       0                               0D    108
     126     141                                                00010000D    109
     126       0               4       0                               0D    110
     126     145                                                00010000D    111
     126       0               5       0                               0D    112
     126     150                                                00010000D    113
     126       0               5       0                               0D    114
     126     155                                                00010000D    115
     126       0              10       0                               0D    116
     126     165                                                00010000D    117
     126       0               7       0                               0D    118
     126     172                                                00010000D    119
     126       0               7       0                               0D    120
     126     179                                                00010000D    121
     126       0               3       0                               0D    122
     126     182                                                00010000D    123
     126       0               5       0                               0D    124
     126     187                                                00010000D    125
     126       0               5       0                               0D    126
     126     192                                                00010000D    127
     126       0               3       0                               0D    128
     126     195                                                00010000D    129
     126       0               5       0                               0D    130
     126     200                                                00010000D    131
     126       0               7       0                               0D    132
     126     207                                                00010000D    133
     126       0               2       0                               0D    134
     126     209                                                00010000D    135
     126       0               3       0                               0D    136
     126     212                                                00010000D    137
     126       0               5       0                               0D    138
     126     217                                                00010000D    139
     126       0               7       0                               0D    140
     126     224                                                00010000D    141
     126       0               5       0                               0D    142
     126     229                                                00010000D    143
     126       0               7       0                               0D    144
     126     236                                                00010000D    145
     126       0               3       0                               0D    146
     126     239                                                00010000D    147
     126       0               5       0                               0D    148
     126     244                                                00010000D    149
     126       0               8       0                               0D    150
     126     252                                                00010000D    151
     126       0               5       0                               0D    152
     126     257                                                00010000D    153
     126       0               8       0                               0D    154
     126     265                                                00010000D    155
     126       0               3       0                               0D    156
     128     268                                                00010000D    157
     128       0    -195      15       0                               0D    158
     128     283                                                00010000D    159
     128       0    -195       3       0                               0D    160
     128     286                                                00010000D    161
     128       0    -195      15       0                               0D    162
     128     301                                                00010000D    163
     128       0    -195      18       0                               0D    164
     128     319                                                00010000D    165
     128       0    -195      13       0                               0D    166
     128     332                                                00010000D    167
     128       0    -195      17       0                               0D    168
     128     349                                                00010000D    169
     128       0    -195       4       0                               0D    170
     128     353                                                00010000D    171
     128       0    -195      13       0                               0D    172
     128     366                                                00010000D    173
     128       0    -195      15       0                               0D    174
     128     381                                                00010000D    175
     128       0    -195      14       0                               0D    176
     128     395                                                00010000D    177
     128       0    -195      13       0                               0D    178
     128     408                                                00010000D    179
     128       0    -195       3       0                               0D    180
     128     411                                                00010000D    181
     128       0    -195      15       0                               0D    182
     128     426                                                00010000D    183
     128       0    -195       3       0                               0D    184
     128     429                                                00010000D    185
     128       0    -195      16       0                               0D    186
     128     445                                                00010000D    187
     128       0    -195       4       0                               0D    188
     502     449                                                00010000D    189
     502                       9       1                               0D    190
     504     458                                                00010001D    191
     504                      11       1                               0D    192
     406     469                                                00000000D    193
     406                       1      15                               0D    194
     314     470                                                00000200D    195
     314                       1       0                               0D    196
186,3,1,0,0,1,193;                                                     1P      1
514,16,5,1,7,1,9,1,11,1,13,1,15,1,17,1,19,1,21,1,23,1,25,1,27,1,       3P      2
29,1,31,1,33,1,35,1;                                                   3P      3
510,157,1,1,37;                                                        5P      4
510,159,2,1,39,41;                                                     7P      5
510,161,1,1,43;                                                        9P      6
510,163,1,1,45;                                                       11P      7
510,165,1,1,47;                                                       13P      8
510,167,1,1,49;                                                       15P      9
510,169,2,1,51,53;                                                    17P     10
510,171,1,1,55;                                                       19P     11
510,173,1,1,57;                                                       21P     12
510,175,1,1,59;                                                       23P     13
510,177,1,1,61;                                                       25P     14
510,179,2,1,63,65;                                                    27P     15
510,181,1,1,67;                                                       29P     16
510,183,2,1,69,71;                                                    31P     17
510,185,1,1,73;                                                       33P     18
510,187,2,1,75,77;                                                    35P     19
508,5,0,191,1,1,0,0,191,2,1,0,0,191,3,1,0,0,191,4,1,0,0,191,2,0,      37P     20
0;                                                                    37P     21
508,1,0,191,1,0,0;                                                    39P     22
508,1,0,191,5,0,0;                                                    41P     23
508,6,0,191,3,0,0,0,191,4,0,0,0,191,6,1,0,0,191,7,1,0,0,191,8,1,      43P     24
0,0,191,6,0,0;                                                        43P     25
508,5,0,191,5,1,0,0,191,9,1,0,0,191,10,1,0,0,191,11,1,0,0,191,9,      45P     26
0,0;                                                                  45P     27
508,6,0,191,10,0,0,0,191,11,0,0,0,191,12,1,0,0,191,13,1,0,0,191,      47P     28
14,1,0,0,191,12,0,0;                                                  47P     29
508,5,0,191,15,1,0,0,191,16,1,0,0,191,17,1,0,0,191,18,1,0,0,191,      49P     30
16,0,0;                                                               49P     31
508,1,0,191,19,0,0;                                                   51P     32
508,1,0,191,15,0,0;                                                   53P     33
508,6,0,191,20,0,0,0,191,21,0,0,0,191,22,1,0,0,191,17,0,0,0,191,      55P     34
18,0,0,0,191,22,0,0;                                                  55P     35
508,5,0,191,23,1,0,0,191,24,1,0,0,191,25,1,0,0,191,19,1,0,0,191,      57P     36
25,0,0;                                                               57P     37
508,6,0,191,26,0,0,0,191,27,0,0,0,191,28,1,0,0,191,23,0,0,0,191,      59P     38
24,0,0,0,191,28,0,0;                                                  59P     39
508,6,0,191,14,0,0,0,191,13,0,0,0,191,29,1,0,0,191,21,1,0,0,191,      61P     40
20,1,0,0,191,29,0,0;                                                  61P     41
508,2,0,191,30,0,0,0,191,31,0,0;                                      63P     42
508,2,0,191,26,1,0,0,191,27,1,0;                                      65P     43
508,6,0,191,32,0,0,0,191,33,0,0,0,191,34,1,0,0,191,31,1,0,0,191,      67P     44
30,1,0,0,191,34,0,0;                                                  67P     45
508,2,0,191,32,1,0,0,191,33,1,0;                                      69P     46
508,2,0,191,35,0,0,0,191,36,0,0;                                      71P     47
508,6,0,191,37,0,0,0,191,38,0,0,0,191,39,1,0,0,191,36,1,0,0,191,      73P     48
35,1,0,0,191,39,0,0;                                                  73P     49
508,2,0,191,8,0,0,0,191,7,0,0;                                        75P     50
508,2,0,191,37,1,0,0,191,38,1,0;                                      77P     51
126,8,2,0,1,0,0,-3.14159265358979,-3.14159265358979,                  79P     52
-3.14159265358979,-1.5707963267949,-1.5707963267949,0.,0.,            79P     53
1.5707963267949,1.5707963267949,3.14159265358979,                     79P     54
3.14159265358979,3.14159265358979,1.,0.707106781186548,1.,            79P     55
0.707106781186548,1.,0.707106781186548,1.,0.707106781186548,1.,       79P     56
2.75,-11.05,-3.36777869765522D-16,2.75,-11.05,-2.75,                  79P     57
1.21938984589868D-15,-11.05,-2.75,-2.75,-11.05,-2.75,-2.75,           79P     58
-11.05,0.,-2.75,-11.05,2.75,1.21938984589868D-15,-11.05,2.75,         79P     59
2.75,-11.05,2.75,2.75,-11.05,3.36777869765522D-16,                    79P     60
-3.14159265358979,3.14159265358979,0.,0.,0.;                          79P     61
126,1,1,0,0,1,0,-0.0614875461901349,-0.0614875461901349,              81P     62
0.0614875461901342,0.0614875461901342,1.,1.,2.75,-11.05,0.,3.,        81P     63
-10.8,0.,-0.0614875461901349,0.0614875461901342,0.,0.,0.;             81P     64
126,4,2,0,0,0,0,-3.14159265358979,-3.14159265358979,                  83P     65
-3.14159265358979,-1.5707963267949,-1.5707963267949,0.,0.,0.,1.,      83P     66
0.707106781186548,1.,0.707106781186547,1.,3.,-10.8,                   83P     67
3.67394039744206D-16,3.,-10.8,3.,1.17268405093691D-15,-10.8,3.,       83P     68
-3.,-10.8,3.,-3.,-10.8,0.,-3.14159265358979,0.,0.,0.,0.;              83P     69
126,4,2,0,0,0,0,0.,0.,0.,1.5707963267949,1.5707963267949,             85P     70
3.14159265358979,3.14159265358979,3.14159265358979,1.,                85P     71
0.707106781186547,1.,0.707106781186548,1.,-3.,-10.8,0.,-3.,           85P     72
-10.8,-3.,1.17268405093691D-15,-10.8,-3.,3.,-10.8,-3.,3.,-10.8,       85P     73
-3.67394039744206D-16,0.,3.14159265358979,0.,0.,0.;                   85P     74
126,8,2,0,1,0,0,-3.14159265358979,-3.14159265358979,                  87P     75
-3.14159265358979,-1.5707963267949,-1.5707963267949,0.,0.,            87P     76
1.5707963267949,1.5707963267949,3.14159265358979,                     87P     77
3.14159265358979,3.14159265358979,1.,0.707106781186547,1.,            87P     78
0.707106781186548,1.,0.707106781186548,1.,0.707106781186547,1.,       87P     79
1.8447855986585D-16,-11.05,-1.25,1.25,-11.05,-1.25,1.25,-11.05,       87P     80
7.65404249467098D-17,1.25,-11.05,1.25,3.13977099724308D-17,           87P     81
-11.05,1.25,-1.25,-11.05,1.25,-1.25,-11.05,7.65404249467098D-17,      87P     82
-1.25,-11.05,-1.25,-1.21683139920989D-16,-11.05,-1.25,                87P     83
-3.14159265358979,3.14159265358979,0.,0.,0.;                          87P     84
126,1,1,0,0,1,0,-0.750000000000001,-0.750000000000001,                89P     85
0.833333333333334,0.833333333333334,1.,1.,-3.,-10.8,0.,-3.,           89P     86
-6.05,0.,-0.750000000000001,0.833333333333334,0.,0.,0.;               89P     87
126,4,2,0,0,0,0,3.14159265358979,3.14159265358979,                    91P     88
3.14159265358979,4.71238898038469,4.71238898038469,                   91P     89
6.28318530717959,6.28318530717959,6.28318530717959,1.,                91P     90
0.707106781186548,1.,0.707106781186547,1.,-3.,-6.05,                  91P     91
3.67394039744206D-16,-3.,-6.05,-3.,2.08733521716519D-16,-6.05,        91P     92
-3.,3.,-6.05,-3.,3.,-6.05,-7.34788079488411D-16,                      91P     93
3.14159265358979,6.28318530717959,0.,0.,0.;                           91P     94
126,4,2,0,0,0,0,0.,0.,0.,1.5707963267949,1.5707963267949,             93P     95
3.14159265358979,3.14159265358979,3.14159265358979,1.,                93P     96
0.707106781186548,1.,0.707106781186548,1.,3.,-6.05,0.,3.,-6.05,       93P     97
3.,9.4352160120493D-16,-6.05,3.,-3.,-6.05,3.,-3.,-6.05,               93P     98
3.67394039744206D-16,0.,3.14159265358979,0.,0.,0.;                    93P     99
126,1,1,0,0,1,0,-0.157134840263676,-0.157134840263676,                95P    100
0.157134840263676,0.157134840263676,1.,1.,3.13977099724308D-17,       95P    101
-11.05,-1.25,3.85185988877447D-33,-10.8,-1.,-0.157134840263676,       95P    102
0.157134840263676,0.,0.,0.;                                           95P    103
126,4,2,0,0,0,0,-3.14159265358979,-3.14159265358979,                  97P    104
-3.14159265358979,-1.5707963267949,-1.5707963267949,0.,0.,0.,1.,      97P    105
0.707106781186548,1.,0.707106781186548,1.,-1.22464679914736D-16,      97P    106
-10.8,-1.,-1.,-10.8,-1.,-1.,-10.8,6.12323399573679D-17,-1.,           97P    107
-10.8,1.,0.,-10.8,1.,-3.14159265358979,0.,0.,0.,0.;                   97P    108
126,4,2,0,0,0,0,0.,0.,0.,1.5707963267949,1.5707963267949,             99P    109
3.14159265358979,3.14159265358979,3.14159265358979,1.,                99P    110
0.707106781186548,1.,0.707106781186548,1.,0.,-10.8,1.,1.,-10.8,       99P    111
1.,1.,-10.8,6.12323399573679D-17,1.,-10.8,-1.,                        99P    112
1.22464679914736D-16,-10.8,-1.,0.,3.14159265358979,0.,0.,0.;          99P    113
126,1,1,0,0,1,0,-7.74999999999997,-7.74999999999997,                 101P    114
7.99999999999997,7.99999999999997,1.,1.,0.,-10.8,1.,0.,4.95,1.,      101P    115
-7.74999999999997,7.99999999999997,0.,0.,0.;                         101P    116
126,4,2,0,0,0,0,4.71238898038469,4.71238898038469,                   103P    117
4.71238898038469,6.28318530717959,6.28318530717959,                  103P    118
7.85398163397448,7.85398163397448,7.85398163397448,1.,               103P    119
0.707106781186548,1.,0.707106781186548,1.,-1.83697019872103D-16,     103P    120
4.95,1.,1.,4.95,1.,1.,4.95,2.44929359829471D-16,1.,4.95,-1.,         103P    121
3.06161699786838D-16,4.95,-1.,4.71238898038469,7.85398163397448,     103P    122
0.,0.,0.;                                                            103P    123
126,4,2,0,0,0,0,1.5707963267949,1.5707963267949,1.5707963267949,     105P    124
3.14159265358979,3.14159265358979,4.71238898038469,                  105P    125
4.71238898038469,4.71238898038469,1.,0.707106781186548,1.,           105P    126
0.707106781186548,1.,6.12323399573677D-17,4.95,-1.,-1.,4.95,-1.,     105P    127
-1.,4.95,-1.22464679914735D-16,-1.,4.95,1.,                          105P    128
-1.83697019872103D-16,4.95,1.,1.5707963267949,4.71238898038469,      105P    129
0.,0.,0.;                                                            105P    130
126,8,2,0,1,0,0,-3.14159265358979,-3.14159265358979,                 107P    131
-3.14159265358979,-1.5707963267949,-1.5707963267949,0.,0.,           107P    132
1.5707963267949,1.5707963267949,3.14159265358979,                    107P    133
3.14159265358979,3.14159265358979,1.,0.707106781186548,1.,           107P    134
0.707106781186548,1.,0.707106781186548,1.,0.707106781186548,1.,      107P    135
-3.19189707772059D-16,11.05,-2.35,-2.35,11.05,-2.35,-2.35,11.05,     107P    136
1.43895998899814D-16,-2.35,11.05,2.35,-3.13977099724307D-17,         107P    137
11.05,2.35,2.35,11.05,2.35,2.35,11.05,1.43895998899814D-16,2.35,     107P    138
11.05,-2.35,2.56394287827197D-16,11.05,-2.35,-3.14159265358979,      107P    139
3.14159265358979,0.,0.,0.;                                           107P    140
126,1,1,0,0,1,0,-0.0794502001333199,-0.0794502001333199,             109P    141
0.0794502001333197,0.0794502001333197,1.,1.,                         109P    142
-3.13977099724307D-17,11.05,-2.35,3.85185988877447D-33,10.8,         109P    143
-2.1,-0.0794502001333199,0.0794502001333197,0.,0.,0.;                109P    144
126,4,2,0,0,0,0,-3.14159265358979,-3.14159265358979,                 111P    145
-3.14159265358979,-1.5707963267949,-1.5707963267949,0.,0.,0.,1.,     111P    146
0.707106781186548,1.,0.707106781186548,1.,2.57175827820944D-16,      111P    147
10.8,-2.1,2.1,10.8,-2.1,2.1,10.8,1.28587913910472D-16,2.1,10.8,      111P    148
2.1,0.,10.8,2.1,-3.14159265358979,0.,0.,0.,0.;                       111P    149
126,4,2,0,0,0,0,0.,0.,0.,1.5707963267949,1.5707963267949,            113P    150
3.14159265358979,3.14159265358979,3.14159265358979,1.,               113P    151
0.707106781186548,1.,0.707106781186548,1.,0.,10.8,2.1,-2.1,10.8,     113P    152
2.1,-2.1,10.8,1.28587913910472D-16,-2.1,10.8,-2.1,                   113P    153
-2.57175827820944D-16,10.8,-2.1,0.,3.14159265358979,0.,0.,0.;        113P    154
126,8,2,0,1,0,0,-3.14159265358979,-3.14159265358979,                 115P    155
-3.14159265358979,-1.5707963267949,-1.5707963267949,0.,0.,           115P    156
1.5707963267949,1.5707963267949,3.14159265358979,                    115P    157
3.14159265358979,3.14159265358979,1.,0.707106781186548,1.,           115P    158
0.707106781186548,1.,0.707106781186548,1.,0.707106781186548,1.,      115P    159
2.75,11.05,3.36777869765522D-16,2.75,11.05,2.75,                     115P    160
-1.55616771566421D-15,11.05,2.75,-2.75,11.05,2.75,-2.75,11.05,       115P    161
0.,-2.75,11.05,-2.75,-1.55616771566421D-15,11.05,-2.75,2.75,         115P    162
11.05,-2.75,2.75,11.05,-3.36777869765522D-16,-3.14159265358979,      115P    163
3.14159265358979,0.,0.,0.;                                           115P    164
126,4,2,0,0,0,0,1.5707963267949,1.5707963267949,1.5707963267949,     117P    165
3.14159265358979,3.14159265358979,4.71238898038469,                  117P    166
4.71238898038469,4.71238898038469,1.,0.707106781186547,1.,           117P    167
0.707106781186548,1.,1.28587913910472D-16,6.05,-2.1,-2.1,6.05,       117P    168
-2.1,-2.1,6.05,-2.57175827820944D-16,-2.1,6.05,2.1,                  117P    169
-3.85763741731416D-16,6.05,2.1,1.5707963267949,4.71238898038469,     117P    170
0.,0.,0.;                                                            117P    171
126,4,2,0,0,0,0,4.71238898038469,4.71238898038469,                   119P    172
4.71238898038469,6.28318530717959,6.28318530717959,                  119P    173
7.85398163397448,7.85398163397448,7.85398163397448,1.,               119P    174
0.707106781186548,1.,0.707106781186548,1.,-3.85763741731416D-16,     119P    175
6.05,2.1,2.1,6.05,2.1,2.1,6.05,5.14351655641888D-16,2.1,6.05,        119P    176
-2.1,6.42939569552361D-16,6.05,-2.1,4.71238898038469,                119P    177
7.85398163397448,0.,0.,0.;                                           119P    178
126,1,1,0,0,1,0,-1.19047619047619,-1.19047619047619,                 121P    179
1.07142857142857,1.07142857142857,1.,1.,0.,6.05,2.1,0.,10.8,2.1,     121P    180
-1.19047619047619,1.07142857142857,0.,0.,0.;                         121P    181
126,4,2,0,0,0,0,-3.14159265358979,-3.14159265358979,                 123P    182
-3.14159265358979,-1.5707963267949,-1.5707963267949,0.,0.,0.,1.,     123P    183
0.707106781186548,1.,0.707106781186548,1.,3.,10.8,                   123P    184
-3.67394039744206D-16,3.,10.8,-3.,-1.54007809068112D-15,10.8,        123P    185
-3.,-3.,10.8,-3.,-3.,10.8,0.,-3.14159265358979,0.,0.,0.,0.;          123P    186
126,4,2,0,0,0,0,0.,0.,0.,1.5707963267949,1.5707963267949,            125P    187
3.14159265358979,3.14159265358979,3.14159265358979,1.,               125P    188
0.707106781186548,1.,0.707106781186548,1.,-3.,10.8,0.,-3.,10.8,      125P    189
3.,-1.54007809068112D-15,10.8,3.,3.,10.8,3.,3.,10.8,                 125P    190
3.67394039744206D-16,0.,3.14159265358979,0.,0.,0.;                   125P    191
126,1,1,0,0,1,0,-0.0614875461901344,-0.0614875461901344,             127P    192
0.0614875461901344,0.0614875461901344,1.,1.,3.,10.8,0.,2.75,         127P    193
11.05,0.,-0.0614875461901344,0.0614875461901344,0.,0.,0.;            127P    194
126,4,2,0,0,0,0,0.,0.,0.,1.5707963267949,1.5707963267949,            129P    195
3.14159265358979,3.14159265358979,3.14159265358979,1.,               129P    196
0.707106781186548,1.,0.707106781186548,1.,3.,6.05,0.,3.,6.05,3.,     129P    197
-5.76127561460725D-16,6.05,3.,-3.,6.05,3.,-3.,6.05,                  129P    198
3.67394039744206D-16,0.,3.14159265358979,0.,0.,0.;                   129P    199
126,4,2,0,0,0,0,3.14159265358979,3.14159265358979,                   131P    200
3.14159265358979,4.71238898038469,4.71238898038469,                  131P    201
6.28318530717959,6.28318530717959,6.28318530717959,1.,               131P    202
0.707106781186548,1.,0.707106781186547,1.,-3.,6.05,                  131P    203
3.67394039744206D-16,-3.,6.05,-3.,-1.31091564094914D-15,6.05,        131P    204
-3.,3.,6.05,-3.,3.,6.05,-7.34788079488412D-16,3.14159265358979,      131P    205
6.28318530717959,0.,0.,0.;                                           131P    206
126,1,1,0,0,1,0,-0.833333333333333,-0.833333333333333,0.75,0.75,     133P    207
1.,1.,-3.,6.05,0.,-3.,10.8,0.,-0.833333333333333,0.75,0.,0.,0.;      133P    208
126,1,1,0,0,1,0,-0.501817715680776,-0.501817715680776,               135P    209
0.501817715680776,0.501817715680776,1.,1.,0.,4.95,1.,0.,6.05,        135P    210
2.1,-0.501817715680776,0.501817715680776,0.,0.,0.;                   135P    211
126,4,2,0,0,0,0,0.,0.,0.,1.5707963267949,1.5707963267949,            137P    212
3.14159265358979,3.14159265358979,3.14159265358979,1.,               137P    213
0.707106781186547,1.,0.707106781186548,1.,3.5,6.05,0.,3.5,6.05,      137P    214
3.5,-5.4551139148204D-16,6.05,3.5,-3.5,6.05,3.5,-3.5,6.05,           137P    215
4.28626379701574D-16,0.,3.14159265358979,0.,0.,0.;                   137P    216
126,4,2,0,0,0,0,3.14159265358979,3.14159265358979,                   139P    217
3.14159265358979,4.71238898038469,4.71238898038469,                  139P    218
6.28318530717959,6.28318530717959,6.28318530717959,1.,               139P    219
0.707106781186548,1.,0.707106781186548,1.,-3.5,6.05,                 139P    220
4.28626379701574D-16,-3.5,6.05,-3.5,-1.40276415088519D-15,6.05,      139P    221
-3.5,3.5,6.05,-3.5,3.5,6.05,-8.57252759403147D-16,                   139P    222
3.14159265358979,6.28318530717959,0.,0.,0.;                          139P    223
126,4,2,0,0,0,0,0.,0.,0.,1.5707963267949,1.5707963267949,            141P    224
3.14159265358979,3.14159265358979,3.14159265358979,1.,               141P    225
0.707106781186548,1.,0.707106781186548,1.,3.5,-3.95,0.,3.5,          141P    226
-3.95,3.5,7.10397007415195D-16,-3.95,3.5,-3.5,-3.95,3.5,-3.5,        141P    227
-3.95,4.28626379701574D-16,0.,3.14159265358979,0.,0.,0.;             141P    228
126,4,2,0,0,0,0,3.14159265358979,3.14159265358979,                   143P    229
3.14159265358979,4.71238898038469,4.71238898038469,                  143P    230
6.28318530717959,6.28318530717959,6.28318530717959,1.,               143P    231
0.707106781186548,1.,0.707106781186548,1.,-3.5,-3.95,                143P    232
4.28626379701574D-16,-3.5,-3.95,-3.5,-1.46855751987952D-16,          143P    233
-3.95,-3.5,3.5,-3.95,-3.5,3.5,-3.95,-8.57252759403147D-16,           143P    234
3.14159265358979,6.28318530717959,0.,0.,0.;                          143P    235
126,1,1,0,0,1,0,-1.42857142857143,-1.42857142857143,                 145P    236
1.42857142857143,1.42857142857143,1.,1.,-3.5,-3.95,0.,-3.5,6.05,     145P    237
0.,-1.42857142857143,1.42857142857143,0.,0.,0.;                      145P    238
126,4,2,0,0,0,0,0.,0.,0.,1.5707963267949,1.5707963267949,            147P    239
3.14159265358979,3.14159265358979,3.14159265358979,1.,               147P    240
0.707106781186548,1.,0.707106781186548,1.,1.475,-3.95,0.,1.475,      147P    241
-3.95,1.475,5.86401519001525D-16,-3.95,1.475,-1.475,-3.95,1.475,     147P    242
-1.475,-3.95,1.80635402874235D-16,0.,3.14159265358979,0.,0.,0.;      147P    243
126,4,2,0,0,0,0,3.14159265358979,3.14159265358979,                   149P    244
3.14159265358979,4.71238898038469,4.71238898038469,                  149P    245
6.28318530717959,6.28318530717959,6.28318530717959,1.,               149P    246
0.707106781186548,1.,0.707106781186547,1.,-1.475,-3.95,              149P    247
1.80635402874235D-16,-1.475,-3.95,-1.475,2.25130713253056D-16,       149P    248
-3.95,-1.475,1.475,-3.95,-1.475,1.475,-3.95,                         149P    249
-3.61270805748469D-16,3.14159265358979,6.28318530717959,0.,0.,       149P    250
0.;                                                                  149P    251
126,4,2,0,0,0,0,0.,0.,0.,1.5707963267949,1.5707963267949,            151P    252
3.14159265358979,3.14159265358979,3.14159265358979,1.,               151P    253
0.707106781186548,1.,0.707106781186548,1.,1.475,-6.05,0.,1.475,      151P    254
-6.05,1.475,8.50142282769945D-16,-6.05,1.475,-1.475,-6.05,1.475,     151P    255
-1.475,-6.05,1.80635402874235D-16,0.,3.14159265358979,0.,0.,0.;      151P    256
126,4,2,0,0,0,0,3.14159265358979,3.14159265358979,                   153P    257
3.14159265358979,4.71238898038469,4.71238898038469,                  153P    258
6.28318530717959,6.28318530717959,6.28318530717959,1.,               153P    259
0.707106781186548,1.,0.707106781186547,1.,-1.475,-6.05,              153P    260
1.80635402874235D-16,-1.475,-6.05,-1.475,4.88871477021476D-16,       153P    261
-6.05,-1.475,1.475,-6.05,-1.475,1.475,-6.05,                         153P    262
-3.61270805748469D-16,3.14159265358979,6.28318530717959,0.,0.,       153P    263
0.;                                                                  153P    264
126,1,1,0,0,1,0,-0.711864406779661,-0.711864406779661,               155P    265
0.711864406779661,0.711864406779661,1.,1.,-1.475,-6.05,0.,           155P    266
-1.475,-3.95,0.,-0.711864406779661,0.711864406779661,0.,0.,0.;       155P    267
128,1,8,1,2,0,1,0,0,1,-0.0614875461901342,-0.0614875461901342,       157P    268
0.0614875461901349,0.0614875461901349,-3.14159265358979,             157P    269
-3.14159265358979,-3.14159265358979,-1.5707963267949,                157P    270
-1.5707963267949,0.,0.,1.5707963267949,1.5707963267949,              157P    271
3.14159265358979,3.14159265358979,3.14159265358979,1.,1.,            157P    272
0.707106781186548,0.707106781186548,1.,1.,0.707106781186548,         157P    273
0.707106781186548,1.,1.,0.707106781186548,0.707106781186548,1.,      157P    274
1.,0.707106781186548,0.707106781186548,1.,1.,2.75,-11.05,0.,3.,      157P    275
-10.8,0.,2.75,-11.05,2.75,3.,-10.8,3.,1.38777878078145D-15,          157P    276
-11.05,2.75,1.35638107080901D-15,-10.8,3.,-2.75,-11.05,2.75,-3.,     157P    277
-10.8,3.,-2.75,-11.05,0.,-3.,-10.8,0.,-2.75,-11.05,-2.75,-3.,        157P    278
-10.8,-3.,1.38777878078145D-15,-11.05,-2.75,                         157P    279
1.35638107080901D-15,-10.8,-3.,2.75,-11.05,-2.75,3.,-10.8,-3.,       157P    280
2.75,-11.05,0.,3.,-10.8,0.,-0.0614875461901342,                      157P    281
0.0614875461901349,-3.14159265358979,3.14159265358979;               157P    282
128,1,1,1,1,0,0,1,0,0,-0.276,-0.276,0.276,0.276,-0.276,-0.276,       159P    283
0.276,0.276,1.,1.,1.,1.,-2.76,-11.05,2.76,-2.76,-11.05,-2.76,        159P    284
2.76,-11.05,2.76,2.76,-11.05,-2.76,-0.276,0.276,-0.276,0.276;        159P    285
128,1,8,1,2,0,1,0,0,1,-0.833333333333334,-0.833333333333334,         161P    286
0.750000000000001,0.750000000000001,-3.14159265358979,               161P    287
-3.14159265358979,-3.14159265358979,-1.5707963267949,                161P    288
-1.5707963267949,0.,0.,1.5707963267949,1.5707963267949,              161P    289
3.14159265358979,3.14159265358979,3.14159265358979,1.,1.,            161P    290
0.707106781186548,0.707106781186548,1.,1.,0.707106781186548,         161P    291
0.707106781186548,1.,1.,0.707106781186548,0.707106781186548,1.,      161P    292
1.,0.707106781186548,0.707106781186548,1.,1.,-3.,-10.8,0.,-3.,       161P    293
-6.05,0.,-3.,-10.8,-3.,-3.,-6.05,-3.,1.35638107080901D-15,-10.8,     161P    294
-3.,7.59824581332828D-16,-6.05,-3.,3.,-10.8,-3.,3.,-6.05,-3.,3.,     161P    295
-10.8,0.,3.,-6.05,0.,3.,-10.8,3.,3.,-6.05,3.,                        161P    296
1.35638107080901D-15,-10.8,3.,7.59824581332828D-16,-6.05,3.,-3.,     161P    297
-10.8,3.,-3.,-6.05,3.,-3.,-10.8,0.,-3.,-6.05,0.,                     161P    298
-0.833333333333334,0.750000000000001,-3.14159265358979,              161P    299
3.14159265358979;                                                    161P    300
128,1,8,1,2,0,1,0,0,1,-0.157134840263676,-0.157134840263676,         163P    301
0.157134840263676,0.157134840263676,-3.14159265358979,               163P    302
-3.14159265358979,-3.14159265358979,-1.5707963267949,                163P    303
-1.5707963267949,0.,0.,1.5707963267949,1.5707963267949,              163P    304
3.14159265358979,3.14159265358979,3.14159265358979,1.,1.,            163P    305
0.707106781186548,0.707106781186548,1.,1.,0.707106781186548,         163P    306
0.707106781186548,1.,1.,0.707106781186548,0.707106781186548,1.,      163P    307
1.,0.707106781186548,0.707106781186548,1.,1.,                        163P    308
3.85185988877447D-33,-10.8,-1.,3.13977099724308D-17,-11.05,          163P    309
-1.25,1.,-10.8,-1.,1.25,-11.05,-1.25,1.,-10.8,                       163P    310
3.85185988877447D-33,1.25,-11.05,-3.85185988877447D-33,1.,-10.8,     163P    311
1.,1.25,-11.05,1.25,-3.85185988877447D-33,-10.8,1.,                  163P    312
3.13977099724308D-17,-11.05,1.25,-1.,-10.8,1.,-1.25,-11.05,1.25,     163P    313
-1.,-10.8,-3.85185988877447D-33,-1.25,-11.05,                        163P    314
3.85185988877447D-33,-1.,-10.8,-1.,-1.25,-11.05,-1.25,               163P    315
3.85185988877447D-33,-10.8,-1.,3.13977099724308D-17,-11.05,          163P    316
-1.25,-0.157134840263676,0.157134840263676,-3.14159265358979,        163P    317
3.14159265358979;                                                    163P    318
128,1,8,1,2,0,1,0,0,1,-7.74999999999997,-7.74999999999997,           165P    319
7.99999999999997,7.99999999999997,-3.14159265358979,                 165P    320
-3.14159265358979,-3.14159265358979,-1.5707963267949,                165P    321
-1.5707963267949,0.,0.,1.5707963267949,1.5707963267949,              165P    322
3.14159265358979,3.14159265358979,3.14159265358979,1.,1.,            165P    323
0.707106781186548,0.707106781186548,1.,1.,0.707106781186548,         165P    324
0.707106781186548,1.,1.,0.707106781186548,0.707106781186548,1.,      165P    325
1.,0.707106781186548,0.707106781186548,1.,1.,0.,-10.8,1.,0.,         165P    326
4.95,1.,1.,-10.8,1.,1.,4.95,1.,1.,-10.8,0.,1.,4.95,0.,1.,-10.8,      165P    327
-1.,1.,4.95,-1.,0.,-10.8,-1.,0.,4.95,-1.,-1.,-10.8,-1.,-1.,4.95,     165P    328
-1.,-1.,-10.8,0.,-1.,4.95,0.,-1.,-10.8,1.,-1.,4.95,1.,0.,-10.8,      165P    329
1.,0.,4.95,1.,-7.74999999999997,7.99999999999997,                    165P    330
-3.14159265358979,3.14159265358979;                                  165P    331
128,1,8,1,2,0,1,0,0,1,-0.0794502001333197,-0.0794502001333197,       167P    332
0.0794502001333199,0.0794502001333199,-3.14159265358979,             167P    333
-3.14159265358979,-3.14159265358979,-1.5707963267949,                167P    334
-1.5707963267949,0.,0.,1.5707963267949,1.5707963267949,              167P    335
3.14159265358979,3.14159265358979,3.14159265358979,1.,1.,            167P    336
0.707106781186548,0.707106781186548,1.,1.,0.707106781186548,         167P    337
0.707106781186548,1.,1.,0.707106781186548,0.707106781186548,1.,      167P    338
1.,0.707106781186548,0.707106781186548,1.,1.,                        167P    339
3.85185988877447D-33,10.8,-2.1,-3.13977099724307D-17,11.05,          167P    340
-2.35,-2.1,10.8,-2.1,-2.35,11.05,-2.35,-2.1,10.8,                    167P    341
-3.85185988877447D-33,-2.35,11.05,-1.92592994438724D-32,-2.1,        167P    342
10.8,2.1,-2.35,11.05,2.35,-3.85185988877447D-33,10.8,2.1,            167P    343
-3.13977099724308D-17,11.05,2.35,2.1,10.8,2.1,2.35,11.05,2.35,       167P    344
2.1,10.8,3.85185988877447D-33,2.35,11.05,1.92592994438724D-32,       167P    345
2.1,10.8,-2.1,2.35,11.05,-2.35,3.85185988877447D-33,10.8,-2.1,       167P    346
-3.13977099724307D-17,11.05,-2.35,-0.0794502001333197,               167P    347
0.0794502001333199,-3.14159265358979,3.14159265358979;               167P    348
128,1,1,1,1,0,0,1,0,0,-0.276,-0.276,0.276,0.276,-0.576,-0.576,       169P    349
-0.0239999999999999,-0.0239999999999999,1.,1.,1.,1.,-2.76,11.05,     169P    350
-2.76,-2.76,11.05,2.76,2.76,11.05,-2.76,2.76,11.05,2.76,-0.276,      169P    351
0.276,-0.576,-0.0239999999999999;                                    169P    352
128,1,8,1,2,0,1,0,0,1,-1.19047619047619,-1.19047619047619,           171P    353
1.07142857142857,1.07142857142857,-3.14159265358979,                 171P    354
-3.14159265358979,-3.14159265358979,-1.5707963267949,                171P    355
-1.5707963267949,0.,0.,1.5707963267949,1.5707963267949,              171P    356
3.14159265358979,3.14159265358979,3.14159265358979,1.,1.,            171P    357
0.707106781186548,0.707106781186548,1.,1.,0.707106781186548,         171P    358
0.707106781186548,1.,1.,0.707106781186548,0.707106781186548,1.,      171P    359
1.,0.707106781186548,0.707106781186548,1.,1.,0.,6.05,2.1,0.,         171P    360
10.8,2.1,2.1,6.05,2.1,2.1,10.8,2.1,2.1,6.05,0.,2.1,10.8,0.,2.1,      171P    361
6.05,-2.1,2.1,10.8,-2.1,0.,6.05,-2.1,0.,10.8,-2.1,-2.1,6.05,         171P    362
-2.1,-2.1,10.8,-2.1,-2.1,6.05,0.,-2.1,10.8,0.,-2.1,6.05,2.1,         171P    363
-2.1,10.8,2.1,0.,6.05,2.1,0.,10.8,2.1,-1.19047619047619,             171P    364
1.07142857142857,-3.14159265358979,3.14159265358979;                 171P    365
128,1,8,1,2,0,1,0,0,1,-0.0614875461901344,-0.0614875461901344,       173P    366
0.0614875461901344,0.0614875461901344,-3.14159265358979,             173P    367
-3.14159265358979,-3.14159265358979,-1.5707963267949,                173P    368
-1.5707963267949,0.,0.,1.5707963267949,1.5707963267949,              173P    369
3.14159265358979,3.14159265358979,3.14159265358979,1.,1.,            173P    370
0.707106781186548,0.707106781186548,1.,1.,0.707106781186548,         173P    371
0.707106781186548,1.,1.,0.707106781186548,0.707106781186548,1.,      173P    372
1.,0.707106781186548,0.707106781186548,1.,1.,3.,10.8,0.,2.75,        173P    373
11.05,0.,3.,10.8,3.,2.75,11.05,2.75,-1.35638107080901D-15,10.8,      173P    374
3.,-1.38777878078145D-15,11.05,2.75,-3.,10.8,3.,-2.75,11.05,         173P    375
2.75,-3.,10.8,0.,-2.75,11.05,0.,-3.,10.8,-3.,-2.75,11.05,-2.75,      173P    376
-1.35638107080901D-15,10.8,-3.,-1.38777878078145D-15,11.05,          173P    377
-2.75,3.,10.8,-3.,2.75,11.05,-2.75,3.,10.8,0.,2.75,11.05,0.,         173P    378
-0.0614875461901344,0.0614875461901344,-3.14159265358979,            173P    379
3.14159265358979;                                                    173P    380
128,1,8,1,2,0,1,0,0,1,-0.75,-0.75,0.833333333333333,                 175P    381
0.833333333333333,-3.14159265358979,-3.14159265358979,               175P    382
-3.14159265358979,-1.5707963267949,-1.5707963267949,0.,0.,           175P    383
1.5707963267949,1.5707963267949,3.14159265358979,                    175P    384
3.14159265358979,3.14159265358979,1.,1.,0.707106781186548,           175P    385
0.707106781186548,1.,1.,0.707106781186548,0.707106781186548,1.,      175P    386
1.,0.707106781186548,0.707106781186548,1.,1.,0.707106781186548,      175P    387
0.707106781186548,1.,1.,-3.,6.05,0.,-3.,10.8,0.,-3.,6.05,-3.,        175P    388
-3.,10.8,-3.,-7.59824581332828D-16,6.05,-3.,                         175P    389
-1.35638107080901D-15,10.8,-3.,3.,6.05,-3.,3.,10.8,-3.,3.,6.05,      175P    390
0.,3.,10.8,0.,3.,6.05,3.,3.,10.8,3.,-7.59824581332828D-16,6.05,      175P    391
3.,-1.35638107080901D-15,10.8,3.,-3.,6.05,3.,-3.,10.8,3.,-3.,        175P    392
6.05,0.,-3.,10.8,0.,-0.75,0.833333333333333,-3.14159265358979,       175P    393
3.14159265358979;                                                    175P    394
128,1,8,1,2,0,1,0,0,1,-0.501817715680776,-0.501817715680776,         177P    395
0.501817715680776,0.501817715680776,-3.14159265358979,               177P    396
-3.14159265358979,-3.14159265358979,-1.5707963267949,                177P    397
-1.5707963267949,0.,0.,1.5707963267949,1.5707963267949,              177P    398
3.14159265358979,3.14159265358979,3.14159265358979,1.,1.,            177P    399
0.707106781186548,0.707106781186548,1.,1.,0.707106781186548,         177P    400
0.707106781186548,1.,1.,0.707106781186548,0.707106781186548,1.,      177P    401
1.,0.707106781186548,0.707106781186548,1.,1.,0.,4.95,1.,0.,6.05,     177P    402
2.1,1.,4.95,1.,2.1,6.05,2.1,1.,4.95,0.,2.1,6.05,0.,1.,4.95,-1.,      177P    403
2.1,6.05,-2.1,0.,4.95,-1.,0.,6.05,-2.1,-1.,4.95,-1.,-2.1,6.05,       177P    404
-2.1,-1.,4.95,0.,-2.1,6.05,0.,-1.,4.95,1.,-2.1,6.05,2.1,0.,4.95,     177P    405
1.,0.,6.05,2.1,-0.501817715680776,0.501817715680776,                 177P    406
-3.14159265358979,3.14159265358979;                                  177P    407
128,1,1,1,1,0,0,1,0,0,-0.351,-0.351,0.351,0.351,-0.701,-0.701,       179P    408
0.001,0.001,1.,1.,1.,1.,-3.51,6.05,-3.51,-3.51,6.05,3.51,3.51,       179P    409
6.05,-3.51,3.51,6.05,3.51,-0.351,0.351,-0.701,0.001;                 179P    410
128,1,8,1,2,0,1,0,0,1,-1.42857142857143,-1.42857142857143,           181P    411
1.42857142857143,1.42857142857143,-3.14159265358979,                 181P    412
-3.14159265358979,-3.14159265358979,-1.5707963267949,                181P    413
-1.5707963267949,0.,0.,1.5707963267949,1.5707963267949,              181P    414
3.14159265358979,3.14159265358979,3.14159265358979,1.,1.,            181P    415
0.707106781186548,0.707106781186548,1.,1.,0.707106781186548,         181P    416
0.707106781186548,1.,1.,0.707106781186548,0.707106781186548,1.,      181P    417
1.,0.707106781186548,0.707106781186548,1.,1.,-3.5,-3.95,0.,-3.5,     181P    418
6.05,0.,-3.5,-3.95,-3.5,-3.5,6.05,-3.5,4.96083817564409D-16,         181P    419
-3.95,-3.5,-7.59824581332827D-16,6.05,-3.5,3.5,-3.95,-3.5,3.5,       181P    420
6.05,-3.5,3.5,-3.95,0.,3.5,6.05,0.,3.5,-3.95,3.5,3.5,6.05,3.5,       181P    421
4.96083817564409D-16,-3.95,3.5,-7.59824581332827D-16,6.05,3.5,       181P    422
-3.5,-3.95,3.5,-3.5,6.05,3.5,-3.5,-3.95,0.,-3.5,6.05,0.,             181P    423
-1.42857142857143,1.42857142857143,-3.14159265358979,                181P    424
3.14159265358979;                                                    181P    425
128,1,1,1,1,0,0,1,0,0,-0.351,-0.351,0.351,0.351,-0.4985,-0.4985,     183P    426
0.2035,0.2035,1.,1.,1.,1.,-3.51,-3.95,3.51,-3.51,-3.95,-3.51,        183P    427
3.51,-3.95,3.51,3.51,-3.95,-3.51,-0.351,0.351,-0.4985,0.2035;        183P    428
128,1,8,1,2,0,1,0,0,1,-0.711864406779661,-0.711864406779661,         185P    429
0.711864406779661,0.711864406779661,-3.14159265358979,               185P    430
-3.14159265358979,-3.14159265358979,-1.5707963267949,                185P    431
-1.5707963267949,0.,0.,1.5707963267949,1.5707963267949,              185P    432
3.14159265358979,3.14159265358979,3.14159265358979,1.,1.,            185P    433
0.707106781186548,0.707106781186548,1.,1.,0.707106781186548,         185P    434
0.707106781186548,1.,1.,0.707106781186548,0.707106781186548,1.,      185P    435
1.,0.707106781186548,0.707106781186548,1.,1.,-1.475,-6.05,0.,        185P    436
-1.475,-3.95,0.,-1.475,-6.05,-1.475,-1.475,-3.95,-1.475,             185P    437
7.59824581332827D-16,-6.05,-1.475,4.96083817564408D-16,-3.95,        185P    438
-1.475,1.475,-6.05,-1.475,1.475,-3.95,-1.475,1.475,-6.05,0.,         185P    439
1.475,-3.95,0.,1.475,-6.05,1.475,1.475,-3.95,1.475,                  185P    440
7.59824581332827D-16,-6.05,1.475,4.96083817564408D-16,-3.95,         185P    441
1.475,-1.475,-6.05,1.475,-1.475,-3.95,1.475,-1.475,-6.05,0.,         185P    442
-1.475,-3.95,0.,-0.711864406779661,0.711864406779661,                185P    443
-3.14159265358979,3.14159265358979;                                  185P    444
128,1,1,1,1,0,0,1,0,0,-0.301,-0.301,0.301,0.301,                     187P    445
-0.600999999999999,-0.600999999999999,0.001,0.001,1.,1.,1.,1.,       187P    446
-3.01,-6.05,-3.01,-3.01,-6.05,3.01,3.01,-6.05,-3.01,3.01,-6.05,      187P    447
3.01,-0.301,0.301,-0.600999999999999,0.001;                          187P    448
502,28,2.75,-11.05,-3.36777869765522D-16,3.,-10.8,                   189P    449
3.67394039744206D-16,-3.,-10.8,0.,1.8447855986585D-16,-11.05,        189P    450
-1.25,-3.,-6.05,0.,3.,-6.05,0.,-1.22464679914736D-16,-10.8,-1.,      189P    451
0.,-10.8,1.,0.,4.95,1.,0.,4.95,-1.,-3.19189707772059D-16,11.05,      189P    452
-2.35,2.57175827820944D-16,10.8,-2.1,0.,10.8,2.1,2.75,11.05,         189P    453
3.36777869765522D-16,0.,6.05,-2.1,0.,6.05,2.1,3.,10.8,               189P    454
-3.67394039744206D-16,-3.,10.8,0.,3.,6.05,0.,-3.,6.05,0.,3.5,        189P    455
6.05,0.,-3.5,6.05,0.,3.5,-3.95,0.,-3.5,-3.95,0.,1.475,-3.95,0.,      189P    456
-1.475,-3.95,0.,1.475,-6.05,0.,-1.475,-6.05,0.;                      189P    457
504,39,79,189,1,189,1,81,189,1,189,2,83,189,2,189,3,85,189,3,        191P    458
189,2,87,189,4,189,4,89,189,3,189,5,91,189,5,189,6,93,189,6,189,     191P    459
5,95,189,4,189,7,97,189,7,189,8,99,189,8,189,7,101,189,8,189,9,      191P    460
103,189,9,189,10,105,189,10,189,9,107,189,11,189,11,109,189,11,      191P    461
189,12,111,189,12,189,13,113,189,13,189,12,115,189,14,189,14,        191P    462
117,189,15,189,16,119,189,16,189,15,121,189,16,189,13,123,189,       191P    463
17,189,18,125,189,18,189,17,127,189,17,189,14,129,189,19,189,20,     191P    464
131,189,20,189,19,133,189,20,189,18,135,189,9,189,16,137,189,21,     191P    465
189,22,139,189,22,189,21,141,189,23,189,24,143,189,24,189,23,        191P    466
145,189,24,189,22,147,189,25,189,26,149,189,26,189,25,151,189,       191P    467
27,189,28,153,189,28,189,27,155,189,28,189,26;                       191P    468
406,1,6HSolid1;                                                      193P    469
314,67.843137254902,67.843137254902,67.843137254902,;                195P    470
S      1G      3D    196P    470                                        T      1
