                                                                        S      1
,,,8HK8800-GP,22HAutodesk Inventor 2018,7Hunknown,32,38,7,99,15,,1.,2,2HG      1
MM,1,0.08,15H20171130.093718,0.01,10000.,3HJGE,,11,0,15H20160509.092816;G      2
     186       1                                                00000000D      1
     186             -55       1       0                               0D      2
     514       2                                                00010000D      3
     514                       1       1                               0D      4
     510       3                                                00010000D      5
     510             -55       1       1                               0D      6
     510       4                                                00010000D      7
     510             -55       1       1                               0D      8
     510       5                                                00010000D      9
     510             -55       1       1                               0D     10
     510       6                                                00010000D     11
     510             -55       1       1                               0D     12
     510       7                                                00010000D     13
     510             -55       1       1                               0D     14
     508       8                                                00010000D     15
     508                       1       1                               0D     16
     508       9                                                00010000D     17
     508                       1       1                               0D     18
     508      10                                                00010000D     19
     508                       1       1                               0D     20
     508      11                                                00010000D     21
     508                       1       1                               0D     22
     508      12                                                00010000D     23
     508                       1       1                               0D     24
     126      13                                                00010000D     25
     126       0              10       0                               0D     26
     126      23                                                00010000D     27
     126       0               4       0                               0D     28
     126      27                                                00010000D     29
     126       0              10       0                               0D     30
     126      37                                                00010000D     31
     126       0              10       0                               0D     32
     126      47                                                00010000D     33
     126       0               3       0                               0D     34
     126      50                                                00010000D     35
     126       0              10       0                               0D     36
     126      60                                                00010000D     37
     126       0               3       0                               0D     38
     128      63                                                00010000D     39
     128       0     -55      18       0                               0D     40
     128      81                                                00010000D     41
     128       0     -55      14       0                               0D     42
     128      95                                                00010000D     43
     128       0     -55       4       0                               0D     44
     128      99                                                00010000D     45
     128       0     -55      14       0                               0D     46
     128     113                                                00010000D     47
     128       0     -55       4       0                               0D     48
     502     117                                                00010000D     49
     502                       3       1                               0D     50
     504     120                                                00010001D     51
     504                       2       1                               0D     52
     406     122                                                00000000D     53
     406                       1      15                               0D     54
     314     123                                                00000200D     55
     314                       1       0                               0D     56
186,3,1,0,0,1,53;                                                      1P      1
514,5,5,1,7,1,9,1,11,1,13,1;                                           3P      2
510,39,1,1,15;                                                         5P      3
510,41,1,1,17;                                                         7P      4
510,43,1,1,19;                                                         9P      5
510,45,1,1,21;                                                        11P      6
510,47,1,1,23;                                                        13P      7
508,4,0,51,1,1,0,0,51,2,1,0,0,51,3,1,0,0,51,2,0,0;                    15P      8
508,4,0,51,4,0,0,0,51,5,1,0,0,51,3,0,0,0,51,5,0,0;                    17P      9
508,1,0,51,1,0,0;                                                     19P     10
508,4,0,51,6,1,0,0,51,7,1,0,0,51,4,1,0,0,51,7,0,0;                    21P     11
508,1,0,51,6,0,0;                                                     23P     12
126,8,2,0,1,0,0,-3.14159265358979,-3.14159265358979,                  25P     13
-3.14159265358979,-1.5707963267949,-1.5707963267949,0.,0.,            25P     14
1.5707963267949,1.5707963267949,3.14159265358979,                     25P     15
3.14159265358979,3.14159265358979,1.,0.707106781186548,1.,            25P     16
0.707106781186548,1.,0.707106781186548,1.,0.707106781186548,1.,       25P     17
104.25,1.27669428811112D-14,0.,104.25,104.25,0.,                      25P     18
-6.38347144055558D-15,104.25,0.,-104.25,104.25,0.,-104.25,0.,0.,      25P     19
-104.25,-104.25,0.,-6.38347144055558D-15,-104.25,0.,104.25,           25P     20
-104.25,0.,104.25,-1.27669428811112D-14,0.,-3.14159265358979,         25P     21
3.14159265358979,0.,0.,0.;                                            25P     22
126,1,1,0,0,1,0,-0.00506886581495732,-0.00506886581495732,            27P     23
0.00506886581495731,0.00506886581495731,1.,1.,104.25,0.,              27P     24
-1.11022302462516D-15,105.,0.,0.75,-0.00506886581495732,              27P     25
0.00506886581495731,0.,0.,0.;                                         27P     26
126,8,2,0,1,0,0,-3.14159265358979,-3.14159265358979,                  29P     27
-3.14159265358979,-1.5707963267949,-1.5707963267949,0.,0.,            29P     28
1.5707963267949,1.5707963267949,3.14159265358979,                     29P     29
3.14159265358979,3.14159265358979,1.,0.707106781186548,1.,            29P     30
0.707106781186548,1.,0.707106781186548,1.,0.707106781186548,1.,       29P     31
105.,-1.28587913910472D-14,0.75,105.,-105.,0.75,                      29P     32
-6.4293956955236D-15,-105.,0.75,-105.,-105.,0.75,-105.,0.,0.75,       29P     33
-105.,105.,0.75,-6.4293956955236D-15,105.,0.75,105.,105.,0.75,        29P     34
105.,1.28587913910472D-14,0.75,-3.14159265358979,                     29P     35
3.14159265358979,0.,0.,0.;                                            29P     36
126,8,2,0,1,0,0,-3.14159265358979,-3.14159265358979,                  31P     37
-3.14159265358979,-1.5707963267949,-1.5707963267949,0.,0.,            31P     38
1.5707963267949,1.5707963267949,3.14159265358979,                     31P     39
3.14159265358979,3.14159265358979,1.,0.707106781186548,1.,            31P     40
0.707106781186548,1.,0.707106781186548,1.,0.707106781186548,1.,       31P     41
105.,1.28587913910472D-14,3.25,105.,105.,3.25,                        31P     42
-6.4293956955236D-15,105.,3.25,-105.,105.,3.25,-105.,0.,3.25,         31P     43
-105.,-105.,3.25,-6.4293956955236D-15,-105.,3.25,105.,-105.,          31P     44
3.25,105.,-1.28587913910472D-14,3.25,-3.14159265358979,               31P     45
3.14159265358979,0.,0.,0.;                                            31P     46
126,1,1,0,0,1,0,-0.030952380952381,-0.030952380952381,                33P     47
-0.00714285714285714,-0.00714285714285714,1.,1.,105.,0.,3.25,         33P     48
105.,0.,0.75,-0.030952380952381,-0.00714285714285714,0.,0.,0.;        33P     49
126,8,2,0,1,0,0,-3.14159265358979,-3.14159265358979,                  35P     50
-3.14159265358979,-1.5707963267949,-1.5707963267949,0.,0.,            35P     51
1.5707963267949,1.5707963267949,3.14159265358979,                     35P     52
3.14159265358979,3.14159265358979,1.,0.707106781186548,1.,            35P     53
0.707106781186548,1.,0.707106781186548,1.,0.707106781186548,1.,       35P     54
104.25,-1.27669428811112D-14,4.,104.25,-104.25,4.,                    35P     55
-6.38347144055558D-15,-104.25,4.,-104.25,-104.25,4.,-104.25,0.,       35P     56
4.,-104.25,104.25,4.,-6.38347144055558D-15,104.25,4.,104.25,          35P     57
104.25,4.,104.25,1.27669428811112D-14,4.,-3.14159265358979,           35P     58
3.14159265358979,0.,0.,0.;                                            35P     59
126,1,1,0,0,1,0,-0.00506886581495732,-0.00506886581495732,            37P     60
0.00506886581495731,0.00506886581495731,1.,1.,104.25,0.,4.,105.,      37P     61
0.,3.25,-0.00506886581495732,0.00506886581495731,0.,0.,0.;            37P     62
128,1,8,1,2,0,1,0,0,1,-0.00506886581495731,-0.00506886581495731,      39P     63
0.00506886581495732,0.00506886581495732,-3.14159265358979,            39P     64
-3.14159265358979,-3.14159265358979,-1.5707963267949,                 39P     65
-1.5707963267949,0.,0.,1.5707963267949,1.5707963267949,               39P     66
3.14159265358979,3.14159265358979,3.14159265358979,1.,1.,             39P     67
0.707106781186548,0.707106781186548,1.,1.,0.707106781186548,          39P     68
0.707106781186548,1.,1.,0.707106781186548,0.707106781186548,1.,       39P     69
1.,0.707106781186548,0.707106781186548,1.,1.,104.25,0.,               39P     70
-1.11022302462516D-15,105.,0.,0.75,104.25,-104.25,                    39P     71
-1.11022302462516D-15,105.,-105.,0.75,0.,-104.25,                     39P     72
-1.11022302462516D-15,0.,-105.,0.75,-104.25,-104.25,                  39P     73
-1.11022302462516D-15,-105.,-105.,0.75,-104.25,0.,                    39P     74
-1.11022302462516D-15,-105.,0.,0.75,-104.25,104.25,                   39P     75
-1.11022302462516D-15,-105.,105.,0.75,0.,104.25,                      39P     76
-1.11022302462516D-15,0.,105.,0.75,104.25,104.25,                     39P     77
-1.11022302462516D-15,105.,105.,0.75,104.25,0.,                       39P     78
-1.11022302462516D-15,105.,0.,0.75,-0.00506886581495731,              39P     79
0.00506886581495732,-3.14159265358979,3.14159265358979;               39P     80
128,1,8,1,2,0,1,0,0,1,0.00714285714285714,0.00714285714285714,        41P     81
0.030952380952381,0.030952380952381,-3.14159265358979,                41P     82
-3.14159265358979,-3.14159265358979,-1.5707963267949,                 41P     83
-1.5707963267949,0.,0.,1.5707963267949,1.5707963267949,               41P     84
3.14159265358979,3.14159265358979,3.14159265358979,1.,1.,             41P     85
0.707106781186548,0.707106781186548,1.,1.,0.707106781186548,          41P     86
0.707106781186548,1.,1.,0.707106781186548,0.707106781186548,1.,       41P     87
1.,0.707106781186548,0.707106781186548,1.,1.,105.,0.,3.25,105.,       41P     88
0.,0.75,105.,105.,3.25,105.,105.,0.75,0.,105.,3.25,0.,105.,0.75,      41P     89
-105.,105.,3.25,-105.,105.,0.75,-105.,0.,3.25,-105.,0.,0.75,          41P     90
-105.,-105.,3.25,-105.,-105.,0.75,0.,-105.,3.25,0.,-105.,0.75,        41P     91
105.,-105.,3.25,105.,-105.,0.75,105.,0.,3.25,105.,0.,0.75,            41P     92
0.00714285714285714,0.030952380952381,-3.14159265358979,              41P     93
3.14159265358979;                                                     41P     94
128,1,1,1,1,0,0,1,0,0,-10.426,-10.426,10.426,10.426,-10.426,          43P     95
-10.426,10.426,10.426,1.,1.,1.,1.,104.26,-104.26,0.,-104.26,          43P     96
-104.26,0.,104.26,104.26,0.,-104.26,104.26,0.,-10.426,10.426,         43P     97
-10.426,10.426;                                                       43P     98
128,1,8,1,2,0,1,0,0,1,-0.00506886581495731,-0.00506886581495731,      45P     99
0.00506886581495732,0.00506886581495732,-3.14159265358979,            45P    100
-3.14159265358979,-3.14159265358979,-1.5707963267949,                 45P    101
-1.5707963267949,0.,0.,1.5707963267949,1.5707963267949,               45P    102
3.14159265358979,3.14159265358979,3.14159265358979,1.,1.,             45P    103
0.707106781186548,0.707106781186548,1.,1.,0.707106781186548,          45P    104
0.707106781186548,1.,1.,0.707106781186548,0.707106781186548,1.,       45P    105
1.,0.707106781186548,0.707106781186548,1.,1.,104.25,0.,4.,105.,       45P    106
0.,3.25,104.25,104.25,4.,105.,105.,3.25,0.,104.25,4.,0.,105.,         45P    107
3.25,-104.25,104.25,4.,-105.,105.,3.25,-104.25,0.,4.,-105.,0.,        45P    108
3.25,-104.25,-104.25,4.,-105.,-105.,3.25,0.,-104.25,4.,0.,-105.,      45P    109
3.25,104.25,-104.25,4.,105.,-105.,3.25,104.25,0.,4.,105.,0.,          45P    110
3.25,-0.00506886581495731,0.00506886581495732,-3.14159265358979,      45P    111
3.14159265358979;                                                     45P    112
128,1,1,1,1,0,0,1,0,0,-10.426,-10.426,10.426,10.426,-10.426,          47P    113
-10.426,10.426,10.426,1.,1.,1.,1.,-104.26,-104.26,4.,104.26,          47P    114
-104.26,4.,-104.26,104.26,4.,104.26,104.26,4.,-10.426,10.426,         47P    115
-10.426,10.426;                                                       47P    116
502,4,104.25,1.27669428811112D-14,0.,105.,-1.28587913910472D-14,      49P    117
0.75,105.,1.28587913910472D-14,3.25,104.25,                           49P    118
-1.27669428811112D-14,4.;                                             49P    119
504,7,25,49,1,49,1,27,49,1,49,2,29,49,2,49,2,31,49,3,49,3,33,49,      51P    120
3,49,2,35,49,4,49,4,37,49,4,49,3;                                     51P    121
406,1,6HSolid1;                                                       53P    122
314,92.5490196078431,94.5098039215686,93.7254901960784,;              55P    123
S      1G      2D     56P    123                                        T      1
