                                                                        S      1
,,,12HK8800-MAGNET,22HAutodesk Inventor 2018,7Hunknown,32,38,7,99,15,,  G      1
1.,2,2HMM,1,0.08,15H20171130.095211,0.01,10000.,3HJGE,,11,0,15H20160509.G      2
143311;                                                                 G      3
     186       1                                                00000000D      1
     186             -19       1       0                               0D      2
     514       2                                                00010000D      3
     514                       1       1                               0D      4
     510       3                                                00010000D      5
     510             -19       1       1                               0D      6
     508       4                                                00010000D      7
     508                       1       1                               0D      8
     126       5                                                00010000D      9
     126       0               6       0                               0D     10
     128      11                                                00010000D     11
     128       0     -19      34       0                               0D     12
     502      45                                                00010000D     13
     502                       1       1                               0D     14
     504      46                                                00010001D     15
     504                       1       1                               0D     16
     406      47                                                00000000D     17
     406                       1      15                               0D     18
     314      48                                                00000200D     19
     314                       1       0                               0D     20
186,3,1,0,0,1,17;                                                      1P      1
514,1,5,1;                                                             3P      2
510,11,1,1,7;                                                          5P      3
508,2,0,15,1,1,0,0,15,1,0,0;                                           7P      4
126,4,2,0,0,0,0,-1.5707963267949,-1.5707963267949,                     9P      5
-1.5707963267949,0.,0.,1.5707963267949,1.5707963267949,                9P      6
1.5707963267949,1.,0.707106781186548,1.,0.707106781186548,1.,          9P      7
-3.06161699786838D-16,0.,5.,-5.,0.,5.,-5.,0.,0.,-5.,0.,-5.,            9P      8
-3.06161699786838D-16,0.,-5.,-1.5707963267949,1.5707963267949,         9P      9
0.,0.,0.;                                                              9P     10
128,4,8,2,2,0,1,0,0,1,-1.5707963267949,-1.5707963267949,              11P     11
-1.5707963267949,0.,0.,1.5707963267949,1.5707963267949,               11P     12
1.5707963267949,-3.14159265358979,-3.14159265358979,                  11P     13
-3.14159265358979,-1.5707963267949,-1.5707963267949,0.,0.,            11P     14
1.5707963267949,1.5707963267949,3.14159265358979,                     11P     15
3.14159265358979,3.14159265358979,1.,0.707106781186548,1.,            11P     16
0.707106781186548,1.,0.707106781186548,0.500000000000001,             11P     17
0.707106781186548,0.500000000000001,0.707106781186548,1.,             11P     18
0.707106781186548,1.,0.707106781186548,1.,0.707106781186548,          11P     19
0.500000000000001,0.707106781186548,0.500000000000001,                11P     20
0.707106781186548,1.,0.707106781186548,1.,0.707106781186548,1.,       11P     21
0.707106781186548,0.500000000000001,0.707106781186548,                11P     22
0.500000000000001,0.707106781186548,1.,0.707106781186548,1.,          11P     23
0.707106781186548,1.,0.707106781186548,0.500000000000001,             11P     24
0.707106781186548,0.500000000000001,0.707106781186548,1.,             11P     25
0.707106781186548,1.,0.707106781186548,1.,-3.06161699786838D-16,      11P     26
0.,5.,-5.,0.,5.,-5.,0.,0.,-5.,0.,-5.,-3.06161699786838D-16,0.,        11P     27
-5.,-3.06161699786838D-16,-3.06161699786838D-16,5.,-5.,-5.,5.,        11P     28
-5.,-5.,0.,-5.,-5.,-5.,-3.06161699786838D-16,                         11P     29
-3.06161699786838D-16,-5.,0.,-3.06161699786838D-16,5.,0.,-5.,5.,      11P     30
0.,-5.,0.,0.,-5.,-5.,0.,-3.06161699786838D-16,-5.,                    11P     31
3.06161699786838D-16,-3.06161699786838D-16,5.,5.,-5.,5.,5.,-5.,       11P     32
0.,5.,-5.,-5.,3.06161699786838D-16,-3.06161699786838D-16,-5.,         11P     33
3.06161699786838D-16,0.,5.,5.,0.,5.,5.,0.,0.,5.,0.,-5.,               11P     34
3.06161699786838D-16,0.,-5.,3.06161699786838D-16,                     11P     35
3.06161699786838D-16,5.,5.,5.,5.,5.,5.,0.,5.,5.,-5.,                  11P     36
3.06161699786838D-16,3.06161699786838D-16,-5.,0.,                     11P     37
3.06161699786838D-16,5.,0.,5.,5.,0.,5.,0.,0.,5.,-5.,0.,               11P     38
3.06161699786838D-16,-5.,-3.06161699786838D-16,                       11P     39
3.06161699786838D-16,5.,-5.,5.,5.,-5.,5.,0.,-5.,5.,-5.,               11P     40
-3.06161699786838D-16,3.06161699786838D-16,-5.,                       11P     41
-3.06161699786838D-16,0.,5.,-5.,0.,5.,-5.,0.,0.,-5.,0.,-5.,           11P     42
-3.06161699786838D-16,0.,-5.,-1.5707963267949,1.5707963267949,        11P     43
-3.14159265358979,3.14159265358979;                                   11P     44
502,2,-3.06161699786838D-16,0.,5.,-3.06161699786838D-16,0.,-5.;       13P     45
504,1,9,13,1,13,2;                                                    15P     46
406,1,6HSolid1;                                                       17P     47
314,95.6862745098039,95.6862745098039,95.6862745098039,;              19P     48
S      1G      3D     20P     48                                        T      1
